<svg viewBox="0 0 48 40" fill="none" xmlns="http://www.w3.org/2000/svg">
<g clip-path="url(#clip0)">
<path d="M18.8307 22.0989C19.0052 18.9855 20.5298 16.2424 22.83 14.298C25.0856 12.3881 28.1217 11.2207 31.4344 11.2207C34.7438 11.2207 37.7799 12.3881 40.0372 14.298C42.3357 16.2424 43.8603 18.9855 44.0365 22.0956C44.211 25.2947 42.9251 28.2666 40.6695 30.4696C38.3693 32.7104 35.0978 34.1165 31.4344 34.1165C27.771 34.1165 24.4929 32.7104 22.1944 30.4696C19.9371 28.2666 18.6545 25.2947 18.8307 22.0989Z" fill="white"/>
<path d="M24.9689 22.3769C25.0585 20.7793 25.8408 19.3719 27.021 18.3741C28.1784 17.3941 29.7362 16.7952 31.436 16.7952C33.1341 16.7952 34.6919 17.3941 35.8502 18.3741C37.0296 19.3719 37.8119 20.7793 37.9023 22.3752C37.9918 24.0167 37.332 25.5416 36.1746 26.6719C34.9944 27.8217 33.3157 28.5432 31.436 28.5432C29.5563 28.5432 27.8743 27.8217 26.6949 26.6719C25.5367 25.5416 24.8785 24.0167 24.9689 22.3769Z" fill="#265787"/>
<path d="M14.702 25.6586C14.713 26.2851 14.9128 27.5026 15.2125 28.4533C15.8424 30.4657 16.9109 32.3275 18.3975 33.9682C19.9232 35.6547 21.8018 37.0093 23.9717 37.9711C26.2526 38.9811 28.7239 39.4959 31.2908 39.4917C33.8536 39.4883 36.3249 38.9633 38.6057 37.9457C40.7756 36.9746 42.6526 35.6141 44.1757 33.9268C45.6615 32.2792 46.7282 30.4141 47.3598 28.4017C47.6773 27.3849 47.878 26.3528 47.9584 25.3174C48.0371 24.2972 48.0041 23.2753 47.8593 22.2543C47.5766 20.2647 46.8883 18.3979 45.8283 16.6962C44.8589 15.1325 43.6093 13.7635 42.1234 12.6112L42.1268 12.6087L27.1322 1.09539C27.1187 1.08523 27.1077 1.07423 27.0933 1.06492C26.1095 0.309723 24.4552 0.312263 23.3732 1.06915C22.2793 1.8345 22.154 3.10021 23.1277 3.89858L23.1234 3.90281L29.3775 8.9885L10.3156 9.00882H10.2902C8.71467 9.01051 7.20005 10.0442 6.90035 11.3506C6.59218 12.6815 7.66231 13.7855 9.30054 13.7914L9.298 13.7973L18.9597 13.7787L1.71899 27.0124C1.69698 27.0284 1.67327 27.0454 1.65295 27.0615C0.0265793 28.3068 -0.499176 30.3777 0.525243 31.6883C1.5649 33.0209 3.77545 33.0234 5.41875 31.6959L14.8282 23.995C14.8282 23.995 14.691 25.0346 14.702 25.6586ZM38.8809 29.1399C36.9421 31.1151 34.2278 32.2352 31.2908 32.2411C28.3497 32.2462 25.6354 31.1363 23.6966 29.1645C22.7492 28.2036 22.0533 27.0979 21.624 25.9202C21.2033 24.7629 21.0399 23.5344 21.1482 22.2949C21.2507 21.0834 21.6113 19.9278 22.1871 18.8822C22.7526 17.8544 23.5315 16.9256 24.4933 16.14C26.3779 14.6042 28.7772 13.7728 31.2866 13.7694C33.7985 13.766 36.1962 14.5898 38.0825 16.1205C39.0426 16.9028 39.8206 17.8281 40.3862 18.8543C40.9644 19.899 41.3225 21.0504 41.4292 22.2653C41.5359 23.5031 41.3725 24.7298 40.9517 25.888C40.5216 27.0691 39.8282 28.1748 38.8809 29.1399Z" fill="#EA7600"/>
</g>
<defs>
<clipPath id="clip0">
<rect width="48" height="39" fill="white" transform="translate(0 0.5)"/>
</clipPath>
</defs>
</svg>
