<svg viewBox="0 0 24 25" fill="none" xmlns="http://www.w3.org/2000/svg">
<g clip-path="url(#clip0)">
<path d="M11.8272 14.9626C13.4112 14.9626 14.6953 13.6785 14.6953 12.0944C14.6953 10.5104 13.4112 9.22632 11.8272 9.22632C10.2432 9.22632 8.95911 10.5104 8.95911 12.0944C8.95911 13.6785 10.2432 14.9626 11.8272 14.9626Z" fill="#343434"/>
<path d="M0.112803 9.05359C0.112803 9.08814 0.0782471 9.15726 0.0782471 9.19181C0.0782471 9.50281 0.320137 9.77926 0.665694 9.77926H5.53804C5.77993 9.77926 5.95271 9.64104 6.05638 9.4337C7.05849 7.22214 9.27006 5.73624 11.7926 5.73624C15.2827 5.73624 18.1163 8.56981 18.1163 12.0599C18.1163 15.5501 15.2827 18.3836 11.7926 18.3836C9.2355 18.3836 7.05849 16.8632 6.05638 14.7207C5.95271 14.4788 5.77993 14.3406 5.53804 14.3406H0.665694C0.354693 14.3406 0.0782471 14.5825 0.0782471 14.9281C0.0782471 14.9626 0.0782471 15.0317 0.112803 15.0663C1.46047 20.3187 6.1946 24.189 11.8272 24.189C18.4964 24.189 23.9217 18.7637 23.9217 12.0945C23.9217 5.42524 18.4964 0 11.8272 0C6.1946 0 1.46047 3.87024 0.112803 9.05359Z" fill="#343434"/>
</g>
<defs>
<clipPath id="clip0">
<rect width="24" height="24.2812" fill="white"/>
</clipPath>
</defs>
</svg>
