<svg viewBox="0 0 30 30" fill="none" xmlns="http://www.w3.org/2000/svg">
<rect width="29.5734" height="29.5625" rx="14.7812" fill="white"/>
<path d="M21.1107 10.8559C21.2504 10.7256 21.3631 10.5691 21.4423 10.3953C21.5216 10.2214 21.5658 10.0337 21.5725 9.84278C21.5792 9.65186 21.5482 9.46149 21.4813 9.28255C21.4144 9.10361 21.313 8.93959 21.1827 8.79986C21.0524 8.66014 20.8959 8.54744 20.7221 8.4682C20.5482 8.38896 20.3605 8.34474 20.1696 8.33805C19.9787 8.33137 19.7883 8.36235 19.6094 8.42924C19.4304 8.49612 19.2664 8.59759 19.1267 8.72786L14.8707 12.6959L10.9027 8.43841C10.6372 8.16647 10.2758 8.00926 9.89584 8.0004C9.51589 7.99154 9.14756 8.13174 8.86967 8.391C8.59178 8.65026 8.4264 9.00799 8.40892 9.38764C8.39144 9.76729 8.52325 10.1387 8.77614 10.4224L12.7441 14.6784L8.48668 18.6464C8.34202 18.7754 8.22458 18.9319 8.14127 19.1069C8.05796 19.2819 8.01045 19.4717 8.00154 19.6653C7.99263 19.8589 8.02249 20.0523 8.08937 20.2342C8.15625 20.4161 8.2588 20.5828 8.391 20.7245C8.5232 20.8662 8.68238 20.98 8.8592 21.0593C9.03601 21.1386 9.2269 21.1818 9.42063 21.1864C9.61437 21.1909 9.80706 21.1566 9.98738 21.0856C10.1677 21.0146 10.332 20.9083 10.4707 20.773L14.7267 16.8064L18.6947 21.0624C18.8228 21.2097 18.9793 21.3298 19.1548 21.4153C19.3303 21.5009 19.5212 21.5503 19.7162 21.5605C19.9112 21.5707 20.1062 21.5416 20.2897 21.4748C20.4732 21.408 20.6413 21.305 20.7841 21.1719C20.9269 21.0387 21.0415 20.8782 21.1209 20.6998C21.2004 20.5215 21.2431 20.3289 21.2466 20.1337C21.25 19.9385 21.2142 19.7446 21.1411 19.5635C21.068 19.3825 20.9592 19.218 20.8212 19.0799L16.8547 14.8239L21.1107 10.8559Z" fill="black"/>
</svg>
