<svg width="48" height="48" viewBox="0 0 48 48" fill="none" xmlns="http://www.w3.org/2000/svg">
<path d="M24.8099 18.9946H29.0999V23.3806H31.2689C32.2834 23.3759 33.2904 23.2073 34.2509 22.8811C34.7554 22.7141 35.241 22.4949 35.6999 22.2271C35.1129 21.4144 34.7648 20.4537 34.6949 19.4536C34.5144 17.9941 34.8892 16.5201 35.7449 15.3241L36.1949 14.8021L36.7319 15.2341C38.1559 16.2781 39.1208 17.8327 39.4244 19.5721C41.0801 19.0636 42.8696 19.2302 44.4029 20.0356L44.9924 20.3746L44.6819 20.9746C44.0538 22.032 43.126 22.8792 42.0159 23.4087C40.9058 23.9382 39.6635 24.1263 38.4464 23.9491C34.7264 33.2011 26.6399 37.5811 16.8329 37.5811C11.7659 37.5811 7.11895 35.6866 4.47145 31.1926L4.42795 31.1191L4.04995 30.3406C3.17808 28.3581 2.83741 26.1827 3.06145 24.0286L3.12145 23.3791H6.78895V18.9946H11.0804V14.7001H19.6619V10.4131H24.8099V18.9946Z" fill="#0096E6"/>
<path d="M18.009 36.8503C15.9102 35.956 14.2276 34.3007 13.299 32.2168C12.1896 32.5136 11.0506 32.6862 9.903 32.7313C9.403 32.7593 8.8805 32.7733 8.3355 32.7733C7.7035 32.7733 7.038 32.7548 6.339 32.7178C7.68865 34.123 9.32494 35.2213 11.1367 35.9379C12.9485 36.6546 14.8933 36.9729 16.839 36.8713C17.231 36.8713 17.621 36.8643 18.009 36.8503Z" fill="white"/>
<path d="M10.62 20.0189H10.92V23.1194H10.62V20.0189ZM10.056 20.0189H10.356V23.1194H10.05V20.0189H10.056ZM9.492 20.0189H9.792V23.1194H9.492V20.0189ZM8.928 20.0189H9.228V23.1194H8.928V20.0189ZM8.364 20.0189H8.664V23.1194H8.364V20.0189ZM7.812 20.0189H8.112V23.1194H7.812V20.0189ZM7.5 19.7099H11.223V23.4284H7.5V19.7099ZM11.7885 15.4184H15.5085V19.1369H11.7945L11.7885 15.4184ZM14.904 15.7289H15.204V18.8279H14.904V15.7289ZM14.34 15.7289H14.64V18.8279H14.34V15.7289ZM13.776 15.7289H14.076V18.8279H13.776V15.7289ZM13.212 15.7289H13.512V18.8279H13.212V15.7289ZM12.648 15.7289H12.948V18.8279H12.648V15.7289ZM12.096 15.7289H12.396V18.8279H12.096V15.7289ZM11.7855 19.7084H15.5055V23.4284H11.7945V19.7099L11.7855 19.7084ZM14.901 20.0189H15.201V23.1194H14.901V20.0189ZM14.337 20.0189H14.637V23.1194H14.337V20.0189ZM13.773 20.0189H14.073V23.1194H13.773V20.0189ZM13.209 20.0189H13.509V23.1194H13.209V20.0189ZM12.645 20.0189H12.945V23.1194H12.645V20.0189ZM12.093 20.0189H12.393V23.1194H12.093V20.0189ZM16.074 19.7084H19.8V23.4284H16.08V19.7099L16.074 19.7084ZM19.188 20.0189H19.5V23.1194H19.2L19.188 20.0189ZM18.624 20.0189H18.924V23.1194H18.624V20.0189ZM18.06 20.0189H18.36V23.1194H18.06V20.0189ZM17.496 20.0189H17.796V23.1194H17.496V20.0189ZM16.932 20.0189H17.232V23.1194H16.932V20.0189ZM16.38 20.0189H16.68V23.1194H16.38V20.0189ZM16.071 15.4184H19.8V19.1369H16.08V15.4184H16.071ZM19.185 15.7289H19.5V18.8279H19.2L19.185 15.7289ZM18.621 15.7289H18.921V18.8279H18.621V15.7289ZM18.057 15.7289H18.357V18.8279H18.057V15.7289ZM17.493 15.7289H17.793V18.8279H17.493V15.7289ZM16.929 15.7289H17.229V18.8279H16.929V15.7289ZM16.377 15.7289H16.677V18.8279H16.377V15.7289ZM20.358 19.7084H24.0765V23.4284H20.3565V19.7099L20.358 19.7084ZM23.472 20.0189H23.772V23.1194H23.472V20.0189ZM22.908 20.0189H23.208V23.1194H22.908V20.0189ZM22.344 20.0189H22.644V23.1194H22.344V20.0189ZM21.78 20.0189H22.08V23.1194H21.78V20.0189ZM21.216 20.0189H21.516V23.1194H21.216V20.0189ZM20.664 20.0189H20.952V23.1194H20.652V20.0189H20.664ZM20.355 15.4184H24.0735V19.1369H20.3535V15.4184H20.355ZM23.469 15.7289H23.769V18.8279H23.469V15.7289ZM22.905 15.7289H23.205V18.8279H22.905V15.7289ZM22.341 15.7289H22.641V18.8279H22.341V15.7289ZM21.777 15.7289H22.077V18.8279H21.777V15.7289ZM21.213 15.7289H21.513V18.8279H21.213V15.7289ZM20.661 15.7289H20.949V18.8279H20.649V15.7289H20.661ZM20.352 11.1284H24.0705V14.8499H20.3505V11.1284H20.352ZM23.466 11.4374H23.766V14.5364H23.466V11.4374ZM22.902 11.4374H23.202V14.5364H22.902V11.4374ZM22.338 11.4374H22.638V14.5364H22.338V11.4374ZM21.774 11.4374H22.074V14.5364H21.774V11.4374ZM21.21 11.4374H21.51V14.5364H21.21V11.4374ZM20.658 11.4374H20.946V14.5364H20.646V11.4374H20.658ZM24.639 19.7084H28.3575V23.4284H24.6375V19.7099L24.639 19.7084ZM27.753 20.0189H28.0455V23.1194H27.7455V20.0189H27.753ZM27.189 20.0189H27.498V23.1194H27.189V20.0189ZM26.625 20.0189H26.925V23.1194H26.625V20.0189ZM26.061 20.0189H26.361V23.1194H26.061V20.0189ZM25.497 20.0189H25.797V23.1194H25.4895V20.0189H25.497ZM24.945 20.0189H25.245V23.1194H24.954V20.0189H24.945Z" fill="white"/>
<path d="M15.282 29.457C15.4849 29.457 15.6833 29.5172 15.852 29.6299C16.0208 29.7427 16.1523 29.9029 16.2299 30.0904C16.3076 30.2779 16.3279 30.4842 16.2883 30.6832C16.2487 30.8822 16.151 31.065 16.0075 31.2085C15.864 31.352 15.6812 31.4497 15.4822 31.4893C15.2831 31.5289 15.0769 31.5086 14.8894 31.4309C14.7019 31.3533 14.5417 31.2218 14.4289 31.053C14.3162 30.8843 14.256 30.686 14.256 30.483C14.256 30.2109 14.3641 29.95 14.5565 29.7575C14.7489 29.5651 15.0099 29.457 15.282 29.457ZM15.282 29.748C15.3728 29.748 15.4628 29.7647 15.5475 29.7975C15.5072 29.8205 15.4728 29.8526 15.447 29.8912C15.4212 29.9297 15.4046 29.9738 15.3987 30.0198C15.3928 30.0659 15.3977 30.1126 15.4129 30.1565C15.4281 30.2003 15.4533 30.24 15.4865 30.2725C15.5197 30.305 15.5599 30.3293 15.6041 30.3435C15.6483 30.3578 15.6952 30.3616 15.7411 30.3547C15.7869 30.3478 15.8306 30.3303 15.8686 30.3036C15.9066 30.277 15.9379 30.2418 15.96 30.201C16.0212 30.3465 16.0339 30.5077 15.9964 30.6609C15.9588 30.8142 15.873 30.9513 15.7515 31.0519C15.63 31.1526 15.4794 31.2115 15.3218 31.22C15.1643 31.2284 15.0082 31.1859 14.8767 31.0988C14.7451 31.0117 14.6451 30.8846 14.5914 30.7362C14.5377 30.5879 14.5332 30.4262 14.5784 30.2751C14.6237 30.1239 14.7164 29.9914 14.8429 29.897C14.9693 29.8026 15.1227 29.7515 15.2805 29.751L15.282 29.748Z" fill="white"/>
</svg>
