<svg viewBox="0 0 48 48" fill="none" xmlns="http://www.w3.org/2000/svg">
<path d="M24 1.14285C11.376 1.14285 1.14285 11.376 1.14285 24C1.14285 36.624 11.376 46.8571 24 46.8571C36.624 46.8571 46.8571 36.624 46.8571 24C46.8571 11.376 36.624 1.14285 24 1.14285ZM24 4.45485C28.9794 4.45485 33.5246 6.31771 36.976 9.38285C34.44 12.728 30.5874 14.9554 26.7269 16.4629C24.5414 12.4827 22.0921 8.65317 19.3954 5C20.9036 4.63645 22.4497 4.45345 24.0011 4.45485H24ZM15.6846 6.30628C18.2331 10.1189 20.7017 13.6537 22.9566 17.6549C17.2537 19.1326 10.8091 20.0194 4.856 20.0343C6.11085 13.9451 10.2011 8.88914 15.6846 6.30742V6.30628ZM39.144 11.6434C41.9683 15.0948 43.5219 19.4112 43.5451 23.8708C39.024 22.9794 34.528 22.7463 29.9497 23.208C29.4354 21.9246 28.8114 20.7051 28.2137 19.3909C32.16 17.7989 36.3794 15.0743 39.144 11.6423V11.6434ZM24.544 20.6789C25.0331 21.7189 25.6 22.8229 26.1326 23.9509C19.7669 26.7577 12.9954 30.5086 9.48114 37.0846C6.10743 33.3512 4.30948 28.457 4.464 23.4274C11.2811 23.3954 17.9726 22.5429 24.544 20.6789ZM34.8731 26.008C37.7175 26.0086 40.5501 26.3735 43.3017 27.0937C42.8774 29.7408 41.9131 32.2724 40.4686 34.5308C39.0241 36.7893 37.1303 38.7264 34.9051 40.2217C33.856 35.4503 32.856 30.8846 31.088 26.2811C32.3411 26.0985 33.6057 26.0069 34.872 26.0069L34.8731 26.008ZM43.4034 26.3623C43.3897 26.4743 43.3771 26.584 43.3611 26.6937C43.3771 26.5829 43.3909 26.4731 43.4034 26.3623ZM27.472 27.1737C29.2731 31.8286 30.6869 36.9829 31.6354 41.9989C29.2208 43.0234 26.6241 43.5497 24.0011 43.5463C19.6558 43.5525 15.4334 42.1041 12.0069 39.432C15.5463 33.6903 21.0286 29.3451 27.4709 27.1749L27.472 27.1737Z" fill="black"/>
</svg>
