<svg width="48" height="48" viewBox="0 0 48 48" fill="none" xmlns="http://www.w3.org/2000/svg">
<path d="M48 37.1925C46.254 37.6365 45.174 37.212 44.205 35.757L37.314 26.223L36.318 24.903L28.2705 35.7885C27.351 37.098 26.3865 37.668 24.6705 37.2045L34.9755 23.3715L25.3815 10.8765C27.0315 10.5555 28.1715 10.719 29.184 12.1965L36.3315 21.849L43.5315 12.249C44.454 10.9395 45.4455 10.4415 47.1015 10.9245L43.3815 15.8565L38.3415 22.419C37.7415 23.169 37.824 23.682 38.376 24.4065L48 37.1925ZM0.012 23.1405L0.855 18.9945C3.15 10.7895 12.555 7.37995 19.041 12.45C22.8315 15.432 23.7735 19.65 23.586 24.375H2.22C1.899 32.88 8.0205 38.013 15.825 35.394C18.5625 34.4745 20.175 32.331 20.982 29.649C21.3915 28.305 22.0695 28.095 23.3325 28.479C22.6875 31.833 21.2325 34.635 18.1575 36.3885C13.563 39.0135 7.005 38.1645 3.555 34.5165C1.5 32.4 0.651 29.718 0.27 26.85C0.21 26.376 0.09 25.9245 0 25.47C0.008 24.694 0.012 23.918 0.012 23.142V23.1405ZM2.259 22.5705H21.567C21.441 16.4205 17.6115 12.0525 12.378 12.015C6.633 11.97 2.508 16.2345 2.259 22.5705Z" fill="black"/>
</svg>
