<svg viewBox="0 0 37 48" fill="none" xmlns="http://www.w3.org/2000/svg">
<g clip-path="url(#clip0)">
<path d="M9.75659 48C14.7246 48 18.7566 44.416 18.7566 40V32H9.75659C4.78859 32 0.756592 35.584 0.756592 40C0.756592 44.416 4.78859 48 9.75659 48Z" fill="#0ACF83"/>
<path d="M0.756592 24C0.756592 19.584 4.78859 16 9.75659 16H18.7566V32H9.75659C4.78859 32 0.756592 28.416 0.756592 24Z" fill="#A259FF"/>
<path d="M0.756592 8C0.756592 3.584 4.78859 0 9.75659 0H18.7566V16H9.75659C4.78859 16 0.756592 12.416 0.756592 8Z" fill="#F24E1E"/>
<path d="M18.7566 0H27.7566C32.7246 0 36.7566 3.584 36.7566 8C36.7566 12.416 32.7246 16 27.7566 16H18.7566V0Z" fill="#FF7262"/>
<path d="M36.7566 24C36.7566 28.416 32.7246 32 27.7566 32C22.7886 32 18.7566 28.416 18.7566 24C18.7566 19.584 22.7886 16 27.7566 16C32.7246 16 36.7566 19.584 36.7566 24Z" fill="#1ABCFE"/>
</g>
<defs>
<clipPath id="clip0">
<rect width="36" height="48" fill="white" transform="translate(0.756592)"/>
</clipPath>
</defs>
</svg>
