<svg viewBox="0 0 153 27" fill="none" xmlns="http://www.w3.org/2000/svg">
<path d="M5.034 18.096L0.238 13.168L5.034 8.24H8.906L4.11 13.168L8.906 18.096H5.034ZM22.2817 18.074H16.1657L15.1537 21H11.9197L17.4417 5.622H21.0277L26.5497 21H23.2937L22.2817 18.074ZM21.4457 15.61L19.2237 9.186L17.0017 15.61H21.4457ZM31.6937 10.572C32.0897 10.0147 32.6324 9.55267 33.3217 9.186C34.0257 8.80467 34.825 8.614 35.7197 8.614C36.761 8.614 37.6997 8.87067 38.5357 9.384C39.3864 9.89733 40.0537 10.6307 40.5377 11.584C41.0364 12.5227 41.2857 13.6153 41.2857 14.862C41.2857 16.1087 41.0364 17.216 40.5377 18.184C40.0537 19.1373 39.3864 19.878 38.5357 20.406C37.6997 20.934 36.761 21.198 35.7197 21.198C34.825 21.198 34.033 21.0147 33.3437 20.648C32.669 20.2813 32.119 19.8193 31.6937 19.262V26.808H28.6137V8.812H31.6937V10.572ZM38.1397 14.862C38.1397 14.1287 37.9857 13.498 37.6777 12.97C37.3844 12.4273 36.9884 12.0167 36.4897 11.738C36.0057 11.4593 35.4777 11.32 34.9057 11.32C34.3484 11.32 33.8204 11.4667 33.3217 11.76C32.8377 12.0387 32.4417 12.4493 32.1337 12.992C31.8404 13.5347 31.6937 14.1727 31.6937 14.906C31.6937 15.6393 31.8404 16.2773 32.1337 16.82C32.4417 17.3627 32.8377 17.7807 33.3217 18.074C33.8204 18.3527 34.3484 18.492 34.9057 18.492C35.4777 18.492 36.0057 18.3453 36.4897 18.052C36.9884 17.7587 37.3844 17.3407 37.6777 16.798C37.9857 16.2553 38.1397 15.61 38.1397 14.862ZM46.6039 10.572C46.9999 10.0147 47.5425 9.55267 48.2319 9.186C48.9359 8.80467 49.7352 8.614 50.6299 8.614C51.6712 8.614 52.6099 8.87067 53.4459 9.384C54.2965 9.89733 54.9639 10.6307 55.4479 11.584C55.9465 12.5227 56.1959 13.6153 56.1959 14.862C56.1959 16.1087 55.9465 17.216 55.4479 18.184C54.9639 19.1373 54.2965 19.878 53.4459 20.406C52.6099 20.934 51.6712 21.198 50.6299 21.198C49.7352 21.198 48.9432 21.0147 48.2539 20.648C47.5792 20.2813 47.0292 19.8193 46.6039 19.262V26.808H43.5239V8.812H46.6039V10.572ZM53.0499 14.862C53.0499 14.1287 52.8959 13.498 52.5879 12.97C52.2945 12.4273 51.8985 12.0167 51.3999 11.738C50.9159 11.4593 50.3879 11.32 49.8159 11.32C49.2585 11.32 48.7305 11.4667 48.2319 11.76C47.7479 12.0387 47.3519 12.4493 47.0439 12.992C46.7505 13.5347 46.6039 14.1727 46.6039 14.906C46.6039 15.6393 46.7505 16.2773 47.0439 16.82C47.3519 17.3627 47.7479 17.7807 48.2319 18.074C48.7305 18.3527 49.2585 18.492 49.8159 18.492C50.3879 18.492 50.9159 18.3453 51.3999 18.052C51.8985 17.7587 52.2945 17.3407 52.5879 16.798C52.8959 16.2553 53.0499 15.61 53.0499 14.862Z" fill="#6700EE"/>
<path d="M68.3402 21.198C67.3429 21.198 66.4482 21.022 65.6562 20.67C64.8642 20.3033 64.2335 19.812 63.7642 19.196C63.3095 18.58 63.0602 17.898 63.0162 17.15H66.1182C66.1769 17.6193 66.4042 18.008 66.8002 18.316C67.2109 18.624 67.7169 18.778 68.3182 18.778C68.9049 18.778 69.3595 18.6607 69.6822 18.426C70.0195 18.1913 70.1882 17.8907 70.1882 17.524C70.1882 17.128 69.9829 16.8347 69.5722 16.644C69.1762 16.4387 68.5382 16.2187 67.6582 15.984C66.7489 15.764 66.0009 15.5367 65.4142 15.302C64.8422 15.0673 64.3435 14.708 63.9182 14.224C63.5075 13.74 63.3022 13.0873 63.3022 12.266C63.3022 11.5913 63.4929 10.9753 63.8742 10.418C64.2702 9.86067 64.8275 9.42067 65.5462 9.098C66.2795 8.77533 67.1375 8.614 68.1202 8.614C69.5722 8.614 70.7309 8.98067 71.5962 9.714C72.4615 10.4327 72.9382 11.408 73.0262 12.64H70.0782C70.0342 12.156 69.8289 11.7747 69.4622 11.496C69.1102 11.2027 68.6335 11.056 68.0322 11.056C67.4749 11.056 67.0422 11.1587 66.7342 11.364C66.4409 11.5693 66.2942 11.8553 66.2942 12.222C66.2942 12.6327 66.4995 12.948 66.9102 13.168C67.3209 13.3733 67.9589 13.586 68.8242 13.806C69.7042 14.026 70.4302 14.2533 71.0022 14.488C71.5742 14.7227 72.0655 15.0893 72.4762 15.588C72.9015 16.072 73.1215 16.7173 73.1362 17.524C73.1362 18.228 72.9382 18.8587 72.5422 19.416C72.1609 19.9733 71.6035 20.4133 70.8702 20.736C70.1515 21.044 69.3082 21.198 68.3402 21.198ZM79.2505 11.342V17.238C79.2505 17.6487 79.3458 17.9493 79.5365 18.14C79.7418 18.316 80.0792 18.404 80.5485 18.404H81.9785V21H80.0425C77.4465 21 76.1485 19.7387 76.1485 17.216V11.342H74.6965V8.812H76.1485V5.798H79.2505V8.812H81.9785V11.342H79.2505ZM95.8538 8.812L88.3078 26.764H85.0298L87.6698 20.692L82.7858 8.812H86.2398L89.3858 17.326L92.5758 8.812H95.8538ZM100.594 4.72V21H97.5141V4.72H100.594ZM114.967 14.642C114.967 15.082 114.938 15.478 114.879 15.83H105.969C106.042 16.71 106.35 17.3993 106.893 17.898C107.436 18.3967 108.103 18.646 108.895 18.646C110.039 18.646 110.853 18.1547 111.337 17.172H114.659C114.307 18.3453 113.632 19.3133 112.635 20.076C111.638 20.824 110.413 21.198 108.961 21.198C107.788 21.198 106.732 20.9413 105.793 20.428C104.869 19.9 104.143 19.1593 103.615 18.206C103.102 17.2527 102.845 16.1527 102.845 14.906C102.845 13.6447 103.102 12.5373 103.615 11.584C104.128 10.6307 104.847 9.89733 105.771 9.384C106.695 8.87067 107.758 8.614 108.961 8.614C110.12 8.614 111.154 8.86333 112.063 9.362C112.987 9.86067 113.698 10.572 114.197 11.496C114.71 12.4053 114.967 13.454 114.967 14.642ZM111.777 13.762C111.762 12.97 111.476 12.3393 110.919 11.87C110.362 11.386 109.68 11.144 108.873 11.144C108.11 11.144 107.465 11.3787 106.937 11.848C106.424 12.3027 106.108 12.9407 105.991 13.762H111.777Z" fill="black"/>
<path d="M129.799 9.186V11.87H117.809V9.186H129.799ZM129.799 14.466V17.15H117.809V14.466H129.799ZM134.359 11.804C135.063 11.7453 135.591 11.5547 135.943 11.232C136.31 10.9093 136.493 10.4767 136.493 9.934C136.493 9.318 136.427 8.43067 136.295 7.272C136.149 5.89333 136.075 4.88867 136.075 4.258C136.075 3.114 136.413 2.22667 137.087 1.596C137.777 0.950666 138.686 0.627999 139.815 0.627999H141.333V3.224H140.409C139.5 3.224 139.045 3.65667 139.045 4.522C139.045 4.93267 139.104 5.754 139.221 6.986C139.236 7.13267 139.273 7.55067 139.331 8.24C139.39 8.91467 139.419 9.516 139.419 10.044C139.419 10.8213 139.229 11.4667 138.847 11.98C138.466 12.4933 137.887 12.8233 137.109 12.97V13.014C137.887 13.1753 138.466 13.5127 138.847 14.026C139.229 14.5247 139.419 15.17 139.419 15.962C139.419 16.4607 139.39 17.0547 139.331 17.744C139.273 18.4187 139.236 18.844 139.221 19.02C139.104 20.252 139.045 21.066 139.045 21.462C139.045 21.9167 139.155 22.2467 139.375 22.452C139.595 22.6573 139.94 22.76 140.409 22.76H141.333V25.378H139.815C138.686 25.378 137.777 25.0553 137.087 24.41C136.413 23.7793 136.075 22.892 136.075 21.748C136.075 21.1027 136.149 20.0907 136.295 18.712C136.427 17.5533 136.493 16.6733 136.493 16.072C136.493 15.5293 136.31 15.0967 135.943 14.774C135.591 14.4513 135.063 14.2607 134.359 14.202V11.804ZM145.531 11.804C146.235 11.7453 146.763 11.5547 147.115 11.232C147.482 10.9093 147.665 10.4767 147.665 9.934C147.665 9.318 147.599 8.43067 147.467 7.272C147.321 5.89333 147.247 4.88867 147.247 4.258C147.247 3.114 147.585 2.22667 148.259 1.596C148.949 0.950666 149.858 0.627999 150.987 0.627999H152.505V3.224H151.581C150.672 3.224 150.217 3.65667 150.217 4.522C150.217 4.93267 150.276 5.754 150.393 6.986C150.408 7.13267 150.445 7.55067 150.503 8.24C150.562 8.91467 150.591 9.516 150.591 10.044C150.591 10.8213 150.401 11.4667 150.019 11.98C149.638 12.4933 149.059 12.8233 148.281 12.97V13.014C149.059 13.1753 149.638 13.5127 150.019 14.026C150.401 14.5247 150.591 15.17 150.591 15.962C150.591 16.4607 150.562 17.0547 150.503 17.744C150.445 18.4187 150.408 18.844 150.393 19.02C150.276 20.252 150.217 21.066 150.217 21.462C150.217 21.9167 150.327 22.2467 150.547 22.452C150.767 22.6573 151.112 22.76 151.581 22.76H152.505V25.378H150.987C149.858 25.378 148.949 25.0553 148.259 24.41C147.585 23.7793 147.247 22.892 147.247 21.748C147.247 21.1027 147.321 20.0907 147.467 18.712C147.599 17.5533 147.665 16.6733 147.665 16.072C147.665 15.5293 147.482 15.0967 147.115 14.774C146.763 14.4513 146.235 14.2607 145.531 14.202V11.804Z" fill="#C4C4C4"/>
</svg>
