<svg viewBox="0 0 48 48" fill="none" xmlns="http://www.w3.org/2000/svg">
<g clip-path="url(#clip0)">
<path d="M45.202 16.568L32.462 3.82798C30.3503 1.71634 27.4863 0.530029 24.5 0.530029C21.5137 0.530029 18.6496 1.71634 16.538 3.82798L3.79798 16.568C1.68633 18.6796 0.500023 21.5437 0.500023 24.53C0.500023 27.5163 1.68633 30.3803 3.79798 32.492L16.538 45.232C18.6496 47.3436 21.5137 48.5299 24.5 48.5299C27.4863 48.5299 30.3503 47.3436 32.462 45.232L45.202 32.492C47.3136 30.3803 48.4999 27.5163 48.4999 24.53C48.4999 21.5437 47.3136 18.6796 45.202 16.568V16.568ZM24.5 32.436C23.4617 32.436 22.4337 32.2315 21.4745 31.8342C20.5153 31.4369 19.6437 30.8545 18.9096 30.1204C18.1755 29.3862 17.5931 28.5147 17.1958 27.5555C16.7985 26.5963 16.594 25.5682 16.594 24.53C16.594 23.4918 16.7985 22.4637 17.1958 21.5045C17.5931 20.5453 18.1755 19.6737 18.9096 18.9396C19.6437 18.2055 20.5153 17.6231 21.4745 17.2258C22.4337 16.8285 23.4617 16.624 24.5 16.624C26.5968 16.624 28.6077 17.4569 30.0904 18.9396C31.573 20.4223 32.406 22.4332 32.406 24.53C32.406 26.6268 31.573 28.6377 30.0904 30.1204C28.6077 31.603 26.5968 32.436 24.5 32.436Z" fill="black"/>
</g>
<defs>
<clipPath id="clip0">
<rect width="48" height="48" fill="white" transform="translate(0.5 0.530029)"/>
</clipPath>
</defs>
</svg>
