<svg viewBox="0 0 48 48" fill="none" xmlns="http://www.w3.org/2000/svg">
<path d="M9.4021 0.0119629C4.23168 0.0119629 0 4.24355 0 9.41406V38.5904C0 43.7608 4.23158 47.991 9.4021 47.991H38.5785C43.7489 47.991 47.979 43.7609 47.979 38.5904V9.41406C47.979 4.24364 43.7489 0.0119629 38.5785 0.0119629H9.4021V0.0119629ZM11.7669 7.92947C14.246 7.92947 15.773 9.55695 15.8201 11.6963C15.8201 13.7883 14.2459 15.4616 11.7189 15.4616H11.6724C9.24048 15.4616 7.66862 13.7884 7.66862 11.6963C7.66862 9.557 9.28805 7.92947 11.7668 7.92947H11.7669ZM33.1307 17.9283C37.8985 17.9283 41.4726 21.0446 41.4726 27.7413V40.2428H34.2269V28.5794C34.2269 25.6486 33.1782 23.649 30.556 23.649C28.5542 23.649 27.3611 24.9967 26.8372 26.2987C26.6458 26.7645 26.5988 27.415 26.5988 28.0666V40.2428H19.353C19.353 40.2428 19.4481 20.4854 19.353 18.4396H26.6003V21.5272C27.5631 20.0416 29.2855 17.9283 33.1307 17.9283V17.9283ZM8.09602 18.4412H15.3418V40.2429H8.09602V18.4412V18.4412Z" fill="black"/>
</svg>
