<svg width="32" height="32" viewBox="0 0 33 32" fill="none" xmlns="http://www.w3.org/2000/svg">
<path d="M29.3 11.7968V23.2C29.3 24.2609 28.8786 25.2783 28.1284 26.0284C27.3783 26.7786 26.3609 27.2 25.3 27.2H7.70001C6.63915 27.2 5.62173 26.7786 4.87159 26.0284C4.12144 25.2783 3.70001 24.2609 3.70001 23.2V11.7968L16.0936 19.0896C16.2167 19.1622 16.3571 19.2005 16.5 19.2005C16.643 19.2005 16.7833 19.1622 16.9064 19.0896L29.3 11.7968ZM25.3 6.4C26.2842 6.39985 27.234 6.76257 27.9675 7.41879C28.7011 8.075 29.167 8.97863 29.276 9.9568L16.5 17.472L3.72401 9.9568C3.83307 8.97863 4.29893 8.075 5.03248 7.41879C5.76604 6.76257 6.71578 6.39985 7.70001 6.4H25.3Z" fill="white"/>
</svg>
