<svg viewBox="0 0 48 48" fill="none" xmlns="http://www.w3.org/2000/svg">
<path d="M24 0C10.7445 0 0 10.7445 0 24C0 37.2555 10.7445 48 24 48C37.2555 48 48 37.2555 48 24C48 10.7445 37.2555 0 24 0ZM35.3925 29.886C27.186 38.0925 12.525 35.475 12.525 35.475C12.525 35.475 9.879 20.8425 18.114 12.609C22.677 8.046 30.234 8.235 35.0145 12.987C39.795 17.739 39.9555 25.3245 35.3925 29.8875V29.886ZM26.7525 28.428L29.1015 23.595L33.9345 21.246L29.1015 18.897L26.7525 14.064L24.4035 18.897L19.5705 21.246L24.4035 23.595L26.7525 28.428Z" fill="#4264FB"/>
</svg>
