<svg viewBox="0 0 57 32" fill="none" xmlns="http://www.w3.org/2000/svg">
<g clip-path="url(#clip0)">
<path d="M32.344 15.9023C32.344 24.6847 25.2728 31.8041 16.5505 31.8041C7.82829 31.8041 0.756592 24.6831 0.756592 15.9023C0.756592 7.1216 7.82776 0 16.5505 0C25.2733 0 32.344 7.11999 32.344 15.9023ZM49.6699 15.9023C49.6699 24.169 46.1343 30.8732 41.7729 30.8732C37.4115 30.8732 33.8759 24.169 33.8759 15.9023C33.8759 7.63566 37.411 0.931518 41.7724 0.931518C46.1337 0.931518 49.6693 7.63351 49.6693 15.9023H49.6699ZM56.7566 15.9023C56.7566 23.3073 55.5133 29.3138 53.9792 29.3138C52.4451 29.3138 51.2024 23.3089 51.2024 15.9023C51.2024 8.49581 52.4456 2.49084 53.9792 2.49084C55.5128 2.49084 56.7566 8.49527 56.7566 15.9023" fill="black"/>
</g>
<defs>
<clipPath id="clip0">
<rect width="56" height="31.8041" fill="white" transform="translate(0.756592)"/>
</clipPath>
</defs>
</svg>
