<svg viewBox="0 0 49 48" fill="none" xmlns="http://www.w3.org/2000/svg">
<path d="M24.6785 3H24.776C25.2757 3.23799 25.7624 3.50237 26.234 3.792L42.521 13.161C42.7311 13.2731 42.9026 13.4457 43.0133 13.6565C43.124 13.8673 43.1689 14.1064 43.142 14.343C43.13 20.9265 43.142 27.5085 43.1345 34.089C43.0639 34.403 42.8719 34.6764 42.6005 34.8495C36.8275 38.1735 31.054 41.4955 25.28 44.8155C25.1401 44.9222 24.9714 44.9844 24.7958 44.9943C24.6201 45.0042 24.4455 44.9613 24.2945 44.871C18.5145 41.557 12.74 38.237 6.97103 34.911C6.78354 34.8224 6.6265 34.6802 6.51972 34.5024C6.41294 34.3246 6.3612 34.1192 6.37103 33.912V14.1675C6.35688 13.9612 6.40456 13.7555 6.50796 13.5764C6.61136 13.3974 6.7658 13.2533 6.95153 13.1625C12.3735 10.0445 17.7955 6.9245 23.2175 3.8025C23.7005 3.5265 24.1745 3.234 24.6785 3" fill="#019639"/>
<path d="M13.907 15.8071V32.0956C13.9001 32.3963 13.9532 32.6954 14.0632 32.9753C14.1731 33.2553 14.3378 33.5105 14.5475 33.7261C14.9496 34.1233 15.4756 34.3706 16.0379 34.4268C16.6002 34.483 17.1648 34.3448 17.6375 34.0351C17.954 33.8201 18.213 33.531 18.3921 33.1929C18.5712 32.8549 18.6649 32.4782 18.665 32.0956C18.665 28.1656 18.6575 24.2356 18.665 20.3056C22.248 24.5956 25.8385 28.8796 29.4365 33.1576C29.9364 33.664 30.5555 34.0368 31.2369 34.2417C31.9183 34.4467 32.6402 34.4772 33.3365 34.3306C33.8282 34.2337 34.2758 33.9817 34.6136 33.6115C34.9514 33.2413 35.1615 32.7726 35.213 32.2741C35.221 26.7331 35.221 21.1926 35.213 15.6526C35.1614 15.0612 34.89 14.5107 34.4523 14.1096C34.0147 13.7086 33.4427 13.4861 32.849 13.4861C32.2554 13.4861 31.6834 13.7086 31.2457 14.1096C30.8081 14.5107 30.5367 15.0612 30.485 15.6526C30.485 19.6456 30.461 23.6341 30.485 27.6256C26.966 23.4766 23.4905 19.2916 19.985 15.1276C19.5229 14.535 18.911 14.0764 18.2126 13.799C17.5141 13.5216 16.7543 13.4355 16.0115 13.5496C15.4488 13.6122 14.9272 13.8744 14.5411 14.2885C14.155 14.7027 13.9301 15.2414 13.907 15.8071V15.8071Z" fill="white"/>
</svg>
