<svg width="48" height="48" viewBox="0 0 48 48" fill="none" xmlns="http://www.w3.org/2000/svg">
<path d="M35.1783 34.5421C35.4727 32.0922 35.3846 31.7326 37.2093 32.1297L37.6725 32.1702C39.0757 32.2339 40.9113 31.9444 41.9898 31.4434C44.3115 30.3661 45.6877 28.5679 43.3991 29.0401C38.1776 30.1174 37.8187 28.3493 37.8187 28.3493C43.3323 20.1687 45.6371 9.7838 43.6473 7.24168C38.2211 0.308302 28.8285 3.58693 28.6713 3.67168L28.6211 3.68105C27.5895 3.46693 26.4348 3.33905 25.1377 3.31805C22.7748 3.27905 20.982 3.93755 19.6218 4.9688C19.6218 4.9688 2.86572 -1.93457 3.64534 13.6504C3.81109 16.9658 8.39734 38.7372 13.8678 32.1612C15.8673 29.7567 17.7993 27.7234 17.7993 27.7234C18.7586 28.3606 19.9076 28.6861 21.1121 28.5691L21.2055 28.4896C21.1762 28.7881 21.189 29.0802 21.2426 29.4259C19.8337 31.0006 20.2477 31.2769 17.4303 31.8567C14.5796 32.4439 16.2543 33.4898 17.3475 33.7632C18.6731 34.0947 21.7395 34.5642 23.8117 31.6639L23.7292 31.9947C24.282 32.4372 24.2448 35.1736 24.3228 37.1284C24.4012 39.0837 24.5321 40.9081 24.9307 41.9839C25.3293 43.0594 25.7996 45.8299 29.5023 45.0364C32.5968 44.3749 34.9627 43.4206 35.1783 34.5421Z" fill="black"/>
<path d="M28.2968 46.9712C26.6592 46.9712 25.5927 46.3378 24.945 45.7262C23.9674 44.8037 23.5797 43.6153 23.3479 42.9054L23.2478 42.6092C22.7813 41.3499 22.6231 39.5368 22.5293 37.2021C22.5151 36.8514 22.5053 36.4903 22.4944 36.1074C22.4866 35.8273 22.4768 35.4759 22.4626 35.1084C21.8802 35.3867 21.2577 35.5847 20.6018 35.6964C19.4472 35.8937 18.2059 35.8299 16.9118 35.5063C15.9987 35.2779 15.0499 34.8047 14.5092 34.0738C12.9331 35.4542 11.4297 35.2671 10.6107 34.9937C9.1658 34.5118 7.8728 33.1577 6.65743 30.8548C5.79155 29.2142 4.95418 27.0767 4.16818 24.5012C2.79943 20.0162 1.9298 15.2923 1.85255 13.7413C1.60955 8.88693 2.91643 5.41517 5.73605 3.42355C10.1839 0.281799 16.9231 2.12942 19.3801 2.9683C21.0308 1.97342 22.9729 1.4893 25.1674 1.52417C26.3461 1.5433 27.4684 1.6468 28.5109 1.8328C29.5984 1.4908 31.7464 0.999924 34.2053 1.03067C38.7357 1.08467 42.4898 2.85017 45.0612 6.1363C46.8964 8.4808 45.9889 13.4042 45.2851 16.1304C44.2943 19.9652 42.5584 24.0437 40.4262 27.5942C41.0052 27.5983 41.8441 27.5289 43.0366 27.2826C45.3893 26.7969 46.0774 28.0584 46.2642 28.6232C47.0123 30.8889 43.7603 32.6012 42.7459 33.0722C41.4462 33.6756 39.3271 34.0431 37.5916 33.9636L37.5158 33.9587L37.0598 33.9186L37.0148 34.2988L36.9713 34.6704C36.8547 39.1701 36.2119 42.0197 34.8893 43.9026C33.5029 45.8766 31.5762 46.4297 29.8789 46.7934C29.2999 46.9172 28.7738 46.9712 28.2968 46.9712ZM24.8506 30.5946C25.9077 31.4406 26.0003 33.0324 26.0832 36.0073C26.0937 36.3786 26.1034 36.7299 26.1166 37.0581C26.1563 38.0518 26.2497 40.3787 26.6142 41.3619C26.6656 41.5011 26.7117 41.6421 26.7604 41.7917C27.1666 43.0352 27.3702 43.6588 29.1263 43.2834C30.6004 42.9673 31.3583 42.6838 31.9516 41.8393C32.8137 40.6116 33.2959 38.1418 33.3844 34.4987L35.1781 34.5422L33.3968 34.3284L33.4493 33.8837C33.6199 32.4174 33.7429 31.3584 34.7228 30.6579C35.5092 30.0962 36.4051 30.1506 37.1187 30.2792C36.3346 29.6867 36.1178 28.9918 36.0601 28.7068L35.9104 27.9699L36.3308 27.3463C38.7522 23.7538 40.7487 19.3386 41.8092 15.2323C42.8989 11.0132 42.5667 8.77255 42.2344 8.3488C37.8361 2.72867 30.2089 5.04917 29.4124 5.31242L29.2778 5.38517L28.6028 5.5108L28.257 5.43917C27.3038 5.24117 26.2448 5.13167 25.1097 5.1133C23.3262 5.0833 21.8873 5.5048 20.7076 6.39992L19.8889 7.02055L18.9391 6.62942C16.9096 5.79955 10.9486 4.13117 7.80305 6.35905C6.05705 7.5958 5.26168 10.0191 5.43868 13.5617C5.49718 14.7313 6.2918 19.1589 7.6028 23.4531C9.41443 29.3874 11.0607 31.3588 11.7481 31.5879C11.8681 31.6284 12.1793 31.3866 12.4891 31.0146C14.5028 28.5924 16.4187 26.5731 16.4993 26.4883L17.5381 25.3952L18.7939 26.2296C19.3002 26.5659 19.8586 26.7568 20.4319 26.7928L23.4271 24.2383L22.9932 28.6663C22.9834 28.7657 22.9786 28.9011 23.0176 29.1523L23.1481 29.9916L22.5818 30.6246L22.5166 30.6981L24.1621 31.4574L24.8506 30.5946Z" fill="black"/>
<path d="M43.3991 29.0402C38.1772 30.1175 37.8183 28.3494 37.8183 28.3494C43.332 20.1684 45.6367 9.78316 43.6477 7.24178C38.2215 0.308784 28.8281 3.58741 28.6713 3.67253L28.6207 3.68153C27.5891 3.46741 26.4345 3.33991 25.1366 3.31891C22.7737 3.28028 20.9816 3.93841 19.6215 4.96966C19.6215 4.96966 2.86497 -1.93334 3.64422 13.6513C3.80997 16.967 8.39622 38.7384 13.8667 32.1624C15.8662 29.7579 17.7978 27.7247 17.7978 27.7247C18.7575 28.3618 19.9061 28.6873 21.1102 28.5703L21.204 28.4908C21.1747 28.7893 21.1882 29.0814 21.2415 29.4272C19.8322 31.0018 20.2462 31.2782 17.4288 31.8579C14.5781 32.4452 16.2528 33.491 17.3463 33.7644C18.6716 34.0959 21.7383 34.5654 23.8102 31.6652L23.7273 31.9959C24.2797 32.4384 24.6675 34.8729 24.6026 37.0798C24.5373 39.2867 24.4938 40.802 24.9292 41.9855C25.3642 43.169 25.7977 45.8315 29.5012 45.038C32.5957 44.375 34.1992 42.6564 34.4227 39.7899C34.581 37.7518 34.9391 38.0533 34.962 36.2312L35.2496 35.3687C35.5811 32.606 35.3021 31.715 37.209 32.1294L37.6721 32.1699C39.0753 32.2337 40.9117 31.9442 41.9898 31.4432C44.3111 30.3665 45.6877 28.568 43.3991 29.0402Z" fill="#336791"/>
<path d="M28.4839 45.8651C25.3969 45.8651 24.4189 43.4205 24.0188 42.4207C23.433 40.9556 23.3066 35.2698 23.4371 30.6071C23.4461 30.2767 23.7199 30.0157 24.0521 30.0258C24.3825 30.0348 24.6428 30.3101 24.6334 30.6405C24.483 36.0183 24.6964 40.8918 25.1299 41.9763C25.8064 43.6672 26.8324 45.1462 29.733 44.5248C32.4866 43.9342 33.5179 42.8902 33.9773 40.2273C34.3298 38.184 35.0269 32.3707 35.1128 31.2236C35.1375 30.8943 35.4233 30.6465 35.754 30.6716C36.0833 30.6963 36.3304 30.9836 36.306 31.3128C36.2164 32.5072 35.5226 38.3092 35.1566 40.431C34.6144 43.5761 33.2123 45.0026 29.9839 45.6948C29.4353 45.8122 28.9369 45.8647 28.4839 45.8651ZM11.7454 33.9247C11.451 33.9247 11.1836 33.8703 10.9519 33.7935C8.94677 33.1245 7.03689 29.859 5.27514 24.0866C3.93414 19.6927 3.08439 15.1065 3.00977 13.6158C2.78889 9.19685 3.92664 6.07047 6.39227 4.3241C11.2699 0.8681 19.4753 4.1591 19.8221 4.30085C20.1278 4.42572 20.2748 4.77522 20.1495 5.08122C20.0246 5.38685 19.6751 5.53347 19.3695 5.40897C19.2904 5.37672 11.4221 2.22448 7.08152 5.3021C4.97327 6.79685 4.00539 9.5741 4.20452 13.5562C4.26714 14.8121 5.06102 19.2881 6.41927 23.7371C7.99202 28.8903 9.78189 32.142 11.3303 32.6583C11.5733 32.7393 12.3128 32.9857 13.3699 31.7145C15.3593 29.3212 17.1866 27.411 17.205 27.3922C17.4338 27.1537 17.8125 27.1458 18.051 27.3746C18.2895 27.6033 18.2978 27.9821 18.069 28.2202C18.051 28.239 16.2514 30.1203 14.2901 32.4798C13.3613 33.597 12.471 33.9247 11.7454 33.9247ZM37.7813 28.8829C37.6661 28.8829 37.5499 28.8498 37.4471 28.7808C37.1734 28.596 37.1006 28.2243 37.2855 27.9502C42.8591 19.6796 44.8155 9.68622 43.14 7.54497C41.031 4.85023 38.0531 3.44285 34.2885 3.36147C31.5011 3.30147 29.2856 4.01322 28.9234 4.13735L28.8323 4.17447C28.4681 4.28885 28.1888 4.08935 28.0834 3.8561C27.9585 3.5801 28.0609 3.25385 28.32 3.09673C28.3373 3.0866 28.392 3.06335 28.4809 3.03072L28.473 3.03298L28.4809 3.03035C29.0963 2.80498 31.3455 2.13035 34.1314 2.16223C38.2969 2.20648 41.7379 3.8126 44.0816 6.80772C45.1905 8.22485 45.1931 11.4896 44.0888 15.7653C42.963 20.1247 40.8446 24.8096 38.2774 28.6192C38.1626 28.7906 37.9736 28.8829 37.7813 28.8829ZM38.0663 32.7116C37.1145 32.7116 36.2614 32.5773 35.7506 32.2713C35.2256 31.9567 35.1255 31.5292 35.1124 31.3023C34.9691 28.7861 36.3574 28.3481 37.0654 28.1482C36.9668 27.999 36.8265 27.8235 36.6814 27.6423C36.2685 27.1263 35.703 26.4198 35.2673 25.3631C35.199 25.1981 34.9853 24.8145 34.7378 24.3701C33.3956 21.9633 30.603 16.9552 32.397 14.3906C33.2273 13.2037 34.8806 12.7365 37.3166 12.9971C36.6 10.8138 33.1875 3.98435 25.0901 3.8516C22.6549 3.8111 20.6576 4.55997 19.1569 6.07535C15.7969 9.46872 15.9184 15.6086 15.9203 15.6701C15.9289 16.0005 15.6683 16.2753 15.3379 16.284C15.0075 16.2945 14.733 16.032 14.724 15.7016C14.7165 15.429 14.5913 8.98572 18.3068 5.2331C20.0456 3.47697 22.3346 2.60998 25.11 2.65535C30.2903 2.74047 33.6248 5.3741 35.5095 7.56822C37.5641 9.9596 38.5714 12.5974 38.6543 13.4778C38.7161 14.1326 38.2463 14.2635 38.1514 14.283L37.9354 14.2878C35.5448 13.905 34.011 14.1708 33.3769 15.0768C32.0123 17.0272 34.6541 21.7646 35.7821 23.7877C36.0701 24.3037 36.2779 24.6768 36.3731 24.9071C36.7436 25.8056 37.227 26.4093 37.6151 26.8946C37.9568 27.3214 38.2526 27.6915 38.3584 28.1257C38.4075 28.212 39.1046 29.2432 43.2413 28.3893C44.2781 28.1756 44.8999 28.3582 45.09 28.9331C45.4639 30.0637 43.3661 31.3826 42.2048 31.9218C41.1641 32.4056 39.5033 32.7116 38.0663 32.7116ZM36.3053 31.2037C36.4365 31.3361 37.0931 31.5645 38.4529 31.506C39.6619 31.4542 40.9369 31.1914 41.7019 30.8362C42.6803 30.3817 43.3335 29.8736 43.6718 29.5267L43.4843 29.5612C40.8394 30.1072 38.9685 30.0345 37.9238 29.3448C37.8491 29.2957 37.782 29.2447 37.7213 29.1945C37.608 29.2391 37.5034 29.2684 37.4288 29.2894C36.8363 29.4555 36.2235 29.6276 36.3053 31.2037ZM19.2195 34.5468C18.5625 34.5468 17.871 34.4572 17.1649 34.2806C16.4333 34.0976 15.1999 33.5467 15.2186 32.6418C15.24 31.6267 16.7164 31.3222 17.2721 31.2078C19.2799 30.7942 19.4108 30.6285 20.0381 29.8316C20.2211 29.5995 20.4488 29.3103 20.7593 28.9638C21.2201 28.4478 21.7238 28.1865 22.2563 28.1865C22.6271 28.1865 22.9313 28.3121 23.1323 28.3957C23.7728 28.6612 24.3071 29.3032 24.5269 30.0709C24.7253 30.7635 24.6304 31.4302 24.2606 31.9481C23.0468 33.648 21.3034 34.5468 19.2195 34.5468ZM16.5113 32.6932C16.6916 32.8327 17.0531 33.0191 17.4555 33.1196C18.0671 33.2726 18.6604 33.3502 19.2199 33.3502C20.9246 33.3502 22.2934 32.6445 23.2875 31.2525C23.4949 30.9622 23.4326 30.5936 23.3771 30.3997C23.2609 29.9936 22.9721 29.6242 22.6748 29.5008C22.5135 29.4341 22.3796 29.3831 22.2566 29.3831C22.1906 29.3831 21.9896 29.3831 21.6514 29.7615C21.3656 30.0806 21.1598 30.342 20.9786 30.5722C20.1971 31.5645 19.839 31.9012 17.514 32.3801C16.9466 32.4963 16.6556 32.6148 16.5113 32.6932ZM21.1121 29.9332C20.8219 29.9332 20.5669 29.7213 20.5215 29.4255C20.5065 29.3261 20.4968 29.2263 20.4915 29.1258C18.9675 29.0973 17.4971 28.4433 16.3808 27.2786C14.9693 25.806 14.3269 23.7656 14.6186 21.681C14.9355 19.4171 14.817 17.4187 14.7533 16.3451C14.7356 16.0466 14.7229 15.831 14.7236 15.6817C14.7248 15.4923 14.7285 14.9902 16.407 14.1393C17.004 13.8367 18.201 13.3087 19.5086 13.1734C21.675 12.9495 23.103 13.9143 23.5305 15.8906C24.6844 21.2261 23.622 23.586 22.8461 25.3095C22.7018 25.6305 22.5653 25.9335 22.4561 26.2271L22.3598 26.4858C21.9499 27.585 21.5955 28.5345 21.7043 29.2436C21.7545 29.5702 21.5303 29.8755 21.2036 29.9257L21.1121 29.9332ZM15.924 15.8475L15.9473 16.2746C16.0133 17.3898 16.1363 19.4651 15.8033 21.8471C15.5629 23.5665 16.0879 25.2446 17.2444 26.4506C18.1583 27.4039 19.3609 27.93 20.5969 27.93H20.6224C20.7608 27.3469 20.9906 26.7311 21.2381 26.0677L21.3338 25.8105C21.4571 25.479 21.6015 25.158 21.7545 24.8182C22.5011 23.1592 23.4308 21.0941 22.3601 16.1437C22.1483 15.1631 21.6341 14.5957 20.7893 14.4086C19.0538 14.0253 16.4674 15.3307 15.924 15.8475ZM19.5353 15.5936C19.5053 15.8051 19.9226 16.3698 20.4671 16.4452C21.0105 16.5213 21.4755 16.0796 21.5051 15.8681C21.5348 15.6566 21.1178 15.4233 20.5733 15.3476C20.0291 15.2718 19.5641 15.3821 19.5353 15.5936ZM20.592 16.6533L20.4394 16.6428C20.1019 16.596 19.7606 16.3833 19.527 16.0736C19.4449 15.9648 19.311 15.7541 19.3376 15.5658C19.3755 15.2898 19.7123 15.1245 20.2376 15.1245C20.355 15.1245 20.4773 15.1331 20.6003 15.1503C20.8875 15.1901 21.1541 15.273 21.351 15.3828C21.6923 15.5733 21.7174 15.786 21.702 15.8958C21.66 16.2007 21.1751 16.6533 20.592 16.6533ZM19.7336 15.6288C19.7505 15.7593 20.0738 16.1898 20.4945 16.248L20.5924 16.2547C20.9809 16.2547 21.2711 15.9491 21.3053 15.849C21.2693 15.7807 21.0195 15.6112 20.5459 15.5452C20.4409 15.5302 20.3374 15.5231 20.238 15.5231C19.9335 15.5231 19.7719 15.5917 19.7336 15.6288ZM36.0855 15.162C36.1151 15.3735 35.6981 15.9382 35.154 16.014C34.6103 16.0897 34.1449 15.6483 34.1149 15.4368C34.0864 15.2253 34.5034 14.9917 35.0471 14.9163C35.5909 14.8402 36.0555 14.9508 36.0855 15.162ZM35.0284 16.122C34.5049 16.122 34.053 15.7147 34.0159 15.4503C33.9728 15.1331 34.4951 14.892 35.0329 14.8173C35.1514 14.8008 35.2688 14.7926 35.3816 14.7926C35.8459 14.7926 36.1534 14.9287 36.1841 15.1485C36.204 15.2906 36.0949 15.51 35.907 15.708C35.7829 15.8381 35.5223 16.0635 35.1671 16.1126L35.0284 16.122ZM35.382 14.9921C35.2785 14.9921 35.1705 15 35.061 15.015C34.5206 15.0903 34.1981 15.3071 34.2139 15.4233C34.2319 15.5512 34.5769 15.9228 35.0288 15.9228L35.1401 15.915C35.4353 15.8741 35.6569 15.6813 35.7626 15.5703C35.9288 15.396 35.9948 15.2317 35.9869 15.1758C35.9764 15.1016 35.7769 14.9921 35.382 14.9921ZM36.8689 27.3082C36.7545 27.3082 36.639 27.2752 36.5366 27.207C36.2621 27.0232 36.1883 26.6516 36.3724 26.3771C37.6466 24.474 37.4134 22.5333 37.188 20.6565C37.0916 19.857 36.9926 19.0301 37.0181 18.2366C37.0444 17.4202 37.1483 16.7467 37.2484 16.0953C37.3673 15.3236 37.4798 14.5946 37.4333 13.7291C37.4153 13.3991 37.6684 13.1175 37.9984 13.0995C38.3295 13.0818 38.6104 13.3346 38.628 13.6646C38.6813 14.6538 38.5541 15.4788 38.4311 16.2772C38.3363 16.8933 38.238 17.5305 38.2144 18.2748C38.1915 18.9776 38.2811 19.7238 38.376 20.5136C38.616 22.5093 38.8879 24.7713 37.3669 27.0427C37.2514 27.2148 37.062 27.3082 36.8689 27.3082Z" fill="white"/>
</svg>
