<svg viewBox="0 0 48 48" fill="none" xmlns="http://www.w3.org/2000/svg">
<path d="M39.4656 14.2612C38.9677 14.0846 38.4517 13.9176 37.9205 13.7596C38.0078 13.3924 38.0879 13.03 38.1592 12.6737C39.3288 6.82405 38.5641 2.1115 35.9526 0.55993C33.4486 -0.927822 29.3534 0.623397 25.2174 4.33182C24.8197 4.68842 24.4209 5.06597 24.0222 5.46165C23.7566 5.19986 23.4914 4.94686 23.2269 4.70488C18.8923 0.739594 14.5475 -0.931431 11.9386 0.62463C9.43695 2.11669 8.6961 6.54694 9.74897 12.0907C9.85065 12.6262 9.96949 13.173 10.1039 13.729C9.48898 13.9088 8.89535 14.1006 8.32735 14.3045C3.2455 16.13 0 18.9908 0 21.9583C0 25.0232 3.48405 28.0973 8.77718 29.9613C9.1949 30.1084 9.62833 30.2474 10.075 30.3795C9.93002 30.9808 9.80391 31.5701 9.69805 32.1448C8.69414 37.5924 9.47813 41.9179 11.9731 43.4006C14.5502 44.9317 18.8753 43.3579 23.0869 39.565C23.4198 39.2652 23.7539 38.9472 24.0885 38.6139C24.5223 39.0443 24.9554 39.4516 25.3862 39.8336C29.4656 43.4504 33.4946 44.9109 35.9873 43.4241C38.5619 41.8885 39.3986 37.2418 38.3123 31.5884C38.2293 31.1566 38.1328 30.7155 38.0244 30.2665C38.3281 30.174 38.6263 30.0785 38.917 29.9792C44.4198 28.1008 48 25.0641 48 21.9583C48 18.9801 44.6498 16.0999 39.4656 14.2612ZM38.2721 27.9739C38.0097 28.0634 37.7404 28.1499 37.4659 28.2338C36.8585 26.2524 36.0386 24.1455 35.0353 21.9686C35.9927 19.8437 36.7809 17.7637 37.3713 15.7951C37.8624 15.9415 38.3389 16.0959 38.7982 16.2588C43.24 17.8343 45.9495 20.1635 45.9495 21.9583C45.9495 23.8701 43.0233 26.3519 38.2721 27.9739ZM36.3007 31.9987C36.781 34.4986 36.8497 36.7587 36.5315 38.5256C36.2456 40.1133 35.6707 41.1718 34.9598 41.5958C33.4471 42.4979 30.2122 41.3253 26.7235 38.2322C26.3235 37.8776 25.9207 37.499 25.5166 37.0983C26.8691 35.5742 28.2208 33.8025 29.5401 31.8348C31.8605 31.6227 34.0528 31.2759 36.0409 30.8024C36.1388 31.2093 36.2258 31.6084 36.3007 31.9987ZM16.3643 41.4399C14.8864 41.9776 13.7093 41.993 12.9977 41.5703C11.4836 40.6706 10.8542 37.1976 11.7128 32.5388C11.8111 32.0053 11.9282 31.4572 12.0631 30.897C14.0294 31.345 16.2056 31.6673 18.5316 31.8616C19.8598 33.787 21.2506 35.5568 22.6521 37.1065C22.3459 37.411 22.0409 37.701 21.7376 37.9742C19.8752 39.6514 18.009 40.8414 16.3643 41.4399ZM9.44036 27.9622C7.09984 27.138 5.16694 26.0668 3.84204 24.8978C2.65153 23.8474 2.05046 22.8045 2.05046 21.9583C2.05046 20.1576 4.65627 17.8607 9.00232 16.2995C9.52965 16.1101 10.0817 15.9315 10.6545 15.7639C11.2552 17.7769 12.0431 19.8815 12.994 22.0098C12.0308 24.1696 11.2317 26.3078 10.6252 28.3444C10.2168 28.2234 9.82108 28.0961 9.44036 27.9622ZM11.7613 11.685C10.8593 6.93523 11.4584 3.35216 12.9659 2.45305C14.5718 1.49522 18.1227 2.86088 21.8653 6.28471C22.1045 6.50354 22.3447 6.73259 22.5856 6.96956C21.1909 8.51242 19.8129 10.2689 18.4965 12.183C16.239 12.3986 14.0781 12.7449 12.0913 13.2086C11.9664 12.6909 11.8557 12.1823 11.7613 11.685ZM32.4664 16.9525C31.9914 16.1072 31.5038 15.282 31.0067 14.4793C32.5382 14.6787 34.0055 14.9435 35.3835 15.2676C34.9698 16.6336 34.4542 18.0618 33.8472 19.526C33.4118 18.6743 32.9513 17.8156 32.4664 16.9525ZM24.0229 8.47941C24.9687 9.53512 25.9159 10.7138 26.8475 11.9927C25.9087 11.947 24.9583 11.9232 24 11.9232C23.0508 11.9232 22.1073 11.9465 21.1744 11.9913C22.1069 10.7244 23.0623 9.54727 24.0229 8.47941ZM15.5254 16.9671C15.0509 17.8147 14.5989 18.6688 14.1704 19.5244C13.5732 18.0653 13.0624 16.6306 12.6451 15.2452C14.0146 14.9294 15.475 14.6713 16.9968 14.4756C16.4927 15.2857 16.0011 16.117 15.5254 16.9669V16.9671ZM17.0406 29.5918C15.4684 29.4111 13.986 29.1662 12.6168 28.8592C13.0408 27.4491 13.5629 25.9837 14.1727 24.4932C14.6024 25.3482 15.0561 26.2026 15.5335 27.052H15.5336C16.0198 27.9174 16.5235 28.7652 17.0406 29.5918ZM24.0796 35.5862C23.1078 34.5059 22.1384 33.3108 21.1916 32.0253C22.1107 32.0625 23.0477 32.0815 24 32.0815C24.9784 32.0815 25.9455 32.0588 26.8975 32.0151C25.9628 33.3237 25.019 34.5206 24.0796 35.5862ZM33.8668 24.4172C34.5084 25.9238 35.0492 27.3815 35.4786 28.7676C34.0869 29.0947 32.5843 29.3582 31.0011 29.554C31.4994 28.7404 31.9912 27.901 32.4746 27.0375C32.9635 26.1639 33.4278 25.289 33.8668 24.4172ZM30.6984 25.9821C29.948 27.3225 29.1777 28.602 28.3957 29.8099C26.9713 29.9148 25.4998 29.9688 24 29.9688C22.5063 29.9688 21.0533 29.921 19.6541 29.8275C18.8406 28.6038 18.0535 27.3204 17.308 25.9936H17.3081C16.5646 24.6704 15.8802 23.336 15.2601 22.009C15.88 20.679 16.5626 19.3431 17.3019 18.0223L17.3017 18.0225C18.043 16.6982 18.8231 15.4211 19.6292 14.2051C21.0567 14.0939 22.5205 14.0359 23.9999 14.0359H24C25.486 14.0359 26.9518 14.0943 28.3789 14.2065C29.1726 15.4136 29.9474 16.6866 30.6916 18.0111C31.4442 19.3505 32.1356 20.6775 32.7609 21.979C32.1375 23.3029 31.4477 24.6433 30.6984 25.9821ZM34.9284 2.3902C36.5357 3.34521 37.1608 7.19676 36.1509 12.2473C36.0865 12.5696 36.014 12.8979 35.9352 13.2305C33.9438 12.7571 31.7813 12.4048 29.5172 12.186C28.1983 10.2509 26.8315 8.49164 25.4596 6.96859C25.8285 6.60301 26.1968 6.25442 26.5636 5.92547C30.1073 2.74812 33.4193 1.49364 34.9284 2.3902ZM24 17.5423C26.3672 17.5423 28.2862 19.5194 28.2862 21.9583C28.2862 24.3972 26.3672 26.3744 24 26.3744C21.6328 26.3744 19.7138 24.3972 19.7138 21.9583C19.7138 19.5194 21.6328 17.5423 24 17.5423Z" fill="#00D8FF"/>
</svg>
