<svg width="48" height="48" viewBox="0 0 48 48" fill="none" xmlns="http://www.w3.org/2000/svg">
<g clip-path="url(#clip0)">
<path d="M33.2591 33.3914C35.0305 33.199 36.3743 31.597 36.3131 29.6744C36.2522 27.752 34.725 26.214 32.8926 26.214H32.7705C30.8768 26.2781 29.4109 27.9442 29.472 29.9307C29.5331 30.892 29.8995 31.7251 30.4493 32.3018C28.3725 36.5955 25.1962 39.7355 20.4319 42.3629C17.1945 44.1573 13.835 44.7982 10.4756 44.3497C7.72683 43.9651 5.58895 42.6836 4.24494 40.5686C2.29044 37.4286 2.10725 34.032 3.7565 30.6357C4.91713 28.2005 6.74939 26.4062 7.91002 25.509C7.6657 24.6759 7.29914 23.2661 7.11595 22.2409C-1.74101 28.9696 -0.824695 38.0694 1.86294 42.3629C3.87857 45.5673 7.97114 47.5538 12.4912 47.5538C13.7128 47.5538 14.9343 47.4256 16.1561 47.1053C23.9747 45.5031 29.8997 40.6327 33.2591 33.3914ZM44.0097 25.4451C39.3673 19.7416 32.5262 16.6016 24.7076 16.6016H23.7304C23.1806 15.4481 22.02 14.6789 20.7373 14.6789H20.615C18.7217 14.7431 17.2558 16.4092 17.3167 18.3959C17.3779 20.3183 18.9049 21.8564 20.7373 21.8564H20.8594C22.2032 21.7922 23.3638 20.8951 23.8524 19.6774H24.9519C29.5943 19.6774 33.9921 21.0872 37.9626 23.8429C41.0166 25.9577 43.2156 28.7133 44.4372 32.0455C45.4755 34.737 45.4144 37.3644 44.3149 39.6075C42.6047 43.0038 39.7339 44.8623 35.9468 44.8623C33.5035 44.8623 31.1824 44.0932 29.9606 43.5164C29.2888 44.1573 28.0671 45.1825 27.2119 45.8236C29.8386 47.1051 32.5262 47.8101 35.0916 47.8101C40.9555 47.8101 45.2924 44.4136 46.9416 41.0173C48.7129 37.3003 48.5907 30.892 44.0097 25.4451ZM12.9798 34.4805C13.041 36.4031 14.568 37.941 16.4004 37.941H16.5227C18.4162 37.8771 19.8821 36.2108 19.821 34.2242C19.76 32.3016 18.2329 30.7638 16.4004 30.7638H16.2783C16.1561 30.7638 15.9727 30.7638 15.8508 30.8277C13.3464 26.4701 12.308 21.7281 12.6746 16.6014C12.9187 12.7563 14.1405 9.42395 16.2783 6.6683C18.0497 4.29721 21.4702 3.14372 23.7915 3.0798C30.2661 2.95154 33.0146 11.4105 33.198 14.807C33.9921 14.9992 35.3359 15.4479 36.2522 15.7683C35.5191 5.38696 29.4109 0.00390625 23.5472 0.00390625C18.0497 0.00390625 12.9798 4.16935 10.964 10.3213C8.15433 18.524 9.98677 26.4062 13.4073 32.6223C13.1021 33.0707 12.9187 33.7757 12.9798 34.4807V34.4805Z" fill="#764ABC"/>
</g>
<defs>
<clipPath id="clip0">
<rect width="48" height="48" fill="white"/>
</clipPath>
</defs>
</svg>
