<svg viewBox="0 0 49 48" fill="none" xmlns="http://www.w3.org/2000/svg">
<path d="M31.859 8.16311L32.0585 3.40361L36.1385 3.15161L36.3215 7.99661C36.3245 8.07425 36.2995 8.15038 36.251 8.21111C36.2247 8.24405 36.1921 8.27137 36.155 8.29146C36.1179 8.31154 36.0772 8.32398 36.0352 8.32804C35.9933 8.3321 35.9509 8.32769 35.9107 8.31507C35.8705 8.30246 35.8332 8.2819 35.801 8.25461L34.226 7.02461L32.3615 8.42561C32.3282 8.45161 32.29 8.4707 32.2492 8.48176C32.2084 8.49283 32.1658 8.49565 32.1239 8.49007C32.082 8.48448 32.0417 8.4706 32.0052 8.44923C31.9687 8.42786 31.9369 8.39943 31.9115 8.36561C31.871 8.30627 31.8524 8.23466 31.859 8.16311V8.16311Z" fill="white"/>
<path d="M32.0586 3.40204L31.8591 8.16304C31.8559 8.23605 31.8788 8.30779 31.9236 8.36554C31.9489 8.39936 31.9808 8.42779 32.0172 8.44916C32.0537 8.47053 32.0941 8.48441 32.136 8.49C32.1779 8.49558 32.2204 8.49276 32.2612 8.48169C32.302 8.47063 32.3402 8.45154 32.3736 8.42554L34.2381 7.02454L35.8131 8.25454C35.8452 8.28183 35.8825 8.30239 35.9227 8.315C35.9629 8.32762 36.0053 8.33203 36.0473 8.32797C36.0892 8.32391 36.1299 8.31147 36.167 8.29139C36.2041 8.2713 36.2367 8.24398 36.2631 8.21104C36.3115 8.15031 36.3365 8.07418 36.3336 7.99654L36.1386 3.15004L38.4876 3.00004C38.7661 2.98152 39.0455 3.0181 39.3098 3.1077C39.5742 3.19731 39.8182 3.33817 40.0281 3.52223C40.2379 3.70628 40.4094 3.92991 40.5326 4.18032C40.6559 4.43073 40.7286 4.703 40.7466 4.98154C40.7466 5.02454 40.7466 5.06804 40.7466 5.11204V42.888C40.7442 43.4493 40.5195 43.9867 40.1216 44.3825C39.7238 44.7784 39.1853 45.0004 38.6241 45H38.5251L10.1031 43.734C9.57073 43.7122 9.0661 43.4909 8.68951 43.114C8.31293 42.7372 8.09196 42.2324 8.07055 41.7L6.75655 7.03504C6.73762 6.48218 6.93574 5.94384 7.30855 5.53515C7.68136 5.12646 8.19928 4.87984 8.75155 4.84804L32.0571 3.40354L32.0586 3.40204Z" fill="#FF4785"/>
<path d="M26.636 18.831C26.636 19.6515 32.216 19.2585 32.966 18.681C32.966 13.086 29.939 10.146 24.395 10.146C18.851 10.146 15.746 13.131 15.746 17.61C15.746 25.41 26.3615 25.56 26.3615 29.814C26.3965 30.0708 26.3719 30.3322 26.2897 30.578C26.2075 30.8238 26.0699 31.0474 25.8875 31.2315C25.7051 31.4156 25.4828 31.5554 25.2378 31.6399C24.9928 31.7244 24.7317 31.7515 24.4745 31.719C22.784 31.719 22.115 30.861 22.1945 27.951C22.1945 27.3195 15.7445 27.1215 15.5495 27.951C15.0485 35.001 19.481 37.041 24.5495 37.041C29.4635 37.041 33.317 34.4415 33.317 29.739C33.317 21.3795 22.544 21.6045 22.544 17.4615C22.5215 17.1969 22.5588 16.9306 22.6532 16.6824C22.7476 16.4342 22.8966 16.2104 23.0892 16.0276C23.2818 15.8448 23.513 15.7077 23.7658 15.6264C24.0186 15.5451 24.2865 15.5217 24.5495 15.558C25.3385 15.558 26.7545 15.696 26.636 18.831Z" fill="white"/>
</svg>
