<svg width="48" height="48" viewBox="0 0 48 48" fill="none" xmlns="http://www.w3.org/2000/svg">
<path fill-rule="evenodd" clip-rule="evenodd" d="M0 24L0 48H24H48L48 24L48 0H24H0L0 24Z" fill="#007ACC"/>
<path fill-rule="evenodd" clip-rule="evenodd" d="M10.6146 24.1589L10.5994 26.1246L13.7232 26.1246H16.847V35.0008V43.877H19.0565H21.2661V35.0008V26.1246H24.3899H27.5137V24.197C27.5137 23.1303 27.4908 22.2389 27.4603 22.216C27.4375 22.1855 23.6356 22.1703 19.0261 22.1779L10.6375 22.2008L10.6146 24.1589Z" fill="white"/>
<path fill-rule="evenodd" clip-rule="evenodd" d="M38.7312 22.1448C39.9503 22.4495 40.8798 22.9905 41.7331 23.8743C42.175 24.3467 42.8303 25.2076 42.8836 25.4133C42.8988 25.4743 40.8112 26.8762 39.5465 27.661C39.5007 27.6914 39.3179 27.4933 39.1122 27.1886C38.495 26.2895 37.8474 25.901 36.8569 25.8324C35.4017 25.7333 34.4646 26.4952 34.4722 27.7676C34.4722 28.141 34.5255 28.3619 34.6779 28.6667C34.9979 29.3295 35.5922 29.7257 37.4588 30.5333C40.895 32.0114 42.3655 32.9867 43.2798 34.3733C44.3007 35.92 44.5293 38.3886 43.836 40.2248C43.0741 42.221 41.1846 43.5771 38.5255 44.0267C37.7027 44.1714 35.7522 44.1486 34.8684 43.9886C32.9407 43.6457 31.1122 42.6933 29.9846 41.4438C29.5427 40.9562 28.6817 39.6838 28.735 39.5924C28.7579 39.5619 28.956 39.44 29.1769 39.3105C29.3903 39.1886 30.1979 38.7238 30.9598 38.2819L32.3388 37.4819L32.6284 37.9086C33.0322 38.5257 33.916 39.3714 34.4493 39.6533C35.9807 40.461 38.0836 40.3467 39.1198 39.4171C39.5617 39.0133 39.7446 38.5943 39.7446 37.9771C39.7446 37.421 39.676 37.1771 39.3865 36.7581C39.0131 36.2248 38.2512 35.7752 36.0874 34.8381C33.6112 33.7714 32.5446 33.1086 31.5693 32.0571C31.0055 31.4476 30.4722 30.4724 30.2512 29.6571C30.0684 28.9791 30.0227 27.28 30.1674 26.5943C30.6779 24.2019 32.4836 22.5333 35.0893 22.0381C35.935 21.8781 37.9007 21.9391 38.7312 22.1448Z" fill="white"/>
</svg>
