<svg viewBox="0 0 49 48" fill="none" xmlns="http://www.w3.org/2000/svg">
<path d="M44.7404 36.7875L25.5966 47.625V39.1837L37.5066 32.625L44.7404 36.7875V36.7875ZM46.0529 35.6025V12.9562L39.0479 17.0062V31.56L46.0491 35.5988L46.0529 35.6025ZM4.77289 36.7875L23.8979 47.6175V39.1837L11.9841 32.625L4.77289 36.7875ZM3.46039 35.6025V12.9562L10.4654 17.0062V31.56L3.46039 35.6025ZM4.28164 11.49L23.9166 0.375V8.535L11.3354 15.4537L11.2341 15.51L4.28164 11.49ZM45.2241 11.49L25.5966 0.375V8.535L38.1779 15.45L38.2791 15.5062L45.2316 11.49H45.2241Z" fill="#8ED6FB"/>
<path d="M23.9166 37.2638L12.1453 30.7876V17.9701L23.9166 24.7501V37.2638ZM25.5966 37.2638L37.3678 30.7951V17.9701L25.5966 24.7501V37.2638ZM12.9441 16.5001L24.7566 9.99756L36.5691 16.5001L24.7566 23.3101L12.9441 16.5001Z" fill="#1C78C0"/>
</svg>
