<svg viewBox="0 0 48 48" fill="none" xmlns="http://www.w3.org/2000/svg">
<g clip-path="url(#clip0)">
<path d="M24 0C17.6348 0 11.5303 2.52856 7.02944 7.02944C2.52856 11.5303 0 17.6348 0 24C0 30.3652 2.52856 36.4697 7.02944 40.9706C11.5303 45.4714 17.6348 48 24 48C30.3652 48 36.4697 45.4714 40.9706 40.9706C45.4714 36.4697 48 30.3652 48 24C48 17.6348 45.4714 11.5303 40.9706 7.02944C36.4697 2.52856 30.3652 0 24 0V0ZM33.2267 31.8667C33.2267 35.7867 31.0933 40.6667 22.4 44.4C23.2 33.28 15.68 34.56 13.8667 31.0667C14.0318 29.6215 14.5581 28.2411 15.3969 27.0527C16.2358 25.8644 17.3602 24.9062 18.6667 24.2667C14.5285 23.5569 10.6691 21.7103 7.52 18.9333C7.65333 20.1867 8.264 21.344 9.22667 22.16C7.1411 21.3739 5.33909 19.9806 4.05333 18.16C5.32473 13.9637 7.86752 10.2657 11.3306 7.5764C14.7937 4.88714 19.0063 3.33932 23.3867 3.14667C21.1467 6.82667 19.3867 14.16 23.3867 18C19.28 18.6667 16.6933 13.3333 14.4267 15.44C11.4133 18.2667 15.3067 22.1333 23.5467 23.6533C32.32 25.2267 33.3067 27.8667 33.2267 31.8667V31.8667ZM36.8 21.2C35.9467 18.24 38.4533 15.2533 41.3067 12.8267C43.0886 15.3953 44.223 18.3567 44.613 21.4584C45.003 24.5601 44.6372 27.7102 43.5467 30.64C41.4933 25.6 37.76 24.4533 36.8 21.12V21.2V21.2Z" fill="black"/>
</g>
<defs>
<clipPath id="clip0">
<rect width="48" height="48" fill="white"/>
</clipPath>
</defs>
</svg>
