<?xml version="1.0" standalone="no"?>
<!DOCTYPE svg PUBLIC "-//W3C//DTD SVG 1.1//EN" "http://www.w3.org/Graphics/SVG/1.1/DTD/svg11.dtd" >
<svg xmlns="http://www.w3.org/2000/svg" xmlns:xlink="http://www.w3.org/1999/xlink" version="1.1">
<metadata>
Created by FontForge 20170731 at Wed Dec 11 03:50:07 2013
 By Aleksey,,,
Copyright (c) 2012 by Vyacheslav Kirilenko, Gayane Bagdasaryan. All rights reserved.
</metadata>
<defs>
<font id="Geometria-HeavyItalic" horiz-adv-x="660" >
  <font-face 
    font-family="Geometria"
    font-weight="900"
    font-style="italic"
    font-stretch="normal"
    units-per-em="1000"
    panose-1="2 11 9 3 2 2 4 9 2 4"
    ascent="790"
    descent="-210"
    x-height="516"
    cap-height="700"
    bbox="-405 -309 1470 949"
    underline-thickness="50"
    underline-position="-250"
    slope="-9"
    unicode-range="U+0020-FB04"
  />
<missing-glyph horiz-adv-x="670" 
d="M617 0h-563l111 700h563zM303 563l-67 -426h243l67 426h-243z" />
    <glyph glyph-name="ij" unicode="ij" horiz-adv-x="625" 
d="M345 516l-82 -516h-210l81 516h211zM260 540q-50 0 -84 34t-34 85q0 49 34 83q35 35 84 35t84 -35q34 -34 34 -83q0 -50 -34 -84.5t-84 -34.5zM450 659q0 49 34 83q35 35 83 35q49 0 84 -35t35 -83q0 -50 -35 -85q-34 -34 -84 -34q-49 0 -83 34t-34 85zM305 -206
q-83 0 -121 20l26 159q27 -15 67 -15q74 0 85 63l79 495h211l-80 -502q-16 -103 -85.5 -161.5t-181.5 -58.5z" />
    <glyph glyph-name="f_f" unicode="ff" horiz-adv-x="878" 
d="M356 351l-56 -351h-211l56 351h-81l26 165h81l2 15q12 84 73 133.5t162 49.5q84 0 144 -22l-22 -139q-39 13 -78 13q-62 0 -70 -50h201l2 15q12 84 73 133.5t162 49.5q84 0 144 -22l-22 -139q-39 13 -78 13q-62 0 -70 -50h142l-26 -165h-142l-56 -351h-211l56 351h-201z
" />
    <glyph glyph-name="fi" unicode="fi" horiz-adv-x="766" 
d="M356 351l-56 -351h-211l56 351h-81l26 165h81l3 19q13 84 73 131.5t161 47.5q84 0 144 -22l-22 -139q-39 13 -78 13q-62 0 -70 -50h412l-82 -516h-210l55 351h-201zM709 540q-50 0 -84 34t-34 85q0 49 34 83q35 35 84 35q48 0 83 -35t35 -83q0 -50 -34 -84.5t-84 -34.5z
" />
    <glyph glyph-name="fl" unicode="fl" horiz-adv-x="792" 
d="M611 700h211l-76 -486q-4 -25 -4 -29q0 -20 24 -20q12 0 24 5l-26 -163q-48 -20 -101 -20q-62 0 -100.5 35t-38.5 96q0 17 8 73l25 160h-201l-56 -351h-211l56 351h-81l26 165h81l3 19q13 84 73 131.5t161 47.5q84 0 144 -22l-22 -139q-39 13 -78 13q-62 0 -70 -50h200z
" />
    <glyph glyph-name="f_f_i" unicode="ffi" horiz-adv-x="1179" 
d="M89 0l56 351h-81l26 165h81l2 15q12 84 73 133.5t162 49.5q84 0 144 -22l-22 -139q-39 13 -78 13q-62 0 -70 -50h201l2 15q12 84 73 133.5t162 49.5q84 0 144 -22l-22 -139q-39 13 -78 13q-62 0 -70 -50h412l-82 -516h-210l55 351h-201l-56 -351h-211l56 351h-201
l-56 -351h-211zM1121 540q-50 0 -84 34t-34 85q0 49 34 83q35 35 84 35q48 0 83 -35t35 -83q0 -50 -34 -84.5t-84 -34.5z" />
    <glyph glyph-name="f_f_l" unicode="ffl" horiz-adv-x="1205" 
d="M356 351l-56 -351h-211l56 351h-81l26 165h81l2 15q12 84 73 133.5t162 49.5q84 0 144 -22l-22 -139q-39 13 -78 13q-62 0 -70 -50h201l2 15q12 84 73 133.5t162 49.5q84 0 144 -22l-22 -139q-39 13 -78 13q-62 0 -70 -50h201l29 184h211l-77 -494q-3 -18 -3 -21
q0 -20 24 -20q12 0 24 5l-26 -163q-48 -20 -101 -20q-62 0 -100.5 35t-38.5 96q0 17 8 73l25 160h-202l-56 -351h-211l56 351h-201z" />
    <glyph glyph-name=".notdef" horiz-adv-x="670" 
d="M617 0h-563l111 700h563zM303 563l-67 -426h243l67 426h-243z" />
    <glyph glyph-name=".null" horiz-adv-x="0" 
 />
    <glyph glyph-name="nonmarkingreturn" horiz-adv-x="333" 
 />
    <glyph glyph-name="space" unicode=" " horiz-adv-x="248" 
 />
    <glyph glyph-name="exclam" unicode="!" horiz-adv-x="388" 
d="M217 -14q-50 0 -86 36t-36 86q0 52 35 87q36 36 87 36t87 -36q36 -35 36 -87q0 -50 -36 -86t-87 -36zM330 264h-191l39 436h250z" />
    <glyph glyph-name="quotedbl" unicode="&#x22;" horiz-adv-x="471" 
d="M488 359h-170l53 341h170zM260 359h-170l53 341h170z" />
    <glyph glyph-name="numbersign" unicode="#" horiz-adv-x="784" 
d="M340 0h-163l24 143h-134l25 150h132l18 114h-132l23 150h134l21 143h163l-22 -143h101l22 143h163l-22 -143h132l-25 -150h-131l-19 -114h133l-25 -150h-131l-23 -143h-163l23 143h-101zM405 407l-19 -114h101l19 114h-101z" />
    <glyph glyph-name="dollar" unicode="$" horiz-adv-x="653" 
d="M676 658l-35 -197q-40 26 -113 47t-134 21q-74 0 -74 -27q0 -11 20.5 -20t84.5 -29l38 -12q100 -32 148 -79t48 -123q0 -105 -72 -169q-73 -65 -187 -80l-14 -95h-183l15 100q-106 15 -174 65l35 216q40 -41 120 -73q81 -30 149 -30q88 0 88 39q0 16 -26 27q-15 8 -44 16
q-7 2 -29.5 9t-32.5 10l-60 20q-18 7 -54 26q-30 17 -49 36q-43 47 -43 116q0 98 61.5 157.5t171.5 77.5l15 98h183l-16 -99q95 -13 163 -48z" />
    <glyph glyph-name="percent" unicode="%" horiz-adv-x="853" 
d="M144 0l538 700h139l-537 -700h-140zM277 706q78 0 130 -47q52 -46 52 -122q0 -73 -54 -129q-53 -54 -133 -54q-77 0 -130 47q-52 46 -52 124q0 72 53 127q54 54 134 54zM272 471q23 0 39.5 19.5t16.5 48.5q0 23 -14 36.5t-35 13.5q-25 0 -41.5 -19.5t-16.5 -48.5
q0 -23 14.5 -36.5t36.5 -13.5zM692 347q78 0 130 -47q52 -46 52 -122q0 -74 -54 -129q-52 -54 -133 -54q-77 0 -130 47q-52 46 -52 124q0 72 53 127q54 54 134 54zM687 112q23 0 39.5 19.5t16.5 48.5q0 23 -14 36.5t-35 13.5q-25 0 -41.5 -19.5t-16.5 -48.5
q0 -23 14.5 -36.5t36.5 -13.5z" />
    <glyph glyph-name="ampersand" unicode="&#x26;" horiz-adv-x="765" 
d="M498 337l37 -48q24 34 35 101h187q-11 -71 -41 -136q-32 -68 -67 -109l116 -145h-233l-31 35q-70 -49 -175 -49q-117 0 -191 61q-74 62 -74 167q0 79 43 135q44 57 98 80q-19 37 -19 92q0 85 65 138q66 54 166 54q124 0 213 -66l-25 -168q-31 25 -72.5 41t-75.5 16
q-58 0 -58 -42q0 -22 23 -57l23 -31l29 -36q19 -22 27 -33zM344 154q31 0 50 13l-100 127q-33 -20 -33 -63q0 -34 22.5 -55.5t60.5 -21.5z" />
    <glyph glyph-name="quotesingle" unicode="'" horiz-adv-x="243" 
d="M260 359h-170l53 341h170z" />
    <glyph glyph-name="parenleft" unicode="(" horiz-adv-x="384" 
d="M266 706h213q-100 -114 -157 -251t-57 -275q0 -210 122 -386h-212q-104 151 -104 380q0 307 195 532z" />
    <glyph glyph-name="parenright" unicode=")" horiz-adv-x="385" 
d="M197 -206h-213q100 114 157 251t57 275q0 210 -122 386h212q104 -151 104 -380q0 -307 -195 -532z" />
    <glyph glyph-name="asterisk" unicode="*" horiz-adv-x="410" 
d="M314 323h-109l22 108l-96 -61l-40 95l104 46l-89 47l70 95l76 -62l12 109h109l-22 -109l97 62l39 -95l-104 -47l89 -46l-69 -95l-77 61z" />
    <glyph glyph-name="plus" unicode="+" horiz-adv-x="610" 
d="M74 245l29 183h178l28 179h183l-28 -179h177l-29 -183h-177l-28 -178h-183l28 178h-178z" />
    <glyph glyph-name="comma" unicode="," horiz-adv-x="326" 
d="M-40 -152l146 351h218l-195 -351h-169z" />
    <glyph glyph-name="hyphen" unicode="-" horiz-adv-x="485" 
d="M441 193h-337l29 183h337z" />
    <glyph glyph-name="period" unicode="." horiz-adv-x="293" 
d="M163 231q50 0 86 -36q36 -34 36 -86q0 -51 -36 -87t-86 -36q-49 0 -87 36q-36 36 -36 87t36 86q36 36 87 36z" />
    <glyph glyph-name="slash" unicode="/" horiz-adv-x="550" 
d="M708 792l-569 -932h-211l568 932h212z" />
    <glyph glyph-name="zero" unicode="0" horiz-adv-x="699" 
d="M430 714q136 0 217 -90t81 -230q0 -145 -90 -273q-43 -62 -112 -98.5t-150 -36.5q-136 0 -217 89q-81 90 -81 231q0 145 89 272q44 62 113 99t150 37zM383 182q41 0 71 36q55 66 55 174q0 57 -21.5 91.5t-64.5 34.5q-41 0 -72 -37q-54 -65 -54 -173q0 -57 21.5 -91.5
t64.5 -34.5z" />
    <glyph glyph-name="one" unicode="1" horiz-adv-x="413" 
d="M360 0h-210l75 476l-148 -57l33 203l176 78h185z" />
    <glyph glyph-name="two" unicode="2" horiz-adv-x="577" 
d="M107 458l34 210q79 46 196 46q103 0 177 -59q73 -58 73 -164q0 -73 -41.5 -134.5t-135.5 -130.5l-64 -47h230l-28 -179h-521l25 153l196 157q72 60 96 88q25 29 25 59t-21 47t-61 17q-85 0 -180 -63z" />
    <glyph glyph-name="three" unicode="3" horiz-adv-x="580" 
d="M606 542l-136 -102q52 -26 84.5 -73t32.5 -112q0 -122 -85 -195q-86 -74 -221 -74q-73 0 -139.5 18.5t-104.5 45.5l32 194q83 -72 197 -72q48 0 79 20t31 57q0 27 -22.5 45t-65.5 18q-65 0 -113 -22l21 128l148 103h-213l30 179h471z" />
    <glyph glyph-name="four" unicode="4" horiz-adv-x="645" 
d="M541 0h-203l25 158h-329l24 149l382 393h212l-60 -380h91l-26 -162h-91zM412 466l-147 -146h124z" />
    <glyph glyph-name="five" unicode="5" horiz-adv-x="575" 
d="M333 521l-11 -49l23 1q110 0 176 -60q67 -58 67 -153q0 -131 -90 -203q-91 -71 -236 -71q-141 0 -223 58l30 196q94 -68 192 -68q49 0 79.5 19.5t30.5 60.5q0 65 -114 65q-64 0 -160 -26l105 409h408l-29 -179h-248z" />
    <glyph glyph-name="six" unicode="6" horiz-adv-x="632" 
d="M446 474q86 0 140 -61q55 -61 55 -150q0 -122 -81 -200q-82 -77 -213 -77q-130 0 -197 79t-67 202q0 171 96 305q47 65 121.5 103.5t163.5 38.5q114 0 182 -52l-30 -184q-61 52 -147 52q-58 0 -99.5 -27.5t-57.5 -77.5q20 23 57.5 36t76.5 13zM351 161q35 0 58.5 24
t23.5 60q0 33 -17.5 51.5t-49.5 18.5q-49 0 -81 -41q-5 -15 -5 -37q0 -35 20 -55.5t51 -20.5z" />
    <glyph glyph-name="seven" unicode="7" horiz-adv-x="578" 
d="M282 0h-227l340 521h-290l28 179h527l-27 -167z" />
    <glyph glyph-name="eight" unicode="8" horiz-adv-x="650" 
d="M551 359q40 -19 66 -60.5t26 -88.5q0 -102 -85 -163t-202 -61q-54 0 -105.5 12.5t-96 37t-71.5 67t-27 96.5q0 62 38 112.5t101 72.5q-30 18 -48 51.5t-18 71.5q0 91 79 149t187 58q61 0 119 -20q58 -19 100 -66q43 -46 43 -112q0 -50 -28.5 -91.5t-77.5 -65.5zM350 162
q34 0 59.5 19t25.5 49q0 27 -22 46t-58 19q-34 0 -59.5 -19.5t-25.5 -50.5q0 -26 22 -44.5t58 -18.5zM456 487q0 24 -18 39t-48 15q-28 0 -47.5 -15.5t-19.5 -41.5q0 -22 18.5 -37.5t45.5 -15.5q29 0 49 15.5t20 40.5z" />
    <glyph glyph-name="nine" unicode="9" horiz-adv-x="632" 
d="M283 226q-86 0 -141 61q-54 61 -54 150q0 123 81 199q81 78 213 78q129 0 196 -79q68 -80 68 -202q0 -171 -96 -305q-47 -65 -121.5 -103.5t-163.5 -38.5q-114 0 -182 52l30 184q61 -52 147 -52q58 0 99.5 27.5t57.5 77.5q-20 -23 -57.5 -36t-76.5 -13zM378 539
q-35 0 -58.5 -24t-23.5 -60q0 -33 17.5 -51.5t49.5 -18.5q49 0 81 41q5 15 5 37q0 35 -20.5 55.5t-50.5 20.5z" />
    <glyph glyph-name="colon" unicode=":" horiz-adv-x="293" 
d="M211 529q50 0 86 -36q36 -35 36 -86t-36 -87t-86 -36q-49 0 -87 36q-36 36 -36 87t36 86q36 36 87 36zM163 231q50 0 86 -36q36 -34 36 -86q0 -51 -36 -87t-86 -36q-49 0 -87 36q-36 36 -36 87t36 86q36 36 87 36z" />
    <glyph glyph-name="semicolon" unicode=";" horiz-adv-x="331" 
d="M-22 -152l146 351h218l-195 -351h-169zM261 529q50 0 86 -36q36 -35 36 -86t-36 -87t-86 -36q-49 0 -87 36q-36 36 -36 87t36 86q36 36 87 36z" />
    <glyph glyph-name="less" unicode="&#x3c;" horiz-adv-x="610" 
d="M105 435l570 209l-34 -212l-344 -105l311 -105l-30 -195l-505 210z" />
    <glyph glyph-name="equal" unicode="=" horiz-adv-x="610" 
d="M631 365h-538l28 180h538zM594 130h-538l28 180h538z" />
    <glyph glyph-name="greater" unicode="&#x3e;" horiz-adv-x="610" 
d="M418 346l-311 105l30 193l506 -209l-32 -198l-571 -210l34 214z" />
    <glyph glyph-name="question" unicode="?" horiz-adv-x="502" 
d="M237 231q50 0 86 -36q36 -34 36 -86q0 -51 -36 -87t-86 -36q-49 0 -87 36q-36 36 -36 87t36 86q36 36 87 36zM360 264h-200l23 157q6 0 31 4q41 6 47 8q39 7 70 22.5t27 37.5q0 37 -88 37q-98 0 -180 -38l28 173q88 49 207 49q59 0 116 -17t96 -59q42 -44 42 -106
q0 -161 -211 -213z" />
    <glyph glyph-name="at" unicode="@" horiz-adv-x="917" 
d="M592 500h169l-45 -294q-4 -25 -4 -44q0 -55 45 -55q49 0 91 64q42 65 42 158q0 145 -99 244t-267 99q-170 0 -295 -125q-124 -124 -124 -303q0 -159 101 -262q101 -102 266 -102q119 0 230 66l-7 -50q-100 -58 -225 -58q-176 0 -294 113q-116 113 -116 291q0 124 60 232
q60 110 168 174q108 66 239 66q177 0 293 -111q117 -109 117 -273q0 -120 -66 -203q-64 -82 -170 -82q-103 0 -135 65q-68 -71 -156 -71q-83 0 -132 58t-49 148q0 65 24 124q26 62 81 101t125 39q41 0 75 -17.5t50 -40.5zM548 226l16 95q-24 39 -68 39q-38 0 -62.5 -28
t-24.5 -70q0 -35 20.5 -54.5t51.5 -19.5q41 0 67 38z" />
    <glyph glyph-name="A" unicode="A" horiz-adv-x="783" 
d="M400 704h205l178 -704h-226l-26 131h-235l-68 -131h-227zM498 292l-33 166l-86 -166h119z" />
    <glyph glyph-name="B" unicode="B" horiz-adv-x="702" 
d="M612 389q39 -12 74 -54q35 -41 35 -106q0 -104 -79 -167q-79 -62 -197 -62h-391l110 700h331q95 0 152 -40.5t57 -116.5q0 -48 -24 -89t-68 -65zM295 173h113q33 0 54 17t21 46q0 24 -18 38.5t-48 14.5h-103zM454 533h-102l-14 -94h109q28 0 43.5 14t15.5 39
q0 19 -14.5 30t-37.5 11z" />
    <glyph glyph-name="C" unicode="C" horiz-adv-x="661" 
d="M303 330q0 -66 45.5 -107t122.5 -41q111 0 190 53l-34 -211q-96 -38 -177 -38q-164 0 -265 92t-101 239q0 180 116 288q116 109 304 109q113 0 212 -38l-35 -199q-77 41 -178 41q-93 0 -146.5 -50.5t-53.5 -137.5z" />
    <glyph glyph-name="D" unicode="D" horiz-adv-x="776" 
d="M164 700h274q160 0 257 -91q97 -90 97 -234q0 -162 -115 -268q-116 -107 -294 -107h-329zM351 515l-53 -330h94q86 0 135 51.5t49 134.5q0 61 -41 102q-41 42 -108 42h-76z" />
    <glyph glyph-name="E" unicode="E" horiz-adv-x="650" 
d="M609 0h-555l111 700h549l-29 -185h-334l-10 -62h262l-27 -170h-262l-16 -98h340z" />
    <glyph glyph-name="F" unicode="F" horiz-adv-x="631" 
d="M268 0h-214l110 700h550l-29 -185h-335l-11 -69h241l-27 -170h-241z" />
    <glyph glyph-name="G" unicode="G" horiz-adv-x="748" 
d="M532 192l33 216h216l-53 -326q-108 -96 -297 -96q-149 0 -249 92q-98 93 -98 241q0 178 116 286q116 109 304 109q109 0 208 -33l-35 -200q-73 37 -174 37q-94 0 -147 -50.5t-53 -141.5q0 -72 43 -112q44 -41 105 -41q49 0 81 19z" />
    <glyph glyph-name="H" unicode="H" horiz-adv-x="750" 
d="M268 0h-214l110 700h215l-38 -237h215l38 237h214l-111 -700h-214l44 276h-215z" />
    <glyph glyph-name="I" unicode="I" horiz-adv-x="328" 
d="M271 0h-214l111 700h214z" />
    <glyph glyph-name="J" unicode="J" horiz-adv-x="509" 
d="M361 700h214l-74 -459q-24 -150 -112 -207q-75 -48 -180 -48q-48 0 -104 12q-53 11 -83 32l33 203q23 -22 62 -37t72 -15q47 0 72.5 28t36.5 96z" />
    <glyph glyph-name="K" unicode="K" horiz-adv-x="746" 
d="M268 0h-214l109 700h214l-40 -258l216 258h265l-288 -337l230 -363h-255l-190 299z" />
    <glyph glyph-name="L" unicode="L" horiz-adv-x="606" 
d="M586 0h-532l110 700h215l-82 -515h318z" />
    <glyph glyph-name="M" unicode="M" horiz-adv-x="839" 
d="M262 0h-208l111 700h211l113 -249l194 249h214l-111 -700h-206l62 392l-125 -167h-116l-77 167z" />
    <glyph glyph-name="N" unicode="N" horiz-adv-x="760" 
d="M708 0h-175l-215 348l-54 -348h-210l110 700h181l210 -346l54 346h209z" />
    <glyph glyph-name="O" unicode="O" horiz-adv-x="816" 
d="M475 714q163 0 260 -94t97 -246q0 -166 -113 -277t-278 -111q-163 0 -260 94t-97 246q0 166 113 277q114 111 278 111zM447 182q76 0 121 54t45 138q0 59 -39 101q-39 43 -105 43q-74 0 -120 -55q-46 -53 -46 -137q0 -58 39 -102q39 -42 105 -42z" />
    <glyph glyph-name="P" unicode="P" horiz-adv-x="645" 
d="M164 700h308q111 0 176 -56t65 -144q0 -112 -81 -184t-208 -72h-118l-38 -244h-214zM352 525l-20 -125h71q42 0 68 18t26 54q0 53 -68 53h-77z" />
    <glyph glyph-name="Q" unicode="Q" horiz-adv-x="816" 
d="M475 714q163 0 260 -94t97 -246q0 -121 -65 -218t-170 -140q23 -27 77 -27q42 0 87 20l-28 -176q-60 -23 -122 -23q-112 0 -199 119l-46 63q-129 21 -206 111q-76 91 -76 223q0 166 113 277q114 111 278 111zM447 182q76 0 121 54t45 138q0 59 -39 101q-39 43 -105 43
q-74 0 -120 -55q-46 -53 -46 -137q0 -58 39 -102q39 -42 105 -42z" />
    <glyph glyph-name="R" unicode="R" horiz-adv-x="720" 
d="M568 275l178 -275h-242l-159 250h-38l-39 -250h-214l110 700h316q110 0 175 -60t65 -150q0 -71 -41 -128t-111 -87zM351 520l-17 -113h97q36 0 57 16t21 45q0 24 -17.5 38t-47.5 14h-93z" />
    <glyph glyph-name="S" unicode="S" horiz-adv-x="653" 
d="M676 658l-35 -197q-40 26 -113 47t-134 21q-74 0 -74 -27q0 -11 20.5 -20t84.5 -29l38 -12q100 -32 148 -79t48 -123q0 -119 -93 -186q-91 -67 -233 -67q-188 0 -289 74l35 216q40 -41 120 -73q81 -30 149 -30q88 0 88 39q0 16 -26 27q-15 8 -44 16q-7 2 -29.5 9
t-32.5 10l-60 20q-18 7 -54 26q-30 17 -49 36q-43 47 -43 116q0 119 89 181q88 61 231 61q148 0 258 -56z" />
    <glyph glyph-name="T" unicode="T" horiz-adv-x="659" 
d="M104 515l29 185h615l-29 -185h-201l-82 -515h-214l82 515h-200z" />
    <glyph glyph-name="U" unicode="U" horiz-adv-x="733" 
d="M515 284l67 416h216l-68 -428q-23 -139 -119 -212q-98 -74 -228 -74q-77 0 -143 27q-69 28 -111.5 90t-42.5 143q0 21 5 59l62 395h216l-65 -405q-2 -22 -2 -23q0 -44 26.5 -67t70.5 -23q45 0 76 25t40 77z" />
    <glyph glyph-name="V" unicode="V" horiz-adv-x="763" 
d="M482 -4h-204l-168 704h233l80 -417l213 417h237z" />
    <glyph glyph-name="W" unicode="W" horiz-adv-x="1078" 
d="M414 -4h-187l-117 704h229l38 -373l191 375h162l73 -375l154 373h234l-341 -704h-183l-67 368z" />
    <glyph glyph-name="X" unicode="X" horiz-adv-x="738" 
d="M130 700h242l75 -167l130 167h253l-278 -324l205 -376h-243l-107 212l-172 -212h-254l324 375z" />
    <glyph glyph-name="Y" unicode="Y" horiz-adv-x="718" 
d="M465 0h-214l49 306l-194 394h237l91 -197l155 197h243l-318 -389z" />
    <glyph glyph-name="Z" unicode="Z" horiz-adv-x="635" 
d="M621 0h-606l24 152l363 363h-297l29 185h582l-24 -151l-363 -364h321z" />
    <glyph glyph-name="bracketleft" unicode="[" horiz-adv-x="452" 
d="M403 -206h-376l144 912h376l-25 -159h-186l-94 -594h186z" />
    <glyph glyph-name="backslash" unicode="\" horiz-adv-x="551" 
d="M293 792l273 -932h-190l-273 932h190z" />
    <glyph glyph-name="bracketright" unicode="]" horiz-adv-x="452" 
d="M127 706h376l-144 -912h-375l24 159h186l94 594h-186z" />
    <glyph glyph-name="asciicircum" unicode="^" horiz-adv-x="579" 
d="M267 331h-202l247 430h199l108 -430h-193l-39 251z" />
    <glyph glyph-name="underscore" unicode="_" horiz-adv-x="666" 
d="M640 -170h-669l20 136h670z" />
    <glyph glyph-name="grave" unicode="`" horiz-adv-x="515" 
d="M215 734h248l70 -158h-174z" />
    <glyph glyph-name="a" unicode="a" horiz-adv-x="611" 
d="M584 154q12 0 27 5l-24 -143q-41 -29 -107 -29q-97 0 -125 61q-20 -26 -59 -43.5t-85 -17.5q-82 0 -129 44t-47 114q0 84 58 129q58 46 149 46q73 0 128 -28q2 14 2 19q0 60 -109 60q-77 0 -137 -27l26 157q81 28 175 28q108 0 181 -47q73 -46 73 -149q0 -25 -9 -71
l-9 -50q-4 -23 -4 -37q0 -21 25 -21zM357 146l7 51q-20 20 -61 20q-30 0 -48.5 -14t-18.5 -40q0 -20 15 -33.5t40 -13.5q42 0 66 30z" />
    <glyph glyph-name="b" unicode="b" horiz-adv-x="659" 
d="M268 58l-9 -58h-210l109 700h211l-37 -242q14 26 54 48q41 23 91 23q87 0 143 -68t56 -169q0 -74 -29 -143t-90 -115q-62 -47 -144 -47q-53 0 -94 23q-41 24 -51 48zM306 316l-19 -117q25 -37 84 -37q40 0 65 31t25 79q0 39 -20 60.5t-53 21.5q-47 0 -82 -38z" />
    <glyph glyph-name="c" unicode="c" horiz-adv-x="509" 
d="M341 -13q-117 0 -199 67t-82 188q0 122 90 204q92 83 227 83q92 0 166 -38l-28 -169q-96 45 -171.5 22t-75.5 -92q0 -35 23 -56q36 -31 101 -31q56 0 108 20l-28 -174q-62 -24 -131 -24z" />
    <glyph glyph-name="d" unicode="d" horiz-adv-x="658" 
d="M467 458l40 242h211l-111 -700h-211l8 58q-14 -27 -54 -49t-91 -22q-88 0 -144 68q-55 67 -55 169q0 77 28 143q29 69 90 115q62 47 145 47q53 0 93 -24q40 -22 51 -47zM430 205l17 107q-26 43 -82 43q-39 0 -64.5 -31.5t-25.5 -78.5q0 -39 20 -60.5t53 -21.5q48 0 82 42
z" />
    <glyph glyph-name="e" unicode="e" horiz-adv-x="579" 
d="M595 310q0 -36 -13 -97h-322q5 -29 39.5 -45t83.5 -16q88 0 169 40l-24 -155q-68 -50 -202 -50q-113 0 -190 68q-76 67 -76 180q0 129 84 211q86 83 210 83q105 0 173 -59t68 -160zM265 313h140v6q0 32 -15.5 50.5t-42.5 18.5q-29 0 -51 -19.5t-31 -55.5z" />
    <glyph glyph-name="f" unicode="f" horiz-adv-x="466" 
d="M356 351l-56 -351h-211l56 351h-81l26 165h81l3 19q13 84 73 131.5t161 47.5q84 0 144 -22l-22 -139q-39 13 -78 13q-62 0 -70 -50h142l-26 -165h-142z" />
    <glyph glyph-name="g" unicode="g" horiz-adv-x="645" 
d="M459 457l10 59h208l-70 -453q-23 -146 -135 -211q-99 -58 -224 -58q-134 0 -198 43l28 179q73 -49 174 -49q30 0 55 6q26 6 54 31q29 26 36 67l5 28q-52 -68 -151 -68q-85 0 -138 62t-53 155q0 70 27 131q28 63 88 106q61 44 140 44q50 0 90 -22t54 -50zM428 237l13 85
q-28 34 -79 34q-38 0 -62.5 -25t-24.5 -62q0 -31 19.5 -49t51.5 -18q47 0 82 35z" />
    <glyph glyph-name="h" unicode="h" horiz-adv-x="616" 
d="M626 287l-45 -287h-210l40 259q3 18 3 35q0 51 -46 51q-34 0 -59 -27l-50 -318h-210l111 700h210l-40 -250q54 79 152 79q69 0 109 -47t40 -125q0 -37 -5 -70z" />
    <glyph glyph-name="i" unicode="i" horiz-adv-x="318" 
d="M345 516l-82 -516h-210l81 516h211zM260 540q-50 0 -84 34t-34 85q0 49 34 83q35 35 84 35t84 -35q34 -34 34 -83q0 -50 -34 -84.5t-84 -34.5z" />
    <glyph glyph-name="j" unicode="j" horiz-adv-x="318" 
d="M143 659q0 49 34 83q35 35 83 35q49 0 84 -35t35 -83q0 -50 -35 -85q-34 -34 -84 -34q-49 0 -83 34t-34 85zM-2 -206q-83 0 -121 20l26 159q27 -15 67 -15q74 0 85 63l79 495h211l-80 -502q-16 -103 -85.5 -161.5t-181.5 -58.5z" />
    <glyph glyph-name="k" unicode="k" horiz-adv-x="649" 
d="M260 0h-211l111 700h211l-58 -362l146 178h258l-224 -245l174 -271h-242l-132 209z" />
    <glyph glyph-name="l" unicode="l" horiz-adv-x="329" 
d="M148 700h211l-76 -486q-4 -25 -4 -29q0 -20 24 -20q12 0 24 5l-26 -163q-48 -20 -101 -20q-62 0 -100.5 35t-38.5 96q0 17 8 73z" />
    <glyph glyph-name="m" unicode="m" horiz-adv-x="928" 
d="M49 0l81 516h210l-10 -67q22 34 65 57t91 23t83 -24t47 -57q31 37 77.5 59t96.5 22q69 0 111 -41.5t42 -117.5q0 -30 -10 -89l-44 -281h-211l42 269q3 19 3 36q0 41 -39 41q-38 0 -60 -28l-50 -318h-210l41 260q5 28 5 44q0 42 -38 42q-39 0 -63 -30l-50 -316h-210z" />
    <glyph glyph-name="n" unicode="n" horiz-adv-x="616" 
d="M626 287l-45 -287h-210l40 259q3 18 3 35q0 51 -46 51q-32 0 -59 -27l-50 -318h-210l82 516h210l-11 -66q54 79 152 79q69 0 109 -47t40 -125q0 -37 -5 -70z" />
    <glyph glyph-name="o" unicode="o" horiz-adv-x="627" 
d="M357 529q122 0 204 -73q83 -72 83 -188q0 -113 -86 -197q-85 -84 -212 -84q-122 0 -204 72q-82 73 -82 191q0 113 85 195q85 84 212 84zM345 165q40 0 67.5 30.5t27.5 76.5q0 37 -23 58t-59 21q-40 0 -67 -30t-27 -76q0 -37 23 -58.5t58 -21.5z" />
    <glyph glyph-name="p" unicode="p" 
d="M271 57l-41 -257h-211l111 716h212l-9 -58q13 26 54 48q41 23 91 23q87 0 143 -68t56 -169q0 -74 -29 -143t-90 -115q-62 -47 -144 -47q-50 0 -90.5 22t-52.5 48zM304 312l-16 -107q26 -43 82 -43q40 0 66 31.5t26 78.5q0 39 -20.5 60.5t-53.5 21.5q-48 0 -84 -42z" />
    <glyph glyph-name="q" unicode="q" horiz-adv-x="656" 
d="M467 458l10 58h211l-113 -716h-211l40 258q-14 -27 -54 -49t-91 -22q-88 0 -144 68q-55 67 -55 169q0 77 28 143q29 69 90 115q62 47 145 47q53 0 93 -24q40 -22 51 -47zM430 205l17 107q-26 43 -82 43q-39 0 -64.5 -31.5t-25.5 -78.5q0 -39 20 -60.5t53 -21.5
q48 0 82 42z" />
    <glyph glyph-name="r" unicode="r" horiz-adv-x="474" 
d="M259 0h-210l81 516h210l-13 -82q19 31 71 63t105 32q17 0 28 -3l-31 -198q-30 8 -62 8q-85 0 -133 -45z" />
    <glyph glyph-name="s" unicode="s" horiz-adv-x="506" 
d="M536 470l-27 -151q-91 62 -183 62q-35 0 -35 -18q0 -7 14 -13.5t59 -20.5q83 -25 117 -60.5t34 -95.5t-35.5 -104t-92.5 -64q-54 -18 -118 -18q-66 0 -131.5 15t-106.5 42l26 155q86 -62 194 -62q49 0 49 19q0 13 -26 22l-29 8l-25 8q-72 23 -110.5 57t-38.5 88
q0 94 71 142q70 48 180 48q129 0 214 -59z" />
    <glyph glyph-name="t" unicode="t" horiz-adv-x="456" 
d="M114 142q0 9 3 39l26 170h-81l26 165h82l20 124h208l-19 -124h117l-26 -165h-117l-18 -120q-3 -27 -3 -32q0 -34 43 -34q35 0 72 20l-26 -163q-58 -35 -140 -35q-74 0 -120.5 41.5t-46.5 113.5z" />
    <glyph glyph-name="u" unicode="u" horiz-adv-x="622" 
d="M77 229l45 287h210l-40 -259q-3 -18 -3 -37q0 -49 46 -49q37 0 59 27l50 318h210l-82 -516h-210l11 66q-54 -79 -152 -79q-69 0 -109 47t-40 125q0 37 5 70z" />
    <glyph glyph-name="v" unicode="v" horiz-adv-x="605" 
d="M396 -4h-190l-129 520h216l46 -267l133 267h220z" />
    <glyph glyph-name="w" unicode="w" horiz-adv-x="831" 
d="M336 -4h-176l-80 520h196l29 -242l106 244h160l30 -243l104 241h210l-250 -520h-178l-39 241z" />
    <glyph glyph-name="x" unicode="x" horiz-adv-x="607" 
d="M91 516h218l48 -121l85 121h234l-209 -251l136 -265h-221l-53 129l-95 -129h-234l221 264z" />
    <glyph glyph-name="y" unicode="y" horiz-adv-x="606" 
d="M130 -206q-81 0 -120 24l29 181q33 -27 83 -27q33 0 52 9.5t33 35.5l-132 499h219l44 -292l129 292h219l-308 -566q-84 -156 -248 -156z" />
    <glyph glyph-name="z" unicode="z" horiz-adv-x="545" 
d="M518 0h-494l22 139l237 212h-194l26 165h468l-22 -144l-243 -207h226z" />
    <glyph glyph-name="braceleft" unicode="{" horiz-adv-x="434" 
d="M119 -10l10 66q4 20 4 44q0 33 -14 49t-49 20l26 162q45 5 65.5 31t29.5 82l10 66q13 87 76 142q62 54 152 54h100l-24 -159h-56q-22 0 -39.5 -16t-21.5 -38l-19 -124q-15 -96 -113 -119q77 -20 77 -94q0 -1 -2 -25l-16 -99q-5 -33 -5 -34q0 -20 12 -32.5t33 -12.5h56
l-25 -159h-101q-78 0 -123.5 42.5t-45.5 114.5q0 18 3 39z" />
    <glyph glyph-name="bar" unicode="|" horiz-adv-x="355" 
d="M241 -111h-163l138 871h163z" />
    <glyph glyph-name="braceright" unicode="}" horiz-adv-x="435" 
d="M394 510l-10 -66q-4 -20 -4 -44q0 -33 14 -49t49 -20l-26 -162q-45 -5 -65.5 -31t-29.5 -82l-10 -66q-13 -87 -76 -142q-61 -54 -152 -54h-100l24 159h56q22 0 39.5 16t21.5 38l19 124q15 96 113 119q-77 20 -77 94q0 1 2 25l16 99q5 33 5 34q0 20 -12.5 32.5t-34.5 12.5
h-54l25 159h101q78 0 123.5 -42.5t45.5 -114.5q0 -18 -3 -39z" />
    <glyph glyph-name="asciitilde" unicode="~" horiz-adv-x="621" 
d="M504 319q81 0 140 50l-30 -187q-21 -19 -59 -31.5t-79 -12.5q-56 0 -140 28t-141 28q-82 0 -137 -48l30 186q19 19 57.5 32t79.5 13q55 0 139 -29q85 -29 140 -29z" />
    <glyph glyph-name="nbspace" unicode="&#xa0;" horiz-adv-x="248" 
 />
    <glyph glyph-name="exclamdown" unicode="&#xa1;" horiz-adv-x="388" 
d="M250 529q50 0 86 -36t36 -86q0 -51 -36 -87t-86 -36t-87 35q-36 36 -36 88q0 50 36 86t87 36zM37 -200l101 450h191l-42 -450h-250z" />
    <glyph glyph-name="cent" unicode="&#xa2;" horiz-adv-x="509" 
d="M386 -11l-17 -106h-175l20 128q-72 30 -113 89t-41 142q0 101 65 178q64 76 169 100l19 112h175l-18 -114q40 -11 73 -27l-28 -169q-96 45 -171.5 22t-75.5 -92q0 -35 23 -56q36 -31 101 -31q56 0 108 20l-28 -174q-45 -17 -86 -22z" />
    <glyph glyph-name="sterling" unicode="&#xa3;" horiz-adv-x="625" 
d="M83 272l24 149h91l8 48q19 117 97.5 181t204.5 64q105 0 167 -28l-30 -190q-51 22 -109 22q-108 0 -122 -87l-2 -10h177l-24 -149h-176l-2 -14q-10 -59 -47 -73h279l-29 -185h-550l29 185h24q68 0 76 47l6 40h-92z" />
    <glyph glyph-name="currency" unicode="&#xa4;" horiz-adv-x="585" 
d="M550 237l66 -67l-87 -88l-66 66q-115 -61 -230 0l-66 -66l-87 88l66 67q-30 52 -30 114t30 114l-66 67l87 88l66 -66q115 61 230 0l66 66l87 -88l-66 -67q30 -52 30 -114t-30 -114zM286 289q26 -26 62 -26t62 26t26 62t-26 62t-62 26t-62 -26t-26 -62t26 -62z" />
    <glyph glyph-name="yen" unicode="&#xa5;" horiz-adv-x="713" 
d="M86 118l19 123h183l9 53h-183l19 123h135l-151 283h224l93 -193l152 193h233l-244 -283h137l-19 -123h-182l-9 -53h182l-19 -123h-182l-19 -118h-214l19 118h-183z" />
    <glyph glyph-name="brokenbar" unicode="&#xa6;" horiz-adv-x="355" 
d="M241 -111h-163l56 353h163zM323 407h-163l56 353h163z" />
    <glyph glyph-name="section" unicode="&#xa7;" horiz-adv-x="679" 
d="M693 273q0 -101 -104 -146q24 -37 24 -84q0 -107 -81 -162q-82 -56 -196 -56q-152 0 -265 62l28 176q119 -71 228 -71q63 0 63 26q0 14 -25 25q-18 8 -27 11q-9 4 -40 14.5t-42 14.5q-95 37 -140.5 77.5t-45.5 104.5q0 101 104 146q-24 37 -24 83q0 106 81 162
q81 57 196 57q154 0 265 -63l-28 -176q-118 72 -228 72q-63 0 -63 -26q0 -14 25 -26q18 -8 27 -11q22 -6 82 -29q75 -27 127 -66q59 -42 59 -115zM394 230l69 -30q33 4 35 37q0 18 -27 29q-13 8 -27 12q-9 4 -37.5 15t-37.5 15l-69 29q-33 -4 -35 -36q0 -16 26 -30l27 -12
q59 -22 76 -29z" />
    <glyph glyph-name="dieresis" unicode="&#xa8;" horiz-adv-x="515" 
d="M400 584q-29 30 -29 71t29 70q30 29 71 29t70 -29q30 -29 30 -70t-30 -71q-29 -29 -70 -29t-71 29zM234 754q42 0 71 -29t29 -70q0 -42 -29 -71t-71 -29q-41 0 -70.5 29.5t-29.5 70.5t29.5 70t70.5 29z" />
    <glyph glyph-name="copyright" unicode="&#xa9;" horiz-adv-x="791" 
d="M480 146q-96 0 -161 57q-63 57 -63 147t63 146q63 57 160 57q53 0 99 -20v-115q-46 27 -97 27q-43 0 -72 -27t-29 -68q0 -42 29.5 -68.5t75.5 -26.5q59 0 99 29v-116q-45 -22 -104 -22zM447 714q151 0 255 -107q105 -106 105 -257q0 -150 -106 -257q-105 -107 -257 -107
q-151 0 -256 107t-105 257t106 256q107 108 258 108zM444 26q138 0 230 95t92 232q0 135 -91 227q-91 94 -228 94q-138 0 -230 -95t-92 -232q0 -134 91 -228q92 -93 228 -93z" />
    <glyph glyph-name="ordfeminine" unicode="&#xaa;" horiz-adv-x="415" 
d="M461 415q8 0 19 4l-14 -87q-23 -16 -64 -16q-69 0 -84 45q-45 -47 -117 -47q-60 0 -95.5 32t-35.5 83q0 59 43.5 94.5t109.5 35.5q60 0 109 -25q3 15 3 22q0 55 -89 55q-57 0 -108 -23l16 98q54 22 129 22q79 0 126.5 -34t47.5 -102q0 -12 -5 -49l-10 -58q-4 -26 -4 -29
q0 -21 23 -21zM318 431l6 39q-25 19 -67 19q-29 0 -48 -13t-19 -36q0 -19 15.5 -30t40.5 -11q43 0 72 32z" />
    <glyph glyph-name="guillemotleft" unicode="&#xab;" horiz-adv-x="636" 
d="M641 29h-206l-95 177l17 103l151 178h210l-196 -240zM362 29h-206l-95 177l17 103l151 178h210l-196 -240z" />
    <glyph glyph-name="logicalnot" unicode="&#xac;" horiz-adv-x="571" 
d="M555 124h-188l23 150h-312l30 188h500z" />
    <glyph glyph-name="uni00AD" unicode="&#xad;" horiz-adv-x="486" 
d="M441 193h-337l29 183h337z" />
    <glyph glyph-name="registered" unicode="&#xae;" horiz-adv-x="791" 
d="M547 321l117 -153h-139l-105 139h-17v-139h-120v391h189q66 0 106.5 -35.5t40.5 -90.5q0 -77 -72 -112zM403 395h55q37 0 37 32q0 31 -37 31h-55v-63zM447 714q151 0 255 -107q105 -106 105 -257q0 -150 -106 -257q-105 -107 -257 -107q-151 0 -256 107t-105 257t106 256
q107 108 258 108zM444 26q138 0 230 95t92 232q0 135 -91 227q-91 94 -228 94q-138 0 -230 -95t-92 -232q0 -134 91 -228q92 -93 228 -93z" />
    <glyph glyph-name="overscore" unicode="&#xaf;" horiz-adv-x="493" 
d="M106 583l22 137h457l-22 -137h-457z" />
    <glyph glyph-name="degree" unicode="&#xb0;" horiz-adv-x="349" 
d="M318 551q0 25 -16 42t-41 17q-24 0 -40 -17t-17 -42q1 -24 17 -41t40 -17t40.5 17t16.5 41zM144 665q49 49 117 49t117 -49q50 -48 50 -114q0 -65 -50 -115q-50 -48 -117 -48t-117 48q-49 49 -49 115t49 114z" />
    <glyph glyph-name="plusminus" unicode="&#xb1;" horiz-adv-x="610" 
d="M95 371l29 183h177l23 146h183l-23 -146h178l-29 -183h-178l-23 -145h-183l23 145h-177zM574 0h-537l26 171h538z" />
    <glyph glyph-name="twosuperior" unicode="&#xb2;" horiz-adv-x="337" 
d="M126 569l19 114q43 25 109 25q59 0 99 -32.5t40 -88.5q0 -39 -23 -72.5t-75 -70.5l-36 -26h128l-15 -96h-291l14 82l113 86q39 30 53 46.5t14 33.5q0 34 -46 34q-50 0 -103 -35z" />
    <glyph glyph-name="threesuperior" unicode="&#xb3;" horiz-adv-x="324" 
d="M387 615l-76 -55q65 -32 65 -100q0 -66 -47.5 -106t-122.5 -40q-86 0 -136 35l18 105q44 -39 111 -39q28 0 46 10.5t18 30.5q0 14 -13.5 24t-37.5 10q-40 0 -65 -12l11 70l83 55h-119l17 97h262z" />
    <glyph glyph-name="acute" unicode="&#xb4;" horiz-adv-x="492" 
d="M192 576l120 158h248l-195 -158h-173z" />
    <glyph glyph-name="mu" unicode="&#xb5;" horiz-adv-x="632" 
d="M230 -200h-211l113 716h210l-40 -259q-3 -18 -3 -35q0 -51 46 -51q37 0 59 27l50 318h210l-82 -516h-210l11 66q-45 -67 -124 -77z" />
    <glyph glyph-name="paragraph" unicode="&#xb6;" horiz-adv-x="614" 
d="M383 700h288l-110 -700h-214l41 261h-74q-104 0 -164.5 52.5t-60.5 137.5q0 110 87 179q88 70 207 70z" />
    <glyph glyph-name="middot" unicode="&#xb7;" horiz-adv-x="287" 
d="M213 516q50 0 86 -36q36 -35 36 -86t-36 -87t-86 -36q-49 0 -87 36q-36 36 -36 87q0 52 36 86q36 36 87 36z" />
    <glyph glyph-name="cedilla" unicode="&#xb8;" horiz-adv-x="520" 
d="M213 15h165l-57 -174h-242z" />
    <glyph glyph-name="onesuperior" unicode="&#xb9;" horiz-adv-x="262" 
d="M275 322h-115l41 261l-108 -47l18 112l112 52h111z" />
    <glyph glyph-name="ordmasculine" unicode="&#xba;" horiz-adv-x="457" 
d="M312 708q88 0 147 -53q60 -53 60 -136q0 -82 -62 -144q-61 -61 -153 -61q-86 0 -147 53q-59 54 -59 139q0 81 61 141q61 61 153 61zM303 422q39 0 65.5 28t26.5 71q0 35 -22.5 56.5t-58.5 21.5q-40 0 -66 -27t-26 -70q0 -35 23 -57.5t58 -22.5z" />
    <glyph glyph-name="guillemotright" unicode="&#xbb;" horiz-adv-x="636" 
d="M73 487h206l95 -177l-17 -103l-151 -178h-210l196 240zM352 487h206l95 -177l-17 -103l-151 -178h-210l196 240z" />
    <glyph glyph-name="onequarter" unicode="&#xbc;" horiz-adv-x="773" 
d="M223 0h-130l539 700h130zM777 378l-34 -205h51l-15 -88h-50l-14 -85h-111l14 85h-186l14 81l213 212h118zM561 173h71l14 81zM275 322h-115l41 261l-108 -47l18 112l112 52h111z" />
    <glyph glyph-name="onehalf" unicode="&#xbd;" horiz-adv-x="816" 
d="M223 0h-130l539 700h130zM555 247l19 114q43 25 109 25q59 0 99 -32.5t40 -88.5q0 -39 -23 -72.5t-75 -70.5l-36 -26h128l-15 -96h-291l14 82l113 86q39 30 53 46.5t14 33.5q0 34 -46 34q-50 0 -103 -35zM275 322h-115l41 261l-108 -47l18 112l112 52h111z" />
    <glyph glyph-name="threequarters" unicode="&#xbe;" horiz-adv-x="810" 
d="M260 0h-130l539 700h130zM814 378l-34 -205h51l-15 -88h-50l-14 -85h-111l14 85h-186l14 81l213 212h118zM598 173h71l14 81zM387 615l-76 -55q65 -32 65 -100q0 -66 -47.5 -106t-122.5 -40q-86 0 -136 35l18 105q44 -39 111 -39q28 0 46 10.5t18 30.5q0 14 -13.5 24
t-37.5 10q-40 0 -65 -12l11 70l83 55h-119l17 97h262z" />
    <glyph glyph-name="questiondown" unicode="&#xbf;" horiz-adv-x="502" 
d="M351 284q-49 0 -86 35q-36 36 -36 87t36 87t86 36t86 -36q37 -36 37 -87t-36 -87q-37 -35 -87 -35zM228 250h200l-24 -161q-4 -1 -21 -3q-16 -2 -63 -11q-91 -20 -91 -60q0 -37 88 -37q98 0 180 38l-28 -173q-88 -49 -207 -49q-59 0 -116 17q-56 17 -97 59
q-41 44 -41 106q0 83 56.5 137t154.5 78z" />
    <glyph glyph-name="Agrave" unicode="&#xc0;" horiz-adv-x="783" 
d="M400 704h205l178 -704h-226l-26 131h-235l-68 -131h-227zM498 292l-33 166l-86 -166h119zM287 917h248l69 -158h-173z" />
    <glyph glyph-name="Aacute" unicode="&#xc1;" horiz-adv-x="783" 
d="M400 704h205l178 -704h-226l-26 131h-235l-68 -131h-227zM498 292l-33 166l-86 -166h119zM429 759l120 158h248l-195 -158h-173z" />
    <glyph glyph-name="Acircumflex" unicode="&#xc2;" horiz-adv-x="783" 
d="M400 704h205l178 -704h-226l-26 131h-235l-68 -131h-227zM498 292l-33 166l-86 -166h119zM635 917l104 -158h-169l-45 62l-63 -62h-182l157 158h198z" />
    <glyph glyph-name="Atilde" unicode="&#xc3;" horiz-adv-x="783" 
d="M400 704h205l178 -704h-226l-26 131h-235l-68 -131h-227zM498 292l-33 166l-86 -166h119zM639 923h104q-13 -81 -57.5 -126.5t-108.5 -45.5q-33 0 -69 17q-34 17 -52 17q-34 0 -50 -31h-103q25 172 165 172q34 0 67 -16t55 -16q34 0 49 29z" />
    <glyph glyph-name="Adieresis" unicode="&#xc4;" horiz-adv-x="783" 
d="M569 769q-29 30 -29 71t29 70q30 29 71 29t70 -29q30 -29 30 -70t-30 -71q-29 -29 -70 -29t-71 29zM403 939q43 0 72 -29t29 -70q0 -42 -29 -71t-72 -29q-41 0 -70.5 29.5t-29.5 70.5t29.5 70t70.5 29zM400 704h205l178 -704h-226l-26 131h-235l-68 -131h-227zM498 292
l-33 166l-86 -166h119z" />
    <glyph glyph-name="Aring" unicode="&#xc5;" horiz-adv-x="783" 
d="M400 704h205l178 -704h-226l-26 131h-235l-68 -131h-227zM498 292l-33 166l-86 -166h119zM404 840q0 45 32.5 77t77.5 32t76.5 -32t31.5 -77t-31.5 -77t-76.5 -32q-44 0 -78 32q-32 34 -32 77zM514 799q16 0 28.5 12.5t12.5 28.5q0 17 -12 29.5t-29 12.5t-29.5 -12.5
t-12.5 -29.5q0 -16 12.5 -28.5t29.5 -12.5z" />
    <glyph glyph-name="AE" unicode="&#xc6;" horiz-adv-x="1091" 
d="M767 283l-16 -98h328l-29 -185h-543l20 131h-208l-86 -131h-232l469 700h685l-29 -185h-322l-10 -62h250l-27 -170h-250zM589 519h-16l-149 -227h129z" />
    <glyph glyph-name="Ccedilla" unicode="&#xc7;" horiz-adv-x="661" 
d="M303 330q0 -66 45.5 -107t122.5 -41q111 0 190 53l-34 -211q-60 -25 -110 -32l-49 -151h-242l120 156q-121 27 -192 113q-70 85 -70 207q0 180 116 288q116 109 304 109q113 0 212 -38l-35 -199q-77 41 -178 41q-93 0 -146.5 -50.5t-53.5 -137.5z" />
    <glyph glyph-name="Egrave" unicode="&#xc8;" horiz-adv-x="650" 
d="M609 0h-555l111 700h549l-29 -185h-334l-10 -62h262l-27 -170h-262l-16 -98h340zM248 917h248l69 -158h-173z" />
    <glyph glyph-name="Eacute" unicode="&#xc9;" horiz-adv-x="650" 
d="M609 0h-555l111 700h549l-29 -185h-334l-10 -62h262l-27 -170h-262l-16 -98h340zM328 759l120 158h248l-195 -158h-173z" />
    <glyph glyph-name="Ecircumflex" unicode="&#xca;" horiz-adv-x="650" 
d="M609 0h-555l111 700h549l-29 -185h-334l-10 -62h262l-27 -170h-262l-16 -98h340zM578 917l104 -158h-169l-45 62l-63 -62h-182l157 158h198z" />
    <glyph glyph-name="Edieresis" unicode="&#xcb;" horiz-adv-x="650" 
d="M609 0h-555l111 700h549l-29 -185h-334l-10 -62h262l-27 -170h-262l-16 -98h340zM510 769q-29 30 -29 71t29 70q30 29 71 29t70 -29q30 -29 30 -70t-30 -71q-29 -29 -70 -29t-71 29zM344 939q43 0 72 -29t29 -70q0 -42 -29.5 -71t-71.5 -29q-41 0 -70.5 29.5t-29.5 70.5
t29.5 70t70.5 29z" />
    <glyph glyph-name="Igrave" unicode="&#xcc;" horiz-adv-x="328" 
d="M271 0h-214l111 700h214zM58 917h248l69 -158h-173z" />
    <glyph glyph-name="Iacute" unicode="&#xcd;" horiz-adv-x="328" 
d="M271 0h-214l111 700h214zM200 759l120 158h248l-195 -158h-173z" />
    <glyph glyph-name="Icircumflex" unicode="&#xce;" horiz-adv-x="328" 
d="M271 0h-214l111 700h214zM410 917l104 -158h-169l-45 62l-63 -62h-182l157 158h198z" />
    <glyph glyph-name="Idieresis" unicode="&#xcf;" horiz-adv-x="328" 
d="M271 0h-214l111 700h214zM343 769q-29 30 -29 71t29 70q30 29 71 29t70 -29q30 -29 30 -70t-30 -71q-29 -29 -70 -29t-71 29zM177 939q43 0 72 -29t29 -70q0 -42 -29 -71t-72 -29q-41 0 -70.5 29.5t-29.5 70.5t29.5 70t70.5 29z" />
    <glyph glyph-name="Eth" unicode="&#xd0;" horiz-adv-x="820" 
d="M208 700h274q160 0 257 -91q97 -90 97 -234q0 -162 -115 -268q-116 -107 -294 -107h-329l45 290h-81l27 169h81zM359 290l-17 -105h94q86 0 135 51.5t49 134.5q0 61 -41 102q-41 42 -108 42h-76l-9 -56h114l-27 -169h-114z" />
    <glyph glyph-name="Ntilde" unicode="&#xd1;" horiz-adv-x="760" 
d="M708 0h-175l-215 348l-54 -348h-210l110 700h181l210 -346l54 346h209zM628 923h104q-13 -81 -57.5 -126.5t-108.5 -45.5q-33 0 -69 17q-34 17 -52 17q-35 0 -50 -31h-103q25 172 165 172q34 0 67 -16t55 -16q35 0 49 29z" />
    <glyph glyph-name="Ograve" unicode="&#xd2;" horiz-adv-x="816" 
d="M475 714q163 0 260 -94t97 -246q0 -166 -113 -277t-278 -111q-163 0 -260 94t-97 246q0 166 113 277q114 111 278 111zM447 182q76 0 121 54t45 138q0 59 -39 101q-39 43 -105 43q-74 0 -120 -55q-46 -53 -46 -137q0 -58 39 -102q39 -42 105 -42zM300 917h248l69 -158
h-173z" />
    <glyph glyph-name="Oacute" unicode="&#xd3;" horiz-adv-x="816" 
d="M475 714q163 0 260 -94t97 -246q0 -166 -113 -277t-278 -111q-163 0 -260 94t-97 246q0 166 113 277q114 111 278 111zM447 182q76 0 121 54t45 138q0 59 -39 101q-39 43 -105 43q-74 0 -120 -55q-46 -53 -46 -137q0 -58 39 -102q39 -42 105 -42zM435 759l120 158h248
l-195 -158h-173z" />
    <glyph glyph-name="Ocircumflex" unicode="&#xd4;" horiz-adv-x="816" 
d="M475 714q163 0 260 -94t97 -246q0 -166 -113 -277t-278 -111q-163 0 -260 94t-97 246q0 166 113 277q114 111 278 111zM447 182q76 0 121 54t45 138q0 59 -39 101q-39 43 -105 43q-74 0 -120 -55q-46 -53 -46 -137q0 -58 39 -102q39 -42 105 -42zM644 917l104 -158h-169
l-45 62l-63 -62h-182l157 158h198z" />
    <glyph glyph-name="Otilde" unicode="&#xd5;" horiz-adv-x="816" 
d="M475 714q163 0 260 -94t97 -246q0 -166 -113 -277t-278 -111q-163 0 -260 94t-97 246q0 166 113 277q114 111 278 111zM447 182q76 0 121 54t45 138q0 59 -39 101q-39 43 -105 43q-74 0 -120 -55q-46 -53 -46 -137q0 -58 39 -102q39 -42 105 -42zM657 923h104
q-13 -81 -57.5 -126.5t-108.5 -45.5q-33 0 -69 17q-34 17 -52 17q-34 0 -50 -31h-103q25 172 165 172q34 0 67 -16t55 -16q34 0 49 29z" />
    <glyph glyph-name="Odieresis" unicode="&#xd6;" horiz-adv-x="816" 
d="M475 714q163 0 260 -94t97 -246q0 -166 -113 -277t-278 -111q-163 0 -260 94t-97 246q0 166 113 277q114 111 278 111zM447 182q76 0 121 54t45 138q0 59 -39 101q-39 43 -105 43q-74 0 -120 -55q-46 -53 -46 -137q0 -58 39 -102q39 -42 105 -42zM577 769q-29 30 -29 71
t29 70q30 29 71 29t70 -29q30 -29 30 -70t-30 -71q-29 -29 -70 -29t-71 29zM411 939q43 0 72 -29t29 -70q0 -42 -29 -71t-72 -29q-41 0 -70.5 29.5t-29.5 70.5t29.5 70t70.5 29z" />
    <glyph glyph-name="multiply" unicode="&#xd7;" horiz-adv-x="631" 
d="M353 203l-155 -135l-116 135l157 134l-114 134l150 131l113 -134l155 134l115 -135l-154 -134l111 -134l-149 -131z" />
    <glyph glyph-name="Oslash" unicode="&#xd8;" horiz-adv-x="816" 
d="M475 714q123 0 211 -56l42 42h158l-117 -119q63 -85 63 -207q0 -166 -113 -277t-278 -111q-118 0 -206 53l-38 -39h-158l112 114q-67 86 -67 212q0 166 113 277q114 111 278 111zM303 326q0 -28 8 -50l224 228q-31 14 -66 14q-74 0 -120 -55q-46 -53 -46 -137zM447 182
q76 0 121 54t45 138q0 22 -6 43l-220 -224q30 -11 60 -11z" />
    <glyph glyph-name="Ugrave" unicode="&#xd9;" horiz-adv-x="733" 
d="M515 284l67 416h216l-68 -428q-23 -139 -119 -212q-98 -74 -228 -74q-77 0 -143 27q-69 28 -111.5 90t-42.5 143q0 21 5 59l62 395h216l-65 -405q-2 -22 -2 -23q0 -44 26.5 -67t70.5 -23q45 0 76 25t40 77zM265 917h248l69 -158h-173z" />
    <glyph glyph-name="Uacute" unicode="&#xda;" horiz-adv-x="733" 
d="M515 284l67 416h216l-68 -428q-23 -139 -119 -212q-98 -74 -228 -74q-77 0 -143 27q-69 28 -111.5 90t-42.5 143q0 21 5 59l62 395h216l-65 -405q-2 -22 -2 -23q0 -44 26.5 -67t70.5 -23q45 0 76 25t40 77zM401 759l120 158h248l-195 -158h-173z" />
    <glyph glyph-name="Ucircumflex" unicode="&#xdb;" horiz-adv-x="733" 
d="M515 284l67 416h216l-68 -428q-23 -139 -119 -212q-98 -74 -228 -74q-77 0 -143 27q-69 28 -111.5 90t-42.5 143q0 21 5 59l62 395h216l-65 -405q-2 -22 -2 -23q0 -44 26.5 -67t70.5 -23q45 0 76 25t40 77zM609 917l104 -158h-169l-45 62l-63 -62h-182l157 158h198z" />
    <glyph glyph-name="Udieresis" unicode="&#xdc;" horiz-adv-x="733" 
d="M515 284l67 416h216l-68 -428q-23 -139 -119 -212q-98 -74 -228 -74q-77 0 -143 27q-69 28 -111.5 90t-42.5 143q0 21 5 59l62 395h216l-65 -405q-2 -22 -2 -23q0 -44 26.5 -67t70.5 -23q45 0 76 25t40 77zM544 769q-29 30 -29 71t29 70q30 29 71 29t70 -29
q30 -29 30 -70t-30 -71q-29 -29 -70 -29t-71 29zM378 939q43 0 72 -29t29 -70q0 -42 -29.5 -71t-71.5 -29q-41 0 -70.5 29.5t-29.5 70.5t29.5 70t70.5 29z" />
    <glyph glyph-name="Yacute" unicode="&#xdd;" horiz-adv-x="718" 
d="M465 0h-214l49 306l-194 394h237l91 -197l155 197h243l-318 -389zM384 759l120 158h248l-195 -158h-173z" />
    <glyph glyph-name="Thorn" unicode="&#xde;" horiz-adv-x="668" 
d="M359 578h114q111 0 176 -56t65 -145q0 -112 -81 -184q-82 -71 -208 -71h-139l-19 -122h-213l110 700h214zM311 278h93q41 0 67.5 18t26.5 53q0 54 -68 54h-99z" />
    <glyph glyph-name="germandbls" unicode="&#xdf;" horiz-adv-x="631" 
d="M542 374q36 -13 70 -58q35 -44 35 -102q0 -99 -70 -160q-68 -61 -174 -61q-68 0 -98 10l26 158q19 -6 42 -6q32 0 52 21t20 54q0 29 -21 47t-57 18h-16l22 136h14q24 0 38 16t14 41q0 20 -12.5 33.5t-32.5 13.5q-50 0 -61 -60l-74 -475h-210l75 470q20 122 93 184t192 62
q109 0 170 -55q62 -54 62 -130q0 -52 -26.5 -94.5t-72.5 -62.5z" />
    <glyph glyph-name="agrave" unicode="&#xe0;" horiz-adv-x="611" 
d="M584 154q12 0 27 5l-24 -143q-41 -29 -107 -29q-97 0 -125 61q-20 -26 -59 -43.5t-85 -17.5q-82 0 -129 44t-47 114q0 84 58 129q58 46 149 46q73 0 128 -28q2 14 2 19q0 60 -109 60q-77 0 -137 -27l26 157q81 28 175 28q108 0 181 -47q73 -46 73 -149q0 -25 -9 -71
l-9 -50q-4 -23 -4 -37q0 -21 25 -21zM357 146l7 51q-20 20 -61 20q-30 0 -48.5 -14t-18.5 -40q0 -20 15 -33.5t40 -13.5q42 0 66 30zM183 734h248l70 -158h-174z" />
    <glyph glyph-name="aacute" unicode="&#xe1;" horiz-adv-x="611" 
d="M584 154q12 0 27 5l-24 -143q-41 -29 -107 -29q-97 0 -125 61q-20 -26 -59 -43.5t-85 -17.5q-82 0 -129 44t-47 114q0 84 58 129q58 46 149 46q73 0 128 -28q2 14 2 19q0 60 -109 60q-77 0 -137 -27l26 157q81 28 175 28q108 0 181 -47q73 -46 73 -149q0 -25 -9 -71
l-9 -50q-4 -23 -4 -37q0 -21 25 -21zM357 146l7 51q-20 20 -61 20q-30 0 -48.5 -14t-18.5 -40q0 -20 15 -33.5t40 -13.5q42 0 66 30zM272 576l120 158h248l-195 -158h-173z" />
    <glyph glyph-name="acircumflex" unicode="&#xe2;" horiz-adv-x="611" 
d="M584 154q12 0 27 5l-24 -143q-41 -29 -107 -29q-97 0 -125 61q-20 -26 -59 -43.5t-85 -17.5q-82 0 -129 44t-47 114q0 84 58 129q58 46 149 46q73 0 128 -28q2 14 2 19q0 60 -109 60q-77 0 -137 -27l26 157q81 28 175 28q108 0 181 -47q73 -46 73 -149q0 -25 -9 -71
l-9 -50q-4 -23 -4 -37q0 -21 25 -21zM357 146l7 51q-20 20 -61 20q-30 0 -48.5 -14t-18.5 -40q0 -20 15 -33.5t40 -13.5q42 0 66 30zM501 734l104 -158h-169l-45 62l-63 -62h-182l157 158h198z" />
    <glyph glyph-name="atilde" unicode="&#xe3;" horiz-adv-x="611" 
d="M584 154q12 0 27 5l-24 -143q-41 -29 -107 -29q-97 0 -125 61q-20 -26 -59 -43.5t-85 -17.5q-82 0 -129 44t-47 114q0 84 58 129q58 46 149 46q73 0 128 -28q2 14 2 19q0 60 -109 60q-77 0 -137 -27l26 157q81 28 175 28q108 0 181 -47q73 -46 73 -149q0 -25 -9 -71
l-9 -50q-4 -23 -4 -37q0 -21 25 -21zM357 146l7 51q-20 20 -61 20q-30 0 -48.5 -14t-18.5 -40q0 -20 15 -33.5t40 -13.5q42 0 66 30zM521 738h104q-13 -81 -57.5 -126.5t-108.5 -45.5q-33 0 -69 17q-34 17 -52 17q-34 0 -50 -31h-103q25 172 165 172q34 0 67 -16t55 -16
q34 0 49 29z" />
    <glyph glyph-name="adieresis" unicode="&#xe4;" horiz-adv-x="611" 
d="M584 154q12 0 27 5l-24 -143q-41 -29 -107 -29q-97 0 -125 61q-20 -26 -59 -43.5t-85 -17.5q-82 0 -129 44t-47 114q0 84 58 129q58 46 149 46q73 0 128 -28q2 14 2 19q0 60 -109 60q-77 0 -137 -27l26 157q81 28 175 28q108 0 181 -47q73 -46 73 -149q0 -25 -9 -71
l-9 -50q-4 -23 -4 -37q0 -21 25 -21zM357 146l7 51q-20 20 -61 20q-30 0 -48.5 -14t-18.5 -40q0 -20 15 -33.5t40 -13.5q42 0 66 30zM425 584q-29 30 -29 71t29 70q30 29 71 29t70 -29q30 -29 30 -70t-30 -71q-29 -29 -70 -29t-71 29zM259 754q43 0 71.5 -29t28.5 -70
q0 -42 -29 -71t-71 -29q-41 0 -70.5 29.5t-29.5 70.5t29.5 70t70.5 29z" />
    <glyph glyph-name="aring" unicode="&#xe5;" horiz-adv-x="611" 
d="M584 154q12 0 27 5l-24 -143q-41 -29 -107 -29q-97 0 -125 61q-20 -26 -59 -43.5t-85 -17.5q-82 0 -129 44t-47 114q0 84 58 129q58 46 149 46q73 0 128 -28q2 14 2 19q0 60 -109 60q-77 0 -137 -27l26 157q81 28 175 28q108 0 181 -47q73 -46 73 -149q0 -25 -9 -71
l-9 -50q-4 -23 -4 -37q0 -21 25 -21zM357 146l7 51q-20 20 -61 20q-30 0 -48.5 -14t-18.5 -40q0 -20 15 -33.5t40 -13.5q42 0 66 30zM277 659q0 45 32.5 77t77.5 32t76.5 -32t31.5 -77t-31.5 -77t-76.5 -32q-44 0 -78 32q-32 34 -32 77zM345 659q0 -16 12.5 -28.5
t29.5 -12.5t29 12t12 29t-12 29.5t-29 12.5t-29.5 -12.5t-12.5 -29.5z" />
    <glyph glyph-name="ae" unicode="&#xe6;" horiz-adv-x="864" 
d="M880 310q0 -36 -13 -97h-322q5 -29 40.5 -45t85.5 -16q85 0 166 40l-24 -155q-68 -50 -202 -50q-127 0 -204 81q-27 -33 -79.5 -57t-112.5 -24q-83 0 -131.5 44t-48.5 114q0 84 58 129q58 46 149 46q73 0 128 -28q1 3 1 19q0 60 -108 60q-77 0 -137 -27l26 157
q81 28 167 28q101 0 171 -55q71 55 159 55q95 0 162 -60q69 -60 69 -159zM291 116q43 0 69 30q-11 32 -14 63q-21 8 -40 8q-31 0 -50.5 -14t-19.5 -40q0 -20 15 -33.5t40 -13.5zM550 313h140v11q0 64 -58 64q-28 0 -50 -19.5t-32 -55.5z" />
    <glyph glyph-name="ccedilla" unicode="&#xe7;" horiz-adv-x="509" 
d="M390 -10l-48 -149h-242l127 165q-77 27 -122 88t-45 148q0 122 90 204q92 83 227 83q92 0 166 -38l-28 -169q-96 45 -171.5 22t-75.5 -92q0 -35 23 -56q36 -31 101 -31q56 0 108 20l-28 -174q-46 -16 -82 -21z" />
    <glyph glyph-name="egrave" unicode="&#xe8;" horiz-adv-x="579" 
d="M595 310q0 -36 -13 -97h-322q5 -29 39.5 -45t83.5 -16q88 0 169 40l-24 -155q-68 -50 -202 -50q-113 0 -190 68q-76 67 -76 180q0 129 84 211q86 83 210 83q105 0 173 -59t68 -160zM265 313h140v6q0 32 -15.5 50.5t-42.5 18.5q-29 0 -51 -19.5t-31 -55.5zM173 734h248
l70 -158h-174z" />
    <glyph glyph-name="eacute" unicode="&#xe9;" horiz-adv-x="579" 
d="M595 310q0 -36 -13 -97h-322q5 -29 39.5 -45t83.5 -16q88 0 169 40l-24 -155q-68 -50 -202 -50q-113 0 -190 68q-76 67 -76 180q0 129 84 211q86 83 210 83q105 0 173 -59t68 -160zM265 313h140v6q0 32 -15.5 50.5t-42.5 18.5q-29 0 -51 -19.5t-31 -55.5zM264 576
l120 158h248l-195 -158h-173z" />
    <glyph glyph-name="ecircumflex" unicode="&#xea;" horiz-adv-x="579" 
d="M595 310q0 -36 -13 -97h-322q5 -29 39.5 -45t83.5 -16q88 0 169 40l-24 -155q-68 -50 -202 -50q-113 0 -190 68q-76 67 -76 180q0 129 84 211q86 83 210 83q105 0 173 -59t68 -160zM265 313h140v6q0 32 -15.5 50.5t-42.5 18.5q-29 0 -51 -19.5t-31 -55.5zM509 734
l104 -158h-169l-45 62l-63 -62h-182l157 158h198z" />
    <glyph glyph-name="edieresis" unicode="&#xeb;" horiz-adv-x="579" 
d="M595 310q0 -36 -13 -97h-322q5 -29 39.5 -45t83.5 -16q88 0 169 40l-24 -155q-68 -50 -202 -50q-113 0 -190 68q-76 67 -76 180q0 129 84 211q86 83 210 83q105 0 173 -59t68 -160zM265 313h140v6q0 32 -15.5 50.5t-42.5 18.5q-29 0 -51 -19.5t-31 -55.5zM430 584
q-29 30 -29 71t29 70q30 29 71 29t70 -29q30 -29 30 -70t-30 -71q-29 -29 -70 -29t-71 29zM264 754q42 0 71 -29t29 -70q0 -42 -29 -71t-71 -29q-41 0 -70.5 29.5t-29.5 70.5t29.5 70t70.5 29z" />
    <glyph glyph-name="igrave" unicode="&#xec;" horiz-adv-x="318" 
d="M344 516l-81 -516h-210l81 516h210zM20 734h248l70 -158h-174z" />
    <glyph glyph-name="iacute" unicode="&#xed;" horiz-adv-x="318" 
d="M160 577l120 157h246l-194 -157h-172zM344 516l-81 -516h-210l81 516h210z" />
    <glyph glyph-name="icircumflex" unicode="&#xee;" horiz-adv-x="318" 
d="M344 516l-81 -516h-210l81 516h210zM373 734l104 -158h-169l-45 62l-63 -62h-182l157 158h198z" />
    <glyph glyph-name="idieresis" unicode="&#xef;" horiz-adv-x="318" 
d="M294 584q-29 30 -29 71t29 70q30 29 71 29t70 -29q30 -29 30 -70t-30 -71q-29 -29 -70 -29t-71 29zM128 754q42 0 71 -29t29 -70q0 -42 -29 -71t-71 -29q-41 0 -70.5 29.5t-29.5 70.5t29.5 70t70.5 29zM344 516l-81 -516h-210l81 516h210z" />
    <glyph glyph-name="eth" unicode="&#xf0;" horiz-adv-x="613" 
d="M494 567l37 -52q39 -56 49 -73q20 -30 35 -77t15 -92q0 -121 -81 -204q-79 -82 -217 -82q-112 0 -192 62t-80 178q0 100 64 164q64 66 168 66q51 0 86 -20l-58 77l-111 -34l-66 92l108 33l-71 95h219q13 -20 29 -41l89 27l66 -92zM342 161q34 0 56.5 21.5t22.5 58.5
q0 33 -20.5 54t-55.5 21q-34 0 -56.5 -21.5t-22.5 -58.5q0 -33 20.5 -54t55.5 -21z" />
    <glyph glyph-name="ntilde" unicode="&#xf1;" horiz-adv-x="624" 
d="M626 287l-45 -287h-210l40 259q3 18 3 35q0 51 -46 51q-32 0 -59 -27l-50 -318h-210l82 516h210l-11 -66q54 79 152 79q69 0 109 -47t40 -125q0 -37 -5 -70zM535 738h104q-13 -81 -57.5 -126.5t-108.5 -45.5q-33 0 -69 17q-34 17 -52 17q-34 0 -50 -31h-103
q25 172 165 172q34 0 67 -16t55 -16q34 0 49 29z" />
    <glyph glyph-name="ograve" unicode="&#xf2;" horiz-adv-x="627" 
d="M357 529q122 0 204 -73q83 -72 83 -188q0 -113 -86 -197q-85 -84 -212 -84q-122 0 -204 72q-82 73 -82 191q0 113 85 195q85 84 212 84zM345 165q40 0 67.5 30.5t27.5 76.5q0 37 -23 58t-59 21q-40 0 -67 -30t-27 -76q0 -37 23 -58.5t58 -21.5zM160 734h248l70 -158h-174
z" />
    <glyph glyph-name="oacute" unicode="&#xf3;" horiz-adv-x="627" 
d="M357 529q122 0 204 -73q83 -72 83 -188q0 -113 -86 -197q-85 -84 -212 -84q-122 0 -204 72q-82 73 -82 191q0 113 85 195q85 84 212 84zM345 165q40 0 67.5 30.5t27.5 76.5q0 37 -23 58t-59 21q-40 0 -67 -30t-27 -76q0 -37 23 -58.5t58 -21.5zM293 576l120 158h248
l-195 -158h-173z" />
    <glyph glyph-name="ocircumflex" unicode="&#xf4;" horiz-adv-x="627" 
d="M357 529q122 0 204 -73q83 -72 83 -188q0 -113 -86 -197q-85 -84 -212 -84q-122 0 -204 72q-82 73 -82 191q0 113 85 195q85 84 212 84zM345 165q40 0 67.5 30.5t27.5 76.5q0 37 -23 58t-59 21q-40 0 -67 -30t-27 -76q0 -37 23 -58.5t58 -21.5zM513 734l104 -158h-169
l-45 62l-63 -62h-182l157 158h198z" />
    <glyph glyph-name="otilde" unicode="&#xf5;" horiz-adv-x="627" 
d="M357 529q122 0 204 -73q83 -72 83 -188q0 -113 -86 -197q-85 -84 -212 -84q-122 0 -204 72q-82 73 -82 191q0 113 85 195q85 84 212 84zM345 165q40 0 67.5 30.5t27.5 76.5q0 37 -23 58t-59 21q-40 0 -67 -30t-27 -76q0 -37 23 -58.5t58 -21.5zM517 738h104
q-13 -81 -57.5 -126.5t-108.5 -45.5q-33 0 -69 17q-34 17 -52 17q-34 0 -50 -31h-103q25 172 165 172q34 0 67 -16t55 -16q34 0 49 29z" />
    <glyph glyph-name="odieresis" unicode="&#xf6;" horiz-adv-x="627" 
d="M357 529q122 0 204 -73q83 -72 83 -188q0 -113 -86 -197q-85 -84 -212 -84q-122 0 -204 72q-82 73 -82 191q0 113 85 195q85 84 212 84zM345 165q40 0 67.5 30.5t27.5 76.5q0 37 -23 58t-59 21q-40 0 -67 -30t-27 -76q0 -37 23 -58.5t58 -21.5zM444 584q-29 30 -29 71
t29 70q30 29 71 29t70 -29q30 -29 30 -70t-30 -71q-29 -29 -70 -29t-71 29zM278 754q42 0 71 -29t29 -70q0 -42 -29 -71t-71 -29q-41 0 -70.5 29.5t-29.5 70.5t29.5 70t70.5 29z" />
    <glyph glyph-name="divide" unicode="&#xf7;" horiz-adv-x="617" 
d="M271 583q0 51 36 86q36 36 86 36q51 0 85 -36q36 -35 36 -86q0 -50 -36 -86q-35 -35 -85 -35q-49 0 -86 35q-36 36 -36 86zM193 89q0 51 36 86q36 36 86 36q51 0 85 -36q36 -35 36 -86q0 -50 -36 -86q-35 -35 -85 -35q-49 0 -86 35q-36 36 -36 86zM609 245h-546l29 183
h546z" />
    <glyph glyph-name="oslash" unicode="&#xf8;" horiz-adv-x="653" 
d="M368 529q93 0 167 -45l33 32h120l-90 -87q57 -67 57 -161q0 -113 -86 -197q-85 -84 -212 -84q-95 0 -168 45l-34 -32h-120l91 88q-55 67 -55 162q0 113 85 195q86 84 212 84zM355 153q42 0 71.5 35t29.5 86q0 13 -1 16l-135 -130q14 -7 35 -7zM269 243q0 -13 1 -16
l132 129q-15 6 -33 6q-42 0 -71 -34t-29 -85z" />
    <glyph glyph-name="ugrave" unicode="&#xf9;" horiz-adv-x="622" 
d="M77 229l45 287h210l-40 -259q-3 -18 -3 -37q0 -49 46 -49q37 0 59 27l50 318h210l-82 -516h-210l11 66q-54 -79 -152 -79q-69 0 -109 47t-40 125q0 37 5 70zM191 734h248l70 -158h-174z" />
    <glyph glyph-name="uacute" unicode="&#xfa;" horiz-adv-x="622" 
d="M77 229l45 287h210l-40 -259q-3 -18 -3 -37q0 -49 46 -49q37 0 59 27l50 318h210l-82 -516h-210l11 66q-54 -79 -152 -79q-69 0 -109 47t-40 125q0 37 5 70zM289 576l120 158h248l-195 -158h-173z" />
    <glyph glyph-name="ucircumflex" unicode="&#xfb;" horiz-adv-x="622" 
d="M77 229l45 287h210l-40 -259q-3 -18 -3 -37q0 -49 46 -49q37 0 59 27l50 318h210l-82 -516h-210l11 66q-54 -79 -152 -79q-69 0 -109 47t-40 125q0 37 5 70zM522 734l104 -158h-169l-45 62l-63 -62h-182l157 158h198z" />
    <glyph glyph-name="udieresis" unicode="&#xfc;" horiz-adv-x="622" 
d="M77 229l45 287h210l-40 -259q-3 -18 -3 -37q0 -49 46 -49q37 0 59 27l50 318h210l-82 -516h-210l11 66q-54 -79 -152 -79q-69 0 -109 47t-40 125q0 37 5 70zM442 584q-29 30 -29 71t29 70q30 29 71 29t70 -29q30 -29 30 -70t-30 -71q-29 -29 -70 -29t-71 29zM276 754
q42 0 71 -29t29 -70q0 -42 -29 -71t-71 -29q-41 0 -70.5 29.5t-29.5 70.5t29.5 70t70.5 29z" />
    <glyph glyph-name="yacute" unicode="&#xfd;" horiz-adv-x="606" 
d="M130 -206q-81 0 -120 24l29 181q33 -27 83 -27q33 0 52 9.5t33 35.5l-132 499h219l44 -292l129 292h219l-308 -566q-84 -156 -248 -156zM281 576l120 158h248l-195 -158h-173z" />
    <glyph glyph-name="thorn" unicode="&#xfe;" 
d="M270 58l-40 -258h-211l139 900h211l-36 -242q13 26 54 48q41 23 91 23q87 0 143 -68t56 -169q0 -74 -29 -143t-90 -115q-62 -47 -144 -47q-52 0 -93 23q-41 24 -51 48zM307 311l-16 -107q24 -43 81 -43q39 0 64.5 31.5t25.5 78.5q0 39 -20 60.5t-53 21.5q-47 0 -82 -42z
" />
    <glyph glyph-name="ydieresis" unicode="&#xff;" horiz-adv-x="606" 
d="M130 -206q-81 0 -120 24l29 181q33 -27 83 -27q33 0 52 9.5t33 35.5l-132 499h219l44 -292l129 292h219l-308 -566q-84 -156 -248 -156zM437 584q-29 30 -29 71t29 70q30 29 71 29t70 -29q30 -29 30 -70t-30 -71q-29 -29 -70 -29t-71 29zM271 754q43 0 71.5 -29t28.5 -70
q0 -42 -29 -71t-71 -29q-41 0 -70.5 29.5t-29.5 70.5t29.5 70t70.5 29z" />
    <glyph glyph-name="Amacron" unicode="&#x100;" horiz-adv-x="783" 
d="M400 704h205l178 -704h-226l-26 131h-235l-68 -131h-227zM498 292l-33 166l-86 -166h119zM281 767l23 137h457l-23 -137h-457z" />
    <glyph glyph-name="amacron" unicode="&#x101;" horiz-adv-x="611" 
d="M584 154q12 0 27 5l-24 -143q-41 -29 -107 -29q-97 0 -125 61q-20 -26 -59 -43.5t-85 -17.5q-82 0 -129 44t-47 114q0 84 58 129q58 46 149 46q73 0 128 -28q2 14 2 19q0 60 -109 60q-77 0 -137 -27l26 157q81 28 175 28q108 0 181 -47q73 -46 73 -149q0 -25 -9 -71
l-9 -50q-4 -23 -4 -37q0 -21 25 -21zM357 146l7 51q-20 20 -61 20q-30 0 -48.5 -14t-18.5 -40q0 -20 15 -33.5t40 -13.5q42 0 66 30zM163 583l22 137h457l-22 -137h-457z" />
    <glyph glyph-name="Abreve" unicode="&#x102;" horiz-adv-x="783" 
d="M596 924h132q-17 -86 -73 -134.5t-135 -48.5q-72 0 -125 41q-51 40 -51 114q0 4 2 28h132v-4q0 -25 13 -40.5t37 -15.5q25 0 43 16.5t25 43.5zM400 704h205l178 -704h-226l-26 131h-235l-68 -131h-227zM498 292l-33 166l-86 -166h119z" />
    <glyph glyph-name="abreve" unicode="&#x103;" horiz-adv-x="611" 
d="M584 154q12 0 27 5l-24 -143q-41 -29 -107 -29q-97 0 -125 61q-20 -26 -59 -43.5t-85 -17.5q-82 0 -129 44t-47 114q0 84 58 129q58 46 149 46q73 0 128 -28q2 14 2 19q0 60 -109 60q-77 0 -137 -27l26 157q81 28 175 28q108 0 181 -47q73 -46 73 -149q0 -25 -9 -71
l-9 -50q-4 -23 -4 -37q0 -21 25 -21zM357 146l7 51q-20 20 -61 20q-30 0 -48.5 -14t-18.5 -40q0 -20 15 -33.5t40 -13.5q42 0 66 30zM467 740h131q-17 -87 -73 -135t-134 -48q-72 0 -125 41q-51 40 -51 114q0 2 2 28h132v-4q0 -57 50 -57q25 0 43 16.5t25 44.5z" />
    <glyph glyph-name="Aogonek" unicode="&#x104;" horiz-adv-x="783" 
d="M605 704l178 -704q-42 -33 -42 -62q0 -24 33 -24q20 0 35 7l-20 -121q-21 -9 -71 -9q-60 0 -94 25t-34 65q0 65 67 119h-100l-26 131h-235l-68 -131h-227l399 704h205zM498 292l-33 166l-86 -166h119z" />
    <glyph glyph-name="aogonek" unicode="&#x105;" horiz-adv-x="611" 
d="M584 154q12 0 27 5l-24 -143q-42 -34 -42 -62q0 -24 33 -24q20 0 35 7l-20 -121q-21 -9 -71 -9q-60 0 -94 25t-34 65q0 52 40 95q-58 12 -79 56q-20 -26 -59 -43.5t-85 -17.5q-82 0 -129 44t-47 114q0 84 58 129q58 46 149 46q73 0 128 -28q2 14 2 19q0 60 -109 60
q-77 0 -137 -27l26 157q81 28 175 28q108 0 181 -47q73 -46 73 -149q0 -25 -9 -71l-9 -50q-4 -23 -4 -37q0 -21 25 -21zM357 146l7 51q-20 20 -61 20q-30 0 -48.5 -14t-18.5 -40q0 -20 15 -33.5t40 -13.5q42 0 66 30z" />
    <glyph glyph-name="Cacute" unicode="&#x106;" horiz-adv-x="661" 
d="M303 330q0 -66 45.5 -107t122.5 -41q111 0 190 53l-34 -211q-96 -38 -177 -38q-164 0 -265 92t-101 239q0 180 116 288q116 109 304 109q113 0 212 -38l-35 -199q-77 41 -178 41q-93 0 -146.5 -50.5t-53.5 -137.5zM397 759l120 158h248l-195 -158h-173z" />
    <glyph glyph-name="cacute" unicode="&#x107;" horiz-adv-x="509" 
d="M341 -13q-117 0 -199 67t-82 188q0 122 90 204q92 83 227 83q92 0 166 -38l-28 -169q-96 45 -171.5 22t-75.5 -92q0 -35 23 -56q36 -31 101 -31q56 0 108 20l-28 -174q-62 -24 -131 -24zM274 576l120 158h248l-195 -158h-173z" />
    <glyph glyph-name="Ccircumflex" unicode="&#x108;" horiz-adv-x="661" 
d="M303 330q0 -66 45.5 -107t122.5 -41q111 0 190 53l-34 -211q-96 -38 -177 -38q-164 0 -265 92t-101 239q0 180 116 288q116 109 304 109q113 0 212 -38l-35 -199q-77 41 -178 41q-93 0 -146.5 -50.5t-53.5 -137.5zM629 917l104 -158h-169l-45 62l-63 -62h-182l157 158
h198z" />
    <glyph glyph-name="ccircumflex" unicode="&#x109;" horiz-adv-x="509" 
d="M341 -13q-117 0 -199 67t-82 188q0 122 90 204q92 83 227 83q92 0 166 -38l-28 -169q-96 45 -171.5 22t-75.5 -92q0 -35 23 -56q36 -31 101 -31q56 0 108 20l-28 -174q-62 -24 -131 -24zM495 734l104 -158h-169l-45 62l-63 -62h-182l157 158h198z" />
    <glyph glyph-name="Cdotaccent" unicode="&#x10a;" horiz-adv-x="661" 
d="M303 330q0 -66 45.5 -107t122.5 -41q111 0 190 53l-34 -211q-96 -38 -177 -38q-164 0 -265 92t-101 239q0 180 116 288q116 109 304 109q113 0 212 -38l-35 -199q-77 41 -178 41q-93 0 -146.5 -50.5t-53.5 -137.5zM522 939q43 0 72 -29t29 -70q0 -42 -29.5 -71t-71.5 -29
q-41 0 -70.5 29.5t-29.5 70.5t29.5 70t70.5 29z" />
    <glyph glyph-name="cdotaccent" unicode="&#x10b;" horiz-adv-x="509" 
d="M341 -13q-117 0 -199 67t-82 188q0 122 90 204q92 83 227 83q92 0 166 -38l-28 -169q-96 45 -171.5 22t-75.5 -92q0 -35 23 -56q36 -31 101 -31q56 0 108 20l-28 -174q-62 -24 -131 -24zM419 754q42 0 71 -29t29 -70t-29 -70.5t-71 -29.5q-41 0 -71 29.5t-30 70.5t30 70
t71 29z" />
    <glyph glyph-name="Ccaron" unicode="&#x10c;" horiz-adv-x="661" 
d="M303 330q0 -66 45.5 -107t122.5 -41q111 0 190 53l-34 -211q-96 -38 -177 -38q-164 0 -265 92t-101 239q0 180 116 288q116 109 304 109q113 0 212 -38l-35 -199q-77 41 -178 41q-93 0 -146.5 -50.5t-53.5 -137.5zM515 855l63 62h182l-157 -158h-199l-103 158h169z" />
    <glyph glyph-name="ccaron" unicode="&#x10d;" horiz-adv-x="509" 
d="M341 -13q-117 0 -199 67t-82 188q0 122 90 204q92 83 227 83q92 0 166 -38l-28 -169q-96 45 -171.5 22t-75.5 -92q0 -35 23 -56q36 -31 101 -31q56 0 108 20l-28 -174q-62 -24 -131 -24zM379 672l63 62h182l-158 -158h-198l-103 158h169z" />
    <glyph glyph-name="Dcaron" unicode="&#x10e;" horiz-adv-x="776" 
d="M164 700h274q160 0 257 -91q97 -90 97 -234q0 -162 -115 -268q-116 -107 -294 -107h-329zM351 515l-53 -330h94q86 0 135 51.5t49 134.5q0 61 -41 102q-41 42 -108 42h-76zM481 855l63 62h182l-157 -158h-199l-103 158h169z" />
    <glyph glyph-name="dcaron" unicode="&#x10f;" horiz-adv-x="889" 
d="M467 458l40 242h211l-111 -700h-211l8 58q-14 -27 -54 -49t-91 -22q-88 0 -144 68q-55 67 -55 169q0 77 28 143q29 69 90 115q62 47 145 47q53 0 93 -24q40 -22 51 -47zM430 205l17 107q-26 43 -82 43q-39 0 -64.5 -31.5t-25.5 -78.5q0 -39 20 -60.5t53 -21.5q48 0 82 42
zM1012 700l-126 -231h-153l96 231h183z" />
    <glyph glyph-name="Dcroat" unicode="&#x110;" horiz-adv-x="820" 
d="M208 700h274q160 0 257 -91q97 -90 97 -234q0 -162 -115 -268q-116 -107 -294 -107h-329l45 290h-81l27 169h81zM359 290l-17 -105h94q86 0 135 51.5t49 134.5q0 61 -41 102q-41 42 -108 42h-76l-9 -56h114l-27 -169h-114z" />
    <glyph glyph-name="dslash" unicode="&#x111;" horiz-adv-x="676" 
d="M498 646l9 54h211l-9 -54h87l-11 -75h-88l-90 -571h-211l8 58q-14 -27 -54 -49t-91 -22q-88 0 -144 68q-55 67 -55 169q0 77 28 143q29 69 90 115q62 47 145 47q53 0 93 -24q40 -22 51 -47l18 113h-117l11 75h119zM430 205l17 107q-26 43 -82 43q-39 0 -64.5 -31.5
t-25.5 -78.5q0 -39 20 -60.5t53 -21.5q48 0 82 42z" />
    <glyph glyph-name="Emacron" unicode="&#x112;" horiz-adv-x="650" 
d="M609 0h-555l111 700h549l-29 -185h-334l-10 -62h262l-27 -170h-262l-16 -98h340zM219 767l23 137h457l-23 -137h-457z" />
    <glyph glyph-name="emacron" unicode="&#x113;" horiz-adv-x="579" 
d="M595 310q0 -36 -13 -97h-322q5 -29 39.5 -45t83.5 -16q88 0 169 40l-24 -155q-68 -50 -202 -50q-113 0 -190 68q-76 67 -76 180q0 129 84 211q86 83 210 83q105 0 173 -59t68 -160zM265 313h140v6q0 32 -15.5 50.5t-42.5 18.5q-29 0 -51 -19.5t-31 -55.5zM156 583l22 137
h457l-22 -137h-457z" />
    <glyph glyph-name="Ebreve" unicode="&#x114;" horiz-adv-x="650" 
d="M527 924h132q-17 -86 -73 -134.5t-135 -48.5q-72 0 -125 41q-51 40 -51 114q0 4 2 28h132v-4q0 -25 13 -40.5t37 -15.5q25 0 43 16.5t25 43.5zM609 0h-555l111 700h549l-29 -185h-334l-10 -62h262l-27 -170h-262l-16 -98h340z" />
    <glyph glyph-name="ebreve" unicode="&#x115;" horiz-adv-x="579" 
d="M595 310q0 -36 -13 -97h-322q5 -29 39.5 -45t83.5 -16q88 0 169 40l-24 -155q-68 -50 -202 -50q-113 0 -190 68q-76 67 -76 180q0 129 84 211q86 83 210 83q105 0 173 -59t68 -160zM265 313h140v6q0 32 -15.5 50.5t-42.5 18.5q-29 0 -51 -19.5t-31 -55.5zM457 740h131
q-17 -87 -73 -135t-134 -48q-72 0 -125 41q-51 40 -51 114q0 2 2 28h132v-4q0 -57 50 -57q25 0 43 16.5t25 44.5z" />
    <glyph glyph-name="Edotaccent" unicode="&#x116;" horiz-adv-x="650" 
d="M609 0h-555l111 700h549l-29 -185h-334l-10 -62h262l-27 -170h-262l-16 -98h340zM452 939q43 0 72 -29t29 -70q0 -42 -29.5 -71t-71.5 -29q-41 0 -70.5 29.5t-29.5 70.5t29.5 70t70.5 29z" />
    <glyph glyph-name="edotaccent" unicode="&#x117;" horiz-adv-x="579" 
d="M595 310q0 -36 -13 -97h-322q5 -29 39.5 -45t83.5 -16q88 0 169 40l-24 -155q-68 -50 -202 -50q-113 0 -190 68q-76 67 -76 180q0 129 84 211q86 83 210 83q105 0 173 -59t68 -160zM265 313h140v6q0 32 -15.5 50.5t-42.5 18.5q-29 0 -51 -19.5t-31 -55.5zM390 754
q42 0 71 -29t29 -70t-29 -70.5t-71 -29.5q-41 0 -71 29.5t-30 70.5t30 70t71 29z" />
    <glyph glyph-name="Eogonek" unicode="&#x118;" horiz-adv-x="650" 
d="M483 0h-429l111 700h549l-29 -185h-334l-10 -62h262l-27 -170h-262l-16 -98h340l-29 -185q-42 -33 -42 -62q0 -24 33 -24q20 0 35 7l-20 -121q-21 -9 -71 -9q-60 0 -94 25t-34 65q0 65 67 119z" />
    <glyph glyph-name="eogonek" unicode="&#x119;" horiz-adv-x="579" 
d="M595 310q0 -36 -13 -97h-322q5 -29 39.5 -45t83.5 -16q88 0 169 40l-24 -155q-42 -35 -42 -62q0 -24 33 -24q18 0 35 7l-20 -121q-21 -9 -71 -9q-60 0 -94 25t-34 65q0 36 20 70q-7 -1 -29 -1q-113 0 -190 68q-76 67 -76 180q0 129 84 211q86 83 210 83q105 0 173 -59
t68 -160zM265 313h140v6q0 32 -15.5 50.5t-42.5 18.5q-29 0 -51 -19.5t-31 -55.5z" />
    <glyph glyph-name="Ecaron" unicode="&#x11a;" horiz-adv-x="650" 
d="M609 0h-555l111 700h549l-29 -185h-334l-10 -62h262l-27 -170h-262l-16 -98h340zM462 855l63 62h182l-157 -158h-199l-103 158h169z" />
    <glyph glyph-name="ecaron" unicode="&#x11b;" horiz-adv-x="579" 
d="M595 310q0 -36 -13 -97h-322q5 -29 39.5 -45t83.5 -16q88 0 169 40l-24 -155q-68 -50 -202 -50q-113 0 -190 68q-76 67 -76 180q0 129 84 211q86 83 210 83q105 0 173 -59t68 -160zM265 313h140v6q0 32 -15.5 50.5t-42.5 18.5q-29 0 -51 -19.5t-31 -55.5zM393 672l63 62
h182l-158 -158h-198l-103 158h169z" />
    <glyph glyph-name="Gcircumflex" unicode="&#x11c;" horiz-adv-x="748" 
d="M532 192l33 216h216l-53 -326q-108 -96 -297 -96q-149 0 -249 92q-98 93 -98 241q0 178 116 286q116 109 304 109q109 0 208 -33l-35 -200q-73 37 -174 37q-94 0 -147 -50.5t-53 -141.5q0 -72 43 -112q44 -41 105 -41q49 0 81 19zM636 917l104 -158h-169l-45 62l-63 -62
h-182l157 158h198z" />
    <glyph glyph-name="gcircumflex" unicode="&#x11d;" horiz-adv-x="645" 
d="M459 457l10 59h208l-70 -453q-23 -146 -135 -211q-99 -58 -224 -58q-134 0 -198 43l28 179q73 -49 174 -49q30 0 55 6q26 6 54 31q29 26 36 67l5 28q-52 -68 -151 -68q-85 0 -138 62t-53 155q0 70 27 131q28 63 88 106q61 44 140 44q50 0 90 -22t54 -50zM428 237l13 85
q-28 34 -79 34q-38 0 -62.5 -25t-24.5 -62q0 -31 19.5 -49t51.5 -18q47 0 82 35zM528 734l104 -158h-169l-45 62l-63 -62h-182l157 158h198z" />
    <glyph glyph-name="Gbreve" unicode="&#x11e;" horiz-adv-x="748" 
d="M532 192l33 216h216l-53 -326q-108 -96 -297 -96q-149 0 -249 92q-98 93 -98 241q0 178 116 286q116 109 304 109q109 0 208 -33l-35 -200q-73 37 -174 37q-94 0 -147 -50.5t-53 -141.5q0 -72 43 -112q44 -41 105 -41q49 0 81 19zM607 943h132q-17 -86 -73 -134.5
t-135 -48.5q-72 0 -125 41q-51 41 -51 114q0 4 2 28h132v-4q0 -25 13 -40.5t37 -15.5q25 0 43 16.5t25 43.5z" />
    <glyph glyph-name="gbreve" unicode="&#x11f;" horiz-adv-x="645" 
d="M459 457l10 59h208l-70 -453q-23 -146 -135 -211q-99 -58 -224 -58q-134 0 -198 43l28 179q73 -49 174 -49q30 0 55 6q26 6 54 31q29 26 36 67l5 28q-52 -68 -151 -68q-85 0 -138 62t-53 155q0 70 27 131q28 63 88 106q61 44 140 44q50 0 90 -22t54 -50zM428 237l13 85
q-28 34 -79 34q-38 0 -62.5 -25t-24.5 -62q0 -31 19.5 -49t51.5 -18q47 0 82 35zM482 740h131q-17 -87 -73 -135t-134 -48q-72 0 -125 41q-51 40 -51 114q0 2 2 28h132v-4q0 -57 50 -57q25 0 43 16.5t25 44.5z" />
    <glyph glyph-name="Gdotaccent" unicode="&#x120;" horiz-adv-x="748" 
d="M532 192l33 216h216l-53 -326q-108 -96 -297 -96q-149 0 -249 92q-98 93 -98 241q0 178 116 286q116 109 304 109q109 0 208 -33l-35 -200q-73 37 -174 37q-94 0 -147 -50.5t-53 -141.5q0 -72 43 -112q44 -41 105 -41q49 0 81 19zM524 939q43 0 72 -29t29 -70
q0 -42 -29.5 -71t-71.5 -29q-41 0 -70.5 29.5t-29.5 70.5t29.5 70t70.5 29z" />
    <glyph glyph-name="gdotaccent" unicode="&#x121;" horiz-adv-x="645" 
d="M459 457l10 59h208l-70 -453q-23 -146 -135 -211q-99 -58 -224 -58q-134 0 -198 43l28 179q73 -49 174 -49q30 0 55 6q26 6 54 31q29 26 36 67l5 28q-52 -68 -151 -68q-85 0 -138 62t-53 155q0 70 27 131q28 63 88 106q61 44 140 44q50 0 90 -22t54 -50zM428 237l13 85
q-28 34 -79 34q-38 0 -62.5 -25t-24.5 -62q0 -31 19.5 -49t51.5 -18q47 0 82 35zM433 754q42 0 71 -29t29 -70t-29 -70.5t-71 -29.5q-41 0 -71 29.5t-30 70.5t30 70t71 29z" />
    <glyph glyph-name="uni0122" unicode="&#x122;" horiz-adv-x="748" 
d="M532 192l33 216h216l-53 -326q-108 -96 -297 -96q-149 0 -249 92q-98 93 -98 241q0 178 116 286q116 109 304 109q109 0 208 -33l-35 -200q-73 37 -174 37q-94 0 -147 -50.5t-53 -141.5q0 -72 43 -112q44 -41 105 -41q49 0 81 19zM536 -78l-126 -231h-153l96 231h183z
" />
    <glyph glyph-name="uni0123" unicode="&#x123;" horiz-adv-x="645" 
d="M459 457l10 59h208l-70 -453q-23 -146 -135 -211q-99 -58 -224 -58q-134 0 -198 43l28 179q73 -49 174 -49q30 0 55 6q26 6 54 31q29 26 36 67l5 28q-52 -68 -151 -68q-85 0 -138 62t-53 155q0 70 27 131q28 63 88 106q61 44 140 44q50 0 90 -22t54 -50zM428 237l13 85
q-28 34 -79 34q-38 0 -62.5 -25t-24.5 -62q0 -31 19.5 -49t51.5 -18q47 0 82 35zM268 590l126 231h153l-96 -231h-183z" />
    <glyph glyph-name="Hcircumflex" unicode="&#x124;" horiz-adv-x="750" 
d="M268 0h-214l110 700h215l-38 -237h215l38 237h214l-111 -700h-214l44 276h-215zM612 917l104 -158h-169l-45 62l-63 -62h-182l157 158h198z" />
    <glyph glyph-name="hcircumflex" unicode="&#x125;" horiz-adv-x="616" 
d="M626 287l-45 -287h-210l40 259q3 18 3 35q0 51 -46 51q-34 0 -59 -27l-50 -318h-210l111 700h210l-40 -250q54 79 152 79q69 0 109 -47t40 -125q0 -37 -5 -70zM392 917l104 -158h-169l-45 62l-63 -62h-182l157 158h198z" />
    <glyph glyph-name="Hbar" unicode="&#x126;" horiz-adv-x="810" 
d="M297 0h-215l81 511h-53l17 108h53l13 81h215l-13 -81h214l13 81h214l-13 -81h54l-17 -108h-54l-81 -511h-214l44 276h-214zM378 511l-9 -56h214l9 56h-214z" />
    <glyph glyph-name="hbar" unicode="&#x127;" horiz-adv-x="670" 
d="M185 511h-101l17 108h101l13 81h210l-13 -81h178l-17 -108h-178l-26 -162q54 79 152 79q69 0 109 -47t40 -125q0 -37 -5 -70l-29 -186h-210l24 158q3 18 3 35q0 51 -46 51q-37 0 -59 -27l-34 -217h-210z" />
    <glyph glyph-name="Itilde" unicode="&#x128;" horiz-adv-x="328" 
d="M271 0h-214l111 700h214zM412 923h104q-13 -81 -57.5 -126.5t-108.5 -45.5q-33 0 -69 17q-34 17 -52 17q-35 0 -50 -31h-103q25 172 165 172q34 0 67 -16t55 -16q35 0 49 29z" />
    <glyph glyph-name="itilde" unicode="&#x129;" horiz-adv-x="318" 
d="M344 516l-81 -516h-210l81 516h210zM377 738h104q-13 -81 -57.5 -126.5t-108.5 -45.5q-33 0 -69 17q-34 17 -52 17q-34 0 -50 -31h-103q25 172 165 172q34 0 67 -16t55 -16q34 0 49 29z" />
    <glyph glyph-name="Imacron" unicode="&#x12a;" horiz-adv-x="328" 
d="M271 0h-214l111 700h214zM57 767l23 137h457l-23 -137h-457z" />
    <glyph glyph-name="imacron" unicode="&#x12b;" horiz-adv-x="318" 
d="M344 516l-81 -516h-210l81 516h210zM21 583l22 137h457l-22 -137h-457z" />
    <glyph glyph-name="Ibreve" unicode="&#x12c;" horiz-adv-x="328" 
d="M369 924h132q-17 -86 -73 -134.5t-135 -48.5q-72 0 -125 41q-51 40 -51 114q0 4 2 28h132v-4q0 -25 13 -40.5t37 -15.5q25 0 43 16.5t25 43.5zM271 0h-214l111 700h214z" />
    <glyph glyph-name="ibreve" unicode="&#x12d;" horiz-adv-x="318" 
d="M344 516l-81 -516h-210l81 516h210zM333 740h131q-17 -87 -73 -135t-134 -48q-72 0 -125 41q-51 40 -51 114q0 2 2 28h132v-4q0 -57 50 -57q25 0 43 16.5t25 44.5z" />
    <glyph glyph-name="Iogonek" unicode="&#x12e;" horiz-adv-x="328" 
d="M145 0h-88l111 700h214l-111 -700q-42 -33 -42 -62q0 -24 33 -24q20 0 35 7l-20 -121q-21 -9 -71 -9q-60 0 -94 25t-34 65q0 65 67 119z" />
    <glyph glyph-name="iogonek" unicode="&#x12f;" horiz-adv-x="318" 
d="M345 516l-82 -516q-42 -33 -42 -62q0 -24 33 -24q20 0 35 7l-20 -121q-21 -9 -71 -9q-60 0 -94 25t-34 65q0 65 67 119h-84l81 516h211zM260 540q-50 0 -84 34t-34 85q0 49 34 83q35 35 84 35t84 -35q34 -34 34 -83q0 -50 -34 -84.5t-84 -34.5z" />
    <glyph glyph-name="Idot" unicode="&#x130;" horiz-adv-x="328" 
d="M271 0h-214l111 700h214zM284 939q43 0 72 -29t29 -70q0 -42 -29.5 -71t-71.5 -29q-41 0 -70.5 29.5t-29.5 70.5t29.5 70t70.5 29z" />
    <glyph glyph-name="dotlessi" unicode="&#x131;" horiz-adv-x="318" 
d="M344 516l-81 -516h-210l81 516h210z" />
    <glyph glyph-name="IJ" unicode="&#x132;" horiz-adv-x="651" 
d="M317 288h-215l66 412h215zM274 -14q-59 0 -118 13q-62 14 -94 37l32 199q82 -54 176 -54q150 0 171 134l61 385h215l-61 -385q-25 -154 -105 -234q-35 -35 -84 -58q-82 -37 -193 -37z" />
    <glyph glyph-name="Jcircumflex" unicode="&#x134;" horiz-adv-x="509" 
d="M361 700h214l-74 -459q-24 -150 -112 -207q-75 -48 -180 -48q-48 0 -104 12q-53 11 -83 32l33 203q23 -22 62 -37t72 -15q47 0 72.5 28t36.5 96zM591 917l104 -158h-169l-45 62l-63 -62h-182l157 158h198z" />
    <glyph glyph-name="jcircumflex" unicode="&#x135;" horiz-adv-x="318" 
d="M-2 -206q-83 0 -121 20l26 159q27 -15 67 -15q74 0 85 63l79 495h211l-80 -502q-16 -103 -85.5 -161.5t-181.5 -58.5zM376 734l104 -158h-169l-45 62l-63 -62h-182l157 158h198z" />
    <glyph glyph-name="uni0136" unicode="&#x136;" horiz-adv-x="746" 
d="M268 0h-214l109 700h214l-40 -258l216 258h265l-288 -337l230 -363h-255l-190 299zM467 -78l-126 -231h-153l96 231h183z" />
    <glyph glyph-name="uni0137" unicode="&#x137;" horiz-adv-x="649" 
d="M260 0h-211l111 700h211l-58 -362l146 178h258l-224 -245l174 -271h-242l-132 209zM423 -78l-126 -231h-153l96 231h183z" />
    <glyph glyph-name="kgreenlandic" unicode="&#x138;" horiz-adv-x="649" 
d="M259 0h-210l80 516h211l-27 -178l146 178h258l-225 -248l178 -268h-246l-133 209z" />
    <glyph glyph-name="Lacute" unicode="&#x139;" horiz-adv-x="606" 
d="M586 0h-532l110 700h215l-82 -515h318zM195 759l120 158h248l-195 -158h-173z" />
    <glyph glyph-name="lacute" unicode="&#x13a;" horiz-adv-x="329" 
d="M148 700h211l-76 -486q-4 -25 -4 -29q0 -20 24 -20q12 0 24 5l-26 -163q-48 -20 -101 -20q-62 0 -100.5 35t-38.5 96q0 17 8 73zM177 759l120 158h248l-195 -158h-173z" />
    <glyph glyph-name="uni013B" unicode="&#x13b;" horiz-adv-x="606" 
d="M586 0h-532l110 700h215l-82 -515h318zM424 -78l-126 -231h-153l96 231h183z" />
    <glyph glyph-name="lcommaaccent" unicode="&#x13c;" horiz-adv-x="329" 
d="M148 700h211l-76 -486q-4 -25 -4 -29q0 -20 24 -20q12 0 24 5l-26 -163q-48 -20 -101 -20q-62 0 -100.5 35t-38.5 96q0 17 8 73zM276 -78l-126 -231h-153l96 231h183z" />
    <glyph glyph-name="Lcaron" unicode="&#x13d;" horiz-adv-x="639" 
d="M586 0h-532l110 700h215l-82 -515h318zM739 700l-126 -231h-153l96 231h183z" />
    <glyph glyph-name="lcaron" unicode="&#x13e;" horiz-adv-x="527" 
d="M148 700h211l-76 -486q-4 -25 -4 -29q0 -20 24 -20q12 0 24 5l-26 -163q-48 -20 -101 -20q-62 0 -100.5 35t-38.5 96q0 17 8 73zM650 700l-126 -231h-153l96 231h183z" />
    <glyph glyph-name="Ldot" unicode="&#x13f;" horiz-adv-x="606" 
d="M586 0h-532l110 700h215l-82 -515h318zM527 515q50 0 86 -36q36 -35 36 -86t-36 -87t-86 -36q-49 0 -87 36q-36 36 -36 87t36 86q36 36 87 36z" />
    <glyph glyph-name="ldot" unicode="&#x140;" horiz-adv-x="329" 
d="M148 700h211l-76 -486q-4 -25 -4 -29q0 -20 24 -20q12 0 24 5l-26 -163q-48 -20 -101 -20q-62 0 -100.5 35t-38.5 96q0 17 8 73zM478 515q50 0 86 -36q36 -35 36 -86t-36 -87t-86 -36t-87 36q-36 36 -36 87t36 86q36 36 87 36z" />
    <glyph glyph-name="Lslash" unicode="&#x141;" horiz-adv-x="654" 
d="M634 0h-532l37 232l-109 -66l28 178l109 66l46 290h214l-24 -149l153 94l-28 -179l-153 -93l-30 -188h318z" />
    <glyph glyph-name="lslash" unicode="&#x142;" horiz-adv-x="435" 
d="M215 700h211l-28 -180l117 71l-29 -179l-116 -70l-21 -136q-3 -21 -3 -23q0 -20 24 -20q12 0 24 5l-26 -161q-48 -20 -101 -20q-62 0 -100.5 35t-38.5 96q0 17 8 73l2 11l-114 -68l29 179l112 67z" />
    <glyph glyph-name="Nacute" unicode="&#x143;" horiz-adv-x="760" 
d="M708 0h-175l-215 348l-54 -348h-210l110 700h181l210 -346l54 346h209zM396 759l120 158h248l-195 -158h-173z" />
    <glyph glyph-name="nacute" unicode="&#x144;" horiz-adv-x="616" 
d="M626 287l-45 -287h-210l40 259q3 18 3 35q0 51 -46 51q-32 0 -59 -27l-50 -318h-210l82 516h210l-11 -66q54 79 152 79q69 0 109 -47t40 -125q0 -37 -5 -70zM289 576l120 158h248l-195 -158h-173z" />
    <glyph glyph-name="uni0145" unicode="&#x145;" horiz-adv-x="760" 
d="M708 0h-175l-215 348l-54 -348h-210l110 700h181l210 -346l54 346h209zM482 -78l-126 -231h-153l96 231h183z" />
    <glyph glyph-name="uni0146" unicode="&#x146;" horiz-adv-x="616" 
d="M626 287l-45 -287h-210l40 259q3 18 3 35q0 51 -46 51q-32 0 -59 -27l-50 -318h-210l82 516h210l-11 -66q54 79 152 79q69 0 109 -47t40 -125q0 -37 -5 -70zM409 -78l-126 -231h-153l96 231h183z" />
    <glyph glyph-name="Ncaron" unicode="&#x147;" horiz-adv-x="760" 
d="M708 0h-175l-215 348l-54 -348h-210l110 700h181l210 -346l54 346h209zM512 855l63 62h182l-157 -158h-199l-103 158h169z" />
    <glyph glyph-name="ncaron" unicode="&#x148;" horiz-adv-x="642" 
d="M626 287l-45 -287h-210l40 259q3 18 3 35q0 51 -46 51q-32 0 -59 -27l-50 -318h-210l82 516h210l-11 -66q54 79 152 79q69 0 109 -47t40 -125q0 -37 -5 -70zM412 672l63 62h182l-158 -158h-198l-103 158h169z" />
    <glyph glyph-name="napostrophe" unicode="&#x149;" horiz-adv-x="813" 
d="M823 287l-45 -287h-210l40 259q3 18 3 35q0 51 -46 51q-32 0 -59 -27l-50 -318h-210l82 516h210l-11 -66q54 79 152 79q69 0 109 -47t40 -125q0 -37 -5 -70zM372 700l-126 -231h-153l96 231h183z" />
    <glyph glyph-name="Eng" unicode="&#x14a;" horiz-adv-x="760" 
d="M449 -206q-82 0 -120 20l27 171q27 -15 65 -15q71 0 81 63l2 14l-186 301l-54 -348h-210l110 700h181l210 -346l54 346h209l-110 -700q-15 -93 -83.5 -149.5t-175.5 -56.5z" />
    <glyph glyph-name="eng" unicode="&#x14b;" horiz-adv-x="616" 
d="M374 21l37 238q3 18 3 35q0 51 -46 51q-36 0 -59 -27l-50 -318h-210l82 516h210l-11 -66q54 79 152 79q69 0 109 -47t40 -125q0 -37 -5 -70l-45 -287q-13 -88 -85 -148q-70 -58 -181 -58q-83 0 -121 20l26 159q27 -15 67 -15q76 0 87 63z" />
    <glyph glyph-name="Omacron" unicode="&#x14c;" horiz-adv-x="816" 
d="M475 714q163 0 260 -94t97 -246q0 -166 -113 -277t-278 -111q-163 0 -260 94t-97 246q0 166 113 277q114 111 278 111zM447 182q76 0 121 54t45 138q0 59 -39 101q-39 43 -105 43q-74 0 -120 -55q-46 -53 -46 -137q0 -58 39 -102q39 -42 105 -42zM301 767l23 137h457
l-23 -137h-457z" />
    <glyph glyph-name="omacron" unicode="&#x14d;" horiz-adv-x="627" 
d="M357 529q122 0 204 -73q83 -72 83 -188q0 -113 -86 -197q-85 -84 -212 -84q-122 0 -204 72q-82 73 -82 191q0 113 85 195q85 84 212 84zM345 165q40 0 67.5 30.5t27.5 76.5q0 37 -23 58t-59 21q-40 0 -67 -30t-27 -76q0 -37 23 -58.5t58 -21.5zM160 583l22 137h457
l-22 -137h-457z" />
    <glyph glyph-name="Obreve" unicode="&#x14e;" horiz-adv-x="816" 
d="M475 714q163 0 260 -94t97 -246q0 -166 -113 -277t-278 -111q-163 0 -260 94t-97 246q0 166 113 277q114 111 278 111zM447 182q76 0 121 54t45 138q0 59 -39 101q-39 43 -105 43q-74 0 -120 -55q-46 -53 -46 -137q0 -58 39 -102q39 -42 105 -42zM614 942h132
q-17 -86 -73 -134.5t-135 -48.5q-72 0 -125 41q-51 40 -51 114q0 4 2 28h132v-4q0 -25 13 -40.5t37 -15.5q25 0 43 16.5t25 43.5z" />
    <glyph glyph-name="obreve" unicode="&#x14f;" horiz-adv-x="627" 
d="M357 529q122 0 204 -73q83 -72 83 -188q0 -113 -86 -197q-85 -84 -212 -84q-122 0 -204 72q-82 73 -82 191q0 113 85 195q85 84 212 84zM345 165q40 0 67.5 30.5t27.5 76.5q0 37 -23 58t-59 21q-40 0 -67 -30t-27 -76q0 -37 23 -58.5t58 -21.5zM474 751h131
q-17 -87 -73 -135t-134 -48q-72 0 -125 41q-51 41 -51 114q0 2 2 28h132v-4q0 -57 50 -57q25 0 43 16.5t25 44.5z" />
    <glyph glyph-name="Ohungarumlaut" unicode="&#x150;" horiz-adv-x="816" 
d="M475 714q163 0 260 -94t97 -246q0 -166 -113 -277t-278 -111q-163 0 -260 94t-97 246q0 166 113 277q114 111 278 111zM447 182q76 0 121 54t45 138q0 59 -39 101q-39 43 -105 43q-74 0 -120 -55q-46 -53 -46 -137q0 -58 39 -102q39 -42 105 -42zM465 759h-142l120 158
h199zM700 759h-142l120 158h199z" />
    <glyph glyph-name="ohungarumlaut" unicode="&#x151;" horiz-adv-x="627" 
d="M357 529q122 0 204 -73q83 -72 83 -188q0 -113 -86 -197q-85 -84 -212 -84q-122 0 -204 72q-82 73 -82 191q0 113 85 195q85 84 212 84zM345 165q40 0 67.5 30.5t27.5 76.5q0 37 -23 58t-59 21q-40 0 -67 -30t-27 -76q0 -37 23 -58.5t58 -21.5zM333 576h-142l120 158h199
zM568 576h-142l120 158h199z" />
    <glyph glyph-name="OE" unicode="&#x152;" horiz-adv-x="1097" 
d="M1161 700l-29 -185h-334l-10 -62h262l-27 -170h-262l-16 -98h340l-29 -185h-615q-162 0 -259 91q-98 92 -98 237q0 159 115 265q116 107 293 107h669zM303 328q0 -56 39 -100q40 -43 103 -43h84l53 330h-102q-85 0 -131 -51.5t-46 -135.5z" />
    <glyph glyph-name="oe" unicode="&#x153;" horiz-adv-x="916" 
d="M932 310q0 -36 -13 -97h-322q5 -29 40.5 -45t85.5 -16q85 0 166 40l-24 -155q-68 -50 -192 -50q-97 0 -171 57q-75 -57 -171 -57q-112 0 -191 73q-80 74 -80 190q0 113 82 195q82 84 206 84q108 0 184 -63q80 63 169 63q95 0 162 -60q69 -60 69 -159zM337 165q37 0 63 31
t26 76q0 37 -22 58t-55 21q-37 0 -62.5 -30.5t-25.5 -75.5q0 -37 21.5 -58.5t54.5 -21.5zM602 313h140v6q0 32 -15.5 50.5t-42.5 18.5q-29 0 -51 -19.5t-31 -55.5z" />
    <glyph glyph-name="Racute" unicode="&#x154;" horiz-adv-x="720" 
d="M568 275l178 -275h-242l-159 250h-38l-39 -250h-214l110 700h316q110 0 175 -60t65 -150q0 -71 -41 -128t-111 -87zM351 520l-17 -113h97q36 0 57 16t21 45q0 24 -17.5 38t-47.5 14h-93zM304 759l120 158h248l-195 -158h-173z" />
    <glyph glyph-name="racute" unicode="&#x155;" horiz-adv-x="474" 
d="M259 0h-210l81 516h210l-13 -82q19 31 71 63t105 32q17 0 28 -3l-31 -198q-30 8 -62 8q-85 0 -133 -45zM214 576l120 158h248l-195 -158h-173z" />
    <glyph glyph-name="uni0156" unicode="&#x156;" horiz-adv-x="720" 
d="M568 275l178 -275h-242l-159 250h-38l-39 -250h-214l110 700h316q110 0 175 -60t65 -150q0 -71 -41 -128t-111 -87zM351 520l-17 -113h97q36 0 57 16t21 45q0 24 -17.5 38t-47.5 14h-93zM473 -78l-126 -231h-153l96 231h183z" />
    <glyph glyph-name="uni0157" unicode="&#x157;" horiz-adv-x="474" 
d="M259 0h-210l81 516h210l-13 -82q19 31 71 63t105 32q17 0 28 -3l-31 -198q-30 8 -62 8q-85 0 -133 -45zM235 -78l-126 -231h-153l96 231h183z" />
    <glyph glyph-name="Rcaron" unicode="&#x158;" horiz-adv-x="720" 
d="M568 275l178 -275h-242l-159 250h-38l-39 -250h-214l110 700h316q110 0 175 -60t65 -150q0 -71 -41 -128t-111 -87zM351 520l-17 -113h97q36 0 57 16t21 45q0 24 -17.5 38t-47.5 14h-93zM460 855l63 62h182l-157 -158h-199l-103 158h169z" />
    <glyph glyph-name="rcaron" unicode="&#x159;" horiz-adv-x="461" 
d="M248 0h-210l81 516h210l-13 -82q19 31 71 63t105 32q17 0 28 -3l-31 -198q-30 8 -62 8q-85 0 -133 -45zM327 672l63 62h182l-158 -158h-198l-103 158h169z" />
    <glyph glyph-name="Sacute" unicode="&#x15a;" horiz-adv-x="653" 
d="M676 658l-35 -197q-40 26 -113 47t-134 21q-74 0 -74 -27q0 -11 20.5 -20t84.5 -29l38 -12q100 -32 148 -79t48 -123q0 -119 -93 -186q-91 -67 -233 -67q-188 0 -289 74l35 216q40 -41 120 -73q81 -30 149 -30q88 0 88 39q0 16 -26 27q-15 8 -44 16q-7 2 -29.5 9
t-32.5 10l-60 20q-18 7 -54 26q-30 17 -49 36q-43 47 -43 116q0 119 89 181q88 61 231 61q148 0 258 -56zM299 759l120 158h248l-195 -158h-173z" />
    <glyph glyph-name="sacute" unicode="&#x15b;" horiz-adv-x="506" 
d="M536 470l-27 -151q-91 62 -183 62q-35 0 -35 -18q0 -7 14 -13.5t59 -20.5q83 -25 117 -60.5t34 -95.5t-35.5 -104t-92.5 -64q-54 -18 -118 -18q-66 0 -131.5 15t-106.5 42l26 155q86 -62 194 -62q49 0 49 19q0 13 -26 22l-29 8l-25 8q-72 23 -110.5 57t-38.5 88
q0 94 71 142q70 48 180 48q129 0 214 -59zM216 576l120 158h248l-195 -158h-173z" />
    <glyph glyph-name="Scircumflex" unicode="&#x15c;" horiz-adv-x="653" 
d="M676 658l-35 -197q-40 26 -113 47t-134 21q-74 0 -74 -27q0 -11 20.5 -20t84.5 -29l38 -12q100 -32 148 -79t48 -123q0 -119 -93 -186q-91 -67 -233 -67q-188 0 -289 74l35 216q40 -41 120 -73q81 -30 149 -30q88 0 88 39q0 16 -26 27q-15 8 -44 16q-7 2 -29.5 9
t-32.5 10l-60 20q-18 7 -54 26q-30 17 -49 36q-43 47 -43 116q0 119 89 181q88 61 231 61q148 0 258 -56zM561 917l104 -158h-169l-45 62l-63 -62h-182l157 158h198z" />
    <glyph glyph-name="scircumflex" unicode="&#x15d;" horiz-adv-x="506" 
d="M536 470l-27 -151q-91 62 -183 62q-35 0 -35 -18q0 -7 14 -13.5t59 -20.5q83 -25 117 -60.5t34 -95.5t-35.5 -104t-92.5 -64q-54 -18 -118 -18q-66 0 -131.5 15t-106.5 42l26 155q86 -62 194 -62q49 0 49 19q0 13 -26 22l-29 8l-25 8q-72 23 -110.5 57t-38.5 88
q0 94 71 142q70 48 180 48q129 0 214 -59zM485 734l104 -158h-169l-45 62l-63 -62h-182l157 158h198z" />
    <glyph glyph-name="Scedilla" unicode="&#x15e;" horiz-adv-x="653" 
d="M676 658l-35 -197q-40 26 -113 47t-134 21q-74 0 -74 -27q0 -11 20.5 -20t84.5 -29l38 -12q100 -32 148 -79t48 -123q0 -98 -66 -163t-177 -83l-49 -152h-242l116 151q-123 13 -197 68l35 216q40 -41 120 -73q81 -30 149 -30q88 0 88 39q0 16 -26 27q-15 8 -44 16
q-7 2 -29.5 9t-32.5 10l-60 20q-18 7 -54 26q-30 17 -49 36q-43 47 -43 116q0 119 89 181q88 61 231 61q148 0 258 -56z" />
    <glyph glyph-name="scedilla" unicode="&#x15f;" horiz-adv-x="506" 
d="M536 470l-27 -151q-91 62 -183 62q-35 0 -35 -18q0 -7 14 -13.5t59 -20.5q83 -25 117 -60.5t34 -95.5q0 -66 -40.5 -110t-109.5 -63l-52 -159h-242l117 152q-97 12 -157 51l26 155q86 -62 194 -62q49 0 49 19q0 13 -26 22l-29 8l-25 8q-72 23 -110.5 57t-38.5 88
q0 94 71 142q70 48 180 48q129 0 214 -59z" />
    <glyph glyph-name="Scaron" unicode="&#x160;" horiz-adv-x="664" 
d="M676 658l-35 -197q-40 26 -113 47t-134 21q-74 0 -74 -27q0 -11 20.5 -20t84.5 -29l38 -12q100 -32 148 -79t48 -123q0 -119 -93 -186q-91 -67 -233 -67q-188 0 -289 74l35 216q40 -41 120 -73q81 -30 149 -30q88 0 88 39q0 16 -26 27q-15 8 -44 16q-7 2 -29.5 9
t-32.5 10l-60 20q-18 7 -54 26q-30 17 -49 36q-43 47 -43 116q0 119 89 181q88 61 231 61q148 0 258 -56zM442 855l63 62h182l-157 -158h-199l-103 158h169z" />
    <glyph glyph-name="scaron" unicode="&#x161;" horiz-adv-x="506" 
d="M536 470l-27 -151q-91 62 -183 62q-35 0 -35 -18q0 -7 14 -13.5t59 -20.5q83 -25 117 -60.5t34 -95.5t-35.5 -104t-92.5 -64q-54 -18 -118 -18q-66 0 -131.5 15t-106.5 42l26 155q86 -62 194 -62q49 0 49 19q0 13 -26 22l-29 8l-25 8q-72 23 -110.5 57t-38.5 88
q0 94 71 142q70 48 180 48q129 0 214 -59zM358 672l63 62h182l-158 -158h-198l-103 158h169z" />
    <glyph glyph-name="uni0162" unicode="&#x162;" horiz-adv-x="659" 
d="M104 515l29 185h615l-29 -185h-201l-82 -515h-21l-52 -159h-242l122 159h-21l82 515h-200z" />
    <glyph glyph-name="uni0163" unicode="&#x163;" horiz-adv-x="456" 
d="M114 142q0 9 3 39l26 170h-81l26 165h82l20 124h208l-19 -124h117l-26 -165h-117l-18 -120q-3 -27 -3 -32q0 -34 43 -34q35 0 72 20l-26 -163q-24 -16 -54 -23l-52 -158h-242l125 163q-84 38 -84 138z" />
    <glyph glyph-name="Tcaron" unicode="&#x164;" horiz-adv-x="659" 
d="M104 515l29 185h615l-29 -185h-201l-82 -515h-214l82 515h-200zM458 855l63 62h182l-157 -158h-199l-103 158h169z" />
    <glyph glyph-name="tcaron" unicode="&#x165;" horiz-adv-x="680" 
d="M120 142q0 9 3 39l26 170h-81l26 165h82l20 124h208l-19 -124h117l-26 -165h-117l-18 -120q-3 -27 -3 -32q0 -34 43 -34q35 0 72 20l-26 -163q-58 -35 -140 -35q-74 0 -120.5 41.5t-46.5 113.5zM803 700l-126 -231h-153l96 231h183z" />
    <glyph glyph-name="Tbar" unicode="&#x166;" horiz-adv-x="659" 
d="M436 0h-214l42 263h-100l23 146h100l17 106h-200l29 185h615l-29 -185h-201l-17 -106h97l-23 -146h-97z" />
    <glyph glyph-name="tbar" unicode="&#x167;" horiz-adv-x="468" 
d="M132 217h-82l17 109h81l7 44h-81l24 146h82l20 124h208l-19 -124h117l-24 -146h-117l-7 -44h117l-17 -109h-115q-1 -5 -1 -18q0 -34 43 -34q35 0 72 20l-26 -163q-58 -35 -140 -35q-74 0 -120.5 41.5t-46.5 113.5q0 9 3 39z" />
    <glyph glyph-name="Utilde" unicode="&#x168;" horiz-adv-x="733" 
d="M515 284l67 416h216l-68 -428q-23 -139 -119 -212q-98 -74 -228 -74q-77 0 -143 27q-69 28 -111.5 90t-42.5 143q0 21 5 59l62 395h216l-65 -405q-2 -22 -2 -23q0 -44 26.5 -67t70.5 -23q45 0 76 25t40 77zM620 923h104q-13 -81 -57.5 -126.5t-108.5 -45.5q-33 0 -69 17
q-34 17 -52 17q-35 0 -50 -31h-103q25 172 165 172q34 0 67 -16t55 -16q35 0 49 29z" />
    <glyph glyph-name="utilde" unicode="&#x169;" horiz-adv-x="622" 
d="M77 229l45 287h210l-40 -259q-3 -18 -3 -37q0 -49 46 -49q37 0 59 27l50 318h210l-82 -516h-210l11 66q-54 -79 -152 -79q-69 0 -109 47t-40 125q0 37 5 70zM526 738h104q-13 -81 -57.5 -126.5t-108.5 -45.5q-33 0 -69 17q-34 17 -52 17q-35 0 -50 -31h-103
q25 172 165 172q34 0 67 -16t55 -16q35 0 49 29z" />
    <glyph glyph-name="Umacron" unicode="&#x16a;" horiz-adv-x="733" 
d="M515 284l67 416h216l-68 -428q-23 -139 -119 -212q-98 -74 -228 -74q-77 0 -143 27q-69 28 -111.5 90t-42.5 143q0 21 5 59l62 395h216l-65 -405q-2 -22 -2 -23q0 -44 26.5 -67t70.5 -23q45 0 76 25t40 77zM258 767l23 137h457l-23 -137h-457z" />
    <glyph glyph-name="umacron" unicode="&#x16b;" horiz-adv-x="622" 
d="M77 229l45 287h210l-40 -259q-3 -18 -3 -37q0 -49 46 -49q37 0 59 27l50 318h210l-82 -516h-210l11 66q-54 -79 -152 -79q-69 0 -109 47t-40 125q0 37 5 70zM169 583l22 137h457l-22 -137h-457z" />
    <glyph glyph-name="Ubreve" unicode="&#x16c;" horiz-adv-x="733" 
d="M515 284l67 416h216l-68 -428q-23 -139 -119 -212q-98 -74 -228 -74q-77 0 -143 27q-69 28 -111.5 90t-42.5 143q0 21 5 59l62 395h216l-65 -405q-2 -22 -2 -23q0 -44 26.5 -67t70.5 -23q45 0 76 25t40 77zM558 924h132q-17 -86 -73 -134.5t-135 -48.5q-72 0 -125 41
q-51 40 -51 114q0 4 2 28h132v-4q0 -25 13 -40.5t37 -15.5q25 0 43 16.5t25 43.5z" />
    <glyph glyph-name="ubreve" unicode="&#x16d;" horiz-adv-x="622" 
d="M77 229l45 287h210l-40 -259q-3 -18 -3 -37q0 -49 46 -49q37 0 59 27l50 318h210l-82 -516h-210l11 66q-54 -79 -152 -79q-69 0 -109 47t-40 125q0 37 5 70zM470 739h131q-17 -87 -73 -135t-134 -48q-72 0 -125 41q-51 41 -51 114q0 2 2 28h132v-4q0 -57 50 -57
q25 0 43 16.5t25 44.5z" />
    <glyph glyph-name="Uring" unicode="&#x16e;" horiz-adv-x="733" 
d="M515 284l67 416h216l-68 -428q-23 -139 -119 -212q-98 -74 -228 -74q-77 0 -143 27q-69 28 -111.5 90t-42.5 143q0 21 5 59l62 395h216l-65 -405q-2 -22 -2 -23q0 -44 26.5 -67t70.5 -23q45 0 76 25t40 77zM379 840q0 45 32.5 77t77.5 32t76.5 -32t31.5 -77t-31.5 -77
t-76.5 -32q-44 0 -78 32q-32 34 -32 77zM530 840q0 17 -12 29.5t-29 12.5t-29.5 -12.5t-12.5 -29.5q0 -16 12.5 -28.5t29.5 -12.5t29 12.5t12 28.5z" />
    <glyph glyph-name="uring" unicode="&#x16f;" horiz-adv-x="622" 
d="M77 229l45 287h210l-40 -259q-3 -18 -3 -37q0 -49 46 -49q37 0 59 27l50 318h210l-82 -516h-210l11 66q-54 -79 -152 -79q-69 0 -109 47t-40 125q0 37 5 70zM295 654q0 45 32.5 77t77.5 32t76.5 -32t31.5 -77t-31.5 -77t-76.5 -32q-44 0 -78 32q-32 34 -32 77zM446 654
q0 17 -12 29.5t-29 12.5t-29.5 -12.5t-12.5 -29.5q0 -16 12.5 -28.5t29.5 -12.5t29 12.5t12 28.5z" />
    <glyph glyph-name="Uhungarumlaut" unicode="&#x170;" horiz-adv-x="733" 
d="M515 284l67 416h216l-68 -428q-23 -139 -119 -212q-98 -74 -228 -74q-77 0 -143 27q-69 28 -111.5 90t-42.5 143q0 21 5 59l62 395h216l-65 -405q-2 -22 -2 -23q0 -44 26.5 -67t70.5 -23q45 0 76 25t40 77zM429 759h-142l120 158h199zM664 759h-142l120 158h199z" />
    <glyph glyph-name="uhungarumlaut" unicode="&#x171;" horiz-adv-x="622" 
d="M77 229l45 287h210l-40 -259q-3 -18 -3 -37q0 -49 46 -49q37 0 59 27l50 318h210l-82 -516h-210l11 66q-54 -79 -152 -79q-69 0 -109 47t-40 125q0 37 5 70zM341 576h-142l120 158h199zM576 576h-142l120 158h199z" />
    <glyph glyph-name="Uogonek" unicode="&#x172;" horiz-adv-x="719" 
d="M570 700h214l-68 -429q-32 -198 -202 -262q-32 -12 -52 -24q-30 -18 -30 -46q0 -26 32 -26q24 0 35 8l-19 -122q-24 -9 -71 -9q-61 0 -94.5 24.5t-33.5 66.5q0 53 51 107q-109 9 -178 72q-68 65 -68 174q0 21 5 58l64 408h214l-64 -405q-4 -23 -4 -37q0 -38 24.5 -57
t63.5 -19q50 0 79.5 29t35.5 74z" />
    <glyph glyph-name="uogonek" unicode="&#x173;" horiz-adv-x="622" 
d="M77 229l45 287h210l-40 -259q-3 -18 -3 -37q0 -49 46 -49q37 0 59 27l50 318h210l-82 -516q-42 -33 -42 -62q0 -24 33 -24q18 0 35 7l-20 -121q-21 -9 -71 -9q-60 0 -94 25t-34 65q0 65 67 119h-84l11 66q-54 -79 -152 -79q-69 0 -109 47t-40 125q0 37 5 70z" />
    <glyph glyph-name="Wcircumflex" unicode="&#x174;" horiz-adv-x="1078" 
d="M414 -4h-187l-117 704h229l38 -373l191 375h162l73 -375l154 373h234l-341 -704h-183l-67 368zM771 917l104 -158h-169l-45 62l-63 -62h-182l157 158h198z" />
    <glyph glyph-name="wcircumflex" unicode="&#x175;" horiz-adv-x="831" 
d="M336 -4h-176l-80 520h196l29 -242l106 244h160l30 -243l104 241h210l-250 -520h-178l-39 241zM620 734l104 -158h-169l-45 62l-63 -62h-182l157 158h198z" />
    <glyph glyph-name="Ycircumflex" unicode="&#x176;" horiz-adv-x="718" 
d="M465 0h-214l49 306l-194 394h237l91 -197l155 197h243l-318 -389zM586 917l104 -158h-169l-45 62l-63 -62h-182l157 158h198z" />
    <glyph glyph-name="ycircumflex" unicode="&#x177;" horiz-adv-x="606" 
d="M130 -206q-81 0 -120 24l29 181q33 -27 83 -27q33 0 52 9.5t33 35.5l-132 499h219l44 -292l129 292h219l-308 -566q-84 -156 -248 -156zM507 734l104 -158h-169l-45 62l-63 -62h-182l157 158h198z" />
    <glyph glyph-name="Ydieresis" unicode="&#x178;" horiz-adv-x="718" 
d="M465 0h-214l49 306l-194 394h237l91 -197l155 197h243l-318 -389zM530 769q-29 30 -29 71t29 70q30 29 71 29t70 -29q30 -29 30 -70t-30 -71q-29 -29 -70 -29t-71 29zM364 939q43 0 72 -29t29 -70q0 -42 -29.5 -71t-71.5 -29q-41 0 -70.5 29.5t-29.5 70.5t29.5 70
t70.5 29z" />
    <glyph glyph-name="Zacute" unicode="&#x179;" horiz-adv-x="635" 
d="M621 0h-606l24 152l363 363h-297l29 185h582l-24 -151l-363 -364h321zM310 759l120 158h248l-195 -158h-173z" />
    <glyph glyph-name="zacute" unicode="&#x17a;" horiz-adv-x="556" 
d="M518 0h-494l22 139l237 212h-194l26 165h468l-22 -144l-243 -207h226zM226 576l120 158h248l-195 -158h-173z" />
    <glyph glyph-name="Zdotaccent" unicode="&#x17b;" horiz-adv-x="635" 
d="M621 0h-606l24 152l363 363h-297l29 185h582l-24 -151l-363 -364h321zM442 939q43 0 72 -29t29 -70q0 -42 -29.5 -71t-71.5 -29q-41 0 -70.5 29.5t-29.5 70.5t29.5 70t70.5 29z" />
    <glyph glyph-name="zdotaccent" unicode="&#x17c;" horiz-adv-x="545" 
d="M518 0h-494l22 139l237 212h-194l26 165h468l-22 -144l-243 -207h226zM362 754q42 0 71 -29t29 -70t-29 -70.5t-71 -29.5q-41 0 -71 29.5t-30 70.5t30 70t71 29z" />
    <glyph glyph-name="Zcaron" unicode="&#x17d;" horiz-adv-x="635" 
d="M621 0h-606l24 152l363 363h-297l29 185h582l-24 -151l-363 -364h321zM445 855l63 62h182l-157 -158h-199l-103 158h169z" />
    <glyph glyph-name="zcaron" unicode="&#x17e;" horiz-adv-x="545" 
d="M518 0h-494l22 139l237 212h-194l26 165h468l-22 -144l-243 -207h226zM372 672l63 62h182l-158 -158h-198l-103 158h169z" />
    <glyph glyph-name="longs" unicode="&#x17f;" horiz-adv-x="467" 
d="M383 502l-78 -502h-211l55 351h-81l26 165h81l4 24q11 72 72 123t158 51q84 0 146 -25l-26 -160q-48 17 -82 17q-56 0 -64 -44z" />
    <glyph glyph-name="florin" unicode="&#x192;" horiz-adv-x="514" 
d="M521 452v-166h-135l-43 -262q-17 -98 -79 -163q-61 -67 -180 -67q-74 0 -110 16v164q30 -8 56 -8q42 0 68.5 25.5t33.5 70.5l37 224h-80v166h108l5 31q17 98 78 164q63 67 181 67q74 0 110 -16v-164q-30 8 -56 8q-85 0 -101 -90h107z" />
    <glyph glyph-name="uni0218" unicode="&#x218;" horiz-adv-x="653" 
d="M676 658l-35 -197q-40 26 -113 47t-134 21q-74 0 -74 -27q0 -11 20.5 -20t84.5 -29l38 -12q100 -32 148 -79t48 -123q0 -119 -93 -186q-91 -67 -233 -67q-188 0 -289 74l35 216q40 -41 120 -73q81 -30 149 -30q88 0 88 39q0 16 -26 27q-15 8 -44 16q-7 2 -29.5 9
t-32.5 10l-60 20q-18 7 -54 26q-30 17 -49 36q-43 47 -43 116q0 119 89 181q88 61 231 61q148 0 258 -56zM439 -78l-126 -231h-153l96 231h183z" />
    <glyph glyph-name="uni0219" unicode="&#x219;" horiz-adv-x="506" 
d="M536 470l-27 -151q-91 62 -183 62q-35 0 -35 -18q0 -7 14 -13.5t59 -20.5q83 -25 117 -60.5t34 -95.5t-35.5 -104t-92.5 -64q-54 -18 -118 -18q-66 0 -131.5 15t-106.5 42l26 155q86 -62 194 -62q49 0 49 19q0 13 -26 22l-29 8l-25 8q-72 23 -110.5 57t-38.5 88
q0 94 71 142q70 48 180 48q129 0 214 -59zM361 -78l-126 -231h-153l96 231h183z" />
    <glyph glyph-name="uni021A" unicode="&#x21a;" horiz-adv-x="659" 
d="M104 515l29 185h615l-29 -185h-201l-82 -515h-214l82 515h-200zM408 -78l-126 -231h-153l96 231h183z" />
    <glyph glyph-name="uni021B" unicode="&#x21b;" horiz-adv-x="456" 
d="M114 142q0 9 3 39l26 170h-81l26 165h82l20 124h208l-19 -124h117l-26 -165h-117l-18 -120q-3 -27 -3 -32q0 -34 43 -34q35 0 72 20l-26 -163q-58 -35 -140 -35q-74 0 -120.5 41.5t-46.5 113.5zM362 -78l-126 -231h-153l96 231h183z" />
    <glyph glyph-name="circumflex" unicode="&#x2c6;" horiz-adv-x="544" 
d="M490 734l104 -158h-169l-45 62l-63 -62h-182l157 158h198z" />
    <glyph glyph-name="caron" unicode="&#x2c7;" horiz-adv-x="424" 
d="M314 672l63 62h182l-158 -158h-198l-103 158h169z" />
    <glyph glyph-name="uni02C9" unicode="&#x2c9;" horiz-adv-x="485" 
d="M118 583l23 137h431l-22 -137h-432z" />
    <glyph glyph-name="breve" unicode="&#x2d8;" horiz-adv-x="449" 
d="M400 740h131q-17 -87 -73 -135t-134 -48q-72 0 -125 41q-51 40 -51 114q0 2 2 28h132v-4q0 -57 50 -57q25 0 43 16.5t25 44.5z" />
    <glyph glyph-name="dotaccent" unicode="&#x2d9;" horiz-adv-x="359" 
d="M274 754q42 0 71 -29t29 -70t-29 -70.5t-71 -29.5q-41 0 -71 29.5t-30 70.5t30 70t71 29z" />
    <glyph glyph-name="ring" unicode="&#x2da;" horiz-adv-x="567" 
d="M273 654q0 45 32.5 77t77.5 32t76.5 -32t31.5 -77t-31.5 -77t-76.5 -32q-44 0 -78 32q-32 34 -32 77zM424 654q0 17 -12 29.5t-29 12.5t-29.5 -12.5t-12.5 -29.5q0 -16 12.5 -28.5t29.5 -12.5t29 12.5t12 28.5z" />
    <glyph glyph-name="ogonek" unicode="&#x2db;" horiz-adv-x="475" 
d="M199 -2h126q-42 -33 -42 -62q0 -24 33 -24q20 0 35 7l-20 -121q-21 -9 -71 -9q-60 0 -94 25t-34 65q0 65 67 119z" />
    <glyph glyph-name="tilde" unicode="&#x2dc;" horiz-adv-x="495" 
d="M464 738h104q-13 -81 -57.5 -126.5t-108.5 -45.5q-33 0 -69 17q-34 17 -52 17q-35 0 -50 -31h-103q25 172 165 172q34 0 67 -16t55 -16q35 0 49 29z" />
    <glyph glyph-name="hungarumlaut" unicode="&#x2dd;" horiz-adv-x="600" 
d="M269 576h-142l120 158h199zM504 576h-142l120 158h199z" />
    <glyph glyph-name="acutecomb" unicode="&#x301;" horiz-adv-x="0" 
d="M-307 576l120 158h248l-195 -158h-173z" />
    <glyph glyph-name="uni037E" unicode="&#x37e;" horiz-adv-x="331" 
d="M-22 -152l146 351h218l-195 -351h-169zM261 529q50 0 86 -36q36 -35 36 -86t-36 -87t-86 -36q-49 0 -87 36q-36 36 -36 87t36 86q36 36 87 36z" />
    <glyph glyph-name="uni0394" unicode="&#x394;" horiz-adv-x="783" 
d="M783 0h-782l399 700h205zM468 446l-138 -266h191z" />
    <glyph glyph-name="uni03A9" unicode="&#x3a9;" horiz-adv-x="776" 
d="M792 418q0 -65 -29.5 -127t-81.5 -106h85l-29 -185h-327l24 156q60 32 97 97q38 68 38 137q0 57 -31 97q-32 42 -87 42q-67 0 -106 -61q-39 -60 -39 -133q0 -59 22 -109q23 -51 57 -70l-24 -156h-324l29 185h94q-66 63 -66 188q0 139 102 240q104 101 253 101
q85 0 163 -32q77 -32 128 -101q52 -68 52 -163z" />
    <glyph glyph-name="uni03BC" unicode="&#x3bc;" horiz-adv-x="609" 
d="M219 -200h-211l113 716h210l-40 -259q-3 -18 -3 -35q0 -51 46 -51q36 0 59 27l50 318h210l-82 -516h-210l11 66q-45 -67 -124 -77z" />
    <glyph glyph-name="pi" unicode="&#x3c0;" horiz-adv-x="739" 
d="M569 -13q-68 0 -108 36t-40 104q0 19 3 41l30 183h-68l-56 -351h-211l56 351h-100l26 165h686l-26 -165h-100l-21 -133q-2 -18 -2 -20q0 -33 38 -33q35 0 58 16l-26 -160q-47 -34 -139 -34z" />
    <glyph glyph-name="uni0401" unicode="&#x401;" horiz-adv-x="650" 
d="M513 769q-29 30 -29 71t29 70q30 29 71 29t70 -29q30 -29 30 -70t-30 -71q-29 -29 -70 -29t-71 29zM347 939q43 0 72 -29t29 -70q0 -42 -29 -71t-72 -29q-41 0 -70.5 29.5t-29.5 70.5t29.5 70t70.5 29zM609 0h-555l111 700h549l-29 -185h-334l-10 -62h262l-27 -170h-262
l-16 -98h340z" />
    <glyph glyph-name="uni0402" unicode="&#x402;" horiz-adv-x="788" 
d="M572 453q113 0 180 -61q67 -60 67 -161q0 -113 -75 -175q-74 -62 -198 -62q-42 0 -71 6l27 162q14 -3 35 -3q31 0 49.5 15t18.5 42q0 57 -78 57q-46 0 -88 -17l-41 -256h-214l83 525h-163l28 175h557l-28 -175h-180l-12 -82q39 10 103 10z" />
    <glyph glyph-name="uni0403" unicode="&#x403;" horiz-adv-x="618" 
d="M269 0h-215l111 700h539l-29 -185h-324zM321 759l120 158h248l-195 -158h-173z" />
    <glyph glyph-name="uni0404" unicode="&#x404;" horiz-adv-x="661" 
d="M522 280h-217q6 -52 56 -78.5t110 -24.5q107 0 188 45l-32 -198q-94 -38 -176 -38q-163 0 -266 92q-101 92 -101 239q0 180 116 288q116 109 305 109q131 0 211 -37l-34 -192q-78 38 -171 38q-144 0 -185 -77h221z" />
    <glyph glyph-name="uni0405" unicode="&#x405;" horiz-adv-x="653" 
d="M676 658l-35 -197q-40 26 -113 47t-134 21q-74 0 -74 -27q0 -11 20.5 -20t84.5 -29l38 -12q100 -32 148 -79t48 -123q0 -119 -93 -186q-91 -67 -233 -67q-188 0 -289 74l35 216q40 -41 120 -73q81 -30 149 -30q88 0 88 39q0 16 -26 27q-15 8 -44 16q-7 2 -29.5 9
t-32.5 10l-60 20q-18 7 -54 26q-30 17 -49 36q-43 47 -43 116q0 119 89 181q88 61 231 61q148 0 258 -56z" />
    <glyph glyph-name="uni0406" unicode="&#x406;" horiz-adv-x="328" 
d="M271 0h-214l111 700h214z" />
    <glyph glyph-name="uni0407" unicode="&#x407;" horiz-adv-x="328" 
d="M271 0h-214l111 700h214zM343 769q-29 30 -29 71t29 70q30 29 71 29t70 -29q30 -29 30 -70t-30 -71q-29 -29 -70 -29t-71 29zM177 939q43 0 72 -29t29 -70q0 -42 -29 -71t-72 -29q-41 0 -70.5 29.5t-29.5 70.5t29.5 70t70.5 29z" />
    <glyph glyph-name="uni0408" unicode="&#x408;" horiz-adv-x="509" 
d="M361 700h214l-74 -459q-24 -150 -112 -207q-75 -48 -180 -48q-48 0 -104 12q-53 11 -83 32l33 203q23 -22 62 -37t72 -15q47 0 72.5 28t36.5 96z" />
    <glyph glyph-name="uni0409" unicode="&#x409;" horiz-adv-x="1114" 
d="M574 515h-143l-15 -84q-47 -257 -127 -352q-41 -47 -85.5 -67.5t-103.5 -20.5q-65 0 -94 19l30 190q25 -13 56 -13q22 0 36 8.5t31 33.5q36 54 67 237l40 234h552l-32 -201h106q117 0 184 -64q69 -63 69 -157q0 -93 -61 -163q-59 -70 -155 -100q-49 -15 -102 -15h-333z
M852 326h-93l-23 -143h87q41 0 72 21.5t31 56.5q0 28 -20.5 46.5t-53.5 18.5z" />
    <glyph glyph-name="uni040A" unicode="&#x40a;" horiz-adv-x="1099" 
d="M776 499h102q117 0 184 -64q68 -63 68 -157q1 -120 -100.5 -200.5t-234.5 -77.5h-312l44 276h-215l-44 -276h-214l110 700h215l-38 -237h215l38 237h214zM749 330l-23 -151h76q40 0 75 21q34 22 34 61q0 30 -21.5 49.5t-56.5 19.5h-84z" />
    <glyph glyph-name="uni040B" unicode="&#x40b;" horiz-adv-x="818" 
d="M436 247l-38 -247h-214l83 525h-163l28 175h557l-28 -175h-180l-14 -88q52 16 114 16q114 0 175.5 -51t61.5 -144q0 -31 -4 -51l-32 -207h-214l27 177q3 24 3 27q0 62 -72 62q-53 0 -90 -19z" />
    <glyph glyph-name="uni040C" unicode="&#x40c;" horiz-adv-x="746" 
d="M268 0h-214l109 700h214l-40 -258l216 258h265l-288 -337l230 -363h-255l-190 299zM374 759l120 158h248l-195 -158h-173z" />
    <glyph glyph-name="uni040E" unicode="&#x40e;" horiz-adv-x="693" 
d="M202 -14q-88 0 -132 29l28 180q37 -22 95 -22q64 0 102 53l-188 474h232l89 -268l143 268h230l-327 -544q-101 -170 -272 -170zM276 917h143q0 -2 -1 -5v-4q0 -43 46 -43q54 0 63 52h145q-16 -87 -74 -136t-142 -49q-77 0 -130 41q-52 40 -52 112q0 6 2 32z" />
    <glyph glyph-name="uni040F" unicode="&#x40f;" horiz-adv-x="725" 
d="M445 -129h-202l20 129h-209l111 700h215l-81 -515h189l81 515h214l-111 -700h-207z" />
    <glyph glyph-name="uni0410" unicode="&#x410;" horiz-adv-x="783" 
d="M400 704h205l178 -704h-226l-26 131h-235l-68 -131h-227zM498 292l-33 166l-86 -166h119z" />
    <glyph glyph-name="uni0411" unicode="&#x411;" horiz-adv-x="673" 
d="M344 469h105q115 0 180 -58q66 -57 66 -148q0 -117 -96 -191q-96 -72 -229 -72h-316l110 700h537l-28 -175h-320zM298 178h82q39 0 69 20t30 55q0 28 -19.5 46t-52.5 18h-87z" />
    <glyph glyph-name="uni0412" unicode="&#x412;" horiz-adv-x="702" 
d="M612 389q39 -12 74 -54q35 -41 35 -106q0 -104 -79 -167q-79 -62 -197 -62h-391l110 700h331q95 0 152 -40.5t57 -116.5q0 -48 -24 -89t-68 -65zM295 173h113q33 0 54 17t21 46q0 24 -18 38.5t-48 14.5h-103zM454 533h-102l-14 -94h109q28 0 43.5 14t15.5 39
q0 19 -14.5 30t-37.5 11z" />
    <glyph glyph-name="uni0413" unicode="&#x413;" horiz-adv-x="618" 
d="M269 0h-215l111 700h539l-29 -185h-324z" />
    <glyph glyph-name="uni0414" unicode="&#x414;" horiz-adv-x="801" 
d="M191 -129h-201l50 314h69q84 110 126 379l21 136h549l-81 -515h88l-50 -314h-202l20 129h-369zM333 185h177l52 330h-125q-14 -82 -42 -179q-30 -102 -62 -151z" />
    <glyph glyph-name="uni0415" unicode="&#x415;" horiz-adv-x="650" 
d="M609 0h-555l111 700h549l-29 -185h-334l-10 -62h262l-27 -170h-262l-16 -98h340z" />
    <glyph glyph-name="uni0416" unicode="&#x416;" horiz-adv-x="1093" 
d="M253 0h-265l314 357l-170 343h247l123 -280l44 280h209l-44 -280l212 280h249l-279 -343l200 -357h-260l-141 277l-44 -277h-209l44 277z" />
    <glyph glyph-name="uni0417" unicode="&#x417;" horiz-adv-x="628" 
d="M560 369q38 -18 62 -53.5t24 -81.5q0 -80 -52 -138q-97 -110 -282 -110q-172 0 -266 70l33 203q48 -37 110.5 -59.5t123.5 -22.5q53 0 83.5 16.5t30.5 44.5q0 23 -18.5 32.5t-60.5 9.5h-109l25 163h108q73 0 73 37q0 46 -87 46q-134 0 -247 -66l31 194q108 60 251 60
q125 0 196 -56t71 -142q0 -45 -28 -86t-72 -61z" />
    <glyph glyph-name="uni0418" unicode="&#x418;" horiz-adv-x="747" 
d="M481 0l53 330l-301 -330h-179l110 700h214l-52 -325l294 325h185l-110 -700h-214z" />
    <glyph glyph-name="uni0419" unicode="&#x419;" horiz-adv-x="747" 
d="M481 0l53 330l-301 -330h-179l110 700h214l-52 -325l294 325h185l-110 -700h-214zM320 917h143q0 -2 -1 -5v-4q0 -43 46 -43q54 0 63 52h145q-16 -87 -74 -136t-142 -49q-77 0 -130 41q-52 40 -52 112q0 6 2 32z" />
    <glyph glyph-name="uni041A" unicode="&#x41a;" horiz-adv-x="746" 
d="M268 0h-214l109 700h214l-40 -258l216 258h265l-288 -337l230 -363h-255l-190 299z" />
    <glyph glyph-name="uni041B" unicode="&#x41b;" horiz-adv-x="760" 
d="M6 10l30 190q25 -13 56 -13q22 0 36 8.5t31 33.5q36 54 67 237l40 234h552l-111 -700h-214l81 515h-143l-15 -84q-47 -257 -127 -352q-41 -47 -85.5 -67.5t-103.5 -20.5q-65 0 -94 19z" />
    <glyph glyph-name="uni041C" unicode="&#x41c;" horiz-adv-x="839" 
d="M262 0h-208l111 700h211l113 -249l194 249h214l-111 -700h-206l62 392l-125 -167h-116l-77 167z" />
    <glyph glyph-name="uni041D" unicode="&#x41d;" horiz-adv-x="750" 
d="M268 0h-214l110 700h215l-38 -237h215l38 237h214l-111 -700h-214l44 276h-215z" />
    <glyph glyph-name="uni041E" unicode="&#x41e;" horiz-adv-x="816" 
d="M475 714q163 0 260 -94t97 -246q0 -166 -113 -277t-278 -111q-163 0 -260 94t-97 246q0 166 113 277q114 111 278 111zM447 182q76 0 121 54t45 138q0 59 -39 101q-39 43 -105 43q-74 0 -120 -55q-46 -53 -46 -137q0 -58 39 -102q39 -42 105 -42z" />
    <glyph glyph-name="uni041F" unicode="&#x41f;" horiz-adv-x="741" 
d="M268 0h-214l110 700h635l-111 -700h-214l82 515h-206z" />
    <glyph glyph-name="uni0420" unicode="&#x420;" horiz-adv-x="645" 
d="M164 700h308q111 0 176 -56t65 -144q0 -112 -81 -184t-208 -72h-118l-38 -244h-214zM352 525l-20 -125h71q42 0 68 18t26 54q0 53 -68 53h-77z" />
    <glyph glyph-name="uni0421" unicode="&#x421;" horiz-adv-x="661" 
d="M303 330q0 -66 45.5 -107t122.5 -41q111 0 190 53l-34 -211q-96 -38 -177 -38q-164 0 -265 92t-101 239q0 180 116 288q116 109 304 109q113 0 212 -38l-35 -199q-77 41 -178 41q-93 0 -146.5 -50.5t-53.5 -137.5z" />
    <glyph glyph-name="uni0422" unicode="&#x422;" horiz-adv-x="659" 
d="M104 515l29 185h615l-29 -185h-201l-82 -515h-214l82 515h-200z" />
    <glyph glyph-name="uni0423" unicode="&#x423;" horiz-adv-x="693" 
d="M202 -14q-88 0 -132 29l28 180q37 -22 95 -22q64 0 102 53l-188 474h232l89 -268l143 268h230l-327 -544q-101 -170 -272 -170z" />
    <glyph glyph-name="uni0424" unicode="&#x424;" horiz-adv-x="946" 
d="M465 673l10 61h215l-11 -67q136 -20 209.5 -95.5t73.5 -190.5q0 -146 -110 -241q-109 -94 -272 -94l-12 -79h-214l13 85q-136 20 -209.5 95.5t-73.5 190.5q0 146 109 240q110 95 272 95zM396 232l41 259q-57 0 -94 -45q-37 -44 -37 -101q0 -49 26 -80t64 -33zM740 374
q0 49 -26 79.5t-64 33.5l-41 -259q55 0 93 45q38 46 38 101z" />
    <glyph glyph-name="uni0425" unicode="&#x425;" horiz-adv-x="738" 
d="M130 700h242l75 -167l130 167h253l-278 -324l205 -376h-243l-107 212l-172 -212h-254l324 375z" />
    <glyph glyph-name="uni0426" unicode="&#x426;" horiz-adv-x="789" 
d="M750 -129h-202l20 129h-514l111 700h215l-81 -515h199l81 515h214l-81 -515h88z" />
    <glyph glyph-name="uni0427" unicode="&#x427;" horiz-adv-x="685" 
d="M487 429l42 271h214l-110 -700h-214l37 234q-48 -14 -114 -14q-114 0 -175.5 50t-61.5 143q0 24 6 60l35 227h214l-31 -200q-3 -18 -3 -27q0 -31 20.5 -47t54.5 -16q52 0 86 19z" />
    <glyph glyph-name="uni0428" unicode="&#x428;" horiz-adv-x="1039" 
d="M986 0h-932l110 700h215l-81 -515h145l81 515h214l-81 -515h145l81 515h214z" />
    <glyph glyph-name="uni0429" unicode="&#x429;" horiz-adv-x="1093" 
d="M1054 -129h-202l20 129h-818l111 700h215l-81 -515h146l81 515h214l-81 -515h145l81 515h213l-81 -515h87z" />
    <glyph glyph-name="uni042A" unicode="&#x42a;" horiz-adv-x="802" 
d="M479 499h102q117 0 184 -64q68 -65 68 -159q0 -123 -100 -199q-100 -77 -235 -77h-311l81 515h-166l29 185h380zM452 330l-23 -151h76q41 0 75 21q34 22 34 61q0 30 -21.5 49.5t-56.5 19.5h-84z" />
    <glyph glyph-name="uni042B" unicode="&#x42b;" horiz-adv-x="962" 
d="M1020 700l-110 -700h-214l110 700h214zM346 499h80q117 0 184 -64q68 -65 68 -159q0 -123 -100 -199q-100 -77 -235 -77h-289l110 700h214zM319 330l-23 -151h54q40 0 75 21q34 22 34 61q0 30 -21.5 49.5t-56.5 19.5h-62z" />
    <glyph glyph-name="uni042C" unicode="&#x42c;" horiz-adv-x="669" 
d="M346 499h102q117 0 184 -64q68 -65 68 -159q0 -123 -100 -199q-100 -77 -235 -77h-311l110 700h214zM319 330l-23 -151h76q40 0 75 21q34 22 34 61q0 30 -21.5 49.5t-56.5 19.5h-84z" />
    <glyph glyph-name="uni042D" unicode="&#x42d;" horiz-adv-x="666" 
d="M317 714q163 0 264 -92t101 -239q0 -180 -117 -289q-116 -108 -304 -108q-114 0 -213 38l32 194q77 -41 182 -41q142 0 187 103h-230l26 166h203q-44 77 -152 77q-106 0 -180 -47l32 203q93 35 169 35z" />
    <glyph glyph-name="uni042E" unicode="&#x42e;" horiz-adv-x="1060" 
d="M379 252h-67l-39 -252h-219l110 700h219l-42 -261h52q42 128 140 202q98 73 226 73q145 0 230 -94q87 -95 87 -233q0 -172 -110 -287q-110 -114 -280 -114q-122 0 -205 75q-82 75 -102 191zM704 179q72 0 113 62t41 140q0 66 -29.5 103t-82.5 37q-72 0 -113 -62t-41 -140
q0 -66 29.5 -103t82.5 -37z" />
    <glyph glyph-name="uni042F" unicode="&#x42f;" horiz-adv-x="722" 
d="M446 700h334l-110 -700h-215l40 250h-25l-223 -250h-248l245 275q-45 24 -71.5 72t-26.5 104q0 113 88 180q88 69 212 69zM424 407h96l17 113h-95q-32 0 -54.5 -17t-22.5 -46q0 -22 16 -36t43 -14z" />
    <glyph glyph-name="uni0430" unicode="&#x430;" horiz-adv-x="611" 
d="M584 154q12 0 27 5l-24 -143q-41 -29 -107 -29q-97 0 -125 61q-20 -26 -59 -43.5t-85 -17.5q-82 0 -129 44t-47 114q0 84 58 129q58 46 149 46q73 0 128 -28q2 14 2 19q0 60 -109 60q-77 0 -137 -27l26 157q81 28 175 28q108 0 181 -47q73 -46 73 -149q0 -25 -9 -71
l-9 -50q-4 -23 -4 -37q0 -21 25 -21zM357 146l7 51q-20 20 -61 20q-30 0 -48.5 -14t-18.5 -40q0 -20 15 -33.5t40 -13.5q42 0 66 30z" />
    <glyph glyph-name="uni0431" unicode="&#x431;" horiz-adv-x="614" 
d="M636 720l-29 -180l-122 -11q-198 -23 -217 -110q71 49 160 49q87 0 142 -58q56 -59 56 -147q0 -121 -83 -199q-83 -77 -211 -77t-197 78t-69 208q0 180 97 280.5t295 137.5q39 7 178 29zM343 150q38 0 61 24.5t23 63.5q0 34 -20 54.5t-56 20.5q-58 0 -95 -34
q-2 -12 -2 -24q0 -45 23 -75t66 -30z" />
    <glyph glyph-name="uni0432" unicode="&#x432;" horiz-adv-x="604" 
d="M520 265q77 -29 77 -106q0 -78 -60.5 -118.5t-167.5 -40.5h-320l81 516h315q73 0 113.5 -36t40.5 -90q0 -44 -23.5 -78t-55.5 -47zM360 389h-48l-12 -78h48q24 0 39 13t15 34q0 31 -42 31zM285 216l-14 -85h62q59 0 59 52q0 33 -46 33h-61z" />
    <glyph glyph-name="uni0433" unicode="&#x433;" horiz-adv-x="496" 
d="M259 0h-210l81 516h432l-26 -165h-222z" />
    <glyph glyph-name="uni0434" unicode="&#x434;" horiz-adv-x="701" 
d="M199 -111h-201l43 276h64q46 64 76 222l24 129h482l-56 -351h74l-43 -276h-198l17 111h-265zM311 165h113l31 191h-86q-20 -122 -58 -191z" />
    <glyph glyph-name="uni0435" unicode="&#x435;" horiz-adv-x="579" 
d="M595 310q0 -36 -13 -97h-322q5 -29 39.5 -45t83.5 -16q88 0 169 40l-24 -155q-68 -50 -202 -50q-113 0 -190 68q-76 67 -76 180q0 129 84 211q86 83 210 83q105 0 173 -59t68 -160zM265 313h140v6q0 32 -15.5 50.5t-42.5 18.5q-29 0 -51 -19.5t-31 -55.5z" />
    <glyph glyph-name="uni0436" unicode="&#x436;" horiz-adv-x="889" 
d="M221 0h-228l229 277l-123 239h210l86 -186l29 186h197l-29 -186l142 186h215l-199 -245l144 -271h-224l-94 204l-32 -204h-197l32 204z" />
    <glyph glyph-name="uni0437" unicode="&#x437;" horiz-adv-x="539" 
d="M465 276q32 -7 56.5 -36t24.5 -67q0 -81 -80 -134q-79 -52 -214 -52t-212 41l26 158q76 -41 171 -41q31 0 53 5.5t31 12.5t9 15q0 10 -10 12.5t-41 2.5h-106l21 132h105q39 0 39 23q0 25 -67 25q-94 0 -166 -32l24 146q85 42 206 42q106 0 164.5 -38.5t58.5 -102.5
q0 -45 -31 -76q-30 -31 -62 -36z" />
    <glyph glyph-name="uni0438" unicode="&#x438;" horiz-adv-x="645" 
d="M247 0h-198l81 516h197l-34 -219l186 219h198l-81 -516h-197l34 218z" />
    <glyph glyph-name="uni0439" unicode="&#x439;" horiz-adv-x="645" 
d="M247 0h-198l81 516h197l-34 -219l186 219h198l-81 -516h-197l34 218zM225 731h143q-1 -4 -1 -12q0 -19 12 -30t34 -11q54 0 63 53h145q-15 -87 -73.5 -136.5t-142.5 -49.5q-76 0 -129 41q-53 42 -53 113q0 6 2 32z" />
    <glyph glyph-name="uni043A" unicode="&#x43a;" horiz-adv-x="649" 
d="M259 0h-210l80 516h211l-27 -178l146 178h258l-225 -248l178 -268h-246l-133 209z" />
    <glyph glyph-name="uni043B" unicode="&#x43b;" horiz-adv-x="659" 
d="M454 351h-90l-12 -65q-22 -117 -68 -197q-57 -99 -174 -99q-63 0 -91 17l25 164q14 -8 30 -8q42 0 63 52q22 55 41 177l20 124h493l-81 -516h-211z" />
    <glyph glyph-name="uni043C" unicode="&#x43c;" horiz-adv-x="711" 
d="M237 0h-188l81 516h198l83 -161l133 161h199l-81 -516h-189l38 245l-93 -113h-83l-59 114z" />
    <glyph glyph-name="uni043D" unicode="&#x43d;" horiz-adv-x="633" 
d="M259 0h-210l81 516h210l-27 -170h114l27 170h211l-81 -516h-211l28 182h-114z" />
    <glyph glyph-name="uni043E" unicode="&#x43e;" horiz-adv-x="627" 
d="M357 529q122 0 204 -73q83 -72 83 -188q0 -113 -86 -197q-85 -84 -212 -84q-122 0 -204 72q-82 73 -82 191q0 113 85 195q85 84 212 84zM345 165q40 0 67.5 30.5t27.5 76.5q0 37 -23 58t-59 21q-40 0 -67 -30t-27 -76q0 -37 23 -58.5t58 -21.5z" />
    <glyph glyph-name="uni043F" unicode="&#x43f;" horiz-adv-x="629" 
d="M259 0h-210l81 516h531l-81 -516h-211l55 351h-110z" />
    <glyph glyph-name="uni0440" unicode="&#x440;" 
d="M271 57l-41 -257h-211l111 716h212l-9 -58q13 26 54 48q41 23 91 23q87 0 143 -68t56 -169q0 -74 -29 -143t-90 -115q-62 -47 -144 -47q-50 0 -90.5 22t-52.5 48zM304 312l-16 -107q26 -43 82 -43q40 0 66 31.5t26 78.5q0 39 -20.5 60.5t-53.5 21.5q-48 0 -84 -42z" />
    <glyph glyph-name="uni0441" unicode="&#x441;" horiz-adv-x="509" 
d="M341 -13q-117 0 -199 67t-82 188q0 122 90 204q92 83 227 83q92 0 166 -38l-28 -169q-96 45 -171.5 22t-75.5 -92q0 -35 23 -56q36 -31 101 -31q56 0 108 20l-28 -174q-62 -24 -131 -24z" />
    <glyph glyph-name="uni0442" unicode="&#x442;" horiz-adv-x="528" 
d="M367 0h-211l55 351h-138l26 165h489l-26 -165h-140z" />
    <glyph glyph-name="uni0443" unicode="&#x443;" horiz-adv-x="606" 
d="M130 -206q-81 0 -120 24l29 181q33 -27 83 -27q33 0 52 9.5t33 35.5l-132 499h219l44 -292l129 292h219l-308 -566q-84 -156 -248 -156z" />
    <glyph glyph-name="uni0444" unicode="&#x444;" horiz-adv-x="802" 
d="M262 -200l32 198q-112 18 -173 82.5t-61 155.5q0 125 88 200q88 74 227 82l29 182h211l-30 -182q112 -18 173 -82t61 -156q0 -124 -89 -201q-89 -75 -226 -81l-32 -198h-210zM317 153l33 209q-41 -6 -69 -41t-28 -85q0 -35 16.5 -57t47.5 -26zM561 362l-33 -209
q41 6 69 41t28 85q0 35 -16.5 57t-47.5 26z" />
    <glyph glyph-name="uni0445" unicode="&#x445;" horiz-adv-x="607" 
d="M91 516h218l48 -121l85 121h234l-209 -251l136 -265h-221l-53 129l-95 -129h-234l221 264z" />
    <glyph glyph-name="uni0446" unicode="&#x446;" horiz-adv-x="682" 
d="M643 -111h-204l17 111h-407l82 516h210l-56 -351h116l56 351h210l-56 -351h75z" />
    <glyph glyph-name="uni0447" unicode="&#x447;" horiz-adv-x="585" 
d="M374 310l32 206h211l-81 -516h-211l22 141q-31 -9 -72 -9q-83 0 -144 41q-59 42 -59 127q0 19 11 93l20 123h209l-22 -136l-1 -8q-1 -8 -2.5 -17t-1.5 -13q0 -42 45 -42q28 0 44 10z" />
    <glyph glyph-name="uni0448" unicode="&#x448;" horiz-adv-x="872" 
d="M823 0h-774l81 516h202l-55 -351h82l55 351h202l-55 -351h86l55 351h202z" />
    <glyph glyph-name="uni0449" unicode="&#x449;" horiz-adv-x="919" 
d="M880 -111h-189l17 111h-659l82 516h202l-56 -351h82l56 351h202l-56 -351h86l56 351h202l-56 -351h74z" />
    <glyph glyph-name="uni044A" unicode="&#x44a;" horiz-adv-x="663" 
d="M403 386h66q96 0 152.5 -45t56.5 -123q0 -94 -66 -156q-65 -62 -173 -62h-297l56 351h-135l26 165h335zM382 249l-16 -102h46q30 0 48.5 14.5t18.5 40.5q0 20 -13.5 33.5t-35.5 13.5h-48z" />
    <glyph glyph-name="uni044B" unicode="&#x44b;" horiz-adv-x="844" 
d="M584 0l82 516h210l-81 -516h-211zM310 386h57q96 0 152.5 -45t56.5 -123q0 -94 -66 -156q-65 -62 -173 -62h-288l82 516h200zM289 249l-16 -102h37q30 0 48.5 14.5t18.5 40.5q0 20 -13.5 33.5t-35.5 13.5h-39z" />
    <glyph glyph-name="uni044C" unicode="&#x44c;" horiz-adv-x="570" 
d="M310 386h66q96 0 152.5 -45t56.5 -123q0 -94 -66 -156q-65 -62 -173 -62h-297l82 516h200zM289 249l-16 -102h46q30 0 48.5 14.5t18.5 40.5q0 20 -13.5 33.5t-35.5 13.5h-48z" />
    <glyph glyph-name="uni044D" unicode="&#x44d;" horiz-adv-x="518" 
d="M98 354l25 156q53 19 127 19q118 0 201 -67q84 -67 84 -188q0 -122 -93 -205q-91 -82 -228 -82q-100 0 -174 38l24 151q58 -29 130 -29q91 0 125 49h-153l20 126h137q-29 47 -122 47q-59 0 -103 -15z" />
    <glyph glyph-name="uni044E" unicode="&#x44e;" horiz-adv-x="871" 
d="M625 529q117 0 190 -72q73 -70 73 -185q0 -118 -85 -202q-85 -83 -202 -83q-101 0 -170 54t-87 146h-65l-30 -187h-200l82 516h200l-27 -168h55q32 81 104 131q74 50 162 50zM604 165q32 0 55.5 31.5t23.5 77.5q0 35 -17.5 56t-45.5 21q-32 0 -55.5 -31.5t-23.5 -77.5
q0 -35 17.5 -56t45.5 -21z" />
    <glyph glyph-name="uni044F" unicode="&#x44f;" horiz-adv-x="600" 
d="M344 516h288l-82 -516h-210l24 152h-19l-114 -152h-231l154 190q-61 43 -61 125q0 96 71 149q71 52 180 52zM339 283h46l12 78h-43q-58 0 -58 -42q0 -15 12 -25.5t31 -10.5z" />
    <glyph glyph-name="uni0451" unicode="&#x451;" horiz-adv-x="579" 
d="M595 310q0 -36 -13 -97h-322q5 -29 39.5 -45t83.5 -16q88 0 169 40l-24 -155q-68 -50 -202 -50q-113 0 -190 68q-76 67 -76 180q0 129 84 211q86 83 210 83q105 0 173 -59t68 -160zM265 313h140v6q0 32 -15.5 50.5t-42.5 18.5q-29 0 -51 -19.5t-31 -55.5zM430 590
q-29 30 -29 71t29 70q30 29 71 29t70 -29q30 -29 30 -70t-30 -71q-29 -29 -70 -29t-71 29zM264 760q42 0 71 -29t29 -70q0 -42 -29 -71t-71 -29q-41 0 -70.5 29.5t-29.5 70.5t29.5 70t70.5 29z" />
    <glyph glyph-name="uni0452" unicode="&#x452;" horiz-adv-x="668" 
d="M183 511h-99l17 108h99l13 81h210l-13 -81h180l-17 -108h-180l-26 -161q54 79 152 79q69 0 109 -47t40 -125q0 -37 -5 -70l-26 -168q-15 -104 -85 -164.5t-182 -60.5q-83 0 -121 20l25 159q28 -15 68 -15q36 0 58.5 16.5t26.5 46.5l21 138q3 19 3 35q0 51 -46 51
q-37 0 -59 -27l-34 -218h-210z" />
    <glyph glyph-name="uni0453" unicode="&#x453;" horiz-adv-x="496" 
d="M259 0h-210l81 516h432l-26 -165h-222zM230 576l120 158h248l-195 -158h-173z" />
    <glyph glyph-name="uni0454" unicode="&#x454;" horiz-adv-x="508" 
d="M316 -13q-66 0 -122 25q-59 26 -96.5 83t-37.5 132q0 128 88 215t228 87q106 0 166 -29l-25 -153q-60 22 -126 22q-94 0 -135 -47h164l-21 -126h-153q11 -22 43 -35.5t68 -13.5q59 0 126 26l-25 -159q-58 -27 -142 -27z" />
    <glyph glyph-name="uni0455" unicode="&#x455;" horiz-adv-x="506" 
d="M536 470l-27 -151q-91 62 -183 62q-35 0 -35 -18q0 -7 14 -13.5t59 -20.5q83 -25 117 -60.5t34 -95.5t-35.5 -104t-92.5 -64q-54 -18 -118 -18q-66 0 -131.5 15t-106.5 42l26 155q86 -62 194 -62q49 0 49 19q0 13 -26 22l-29 8l-25 8q-72 23 -110.5 57t-38.5 88
q0 94 71 142q70 48 180 48q129 0 214 -59z" />
    <glyph glyph-name="uni0456" unicode="&#x456;" horiz-adv-x="318" 
d="M345 516l-82 -516h-210l81 516h211zM260 540q-50 0 -84 34t-34 85q0 49 34 83q35 35 84 35t84 -35q34 -34 34 -83q0 -50 -34 -84.5t-84 -34.5z" />
    <glyph glyph-name="uni0457" unicode="&#x457;" horiz-adv-x="318" 
d="M294 584q-29 30 -29 71t29 70q30 29 71 29t70 -29q30 -29 30 -70t-30 -71q-29 -29 -70 -29t-71 29zM128 754q42 0 71 -29t29 -70q0 -42 -29 -71t-71 -29q-41 0 -70.5 29.5t-29.5 70.5t29.5 70t70.5 29zM344 516l-81 -516h-210l81 516h210z" />
    <glyph glyph-name="uni0458" unicode="&#x458;" horiz-adv-x="318" 
d="M143 659q0 49 34 83q35 35 83 35q49 0 84 -35t35 -83q0 -50 -35 -85q-34 -34 -84 -34q-49 0 -83 34t-34 85zM-2 -206q-83 0 -121 20l26 159q27 -15 67 -15q74 0 85 63l79 495h211l-80 -502q-16 -103 -85.5 -161.5t-181.5 -58.5z" />
    <glyph glyph-name="uni0459" unicode="&#x459;" horiz-adv-x="919" 
d="M659 386h66q96 0 152.5 -45t56.5 -123q0 -94 -66 -156q-65 -62 -173 -62h-297l56 351h-90l-12 -65q-22 -117 -68 -197q-57 -99 -174 -99q-63 0 -91 17l25 164q14 -8 30 -8q42 0 63 52q22 55 41 177l20 124h482zM638 249l-16 -102h46q30 0 48.5 14.5t18.5 40.5
q0 20 -13.5 33.5t-35.5 13.5h-48z" />
    <glyph glyph-name="uni045A" unicode="&#x45a;" horiz-adv-x="894" 
d="M634 386h66q96 0 152.5 -45t56.5 -123q0 -94 -66 -156q-65 -62 -173 -62h-297l28 182h-114l-28 -182h-210l81 516h210l-27 -170h114l27 170h201zM613 249l-16 -102h46q30 0 48.5 14.5t18.5 40.5q0 20 -13.5 33.5t-35.5 13.5h-48z" />
    <glyph glyph-name="uni045B" unicode="&#x45b;" horiz-adv-x="670" 
d="M185 511h-101l17 108h101l13 81h210l-13 -81h178l-17 -108h-178l-26 -162q54 79 152 79q69 0 109 -47t40 -125q0 -37 -5 -70l-29 -186h-210l24 158q3 18 3 35q0 51 -46 51q-37 0 -59 -27l-34 -217h-210z" />
    <glyph glyph-name="uni045C" unicode="&#x45c;" horiz-adv-x="649" 
d="M259 0h-210l80 516h211l-27 -178l146 178h258l-225 -248l178 -268h-246l-133 209zM321 576l120 158h248l-195 -158h-173z" />
    <glyph glyph-name="uni045E" unicode="&#x45e;" horiz-adv-x="606" 
d="M130 -206q-81 0 -120 24l29 181q33 -27 83 -27q33 0 52 9.5t33 35.5l-132 499h219l44 -292l129 292h219l-308 -566q-84 -156 -248 -156zM208 731h143q-1 -4 -1 -12q0 -19 12 -30t34 -11q54 0 63 53h145q-15 -87 -73.5 -136.5t-142.5 -49.5q-76 0 -129 41q-53 42 -53 113
q0 6 2 32z" />
    <glyph glyph-name="uni045F" unicode="&#x45f;" horiz-adv-x="635" 
d="M402 -111h-203l17 111h-167l82 516h210l-56 -351h116l56 351h210l-82 -516h-166z" />
    <glyph glyph-name="uni0490" unicode="&#x490;" horiz-adv-x="619" 
d="M268 0h-214l109 700h338l21 133h193l-50 -318h-316z" />
    <glyph glyph-name="uni0491" unicode="&#x491;" horiz-adv-x="496" 
d="M258 0h-209l80 516h239l18 115h193l-44 -280h-222z" />
    <glyph glyph-name="uni1E02" unicode="&#x1e02;" horiz-adv-x="702" 
d="M612 389q39 -12 74 -54q35 -41 35 -106q0 -104 -79 -167q-79 -62 -197 -62h-391l110 700h331q95 0 152 -40.5t57 -116.5q0 -48 -24 -89t-68 -65zM295 173h113q33 0 54 17t21 46q0 24 -18 38.5t-48 14.5h-103zM454 533h-102l-14 -94h109q28 0 43.5 14t15.5 39
q0 19 -14.5 30t-37.5 11zM449 939q43 0 72 -29t29 -70q0 -42 -29 -71t-72 -29q-41 0 -70.5 29.5t-29.5 70.5t29.5 70t70.5 29z" />
    <glyph glyph-name="uni1E03" unicode="&#x1e03;" horiz-adv-x="659" 
d="M268 58l-9 -58h-210l109 700h211l-37 -242q14 26 54 48q41 23 91 23q87 0 143 -68t56 -169q0 -74 -29 -143t-90 -115q-62 -47 -144 -47q-53 0 -94 23q-41 24 -51 48zM306 316l-19 -117q25 -37 84 -37q40 0 65 31t25 79q0 39 -20 60.5t-53 21.5q-47 0 -82 -38zM451 939
q43 0 72 -29t29 -70q0 -42 -29 -71t-72 -29q-41 0 -70.5 29.5t-29.5 70.5t29.5 70t70.5 29z" />
    <glyph glyph-name="uni1E0A" unicode="&#x1e0a;" horiz-adv-x="776" 
d="M164 700h274q160 0 257 -91q97 -90 97 -234q0 -162 -115 -268q-116 -107 -294 -107h-329zM351 515l-53 -330h94q86 0 135 51.5t49 134.5q0 61 -41 102q-41 42 -108 42h-76zM485 939q43 0 72 -29t29 -70q0 -42 -29 -71t-72 -29q-41 0 -70.5 29.5t-29.5 70.5t29.5 70
t70.5 29z" />
    <glyph glyph-name="uni1E0B" unicode="&#x1e0b;" horiz-adv-x="658" 
d="M467 458l40 242h211l-111 -700h-211l8 58q-14 -27 -54 -49t-91 -22q-88 0 -144 68q-55 67 -55 169q0 77 28 143q29 69 90 115q62 47 145 47q53 0 93 -24q40 -22 51 -47zM430 205l17 107q-26 43 -82 43q-39 0 -64.5 -31.5t-25.5 -78.5q0 -39 20 -60.5t53 -21.5q48 0 82 42
zM479 939q43 0 72 -29t29 -70q0 -42 -29 -71t-72 -29q-41 0 -70.5 29.5t-29.5 70.5t29.5 70t70.5 29z" />
    <glyph glyph-name="uni1E1E" unicode="&#x1e1e;" horiz-adv-x="631" 
d="M268 0h-214l110 700h550l-29 -185h-335l-11 -69h241l-27 -170h-241zM448 939q43 0 72 -29t29 -70q0 -42 -29.5 -71t-71.5 -29q-41 0 -70.5 29.5t-29.5 70.5t29.5 70t70.5 29z" />
    <glyph glyph-name="uni1E1F" unicode="&#x1e1f;" horiz-adv-x="466" 
d="M356 351l-56 -351h-211l56 351h-81l26 165h81l3 19q13 84 73 131.5t161 47.5q84 0 144 -22l-22 -139q-39 13 -78 13q-62 0 -70 -50h142l-26 -165h-142zM398 939q43 0 72 -29t29 -70q0 -42 -29.5 -71t-71.5 -29q-41 0 -70.5 29.5t-29.5 70.5t29.5 70t70.5 29z" />
    <glyph glyph-name="uni1E40" unicode="&#x1e40;" horiz-adv-x="839" 
d="M262 0h-208l111 700h211l113 -249l194 249h214l-111 -700h-206l62 392l-125 -167h-116l-77 167zM539 939q43 0 72 -29t29 -70q0 -42 -29 -71t-72 -29q-41 0 -70.5 29.5t-29.5 70.5t29.5 70t70.5 29z" />
    <glyph glyph-name="uni1E41" unicode="&#x1e41;" horiz-adv-x="928" 
d="M49 0l81 516h210l-10 -67q22 34 65 57t91 23t83 -24t47 -57q31 37 77.5 59t96.5 22q69 0 111 -41.5t42 -117.5q0 -30 -10 -89l-44 -281h-211l42 269q3 19 3 36q0 41 -39 41q-38 0 -60 -28l-50 -318h-210l41 260q5 28 5 44q0 42 -38 42q-39 0 -63 -30l-50 -316h-210z
M565 754q42 0 71 -29t29 -70t-29 -70.5t-71 -29.5q-41 0 -71 29.5t-30 70.5t30 70t71 29z" />
    <glyph glyph-name="uni1E56" unicode="&#x1e56;" horiz-adv-x="645" 
d="M164 700h308q111 0 176 -56t65 -144q0 -112 -81 -184t-208 -72h-118l-38 -244h-214zM352 525l-20 -125h71q42 0 68 18t26 54q0 53 -68 53h-77zM445 939q43 0 72 -29t29 -70q0 -42 -29 -71t-72 -29q-41 0 -70.5 29.5t-29.5 70.5t29.5 70t70.5 29z" />
    <glyph glyph-name="uni1E57" unicode="&#x1e57;" 
d="M271 57l-41 -257h-211l111 716h212l-9 -58q13 26 54 48q41 23 91 23q87 0 143 -68t56 -169q0 -74 -29 -143t-90 -115q-62 -47 -144 -47q-50 0 -90.5 22t-52.5 48zM304 312l-16 -107q26 -43 82 -43q40 0 66 31.5t26 78.5q0 39 -20.5 60.5t-53.5 21.5q-48 0 -84 -42z
M413 754q42 0 71 -29t29 -70t-29 -70.5t-71 -29.5q-41 0 -71 29.5t-30 70.5t30 70t71 29z" />
    <glyph glyph-name="uni1E60" unicode="&#x1e60;" horiz-adv-x="653" 
d="M676 658l-35 -197q-40 26 -113 47t-134 21q-74 0 -74 -27q0 -11 20.5 -20t84.5 -29l38 -12q100 -32 148 -79t48 -123q0 -119 -93 -186q-91 -67 -233 -67q-188 0 -289 74l35 216q40 -41 120 -73q81 -30 149 -30q88 0 88 39q0 16 -26 27q-15 8 -44 16q-7 2 -29.5 9
t-32.5 10l-60 20q-18 7 -54 26q-30 17 -49 36q-43 47 -43 116q0 119 89 181q88 61 231 61q148 0 258 -56zM436 939q43 0 72 -29t29 -70q0 -42 -29.5 -71t-71.5 -29q-41 0 -70.5 29.5t-29.5 70.5t29.5 70t70.5 29z" />
    <glyph glyph-name="uni1E61" unicode="&#x1e61;" horiz-adv-x="506" 
d="M536 470l-27 -151q-91 62 -183 62q-35 0 -35 -18q0 -7 14 -13.5t59 -20.5q83 -25 117 -60.5t34 -95.5t-35.5 -104t-92.5 -64q-54 -18 -118 -18q-66 0 -131.5 15t-106.5 42l26 155q86 -62 194 -62q49 0 49 19q0 13 -26 22l-29 8l-25 8q-72 23 -110.5 57t-38.5 88
q0 94 71 142q70 48 180 48q129 0 214 -59zM348 754q42 0 71 -29t29 -70t-29 -70.5t-71 -29.5q-41 0 -71 29.5t-30 70.5t30 70t71 29z" />
    <glyph glyph-name="uni1E6A" unicode="&#x1e6a;" horiz-adv-x="659" 
d="M104 515l29 185h615l-29 -185h-201l-82 -515h-214l82 515h-200zM454 939q43 0 72 -29t29 -70q0 -42 -29.5 -71t-71.5 -29q-41 0 -70.5 29.5t-29.5 70.5t29.5 70t70.5 29z" />
    <glyph glyph-name="uni1E6B" unicode="&#x1e6b;" horiz-adv-x="456" 
d="M114 142q0 9 3 39l26 170h-81l26 165h82l20 124h208l-19 -124h117l-26 -165h-117l-18 -120q-3 -27 -3 -32q0 -34 43 -34q35 0 72 20l-26 -163q-58 -35 -140 -35q-74 0 -120.5 41.5t-46.5 113.5zM311 891q42 0 71 -29t29 -70t-29 -70.5t-71 -29.5q-41 0 -71 29.5t-30 70.5
t30 70t71 29z" />
    <glyph glyph-name="Wgrave" unicode="&#x1e80;" horiz-adv-x="1078" 
d="M414 -4h-187l-117 704h229l38 -373l191 375h162l73 -375l154 373h234l-341 -704h-183l-67 368zM416 917h248l69 -158h-173z" />
    <glyph glyph-name="wgrave" unicode="&#x1e81;" horiz-adv-x="831" 
d="M336 -4h-176l-80 520h196l29 -242l106 244h160l30 -243l104 241h210l-250 -520h-178l-39 241zM259 734h248l70 -158h-174z" />
    <glyph glyph-name="Wacute" unicode="&#x1e82;" horiz-adv-x="1078" 
d="M414 -4h-187l-117 704h229l38 -373l191 375h162l73 -375l154 373h234l-341 -704h-183l-67 368zM567 759l120 158h248l-195 -158h-173z" />
    <glyph glyph-name="wacute" unicode="&#x1e83;" horiz-adv-x="831" 
d="M336 -4h-176l-80 520h196l29 -242l106 244h160l30 -243l104 241h210l-250 -520h-178l-39 241zM404 576l120 158h248l-195 -158h-173z" />
    <glyph glyph-name="Wdieresis" unicode="&#x1e84;" horiz-adv-x="1078" 
d="M414 -4h-187l-117 704h229l38 -373l191 375h162l73 -375l154 373h234l-341 -704h-183l-67 368zM716 769q-29 30 -29 71t29 70q30 29 71 29t70 -29q30 -29 30 -70t-30 -71q-29 -29 -70 -29t-71 29zM550 939q43 0 72 -29t29 -70q0 -42 -29.5 -71t-71.5 -29
q-41 0 -70.5 29.5t-29.5 70.5t29.5 70t70.5 29z" />
    <glyph glyph-name="wdieresis" unicode="&#x1e85;" horiz-adv-x="831" 
d="M336 -4h-176l-80 520h196l29 -242l106 244h160l30 -243l104 241h210l-250 -520h-178l-39 241zM561 584q-29 30 -29 71t29 70q30 29 71 29t70 -29q30 -29 30 -70t-30 -71q-29 -29 -70 -29t-71 29zM395 754q43 0 71.5 -29t28.5 -70q0 -42 -29 -71t-71 -29q-41 0 -70.5 29.5
t-29.5 70.5t29.5 70t70.5 29z" />
    <glyph glyph-name="Ygrave" unicode="&#x1ef2;" horiz-adv-x="718" 
d="M465 0h-214l49 306l-194 394h237l91 -197l155 197h243l-318 -389zM260 917h248l69 -158h-173z" />
    <glyph glyph-name="ygrave" unicode="&#x1ef3;" horiz-adv-x="606" 
d="M130 -206q-81 0 -120 24l29 181q33 -27 83 -27q33 0 52 9.5t33 35.5l-132 499h219l44 -292l129 292h219l-308 -566q-84 -156 -248 -156zM191 734h248l70 -158h-174z" />
    <glyph glyph-name="endash" unicode="&#x2013;" horiz-adv-x="778" 
d="M733 193h-629l29 183h629z" />
    <glyph glyph-name="emdash" unicode="&#x2014;" horiz-adv-x="894" 
d="M849 193h-745l29 183h745z" />
    <glyph glyph-name="uni2015" unicode="&#x2015;" horiz-adv-x="778" 
d="M733 193h-629l29 183h629z" />
    <glyph glyph-name="quoteleft" unicode="&#x2018;" horiz-adv-x="326" 
d="M429 700l-146 -351h-218l195 351h169z" />
    <glyph glyph-name="quoteright" unicode="&#x2019;" horiz-adv-x="326" 
d="M63 349l146 351h218l-195 -351h-169z" />
    <glyph glyph-name="quotesinglbase" unicode="&#x201a;" horiz-adv-x="326" 
d="M-40 -152l146 351h218l-195 -351h-169z" />
    <glyph glyph-name="quotedblleft" unicode="&#x201c;" horiz-adv-x="609" 
d="M712 700l-146 -351h-218l195 351h169zM429 700l-146 -351h-218l195 351h169z" />
    <glyph glyph-name="quotedblright" unicode="&#x201d;" horiz-adv-x="608" 
d="M346 349l146 351h218l-195 -351h-169zM63 349l146 351h218l-195 -351h-169z" />
    <glyph glyph-name="quotedblbase" unicode="&#x201e;" horiz-adv-x="608" 
d="M242 -152l146 351h218l-195 -351h-169zM-40 -152l146 351h218l-195 -351h-169z" />
    <glyph glyph-name="dagger" unicode="&#x2020;" horiz-adv-x="506" 
d="M411 535h165l-24 -148h-165l-61 -387h-151l61 387h-166l24 148h166l26 165h151z" />
    <glyph glyph-name="daggerdbl" unicode="&#x2021;" horiz-adv-x="506" 
d="M410 535h166l-24 -148h-165l-13 -83h165l-23 -148h-166l-24 -156h-151l24 156h-165l23 148h166l13 83h-166l24 148h165l27 165h151z" />
    <glyph glyph-name="bullet" unicode="&#x2022;" horiz-adv-x="415" 
d="M79 394q0 75 53 128q54 54 129 54t128 -54q53 -53 53 -128q0 -73 -53 -128q-53 -53 -128 -53q-74 0 -129 53q-53 55 -53 128z" />
    <glyph glyph-name="ellipsis" unicode="&#x2026;" horiz-adv-x="844" 
d="M163 231q50 0 86 -36q36 -34 36 -86q0 -51 -36 -87t-86 -36q-49 0 -87 36q-36 36 -36 87t36 86q36 36 87 36zM438 -14q-50 0 -86 36t-36 87t36 86q36 36 86 36q51 0 86 -36q36 -34 36 -86q0 -51 -36 -87q-35 -36 -86 -36zM714 -14q-50 0 -86 36t-36 87t36 86q36 36 86 36
q52 0 86 -36q36 -34 36 -86q0 -51 -36 -87q-34 -36 -86 -36z" />
    <glyph glyph-name="perthousand" unicode="&#x2030;" horiz-adv-x="1255" 
d="M144 0l538 700h139l-537 -700h-140zM692 347q78 0 130 -47q52 -46 52 -122q0 -74 -54 -129q-52 -54 -133 -54q-77 0 -130 47q-52 46 -52 124q0 72 53 127q54 54 134 54zM687 112q23 0 39.5 19.5t16.5 48.5q0 23 -14 36.5t-35 13.5q-25 0 -41.5 -19.5t-16.5 -48.5
q0 -23 14.5 -36.5t36.5 -13.5zM277 706q78 0 130 -47q52 -46 52 -122q0 -73 -54 -129q-53 -54 -133 -54q-77 0 -130 47q-52 46 -52 124q0 72 53 127q54 54 134 54zM272 471q23 0 39.5 19.5t16.5 48.5q0 23 -14 36.5t-35 13.5q-25 0 -41.5 -19.5t-16.5 -48.5
q0 -23 14.5 -36.5t36.5 -13.5zM1094 347q78 0 130 -47q52 -46 52 -122q0 -74 -54 -129q-52 -54 -133 -54q-77 0 -130 47q-52 46 -52 124q0 72 53 127q54 54 134 54zM1089 112q23 0 39.5 19.5t16.5 48.5q0 23 -14 36.5t-35 13.5q-25 0 -41.5 -19.5t-16.5 -48.5
q0 -23 14.5 -36.5t36.5 -13.5z" />
    <glyph glyph-name="guilsinglleft" unicode="&#x2039;" horiz-adv-x="357" 
d="M362 29h-206l-95 177l17 103l151 178h210l-196 -240z" />
    <glyph glyph-name="guilsinglright" unicode="&#x203a;" horiz-adv-x="357" 
d="M73 487h206l95 -177l-17 -103l-151 -178h-210l196 240z" />
    <glyph glyph-name="fraction" unicode="&#x2044;" horiz-adv-x="251" 
d="M-33 0h-130l539 700h130z" />
    <glyph glyph-name="zerosuperior" unicode="&#x2070;" horiz-adv-x="387" 
d="M289 708q75 0 120.5 -48t45.5 -125q3 -81 -52.5 -151.5t-143.5 -69.5q-75 0 -120.5 48t-45.5 125q-3 81 52.5 151.5t143.5 69.5zM263 418q35 0 53 37q19 37 19 79q0 70 -49 70q-34 0 -54 -38q-18 -38 -18 -78q0 -70 49 -70z" />
    <glyph glyph-name="foursuperior" unicode="&#x2074;" horiz-adv-x="360" 
d="M414 700l-34 -205h51l-15 -88h-50l-14 -85h-111l14 85h-186l14 81l213 212h118zM198 495h71l14 81z" />
    <glyph glyph-name="fivesuperior" unicode="&#x2075;" horiz-adv-x="322" 
d="M232 603l-6 -26l14 1q61 0 98.5 -32.5t37.5 -83.5q0 -70 -49.5 -109t-132.5 -39q-78 0 -124 31l17 106q49 -36 109 -36q63 0 63 43q0 35 -66 35q-38 0 -91 -14l59 221h227l-16 -97h-140z" />
    <glyph glyph-name="sixsuperior" unicode="&#x2076;" horiz-adv-x="341" 
d="M291 578q48 0 78.5 -32.5t30.5 -81.5q0 -66 -45 -108t-119 -42q-70 0 -108.5 42t-38.5 110q0 96 56 169q57 73 156 73q66 0 101 -28l-16 -100q-34 28 -82 28q-68 0 -88 -56q26 26 75 26zM238 406q20 0 34 13.5t14 34.5q0 40 -39 40q-31 0 -48 -23q-3 -7 -3 -21
q0 -20 12 -32t30 -12z" />
    <glyph glyph-name="sevensuperior" unicode="&#x2077;" horiz-adv-x="327" 
d="M211 322h-128l189 281h-159l16 97h293l-15 -90z" />
    <glyph glyph-name="eightsuperior" unicode="&#x2078;" horiz-adv-x="346" 
d="M354 516q22 -10 36.5 -32.5t14.5 -48.5q0 -55 -48 -88q-47 -33 -112 -33t-117 29q-50 29 -50 86q0 33 21.5 61t55.5 39q-36 21 -36 67q0 49 43 80q44 32 105 32q56 0 100 -28q46 -28 46 -79q0 -27 -16 -50t-43 -35zM242 408q20 0 34.5 10.5t14.5 27.5q0 15 -13 26t-33 11
q-21 0 -35.5 -11t-14.5 -29q0 -15 13 -25t34 -10zM303 585q0 13 -10.5 22t-28.5 9q-16 0 -28 -9t-12 -24q-3 -21 25 -28q31 -7 48 11q7 8 6 19z" />
    <glyph glyph-name="ninesuperior" unicode="&#x2079;" horiz-adv-x="350" 
d="M202 444q-48 0 -78.5 32.5t-30.5 81.5q0 66 45 108t119 42q70 0 108.5 -42t38.5 -110q0 -96 -57 -170q-55 -72 -155 -72q-66 0 -101 28l16 100q34 -28 82 -28q68 0 88 56q-26 -26 -75 -26zM255 616q-20 0 -34 -13.5t-14 -34.5q0 -40 39 -40q31 0 48 23q3 7 3 21
q0 20 -12 32t-30 12z" />
    <glyph glyph-name="zeroinferior" unicode="&#x2080;" horiz-adv-x="387" 
d="M239 386q75 0 120.5 -48t45.5 -125q3 -81 -52.5 -151.5t-143.5 -69.5q-75 0 -120.5 48t-45.5 125q-3 81 52.5 151.5t143.5 69.5zM213 96q35 0 53 37q19 37 19 79q0 70 -49 70q-34 0 -54 -38q-18 -38 -18 -78q0 -70 49 -70z" />
    <glyph glyph-name="oneinferior" unicode="&#x2081;" horiz-adv-x="250" 
d="M226 0h-115l41 261l-108 -47l18 112l112 52h111z" />
    <glyph glyph-name="twoinferior" unicode="&#x2082;" horiz-adv-x="337" 
d="M76 247l19 114q43 25 109 25q59 0 99 -32.5t40 -88.5q0 -39 -23 -72.5t-75 -70.5l-36 -26h128l-15 -96h-291l14 82l113 86q39 30 53 46.5t14 33.5q0 34 -46 34q-50 0 -103 -35z" />
    <glyph glyph-name="threeinferior" unicode="&#x2083;" horiz-adv-x="324" 
d="M337 293l-76 -55q65 -32 65 -100q0 -66 -47.5 -106t-122.5 -40q-86 0 -136 35l18 105q44 -39 111 -39q28 0 46 10.5t18 30.5q0 14 -13.5 24t-37.5 10q-40 0 -65 -12l11 70l83 55h-119l17 97h262z" />
    <glyph glyph-name="fourinferior" unicode="&#x2084;" horiz-adv-x="360" 
d="M364 378l-34 -205h51l-15 -88h-50l-14 -85h-111l14 85h-186l14 81l213 212h118zM148 173h71l14 81z" />
    <glyph glyph-name="fiveinferior" unicode="&#x2085;" horiz-adv-x="322" 
d="M182 281l-6 -26l14 1q61 0 98.5 -32.5t37.5 -83.5q0 -70 -49.5 -109t-132.5 -39q-78 0 -124 31l17 106q49 -36 109 -36q63 0 63 43q0 35 -66 35q-38 0 -91 -14l59 221h227l-16 -97h-140z" />
    <glyph glyph-name="sixinferior" unicode="&#x2086;" horiz-adv-x="341" 
d="M241 256q48 0 78.5 -32.5t30.5 -81.5q0 -66 -45 -108t-119 -42q-70 0 -108.5 42t-38.5 110q0 96 56 169q57 73 156 73q66 0 101 -28l-16 -100q-34 28 -82 28q-68 0 -88 -56q26 26 75 26zM188 84q20 0 34 13.5t14 34.5q0 40 -39 40q-31 0 -48 -23q-3 -7 -3 -21
q0 -20 12 -32t30 -12z" />
    <glyph glyph-name="seveninferior" unicode="&#x2087;" horiz-adv-x="327" 
d="M161 0h-128l189 281h-159l16 97h293l-15 -90z" />
    <glyph glyph-name="eightinferior" unicode="&#x2088;" horiz-adv-x="346" 
d="M304 194q22 -10 36.5 -32.5t14.5 -48.5q0 -55 -48 -88q-47 -33 -112 -33t-117 29q-50 29 -50 86q0 33 21.5 61t55.5 39q-36 21 -36 67q0 49 43 80q44 32 105 32q56 0 100 -28q46 -28 46 -79q0 -27 -16 -50t-43 -35zM192 86q20 0 34.5 10.5t14.5 27.5q0 15 -13 26t-33 11
q-21 0 -35.5 -11t-14.5 -29q0 -15 13 -25t34 -10zM253 263q0 13 -10.5 22t-28.5 9q-16 0 -28 -9t-12 -24q-3 -21 25 -28q31 -7 48 11q7 8 6 19z" />
    <glyph glyph-name="nineinferior" unicode="&#x2089;" horiz-adv-x="342" 
d="M162 122q-48 0 -78.5 32.5t-30.5 81.5q0 66 45 108t119 42q70 0 108.5 -42t38.5 -110q0 -96 -57 -170q-55 -72 -155 -72q-66 0 -101 28l16 100q34 -28 82 -28q68 0 88 56q-26 -26 -75 -26zM215 294q-20 0 -34 -13.5t-14 -34.5q0 -40 39 -40q31 0 48 23q3 7 3 21
q0 20 -12 32t-30 12z" />
    <glyph glyph-name="franc" unicode="&#x20a3;" horiz-adv-x="690" 
d="M128 100h-90l17 107h90l78 493h550l-29 -185h-335l-11 -69h241l-27 -170h-241l-11 -69h124l-17 -107h-124l-16 -100h-215z" />
    <glyph glyph-name="lira" unicode="&#x20a4;" horiz-adv-x="625" 
d="M189 360h-92l15 97h92l2 12q19 117 97.5 181t204.5 64q105 0 167 -28l-30 -190q-51 22 -109 22q-93 0 -115 -61h187l-15 -97h-190l-6 -34h191l-16 -97h-192q-9 -34 -40 -44h279l-29 -185h-550l29 185h24q66 0 75 44h-92l16 97h91z" />
    <glyph glyph-name="peseta" unicode="&#x20a7;" horiz-adv-x="761" 
d="M207 700h308q99 0 162.5 -44.5t75.5 -120.5h78l-23 -146h-77q-33 -67 -103.5 -106t-160.5 -39h-118l-38 -244h-214l61 389h-82l23 146h82zM395 525l-20 -125h71q42 0 68 18t26 54q0 53 -68 53h-77z" />
    <glyph glyph-name="Euro" unicode="&#x20ac;" horiz-adv-x="640" 
d="M75 372l17 107h69q42 111 143 173t237 62q91 0 154 -25l-35 -187q-51 25 -124 25q-94 0 -149 -48h153l-17 -107h-191q-2 -30 -2 -34h187l-16 -107h-143q40 -58 153 -58q91 0 144 41l-32 -205q-60 -23 -151 -23q-132 0 -217.5 63.5t-110.5 181.5h-91l17 107h65l2 34h-62z
" />
    <glyph glyph-name="uni20B4" unicode="&#x20b4;" horiz-adv-x="591" 
d="M130 261h-52l14 85h535l-14 -85h-249q-16 -4 -29.5 -18.5t-13.5 -30.5q0 -42 91 -42q40 0 92 9q51 10 83 24l-31 -189q-84 -28 -179 -28q-93 0 -182 33q-50 19 -79.5 56t-29.5 86q0 65 44 100zM112 473h260q12 7 12 23q0 18 -26 27.5t-62 9.5q-88 0 -154 -23l29 184
q62 20 168 20q92 0 177 -36q46 -18 73.5 -54t27.5 -82q0 -43 -17 -69h47l-14 -85h-535z" />
    <glyph glyph-name="uni20B6" unicode="&#x20b6;" horiz-adv-x="732" 
d="M383 207h215l-17 -107h-215l-16 -100h-214l15 100h-121l17 107h121l6 37h-121l23 144h121l49 312h313q111 0 176 -56t65 -144q0 -112 -81 -184t-208 -72h-122zM428 526l-21 -138h76q44 0 73 21t29 59q0 58 -74 58h-83z" />
    <glyph glyph-name="uni20B6" unicode="&#x20cf;" horiz-adv-x="732" 
d="M383 207h215l-17 -107h-215l-16 -100h-214l15 100h-121l17 107h121l6 37h-121l23 144h121l49 312h313q111 0 176 -56t65 -144q0 -112 -81 -184t-208 -72h-122zM428 526l-21 -138h76q44 0 73 21t29 59q0 58 -74 58h-83z" />
    <glyph glyph-name="uni20B6" unicode="&#x20ce;" horiz-adv-x="732" 
d="M383 207h215l-17 -107h-215l-16 -100h-214l15 100h-121l17 107h121l6 37h-121l23 144h121l49 312h313q111 0 176 -56t65 -144q0 -112 -81 -184t-208 -72h-122zM428 526l-21 -138h76q44 0 73 21t29 59q0 58 -74 58h-83z" />
    <glyph glyph-name="uni20B6" unicode="&#x20cd;" horiz-adv-x="732" 
d="M383 207h215l-17 -107h-215l-16 -100h-214l15 100h-121l17 107h121l6 37h-121l23 144h121l49 312h313q111 0 176 -56t65 -144q0 -112 -81 -184t-208 -72h-122zM428 526l-21 -138h76q44 0 73 21t29 59q0 58 -74 58h-83z" />
    <glyph glyph-name="uni20B6" unicode="&#x20cc;" horiz-adv-x="732" 
d="M383 207h215l-17 -107h-215l-16 -100h-214l15 100h-121l17 107h121l6 37h-121l23 144h121l49 312h313q111 0 176 -56t65 -144q0 -112 -81 -184t-208 -72h-122zM428 526l-21 -138h76q44 0 73 21t29 59q0 58 -74 58h-83z" />
    <glyph glyph-name="uni20B6" unicode="&#x20cb;" horiz-adv-x="732" 
d="M383 207h215l-17 -107h-215l-16 -100h-214l15 100h-121l17 107h121l6 37h-121l23 144h121l49 312h313q111 0 176 -56t65 -144q0 -112 -81 -184t-208 -72h-122zM428 526l-21 -138h76q44 0 73 21t29 59q0 58 -74 58h-83z" />
    <glyph glyph-name="uni20B6" unicode="&#x20ca;" horiz-adv-x="732" 
d="M383 207h215l-17 -107h-215l-16 -100h-214l15 100h-121l17 107h121l6 37h-121l23 144h121l49 312h313q111 0 176 -56t65 -144q0 -112 -81 -184t-208 -72h-122zM428 526l-21 -138h76q44 0 73 21t29 59q0 58 -74 58h-83z" />
    <glyph glyph-name="uni20B6" unicode="&#x20c9;" horiz-adv-x="732" 
d="M383 207h215l-17 -107h-215l-16 -100h-214l15 100h-121l17 107h121l6 37h-121l23 144h121l49 312h313q111 0 176 -56t65 -144q0 -112 -81 -184t-208 -72h-122zM428 526l-21 -138h76q44 0 73 21t29 59q0 58 -74 58h-83z" />
    <glyph glyph-name="uni20B6" unicode="&#x20c8;" horiz-adv-x="732" 
d="M383 207h215l-17 -107h-215l-16 -100h-214l15 100h-121l17 107h121l6 37h-121l23 144h121l49 312h313q111 0 176 -56t65 -144q0 -112 -81 -184t-208 -72h-122zM428 526l-21 -138h76q44 0 73 21t29 59q0 58 -74 58h-83z" />
    <glyph glyph-name="uni20B6" unicode="&#x20c7;" horiz-adv-x="732" 
d="M383 207h215l-17 -107h-215l-16 -100h-214l15 100h-121l17 107h121l6 37h-121l23 144h121l49 312h313q111 0 176 -56t65 -144q0 -112 -81 -184t-208 -72h-122zM428 526l-21 -138h76q44 0 73 21t29 59q0 58 -74 58h-83z" />
    <glyph glyph-name="uni20B6" unicode="&#x20c6;" horiz-adv-x="732" 
d="M383 207h215l-17 -107h-215l-16 -100h-214l15 100h-121l17 107h121l6 37h-121l23 144h121l49 312h313q111 0 176 -56t65 -144q0 -112 -81 -184t-208 -72h-122zM428 526l-21 -138h76q44 0 73 21t29 59q0 58 -74 58h-83z" />
    <glyph glyph-name="uni20B6" unicode="&#x20c5;" horiz-adv-x="732" 
d="M383 207h215l-17 -107h-215l-16 -100h-214l15 100h-121l17 107h121l6 37h-121l23 144h121l49 312h313q111 0 176 -56t65 -144q0 -112 -81 -184t-208 -72h-122zM428 526l-21 -138h76q44 0 73 21t29 59q0 58 -74 58h-83z" />
    <glyph glyph-name="uni20B6" unicode="&#x20c4;" horiz-adv-x="732" 
d="M383 207h215l-17 -107h-215l-16 -100h-214l15 100h-121l17 107h121l6 37h-121l23 144h121l49 312h313q111 0 176 -56t65 -144q0 -112 -81 -184t-208 -72h-122zM428 526l-21 -138h76q44 0 73 21t29 59q0 58 -74 58h-83z" />
    <glyph glyph-name="uni20B6" unicode="&#x20c3;" horiz-adv-x="732" 
d="M383 207h215l-17 -107h-215l-16 -100h-214l15 100h-121l17 107h121l6 37h-121l23 144h121l49 312h313q111 0 176 -56t65 -144q0 -112 -81 -184t-208 -72h-122zM428 526l-21 -138h76q44 0 73 21t29 59q0 58 -74 58h-83z" />
    <glyph glyph-name="uni20B6" unicode="&#x20c2;" horiz-adv-x="732" 
d="M383 207h215l-17 -107h-215l-16 -100h-214l15 100h-121l17 107h121l6 37h-121l23 144h121l49 312h313q111 0 176 -56t65 -144q0 -112 -81 -184t-208 -72h-122zM428 526l-21 -138h76q44 0 73 21t29 59q0 58 -74 58h-83z" />
    <glyph glyph-name="uni20B6" unicode="&#x20c1;" horiz-adv-x="732" 
d="M383 207h215l-17 -107h-215l-16 -100h-214l15 100h-121l17 107h121l6 37h-121l23 144h121l49 312h313q111 0 176 -56t65 -144q0 -112 -81 -184t-208 -72h-122zM428 526l-21 -138h76q44 0 73 21t29 59q0 58 -74 58h-83z" />
    <glyph glyph-name="uni20B6" unicode="&#x20c0;" horiz-adv-x="732" 
d="M383 207h215l-17 -107h-215l-16 -100h-214l15 100h-121l17 107h121l6 37h-121l23 144h121l49 312h313q111 0 176 -56t65 -144q0 -112 -81 -184t-208 -72h-122zM428 526l-21 -138h76q44 0 73 21t29 59q0 58 -74 58h-83z" />
    <glyph glyph-name="uni20B6" unicode="&#x20bf;" horiz-adv-x="732" 
d="M383 207h215l-17 -107h-215l-16 -100h-214l15 100h-121l17 107h121l6 37h-121l23 144h121l49 312h313q111 0 176 -56t65 -144q0 -112 -81 -184t-208 -72h-122zM428 526l-21 -138h76q44 0 73 21t29 59q0 58 -74 58h-83z" />
    <glyph glyph-name="uni20B6" unicode="&#x20be;" horiz-adv-x="732" 
d="M383 207h215l-17 -107h-215l-16 -100h-214l15 100h-121l17 107h121l6 37h-121l23 144h121l49 312h313q111 0 176 -56t65 -144q0 -112 -81 -184t-208 -72h-122zM428 526l-21 -138h76q44 0 73 21t29 59q0 58 -74 58h-83z" />
    <glyph glyph-name="uni20B6" unicode="&#x20bd;" horiz-adv-x="732" 
d="M383 207h215l-17 -107h-215l-16 -100h-214l15 100h-121l17 107h121l6 37h-121l23 144h121l49 312h313q111 0 176 -56t65 -144q0 -112 -81 -184t-208 -72h-122zM428 526l-21 -138h76q44 0 73 21t29 59q0 58 -74 58h-83z" />
    <glyph glyph-name="uni20B6" unicode="&#x20bc;" horiz-adv-x="732" 
d="M383 207h215l-17 -107h-215l-16 -100h-214l15 100h-121l17 107h121l6 37h-121l23 144h121l49 312h313q111 0 176 -56t65 -144q0 -112 -81 -184t-208 -72h-122zM428 526l-21 -138h76q44 0 73 21t29 59q0 58 -74 58h-83z" />
    <glyph glyph-name="uni20B6" unicode="&#x20bb;" horiz-adv-x="732" 
d="M383 207h215l-17 -107h-215l-16 -100h-214l15 100h-121l17 107h121l6 37h-121l23 144h121l49 312h313q111 0 176 -56t65 -144q0 -112 -81 -184t-208 -72h-122zM428 526l-21 -138h76q44 0 73 21t29 59q0 58 -74 58h-83z" />
    <glyph glyph-name="uni20B6" unicode="&#x20ba;" horiz-adv-x="732" 
d="M383 207h215l-17 -107h-215l-16 -100h-214l15 100h-121l17 107h121l6 37h-121l23 144h121l49 312h313q111 0 176 -56t65 -144q0 -112 -81 -184t-208 -72h-122zM428 526l-21 -138h76q44 0 73 21t29 59q0 58 -74 58h-83z" />
    <glyph glyph-name="uni20B6" unicode="&#x20b9;" horiz-adv-x="732" 
d="M383 207h215l-17 -107h-215l-16 -100h-214l15 100h-121l17 107h121l6 37h-121l23 144h121l49 312h313q111 0 176 -56t65 -144q0 -112 -81 -184t-208 -72h-122zM428 526l-21 -138h76q44 0 73 21t29 59q0 58 -74 58h-83z" />
    <glyph glyph-name="uni20B6" unicode="&#x20b7;" horiz-adv-x="732" 
d="M383 207h215l-17 -107h-215l-16 -100h-214l15 100h-121l17 107h121l6 37h-121l23 144h121l49 312h313q111 0 176 -56t65 -144q0 -112 -81 -184t-208 -72h-122zM428 526l-21 -138h76q44 0 73 21t29 59q0 58 -74 58h-83z" />
    <glyph glyph-name="uni2113" unicode="&#x2113;" horiz-adv-x="444" 
d="M228 186v-5q0 -27 21 -42t57 -15q58 0 116 43l-20 -129q-67 -51 -157 -51q-76 0 -125 47q-48 48 -48 124q0 19 3 37l44 277q7 45 22.5 85.5t41 77t65.5 58t89 21.5q70 0 111 -42t41 -107q0 -111 -86 -214q-40 -47 -81 -85q-36 -34 -94 -80zM274 482l-17 -112q41 40 70 82
q32 47 32 86q0 38 -29 38q-43 0 -56 -94z" />
    <glyph glyph-name="uni2116" unicode="&#x2116;" horiz-adv-x="1197" 
d="M708 0h-175l-211 347l-54 -347h-214l110 700h181l206 -345l54 345h213zM1168 195h-357l19 118h357zM1045 706q78 0 130 -47q52 -46 52 -122q0 -73 -54 -129q-53 -54 -133 -54q-77 0 -130 47q-52 46 -52 124q0 72 53 127q54 54 134 54zM1040 471q23 0 39.5 19.5t16.5 48.5
q0 23 -14 36.5t-35 13.5q-25 0 -41.5 -19.5t-16.5 -48.5q0 -23 14.5 -36.5t36.5 -13.5z" />
    <glyph glyph-name="trademark" unicode="&#x2122;" horiz-adv-x="686" 
d="M138 700h274l-13 -81h-90l-46 -232h-94l46 232h-91zM590 593l88 107h94l-60 -313h-93l37 170l-55 -64h-49l-25 64l-37 -170h-93l60 313h87z" />
    <glyph glyph-name="Omega" unicode="&#x2126;" horiz-adv-x="776" 
d="M792 418q0 -65 -29.5 -127t-81.5 -106h85l-29 -185h-327l24 156q60 32 97 97q38 68 38 137q0 57 -31 97q-32 42 -87 42q-67 0 -106 -61q-39 -60 -39 -133q0 -59 22 -109q23 -51 57 -70l-24 -156h-324l29 185h94q-66 63 -66 188q0 139 102 240q104 101 253 101
q85 0 163 -32q77 -32 128 -101q52 -68 52 -163z" />
    <glyph glyph-name="estimated" unicode="&#x212e;" horiz-adv-x="769" 
d="M426 28q82 0 150.5 37.5t114.5 106.5h51q-42 -76 -125 -132q-83 -54 -193 -54q-142 0 -241 90q-99 92 -99 236q0 155 102 260t259 105q146 0 243 -94t97 -229q0 -18 -2 -34h-564l-20 -193q88 -99 227 -99zM245 564l-22 -202h427l18 178q-93 96 -223 96q-108 0 -200 -72z
" />
    <glyph glyph-name="onethird" unicode="&#x2153;" horiz-adv-x="797" 
d="M223 0h-130l539 700h130zM275 322h-115l41 261l-108 -47l18 112l112 52h111zM810 293l-76 -55q65 -32 65 -100q0 -66 -47.5 -106t-122.5 -40q-86 0 -136 35l18 105q43 -39 111 -39q28 0 46 10.5t18 30.5q0 14 -14 24t-37 10q-39 0 -65 -12l11 70l83 55h-119l17 97h262z
" />
    <glyph glyph-name="twothirds" unicode="&#x2154;" horiz-adv-x="883" 
d="M896 293l-76 -55q65 -32 65 -100q0 -66 -47.5 -106t-122.5 -40q-86 0 -136 35l18 105q43 -39 111 -39q28 0 46 10.5t18 30.5q0 14 -14 24t-37 10q-39 0 -65 -12l11 70l83 55h-119l17 97h262zM126 569l19 114q43 25 109 25q59 0 99 -32.5t40 -88.5q0 -39 -23 -72.5
t-75 -70.5l-36 -26h128l-15 -96h-291l14 82l113 86q39 30 53 46.5t14 33.5q0 34 -46 34q-50 0 -103 -35zM309 0h-130l539 700h130z" />
    <glyph glyph-name="uni2155" unicode="&#x2155;" horiz-adv-x="780" 
d="M223 0h-130l539 700h130zM275 322h-115l41 261l-108 -47l18 112l112 52h111zM640 281l-6 -26l14 1q61 0 98.5 -32.5t37.5 -83.5q0 -70 -49.5 -109t-132.5 -39q-78 0 -124 31l17 106q49 -36 109 -36q63 0 63 43q0 35 -66 35q-38 0 -91 -14l59 221h227l-16 -97h-140z" />
    <glyph glyph-name="uni2156" unicode="&#x2156;" horiz-adv-x="866" 
d="M126 569l19 114q43 25 109 25q59 0 99 -32.5t40 -88.5q0 -39 -23 -72.5t-75 -70.5l-36 -26h128l-15 -96h-291l14 82l113 86q39 30 53 46.5t14 33.5q0 34 -46 34q-50 0 -103 -35zM726 281l-6 -26l14 1q61 0 98.5 -32.5t37.5 -83.5q0 -70 -49.5 -109t-132.5 -39
q-78 0 -124 31l17 106q49 -36 109 -36q63 0 63 43q0 35 -66 35q-38 0 -91 -14l59 221h227l-16 -97h-140zM309 0h-130l539 700h130z" />
    <glyph glyph-name="uni2157" unicode="&#x2157;" horiz-adv-x="817" 
d="M260 0h-130l539 700h130zM677 281l-6 -26l14 1q61 0 98.5 -32.5t37.5 -83.5q0 -70 -49.5 -109t-132.5 -39q-78 0 -124 31l17 106q50 -36 109 -36q63 0 63 43q0 35 -66 35q-38 0 -91 -14l59 221h227l-16 -97h-140zM387 615l-76 -55q65 -32 65 -100q0 -66 -47.5 -106
t-122.5 -40q-86 0 -136 35l18 105q44 -39 111 -39q28 0 46 10.5t18 30.5q0 14 -13.5 24t-37.5 10q-40 0 -65 -12l11 70l83 55h-119l17 97h262z" />
    <glyph glyph-name="uni2158" unicode="&#x2158;" horiz-adv-x="857" 
d="M300 0h-130l539 700h130zM717 281l-6 -26l14 1q61 0 98.5 -32.5t37.5 -83.5q0 -70 -49.5 -109t-132.5 -39q-78 0 -124 31l17 106q50 -36 109 -36q63 0 63 43q0 35 -66 35q-38 0 -91 -14l59 221h227l-16 -97h-140zM414 700l-34 -205h51l-15 -88h-50l-14 -85h-111l14 85
h-186l14 81l213 212h118zM198 495h71l14 81z" />
    <glyph glyph-name="uni2159" unicode="&#x2159;" horiz-adv-x="784" 
d="M223 0h-130l539 700h130zM275 322h-115l41 261l-108 -47l18 112l112 52h111zM684 256q48 0 78.5 -32.5t30.5 -81.5q0 -66 -45 -108t-119 -42q-70 0 -108.5 42t-38.5 110q0 96 56 169q57 73 156 73q66 0 101 -28l-16 -100q-34 28 -82 28q-68 0 -88 -56q26 26 75 26z
M631 84q20 0 34 13.5t14 34.5q0 40 -39 40q-31 0 -48 -23q-3 -7 -3 -21q0 -20 12 -32t30 -12z" />
    <glyph glyph-name="uni215A" unicode="&#x215a;" horiz-adv-x="814" 
d="M714 256q48 0 78.5 -32.5t30.5 -81.5q0 -66 -45 -108t-119 -42q-70 0 -108.5 42t-38.5 110q0 96 56 169q57 73 156 73q66 0 101 -28l-16 -100q-34 28 -82 28q-68 0 -88 -56q26 26 75 26zM661 84q20 0 34 13.5t14 34.5q0 40 -39 40q-31 0 -48 -23q-3 -7 -3 -21
q0 -20 12 -32t30 -12zM232 603l-6 -26l14 1q61 0 98.5 -32.5t37.5 -83.5q0 -70 -49.5 -109t-132.5 -39q-78 0 -124 31l17 106q49 -36 109 -36q63 0 63 43q0 35 -66 35q-38 0 -91 -14l59 221h227l-16 -97h-140zM253 0h-130l539 700h130z" />
    <glyph glyph-name="oneeighth" unicode="&#x215b;" horiz-adv-x="804" 
d="M223 0h-130l539 700h130zM762 194q22 -10 36.5 -32.5t14.5 -48.5q0 -55 -48 -88q-47 -33 -112 -33t-117 29q-50 29 -50 86q0 33 21.5 61t55.5 39q-36 21 -36 67q0 49 43 80q44 32 105 32q56 0 100 -28q46 -28 46 -79q0 -27 -16 -50t-43 -35zM650 86q20 0 34.5 10.5
t14.5 27.5q0 15 -13 26t-33 11q-21 0 -35.5 -11t-14.5 -29q0 -15 13 -25t34 -10zM711 263q0 13 -10.5 22t-28.5 9q-16 0 -28 -9t-12 -24q-3 -21 25 -28q31 -7 48 11q7 8 6 19zM275 322h-115l41 261l-108 -47l18 112l112 52h111z" />
    <glyph glyph-name="threeeighths" unicode="&#x215c;" horiz-adv-x="841" 
d="M799 194q22 -10 36.5 -32.5t14.5 -48.5q0 -55 -48 -88q-46 -33 -112 -33q-65 0 -117 29q-50 29 -50 86q0 33 21.5 61t55.5 39q-36 21 -36 67q0 49 43 80q44 32 105 32q56 0 100 -28q46 -28 46 -79q0 -27 -16 -50t-43 -35zM687 86q20 0 34.5 10.5t14.5 27.5q0 15 -13 26
t-33 11q-21 0 -35.5 -11t-14.5 -29q0 -15 13 -25t34 -10zM748 263q0 13 -10.5 22t-28.5 9q-16 0 -28 -9t-12 -24q-3 -21 25 -28q31 -7 48 11q7 8 6 19zM387 615l-76 -55q65 -32 65 -100q0 -66 -47.5 -106t-122.5 -40q-86 0 -136 35l18 105q44 -39 111 -39q28 0 46 10.5
t18 30.5q0 14 -13.5 24t-37.5 10q-40 0 -65 -12l11 70l83 55h-119l17 97h262zM260 0h-130l539 700h130z" />
    <glyph glyph-name="fiveeighths" unicode="&#x215d;" horiz-adv-x="832" 
d="M790 194q22 -10 36.5 -32.5t14.5 -48.5q0 -55 -48 -88q-47 -33 -112 -33t-117 29q-50 29 -50 86q0 33 21.5 61t55.5 39q-36 21 -36 67q0 49 43 80q44 32 105 32q56 0 100 -28q46 -28 46 -79q0 -27 -16 -50t-43 -35zM678 86q20 0 34.5 10.5t14.5 27.5q0 15 -13 26t-33 11
q-21 0 -35.5 -11t-14.5 -29q0 -15 13 -25t34 -10zM739 263q0 13 -10.5 22t-28.5 9q-16 0 -28 -9t-12 -24q-3 -21 25 -28q31 -7 48 11q7 8 6 19zM232 603l-6 -26l14 1q61 0 98.5 -32.5t37.5 -83.5q0 -70 -49.5 -109t-132.5 -39q-78 0 -124 31l17 106q49 -36 109 -36
q63 0 63 43q0 35 -66 35q-38 0 -91 -14l59 221h227l-16 -97h-140zM251 0h-130l539 700h130z" />
    <glyph glyph-name="seveneighths" unicode="&#x215e;" horiz-adv-x="794" 
d="M752 194q22 -10 36.5 -32.5t14.5 -48.5q0 -55 -48 -88q-47 -33 -112 -33t-117 29q-50 29 -50 86q0 33 21.5 61t55.5 39q-36 21 -36 67q0 49 43 80q44 32 105 32q56 0 100 -28q46 -28 46 -79q0 -27 -16 -50t-43 -35zM640 86q20 0 34.5 10.5t14.5 27.5q0 15 -13 26t-33 11
q-21 0 -35.5 -11t-14.5 -29q0 -15 13 -25t34 -10zM701 263q0 13 -10.5 22t-28.5 9q-16 0 -28 -9t-12 -24q-3 -21 25 -28q31 -7 48 11q7 8 6 19zM213 0h-130l539 700h130zM211 322h-128l189 281h-159l16 97h293l-15 -90z" />
    <glyph glyph-name="uni215F" unicode="&#x215f;" horiz-adv-x="499" 
d="M275 322h-115l41 261l-108 -47l18 112l112 52h111zM223 0h-130l539 700h130z" />
    <glyph glyph-name="arrowleft" unicode="&#x2190;" horiz-adv-x="686" 
d="M64 267l231 235h196l-159 -156h363l-25 -158h-373l110 -156h-186z" />
    <glyph glyph-name="arrowup" unicode="&#x2191;" horiz-adv-x="560" 
d="M259 363l-177 -134l30 196l266 194l204 -194l-30 -186l-135 134l-58 -373h-158z" />
    <glyph glyph-name="arrowright" unicode="&#x2192;" horiz-adv-x="686" 
d="M472 346l-109 156h186l157 -235l-231 -235h-196l158 156h-363l25 158h373z" />
    <glyph glyph-name="arrowdown" unicode="&#x2193;" horiz-adv-x="560" 
d="M395 234l177 134l-30 -196l-266 -194l-204 194l30 186l135 -134l58 373h158z" />
    <glyph glyph-name="partialdiff" unicode="&#x2202;" horiz-adv-x="602" 
d="M297 714q144 0 225 -99q82 -98 82 -248q0 -155 -64 -261q-72 -119 -231 -119q-108 0 -179 65q-70 64 -70 172q0 103 64 171q64 70 168 70q90 0 145 -63q-6 69 -49 116q-43 49 -115 49t-136 -38v142q64 43 160 43zM432 264q-34 67 -101 67q-44 0 -73.5 -28.5t-29.5 -75.5
q0 -45 26.5 -72.5t70.5 -27.5q45 0 75.5 37.5t31.5 99.5z" />
    <glyph glyph-name="increment" unicode="&#x2206;" horiz-adv-x="783" 
d="M783 0h-782l399 700h205zM468 446l-138 -266h191z" />
    <glyph glyph-name="product" unicode="&#x220f;" horiz-adv-x="786" 
d="M283 -140h-170l110 695h-126l23 145h767l-23 -145h-127l-110 -695h-170l110 695h-174z" />
    <glyph glyph-name="summation" unicode="&#x2211;" horiz-adv-x="644" 
d="M608 0h-584l24 152l231 201l-157 196l24 151h562l-29 -185h-266l94 -127l-13 -81l-146 -122h289z" />
    <glyph glyph-name="minus" unicode="&#x2212;" horiz-adv-x="754" 
d="M73 245l29 183h682l-29 -183h-682z" />
    <glyph glyph-name="uni2215" unicode="&#x2215;" horiz-adv-x="550" 
d="M-3 0l539 700h129l-539 -700h-129z" />
    <glyph glyph-name="uni2219" unicode="&#x2219;" horiz-adv-x="263" 
d="M180 420q50 0 86 -36q36 -34 36 -86q0 -51 -36 -87t-86 -36t-87 36q-36 36 -36 87q0 52 36 86q36 36 87 36z" />
    <glyph glyph-name="radical" unicode="&#x221a;" horiz-adv-x="779" 
d="M478 0h-171l-102 352h-137l28 177h259l73 -268l255 439h202z" />
    <glyph glyph-name="infinity" unicode="&#x221e;" horiz-adv-x="802" 
d="M649 502q81 0 134 -53t53 -140q0 -100 -68 -168q-67 -67 -168 -67q-113 0 -168 93q-80 -90 -190 -90q-82 0 -135 53q-52 52 -52 140q0 100 68 168q67 67 168 67q113 0 168 -93q79 90 190 90zM276 226q50 0 91 62q-19 66 -78 66q-31 0 -50 -21.5t-19 -50.5q0 -28 15.5 -42
t40.5 -14zM602 225q31 0 50 21.5t19 50.5q0 28 -15.5 42t-40.5 14q-50 0 -91 -62q20 -66 78 -66z" />
    <glyph glyph-name="integral" unicode="&#x222b;" horiz-adv-x="502" 
d="M461 714q74 0 110 -16v-164q-30 8 -56 8q-87 0 -102 -96l-70 -422q-17 -98 -79 -163q-61 -67 -180 -67q-74 0 -110 16v164q30 -8 56 -8q42 0 68.5 25.5t33.5 70.5l70 421q17 98 78 164q63 67 181 67z" />
    <glyph glyph-name="approxequal" unicode="&#x2248;" horiz-adv-x="596" 
d="M518 495q80 0 127 39l-29 -177q-18 -18 -54.5 -29.5t-75.5 -11.5q-48 0 -133 27q-84 28 -137 28q-80 0 -128 -39l29 177q44 41 131 41q49 0 133 -28q87 -27 137 -27zM481 261q79 0 128 39l-29 -177q-19 -18 -55.5 -29.5t-75.5 -11.5q-47 0 -133 27q-84 28 -137 28
q-79 0 -127 -39l29 177q44 41 130 41q49 0 133 -28q87 -27 137 -27z" />
    <glyph glyph-name="notequal" unicode="&#x2260;" horiz-adv-x="610" 
d="M296 365h-203l28 180h298l54 79h169l-54 -79h71l-28 -180h-166l-38 -55h196l-29 -180h-290l-63 -93h-169l63 93h-79l29 180h173z" />
    <glyph glyph-name="lessequal" unicode="&#x2264;" horiz-adv-x="610" 
d="M626 393l-32 -199l-510 176l28 179l566 176l-33 -212l-342 -60zM564 0h-539l27 171h539z" />
    <glyph glyph-name="greaterequal" unicode="&#x2265;" horiz-adv-x="610" 
d="M574 0h-537l26 171h538zM661 549l-28 -179l-566 -176l32 213l343 60l-324 60l33 198z" />
    <glyph glyph-name="dotmath" unicode="&#x22c5;" horiz-adv-x="287" 
d="M213 516q50 0 86 -36q36 -35 36 -86t-36 -87t-86 -36q-49 0 -87 36q-36 36 -36 87q0 52 36 86q36 36 87 36z" />
    <glyph glyph-name="lozenge" unicode="&#x25ca;" horiz-adv-x="567" 
d="M373 0h-185l-125 350l236 350h185l126 -350zM252 348l54 -177l115 181l-54 177z" />
    <glyph glyph-name="uniF401" unicode="&#xf401;" horiz-adv-x="0" 
d="M-405 759l120 158h248l-195 -158h-173z" />
    <glyph glyph-name="uniF639" unicode="&#xf639;" 
d="M404 714q138 0 216 -89q79 -88 79 -232q0 -56 -14 -113t-42.5 -110t-67.5 -94t-94 -65.5t-118 -24.5q-137 0 -217 89q-78 89 -78 232q0 56 14 113t42.5 110t67.5 94t94 65.5t118 24.5zM369 179q31 0 54.5 21.5t36 55t18.5 68t6 67.5q0 58 -21.5 94t-64.5 36
q-31 0 -54.5 -21.5t-35.5 -55t-18 -68t-6 -67.5q0 -58 21 -94t64 -36z" />
    <glyph glyph-name="uniF63A" unicode="&#xf63a;" 
d="M157 458l34 210q79 46 196 46q103 0 177 -59q73 -58 73 -164q0 -73 -41.5 -134.5t-135.5 -130.5l-64 -47h230l-28 -179h-521l25 153l196 157q72 60 96 88q25 29 25 59t-21 47t-61 17q-85 0 -180 -63z" />
    <glyph glyph-name="uniF63B" unicode="&#xf63b;" 
d="M652 542l-136 -102q52 -26 84.5 -73t32.5 -112q0 -122 -85 -195q-86 -74 -221 -74q-73 0 -139.5 18.5t-104.5 45.5l32 194q83 -72 197 -72q48 0 79 20t31 57q0 27 -22.5 45t-65.5 18q-65 0 -113 -22l21 128l148 103h-213l30 179h471z" />
    <glyph glyph-name="uniF63C" unicode="&#xf63c;" 
d="M541 0h-203l25 158h-329l24 149l382 393h212l-60 -380h91l-26 -162h-91zM412 466l-147 -146h124z" />
    <glyph glyph-name="uniF63D" unicode="&#xf63d;" 
d="M380 521l-11 -49l23 1q110 0 176 -60q67 -58 67 -153q0 -131 -90 -203q-91 -71 -236 -71q-141 0 -223 58l30 196q94 -68 192 -68q49 0 79.5 19.5t30.5 60.5q0 65 -114 65q-64 0 -160 -26l105 409h408l-29 -179h-248z" />
    <glyph glyph-name="uniF63E" unicode="&#xf63e;" 
d="M453 474q86 0 140 -61q55 -61 55 -150q0 -122 -81 -200q-82 -77 -213 -77q-130 0 -197 79t-67 202q0 171 96 305q47 65 121.5 103.5t163.5 38.5q114 0 182 -52l-30 -184q-61 52 -147 52q-58 0 -99.5 -27.5t-57.5 -77.5q20 23 57.5 36t76.5 13zM358 161q35 0 58.5 24
t23.5 60q0 33 -17.5 51.5t-49.5 18.5q-49 0 -81 -41q-5 -15 -5 -37q0 -35 20.5 -55.5t50.5 -20.5z" />
    <glyph glyph-name="uniF63F" unicode="&#xf63f;" 
d="M331 0h-227l340 521h-290l28 179h527l-27 -167z" />
    <glyph glyph-name="uniF640" unicode="&#xf640;" 
d="M557 359q40 -19 66 -60.5t26 -88.5q0 -102 -85 -163t-202 -61q-54 0 -105.5 12.5t-96 37t-71.5 67t-27 96.5q0 62 38 112.5t101 72.5q-30 18 -48 51.5t-18 71.5q0 91 79 149t187 58q61 0 119 -20q58 -19 100 -66q43 -46 43 -112q0 -50 -28.5 -91.5t-77.5 -65.5zM356 162
q34 0 59.5 19t25.5 49q0 27 -22 46t-58 19q-34 0 -59.5 -19.5t-25.5 -50.5q0 -26 22 -44.5t58 -18.5zM462 487q0 24 -18 39t-48 15q-28 0 -47.5 -15.5t-19.5 -41.5q0 -22 18.5 -37.5t45.5 -15.5q29 0 49 15.5t20 40.5z" />
    <glyph glyph-name="uniF641" unicode="&#xf641;" 
d="M300 226q-86 0 -141 61q-54 61 -54 150q0 123 81 199q81 78 213 78q129 0 196 -79q68 -80 68 -202q0 -171 -96 -305q-47 -65 -121.5 -103.5t-163.5 -38.5q-114 0 -182 52l30 184q61 -52 147 -52q58 0 99.5 27.5t57.5 77.5q-20 -23 -57.5 -36t-76.5 -13zM395 539
q-35 0 -58.5 -24t-23.5 -60q0 -33 17.5 -51.5t49.5 -18.5q49 0 81 41q5 15 5 37q0 35 -20 55.5t-51 20.5z" />
    <glyph glyph-name="uniF643" unicode="&#xf643;" 
d="M384 529q122 0 204 -73q83 -72 83 -188q0 -113 -86 -197q-85 -84 -212 -84q-121 0 -204 72q-82 73 -82 191q0 113 85 195q86 84 212 84zM372 165q40 0 67.5 30.5t27.5 76.5q0 37 -23 58t-59 21q-40 0 -67 -30t-27 -76q0 -37 23 -58.5t58 -21.5z" />
    <glyph glyph-name="uniF644" unicode="&#xf644;" 
d="M597 0h-519l25 160h162l21 132l-148 -57l32 203l176 78h185l-56 -356h147z" />
    <glyph glyph-name="uniF645" unicode="&#xf645;" 
d="M617 371q0 -72 -62.5 -123.5t-193.5 -91.5h248l-26 -156h-510l23 155l228 108q39 19 54.5 31.5t15.5 26.5q0 23 -38 23q-86 0 -214 -60l30 186q61 30 108 44q50 15 122 15q92 0 154 -42q61 -40 61 -116z" />
    <glyph glyph-name="uniF646" unicode="&#xf646;" 
d="M613 358l-136 -108q52 -26 84.5 -73t32.5 -113q0 -122 -85 -195q-86 -75 -221 -75q-73 0 -139.5 18.5t-104.5 45.5l32 194q82 -72 197 -72q48 0 79 20.5t31 57.5q0 27 -22.5 45.5t-65.5 18.5q-65 0 -113 -22l21 128l148 109h-213l30 179h471z" />
    <glyph glyph-name="uniF647" unicode="&#xf647;" 
d="M520 -200h-215l31 200h-317l24 146l378 370h212l-56 -356h91l-26 -160h-91zM381 283l-126 -123h107z" />
    <glyph glyph-name="uniF648" unicode="&#xf648;" 
d="M342 337l-11 -51h22q110 0 175 -61q67 -61 67 -156q0 -130 -91 -202q-91 -73 -234 -73q-141 0 -223 58l29 198q95 -68 192 -68q111 0 111 72q0 69 -115 69q-70 0 -159 -26l105 419h407l-28 -179h-247z" />
    <glyph glyph-name="uniF649" unicode="&#xf649;" 
d="M453 474q86 0 140 -61q55 -61 55 -150q0 -122 -81 -200q-82 -77 -213 -77q-130 0 -197 79t-67 202q0 171 96 305q47 65 121.5 103.5t163.5 38.5q114 0 182 -52l-30 -184q-61 52 -147 52q-58 0 -99.5 -27.5t-57.5 -77.5q20 23 57.5 36t76.5 13zM358 161q35 0 58.5 24
t23.5 60q0 33 -17.5 51.5t-49.5 18.5q-49 0 -81 -41q-5 -15 -5 -37q0 -35 20.5 -55.5t50.5 -20.5z" />
    <glyph glyph-name="uniF64A" unicode="&#xf64a;" 
d="M287 -200h-227l348 537h-290l28 179h527l-26 -167z" />
    <glyph glyph-name="uniF64B" unicode="&#xf64b;" 
d="M556 359q40 -19 66 -60.5t26 -88.5q0 -102 -85 -163t-202 -61q-54 0 -105.5 12.5t-96 37t-71.5 67t-27 96.5q0 62 38 112.5t101 72.5q-30 18 -48 51.5t-18 71.5q0 91 79 149t187 58q61 0 119 -20q58 -19 100 -66q43 -46 43 -112q0 -50 -28.5 -91.5t-77.5 -65.5zM355 162
q34 0 59.5 19t25.5 49q0 27 -22 46t-58 19q-34 0 -59.5 -19.5t-25.5 -50.5q0 -26 22 -44.5t58 -18.5zM461 487q0 24 -18 39t-48 15q-28 0 -47.5 -15.5t-19.5 -41.5q0 -22 18.5 -37.5t45.5 -15.5q29 0 49 15.5t20 40.5z" />
    <glyph glyph-name="uniF64C" unicode="&#xf64c;" 
d="M274 41q-86 0 -141 61q-54 62 -54 150q0 122 81 199q81 78 213 78q129 0 196 -79q68 -80 68 -202q0 -171 -96 -308q-47 -68 -121.5 -107t-163.5 -39q-114 0 -182 52l30 184q61 -52 147 -52q56 0 98.5 30.5t58.5 81.5q-20 -23 -57.5 -36t-76.5 -13zM369 354
q-35 0 -58.5 -24t-23.5 -60q0 -33 17.5 -51.5t49.5 -18.5q49 0 81 41q5 15 5 37q0 36 -20 56t-51 20z" />
    <glyph glyph-name="uniF64E" unicode="&#xf64e;" horiz-adv-x="570" 
d="M304 246h139l-10 -63h-102q36 -36 105 -36q53 0 105 20l-26 -157q-62 -24 -131 -24q-101 0 -180 50q-76 51 -96 147h-78l10 63h63q0 22 1 28h-59l10 63h62q29 90 108.5 140.5t191.5 50.5q95 0 169 -38l-23 -152q-62 28 -123 28q-64 0 -99 -29h117l-10 -63h-142
q-2 -22 -2 -23v-5z" />
    <glyph glyph-name="uniF653" unicode="&#xf653;" horiz-adv-x="506" 
d="M536 470l-27 -151q-91 62 -183 62q-35 0 -35 -18q0 -7 14 -13.5t59 -20.5q83 -25 117 -60.5t34 -95.5q0 -75 -51 -121.5t-136 -59.5l-17 -110h-155l18 113q-87 14 -143 49l26 155q86 -62 194 -62q49 0 49 18q0 13 -26 22l-54 17q-72 23 -110.5 57t-38.5 88q0 77 50 124.5
t137 60.5l17 106h155l-18 -110q73 -14 124 -50z" />
    <glyph glyph-name="commaaccent" unicode="&#xf6c3;" horiz-adv-x="240" 
d="M262 -78l-126 -231h-153l96 231h183z" />
    <glyph glyph-name="cyrbreve" unicode="&#xf6d4;" horiz-adv-x="478" 
d="M142 731h143q-1 -4 -1 -12q0 -19 12 -30t34 -11q54 0 63 53h145q-15 -87 -73.5 -136.5t-142.5 -49.5q-76 0 -129 41q-53 42 -53 113q0 6 2 32z" />
    <glyph glyph-name="uniF6DC" unicode="&#xf6dc;" 
d="M482 179h152l-28 -179h-523l28 179h161l47 296l-148 -58l33 205l176 78h185z" />
    <glyph glyph-name="uniF721" unicode="&#xf721;" horiz-adv-x="579" 
d="M258 144q0 -34 87 -34q75 0 153 23l-19 -123q-71 -23 -157 -23q-68 0 -140 22q-40 12 -63.5 39.5t-23.5 64.5q0 38 20 64h-38l9 62h454l-9 -62h-245q-28 -10 -28 -33zM316 521q75 0 140 -23q37 -12 59 -39.5t22 -63.5q0 -38 -20 -60h39l-10 -62h-454l10 62h245
q27 9 27 32q0 29 -88 29q-75 0 -141 -21l19 123q71 23 152 23z" />
    <glyph glyph-name="uniF722" unicode="&#xf722;" horiz-adv-x="639" 
d="M325 107h129l-9 -63h-130l-6 -44h-202l7 44h-96l10 63h96l5 35h-96l19 120h96l40 254h258q96 0 152.5 -45t56.5 -123q0 -92 -65 -149q-64 -57 -173 -57h-87zM365 375l-18 -113h50q34 0 54 16t20 45q0 23 -14.5 37.5t-39.5 14.5h-52z" />
    <glyph glyph-name="uniF725" unicode="&#xf725;" horiz-adv-x="567" 
d="M162 211h-78l15 92h78l7 45q28 181 265 181q77 0 137 -19l-26 -157q-45 17 -91 17q-43 0 -64 -12t-25 -41l-3 -14h142l-15 -92h-142l-2 -16q-8 -45 -36 -58h223l-21 -137h-475l21 137h22q56 0 63 40z" />
    <glyph glyph-name="uniF727" unicode="&#xf727;" horiz-adv-x="690" 
d="M271 220h-128l10 63h86l-122 233h204l68 -160l122 160h208l-200 -233h89l-10 -63h-128l-4 -29h128l-10 -63h-128l-20 -128h-199l20 128h-128l10 63h128z" />
    <glyph glyph-name="uniF730" unicode="&#xf730;" horiz-adv-x="627" 
d="M357 529q122 0 204 -73q83 -72 83 -188q0 -113 -86 -197q-85 -84 -212 -84q-122 0 -204 72q-82 73 -82 191q0 113 85 195q85 84 212 84zM345 165q40 0 67.5 30.5t27.5 76.5q0 37 -23 58t-59 21q-40 0 -67 -30t-27 -76q0 -37 23 -58.5t58 -21.5z" />
    <glyph glyph-name="uniF731" unicode="&#xf731;" horiz-adv-x="400" 
d="M363 0h-210l46 292l-148 -57l32 203l176 78h185z" />
    <glyph glyph-name="uniF732" unicode="&#xf732;" horiz-adv-x="578" 
d="M568 371q0 -72 -62.5 -123.5t-193.5 -91.5h248l-26 -156h-510l23 155l228 108q39 19 54.5 31.5t15.5 26.5q0 23 -38 23q-87 0 -214 -60l30 186q61 30 108 44q49 15 122 15q93 0 154 -42q61 -40 61 -116z" />
    <glyph glyph-name="uniF733" unicode="&#xf733;" horiz-adv-x="563" 
d="M567 358l-136 -108q52 -26 84.5 -73t32.5 -113q0 -122 -85 -195q-85 -75 -221 -75q-73 0 -139.5 18.5t-104.5 45.5l32 194q83 -72 197 -72q48 0 79 20.5t31 57.5q0 27 -22.5 45.5t-65.5 18.5q-65 0 -113 -22l21 128l148 109h-213l30 179h471z" />
    <glyph glyph-name="uniF734" unicode="&#xf734;" 
d="M510 -200h-215l31 200h-317l24 146l378 370h212l-56 -356h91l-26 -160h-91zM371 283l-126 -123h107z" />
    <glyph glyph-name="uniF735" unicode="&#xf735;" horiz-adv-x="549" 
d="M290 337l-11 -51h22q110 0 175 -61q67 -61 67 -156q0 -130 -91 -202q-91 -73 -234 -73q-141 0 -223 58l29 198q95 -68 192 -68q111 0 111 72q0 69 -115 69q-70 0 -159 -26l105 419h407l-28 -179h-247z" />
    <glyph glyph-name="uniF736" unicode="&#xf736;" horiz-adv-x="617" 
d="M437 474q86 0 140 -61q55 -61 55 -150q0 -122 -81 -200q-82 -77 -213 -77q-130 0 -197 79t-67 202q0 171 96 305q47 65 121.5 103.5t163.5 38.5q114 0 182 -52l-30 -184q-61 52 -147 52q-58 0 -99.5 -27.5t-57.5 -77.5q20 23 57.5 36t76.5 13zM342 161q35 0 58.5 24
t23.5 60q0 33 -17.5 51.5t-49.5 18.5q-49 0 -81 -41q-5 -15 -5 -37q0 -35 20.5 -55.5t50.5 -20.5z" />
    <glyph glyph-name="uniF737" unicode="&#xf737;" horiz-adv-x="580" 
d="M242 -200h-227l348 537h-290l28 179h527l-26 -167z" />
    <glyph glyph-name="uniF738" unicode="&#xf738;" horiz-adv-x="630" 
d="M547 359q40 -19 66 -60.5t26 -88.5q0 -102 -85 -163t-202 -61q-54 0 -105.5 12.5t-96 37t-71.5 67t-27 96.5q0 62 38 112.5t101 72.5q-30 18 -48 51.5t-18 71.5q0 91 79 149t187 58q61 0 119 -20q58 -19 100 -66q43 -46 43 -112q0 -50 -28.5 -91.5t-77.5 -65.5zM346 162
q34 0 59.5 19t25.5 49q0 27 -22 46t-58 19q-34 0 -59.5 -19.5t-25.5 -50.5q0 -26 22 -44.5t58 -18.5zM452 487q0 24 -18 39t-48 15q-28 0 -47.5 -15.5t-19.5 -41.5q0 -22 18.5 -37.5t45.5 -15.5q29 0 49 15.5t20 40.5z" />
    <glyph glyph-name="uniF739" unicode="&#xf739;" horiz-adv-x="618" 
d="M256 41q-86 0 -141 61q-54 62 -54 150q0 122 81 199q81 78 213 78q129 0 196 -79q68 -80 68 -202q0 -171 -96 -308q-47 -68 -121.5 -107t-163.5 -39q-114 0 -182 52l30 184q61 -52 147 -52q56 0 98.5 30.5t58.5 81.5q-20 -23 -57.5 -36t-76.5 -13zM351 354
q-35 0 -58.5 -24t-23.5 -60q0 -33 17.5 -51.5t49.5 -18.5q49 0 81 41q5 15 5 37q0 36 -20 56t-51 20z" />
    <glyph glyph-name="NULL" horiz-adv-x="0" 
 />
    <glyph glyph-name="CR" horiz-adv-x="333" 
 />
    <glyph glyph-name="hungarumlaut.cap" horiz-adv-x="588" 
d="M263 759h-142l120 158h199zM498 759h-142l120 158h199z" />
    <glyph glyph-name="yen.mono" 
d="M61 118l19 123h183l9 53h-183l19 123h135l-151 283h224l93 -193l152 193h233l-244 -283h137l-19 -123h-182l-9 -53h182l-19 -123h-182l-19 -118h-214l19 118h-183z" />
    <glyph glyph-name="tilde.cap" horiz-adv-x="496" 
d="M511 923h104q-13 -81 -57.5 -126.5t-108.5 -45.5q-33 0 -69 17q-34 17 -52 17q-34 0 -50 -31h-103q25 172 165 172q34 0 67 -16t55 -16q34 0 49 29z" />
    <glyph glyph-name="dollar.mono" 
d="M692 658l-35 -197q-40 26 -113 47t-134 21q-74 0 -74 -27q0 -11 20.5 -20t84.5 -29l38 -12q100 -32 148 -79t48 -123q0 -105 -72 -169q-73 -65 -187 -80l-14 -95h-183l15 100q-106 15 -174 65l35 216q40 -41 120 -73q81 -30 149 -30q88 0 88 39q0 16 -26 27q-15 8 -44 16
q-7 2 -29.5 9t-32.5 10l-60 20q-18 7 -54 26q-30 17 -49 36q-43 47 -43 116q0 98 61.5 157.5t171.5 77.5l15 98h183l-16 -99q95 -13 163 -48z" />
    <glyph glyph-name="t.alt" horiz-adv-x="414" 
d="M72 142q0 9 3 39l73 459h208l-19 -124h117l-26 -165h-117l-18 -120q-3 -27 -3 -32q0 -34 43 -34q35 0 72 20l-26 -163q-58 -35 -140 -35q-74 0 -120.5 41.5t-46.5 113.5z" />
    <glyph glyph-name="breve.cap" horiz-adv-x="500" 
d="M450 924h132q-17 -86 -73 -134.5t-135 -48.5q-72 0 -125 41q-51 40 -51 114q0 4 2 28h132v-4q0 -25 13 -40.5t37 -15.5q25 0 43 16.5t25 43.5z" />
    <glyph glyph-name="dotaccent.cap" horiz-adv-x="349" 
d="M284 939q43 0 72 -29t29 -70q0 -42 -29.5 -71t-71.5 -29q-41 0 -70.5 29.5t-29.5 70.5t29.5 70t70.5 29z" />
    <glyph glyph-name="lira.mono" 
d="M202 360h-92l15 97h92l2 12q19 117 97.5 181t204.5 64q105 0 167 -28l-30 -190q-51 22 -109 22q-93 0 -115 -61h187l-15 -97h-190l-6 -34h191l-16 -97h-192q-9 -34 -40 -44h279l-29 -185h-550l29 185h24q66 0 75 44h-92l16 97h91z" />
    <glyph glyph-name="franc.mono" 
d="M111 100h-90l17 107h90l78 493h550l-29 -185h-335l-11 -69h241l-27 -170h-241l-11 -69h124l-17 -107h-124l-16 -100h-215z" />
    <glyph glyph-name="circumflex.cap" horiz-adv-x="502" 
d="M492 917l104 -158h-169l-45 62l-63 -62h-182l157 158h198z" />
    <glyph glyph-name="dieresis.cap" horiz-adv-x="477" 
d="M417 769q-29 30 -29 71t29 70q30 29 71 29t70 -29q30 -29 30 -70t-30 -71q-29 -29 -70 -29t-71 29zM251 939q43 0 72 -29t29 -70q0 -42 -29 -71t-72 -29q-41 0 -70.5 29.5t-29.5 70.5t29.5 70t70.5 29z" />
    <glyph glyph-name="macron.cap" horiz-adv-x="546" 
d="M156 767l23 137h457l-23 -137h-457z" />
    <glyph glyph-name="peseta.mono" 
d="M159 700h308q99 0 162.5 -44.5t75.5 -120.5h78l-23 -146h-77q-33 -67 -103.5 -106t-160.5 -39h-118l-38 -244h-214l61 389h-82l23 146h82zM347 525l-20 -125h71q42 0 68 18t26 54q0 53 -68 53h-77z" />
    <glyph glyph-name="t_t" horiz-adv-x="868" 
d="M62 351l26 165h82l20 124h208l-19 -124h203l20 124h208l-19 -124h117l-26 -165h-117l-18 -120q-3 -27 -3 -32q0 -34 43 -34q35 0 72 20l-26 -163q-58 -35 -140 -35q-74 0 -120.5 41.5t-46.5 113.5q0 8 3 38l26 171h-202l-18 -120q-3 -27 -3 -32q0 -34 43 -34q35 0 72 20
l-26 -163q-58 -35 -140 -35q-74 0 -120.5 41.5t-46.5 113.5q0 9 3 39l26 170h-81z" />
    <glyph glyph-name="acute.cap" horiz-adv-x="401" 
d="M172 759l120 158h248l-195 -158h-173z" />
    <glyph glyph-name="grave.cap" horiz-adv-x="488" 
d="M194 917h248l69 -158h-173z" />
    <glyph glyph-name="ring.cap" horiz-adv-x="508" 
d="M273 840q0 45 32.5 77t77.5 32t76.5 -32t31.5 -77t-31.5 -77t-76.5 -32q-44 0 -78 32q-32 34 -32 77zM424 840q0 17 -12 29.5t-29 12.5t-29.5 -12.5t-12.5 -29.5q0 -16 12.5 -28.5t29.5 -12.5t29 12.5t12 28.5z" />
    <glyph glyph-name="f_f_t" horiz-adv-x="1282" 
d="M768 351l-56 -351h-211l56 351h-201l-56 -351h-211l56 351h-81l26 165h81l3 19q13 84 73 131.5t161 47.5q84 0 144 -22l-22 -139q-39 13 -78 13q-62 0 -70 -50h201l3 19q13 84 73 131.5t161 47.5q84 0 144 -22l-22 -139q-39 13 -78 13q-62 0 -70 -50h202l20 124h208
l-19 -124h117l-26 -165h-117l-18 -120q-3 -27 -3 -32q0 -34 43 -34q35 0 72 20l-26 -163q-58 -35 -140 -35q-74 0 -120.5 41.5t-46.5 113.5q0 9 3 39l26 170h-201z" />
    <glyph glyph-name="Euro.mono" 
d="M67 372l17 107h69q42 111 143 173t237 62q91 0 154 -25l-35 -187q-51 25 -124 25q-94 0 -149 -48h153l-17 -107h-191q-2 -30 -2 -34h187l-16 -107h-143q40 -58 153 -58q91 0 144 41l-32 -205q-60 -23 -151 -23q-132 0 -217.5 63.5t-110.5 181.5h-91l17 107h65l2 34h-62z
" />
    <glyph glyph-name="uni0418_uni0419" horiz-adv-x="1159" 
d="M893 0l54 340l-302 -340h-164l54 340l-302 -340h-179l110 700h214l-53 -335l295 335h170l-53 -335l295 335h185l-110 -700h-214zM718 917h143q0 -2 -1 -5v-4q0 -43 46 -43q54 0 63 52h145q-16 -87 -74 -136t-142 -49q-77 0 -130 41q-52 40 -52 112q0 6 2 32z" />
    <glyph glyph-name="uni0438_uni0439" horiz-adv-x="972" 
d="M623 297l183 219h198l-81 -516h-196l32 212l-186 -212h-178l34 217l-183 -217h-197l81 516h196l-31 -213l185 213h178zM566 731h143q-1 -4 -1 -12q0 -19 12 -30t34 -11q54 0 63 53h145q-15 -87 -73.5 -136.5t-142.5 -49.5q-76 0 -129 41q-53 42 -53 113q0 6 2 32z" />
    <glyph glyph-name="uni0438_uni043D" horiz-adv-x="970" 
d="M295 303l185 213h197l-26 -168h114l26 168h211l-82 -516h-210l27 180h-114l-27 -180h-201l34 217l-183 -217h-197l81 516h196z" />
    <glyph glyph-name="uni0418_uni041D" horiz-adv-x="1176" 
d="M378 700l-53 -335l295 335h186l-37 -235h214l37 235h214l-110 -700h-214l43 275h-215l-43 -275h-214l54 340l-302 -340h-179l110 700h214z" />
    <glyph glyph-name="uni043D_uni0438" horiz-adv-x="969" 
d="M454 516h201l-35 -219l183 219h198l-81 -516h-196l32 212l-186 -212h-197l27 180h-114l-27 -180h-210l81 516h210l-26 -168h114z" />
    <glyph glyph-name="uni041D_uni0418" horiz-adv-x="1176" 
d="M806 700l-52 -335l295 335h185l-110 -700h-214l54 340l-302 -340h-180l43 275h-214l-43 -275h-214l110 700h214l-37 -235h213l38 235h214z" />
    <glyph glyph-name="uni041F_uni0418" horiz-adv-x="1157" 
d="M891 0l53 330l-301 -330h-179l81 515h-196l-81 -515h-214l110 700h624l-52 -325l294 325h185l-110 -700h-214z" />
    <glyph glyph-name="uni043F_uni0438" horiz-adv-x="965" 
d="M651 516l-35 -219l183 219h198l-81 -516h-196l32 212l-186 -212h-197l54 351h-110l-54 -351h-210l81 516h521z" />
    <glyph glyph-name="T_h" horiz-adv-x="1144" 
d="M1154 287l-45 -287h-210l40 259q3 18 3 35q0 51 -46 51q-36 0 -59 -27l-50 -318h-210l81 515h-140l-82 -515h-214l82 515h-200l29 185h765l-40 -250q54 79 152 79q69 0 109 -47t40 -125q0 -37 -5 -70z" />
    <glyph glyph-name="f_j" horiz-adv-x="767" 
d="M89 0l56 352h-81l26 164h81l3 19q13 84 73 131.5t161 47.5q84 0 144 -22l-22 -139q-39 13 -78 13q-62 0 -70 -50h412l-80 -502q-16 -103 -85.5 -161.5t-181.5 -58.5q-83 0 -121 20l26 159q27 -15 67 -15q74 0 85 63l53 331h-201l-56 -352h-211zM592 659q0 49 34 83
q35 35 83 35q49 0 84 -35t35 -83q0 -50 -35 -85q-34 -34 -84 -34q-49 0 -83 34t-34 85z" />
    <glyph glyph-name="f.alt01" horiz-adv-x="415" 
d="M305 351l-56 -351h-211l84 531q13 84 74 133.5t161 49.5q84 0 144 -22l-22 -139q-39 13 -78 13q-62 0 -70 -50h142l-26 -165h-142z" />
    <glyph glyph-name="sterling.mono" 
d="M96 272l24 149h91l8 48q19 117 97.5 181t204.5 64q105 0 167 -28l-30 -190q-51 22 -109 22q-109 0 -122 -87l-2 -10h177l-24 -149h-176l-2 -14q-10 -59 -47 -73h279l-29 -185h-550l29 185h24q68 0 76 47l6 40h-92z" />
    <glyph glyph-name="caron.cap" horiz-adv-x="541" 
d="M400 855l63 62h182l-157 -158h-199l-103 158h169z" />
    <glyph glyph-name="uni215A.mono" horiz-adv-x="850" 
d="M268 0h-130l539 700h130zM741 252q48 0 78.5 -32.5t30.5 -81.5q0 -66 -45 -108t-119 -42q-70 0 -108.5 42t-38.5 110q0 96 56 169q57 73 156 73q66 0 101 -28l-16 -100q-34 28 -82 28q-68 0 -88 -56q26 26 75 26zM688 80q20 0 34 13.5t14 34.5q0 40 -39 40q-31 0 -48 -23
q-3 -7 -3 -21q0 -20 12 -32t30 -12zM245 603l-6 -26l14 1q61 0 98.5 -32.5t37.5 -83.5q0 -70 -49.5 -109t-132.5 -39q-78 0 -124 31l17 106q50 -36 109 -36q63 0 63 43q0 35 -66 35q-38 0 -91 -14l59 221h227l-16 -97h-140z" />
    <glyph glyph-name="onehalf.mono" horiz-adv-x="850" 
d="M249 0h-130l539 700h130zM581 247l19 114q43 25 109 25q59 0 99 -32.5t40 -88.5q0 -39 -23 -72.5t-75 -70.5l-36 -26h128l-15 -96h-291l14 82l113 86q39 30 53 46.5t14 33.5q0 34 -46 34q-50 0 -103 -35zM301 322h-115l41 261l-108 -47l18 112l112 52h111z" />
    <glyph glyph-name="uni2159.mono" horiz-adv-x="850" 
d="M257 0h-130l539 700h130zM309 322h-115l41 261l-108 -47l18 112l112 52h111zM718 256q48 0 78.5 -32.5t30.5 -81.5q0 -66 -45 -108t-119 -42q-70 0 -108.5 42t-38.5 110q0 96 56 169q57 73 156 73q66 0 101 -28l-16 -100q-34 28 -82 28q-68 0 -88 -56q26 26 75 26z
M665 84q20 0 34 13.5t14 34.5q0 40 -39 40q-31 0 -48 -23q-3 -7 -3 -21q0 -20 12 -32t30 -12z" />
    <glyph glyph-name="uni2158.mono" horiz-adv-x="850" 
d="M300 0h-130l539 700h130zM705 281l-6 -26l14 1q61 0 98.5 -32.5t37.5 -83.5q0 -70 -49.5 -109t-132.5 -39q-78 0 -124 31l17 106q50 -36 109 -36q63 0 63 43q0 35 -66 35q-38 0 -91 -14l59 221h227l-16 -97h-140zM434 700l-34 -205h51l-15 -88h-50l-14 -85h-111l14 85
h-186l14 81l213 212h118zM218 495h71l14 81z" />
    <glyph glyph-name="uni2157.mono" horiz-adv-x="850" 
d="M278 0h-130l539 700h130zM695 281l-6 -26l14 1q61 0 98.5 -32.5t37.5 -83.5q0 -70 -49.5 -109t-132.5 -39q-78 0 -124 31l17 106q50 -36 109 -36q63 0 63 43q0 35 -66 35q-38 0 -91 -14l59 221h227l-16 -97h-140zM405 615l-76 -55q65 -32 65 -100q0 -66 -47.5 -106
t-122.5 -40q-86 0 -136 35l18 105q44 -39 111 -39q28 0 46 10.5t18 30.5q0 14 -13.5 24t-37.5 10q-40 0 -65 -12l11 70l83 55h-119l17 97h262z" />
    <glyph glyph-name="uni2156.mono" horiz-adv-x="850" 
d="M292 0h-130l539 700h130zM693 281l-6 -26l14 1q61 0 98.5 -32.5t37.5 -83.5q0 -70 -49.5 -109t-132.5 -39q-78 0 -124 31l17 106q49 -36 109 -36q63 0 63 43q0 35 -66 35q-38 0 -91 -14l59 221h227l-16 -97h-140zM130 569l19 114q43 25 109 25q59 0 99 -32.5t40 -88.5
q0 -39 -23 -72.5t-75 -70.5l-36 -26h128l-15 -96h-291l14 82l113 86q39 30 53 46.5t14 33.5q0 34 -46 34q-50 0 -103 -35z" />
    <glyph glyph-name="oneeighth.mono" horiz-adv-x="850" 
d="M264 0h-130l539 700h130zM803 194q22 -10 36.5 -32.5t14.5 -48.5q0 -55 -48 -88q-46 -33 -112 -33q-65 0 -117 29q-50 29 -50 86q0 33 21.5 61t55.5 39q-36 21 -36 67q0 49 43 80q44 32 105 32q56 0 100 -28q46 -28 46 -79q0 -27 -16 -50t-43 -35zM691 86q20 0 34.5 10.5
t14.5 27.5q0 15 -13 26t-33 11q-21 0 -35.5 -11t-14.5 -29q0 -15 13 -25t34 -10zM752 263q0 13 -10.5 22t-28.5 9q-16 0 -28 -9t-12 -24q-3 -21 25 -28q31 -7 48 11q7 8 6 19zM316 322h-115l41 261l-108 -47l18 112l112 52h111z" />
    <glyph glyph-name="threeeighths.mono" horiz-adv-x="850" 
d="M819 194q22 -10 36.5 -32.5t14.5 -48.5q0 -55 -48 -88q-46 -33 -112 -33q-65 0 -117 29q-50 29 -50 86q0 33 21.5 61t55.5 39q-36 21 -36 67q0 49 43 80q44 32 105 32q56 0 100 -28q46 -28 46 -79q0 -27 -16 -50t-43 -35zM707 86q20 0 34.5 10.5t14.5 27.5q0 15 -13 26
t-33 11q-21 0 -35.5 -11t-14.5 -29q0 -15 13 -25t34 -10zM768 263q0 13 -10.5 22t-28.5 9q-16 0 -28 -9t-12 -24q-3 -21 25 -28q31 -7 48 11q7 8 6 19zM406 615l-76 -55q65 -32 65 -100q0 -66 -47.5 -106t-122.5 -40q-86 0 -136 35l18 105q43 -39 111 -39q28 0 46 10.5
t18 30.5q0 14 -14 24t-37 10q-39 0 -65 -12l11 70l83 55h-119l17 97h262zM282 0h-130l539 700h130z" />
    <glyph glyph-name="fiveeighths.mono" horiz-adv-x="850" 
d="M819 194q22 -10 36.5 -32.5t14.5 -48.5q0 -55 -48 -88q-46 -33 -112 -33q-65 0 -117 29q-50 29 -50 86q0 33 21.5 61t55.5 39q-36 21 -36 67q0 49 43 80q44 32 105 32q56 0 100 -28q46 -28 46 -79q0 -27 -16 -50t-43 -35zM707 86q20 0 34.5 10.5t14.5 27.5q0 15 -13 26
t-33 11q-21 0 -35.5 -11t-14.5 -29q0 -15 13 -25t34 -10zM768 263q0 13 -10.5 22t-28.5 9q-16 0 -28 -9t-12 -24q-3 -21 25 -28q31 -7 48 11q7 8 6 19zM282 0h-130l539 700h130zM263 603l-6 -26l14 1q61 0 98.5 -32.5t37.5 -83.5q0 -70 -49.5 -109t-132.5 -39q-78 0 -124 31
l17 106q50 -36 109 -36q63 0 63 43q0 35 -66 35q-38 0 -91 -14l59 221h227l-16 -97h-140z" />
    <glyph glyph-name="seveneighths.mono" horiz-adv-x="850" 
d="M807 194q22 -10 36.5 -32.5t14.5 -48.5q0 -55 -48 -88q-46 -33 -112 -33q-65 0 -117 29q-50 29 -50 86q0 33 21.5 61t55.5 39q-36 21 -36 67q0 49 43 80q44 32 105 32q56 0 100 -28q46 -28 46 -79q0 -27 -16 -50t-43 -35zM695 86q20 0 34.5 10.5t14.5 27.5q0 15 -13 26
t-33 11q-21 0 -35.5 -11t-14.5 -29q0 -15 13 -25t34 -10zM756 263q0 13 -10.5 22t-28.5 9q-16 0 -28 -9t-12 -24q-3 -21 25 -28q31 -7 48 11q7 8 6 19zM268 0h-130l539 700h130zM266 322h-128l189 281h-159l16 97h293l-15 -90z" />
    <glyph glyph-name="uni2155.mono" horiz-adv-x="850" 
d="M262 0h-130l539 700h130zM314 322h-115l41 261l-108 -47l18 112l112 52h111zM679 281l-6 -26l14 1q61 0 98.5 -32.5t37.5 -83.5q0 -70 -49.5 -109t-132.5 -39q-78 0 -124 31l17 106q50 -36 109 -36q63 0 63 43q0 35 -66 35q-38 0 -91 -14l59 221h227l-16 -97h-140z" />
    <glyph glyph-name="twothirds.mono" horiz-adv-x="850" 
d="M851 293l-76 -55q65 -32 65 -100q0 -66 -47.5 -106t-122.5 -40q-86 0 -136 35l18 105q44 -39 111 -39q28 0 46 10.5t18 30.5q0 14 -13.5 24t-37.5 10q-40 0 -65 -12l11 70l83 55h-119l17 97h262zM120 569l19 114q43 25 109 25q59 0 99 -32.5t40 -88.5q0 -39 -23 -72.5
t-75 -70.5l-36 -26h128l-15 -96h-291l14 82l113 86q39 30 53 46.5t14 33.5q0 34 -46 34q-50 0 -103 -35zM282 0h-130l539 700h130z" />
    <glyph glyph-name="onethird.mono" horiz-adv-x="850" 
d="M244 0h-130l539 700h130zM296 322h-115l41 261l-108 -47l18 112l112 52h111zM831 293l-76 -55q65 -32 65 -100q0 -66 -47.5 -106t-122.5 -40q-86 0 -136 35l18 105q44 -39 111 -39q28 0 46 10.5t18 30.5q0 14 -13.5 24t-37.5 10q-40 0 -65 -12l11 70l83 55h-119l17 97
h262z" />
    <glyph glyph-name="threequarters.mono" horiz-adv-x="850" 
d="M269 0h-130l539 700h130zM823 378l-34 -205h51l-15 -88h-50l-14 -85h-111l14 85h-186l14 81l213 212h118zM607 173h71l14 81zM396 615l-76 -55q65 -32 65 -100q0 -66 -47.5 -106t-122.5 -40q-86 0 -136 35l18 105q43 -39 111 -39q28 0 46 10.5t18 30.5q0 14 -14 24
t-37 10q-39 0 -65 -12l11 70l83 55h-119l17 97h262z" />
    <glyph glyph-name="onequarter.mono" horiz-adv-x="850" 
d="M256 0h-130l539 700h130zM810 378l-34 -205h51l-15 -88h-50l-14 -85h-111l14 85h-186l14 81l213 212h118zM594 173h71l14 81zM308 322h-115l41 261l-108 -47l18 112l112 52h111z" />
    <glyph glyph-name="uni20B6.mono" 
d="M343 207h215l-17 -107h-215l-16 -100h-214l15 100h-121l17 107h121l6 37h-121l23 144h121l49 312h313q111 0 176 -56t65 -144q0 -112 -81 -184t-208 -72h-122zM388 526l-21 -138h76q44 0 73 21t29 59q0 58 -74 58h-83z" />
    <glyph glyph-name="liralow.mono" 
d="M200 269h-78l10 63h78l3 16q28 181 265 181q77 0 137 -19l-26 -157q-45 17 -91 17q-71 0 -85 -38h121l-10 -63h-123l-5 -29h124l-10 -63h-125q-9 -31 -32 -40h223l-21 -137h-475l21 137h22q56 0 63 40h-78l10 63h78z" />
    <glyph glyph-name="franclow.mono" 
d="M311 0h-201l7 49h-60l10 63h60l64 404h452l-25 -159h-251l-9 -61h177l-24 -147h-177l-6 -37h95l-10 -63h-95z" />
    <glyph glyph-name="uniF64E.mono" 
d="M353 246h139l-10 -63h-102q36 -36 105 -36q53 0 105 20l-26 -157q-62 -24 -131 -24q-101 0 -180 50q-77 51 -96 147h-78l10 63h63q0 22 1 28h-59l10 63h62q29 90 108.5 140.5t191.5 50.5q95 0 169 -38l-23 -152q-62 28 -123 28q-64 0 -99 -29h117l-10 -63h-142
q-2 -22 -2 -23v-5z" />
    <glyph glyph-name="pesolow.mono" 
d="M125 269h-82l15 92h81l25 155h267q91 0 147.5 -41.5t60.5 -113.5h74l-15 -92h-72q-24 -64 -83.5 -100.5t-141.5 -36.5h-96l-20 -132h-202zM342 369l-16 -102h48q30 0 48.5 14.5t18.5 40.5q0 20 -13.5 33.5t-35.5 13.5h-50z" />
    <glyph glyph-name="uniF722.mono" 
d="M333 107h129l-9 -63h-130l-6 -44h-202l7 44h-96l10 63h96l5 35h-96l19 120h96l40 254h258q96 0 152.5 -45t56.5 -123q0 -92 -65 -149q-64 -57 -173 -57h-87zM373 375l-18 -113h50q34 0 54 16t20 45q0 23 -14.5 37.5t-39.5 14.5h-52z" />
    <glyph glyph-name="uniF727.mono" 
d="M250 220h-128l10 63h86l-122 233h204l68 -160l122 160h208l-200 -233h89l-10 -63h-128l-4 -29h128l-10 -63h-128l-20 -128h-199l20 128h-128l10 63h128z" />
    <glyph glyph-name="uniF725.mono" 
d="M191 211h-78l15 92h78l7 45q28 181 265 181q77 0 137 -19l-26 -157q-45 17 -91 17q-43 0 -64 -12t-25 -41l-3 -14h142l-15 -92h-142l-2 -16q-8 -45 -36 -58h223l-21 -137h-475l21 137h22q56 0 63 40z" />
    <glyph glyph-name="uniF653.mono" 
d="M611 470l-27 -151q-91 62 -183 62q-35 0 -35 -18q0 -7 14 -13.5t59 -20.5q83 -25 117 -60.5t34 -95.5q0 -75 -51 -121.5t-136 -59.5l-17 -110h-155l18 113q-87 14 -143 49l26 155q86 -62 194 -62q49 0 49 18q0 13 -26 22l-54 17q-72 23 -110.5 57t-38.5 88q0 77 50 124.5
t137 60.5l17 106h155l-18 -110q73 -14 124 -50z" />
    <glyph glyph-name="uniF721.mono" 
d="M301 144q0 -34 87 -34q75 0 153 23l-19 -123q-71 -23 -157 -23q-69 0 -140 22q-40 12 -63.5 39.5t-23.5 64.5q0 38 20 64h-38l9 62h454l-9 -62h-245q-28 -10 -28 -33zM359 521q75 0 140 -23q37 -12 59 -39.5t22 -63.5q0 -38 -20 -60h39l-10 -62h-454l10 62h245
q27 9 27 32q0 29 -88 29q-75 0 -141 -21l19 123q71 23 152 23z" />
    <glyph glyph-name="g.alt" horiz-adv-x="608" 
d="M342 529q92 0 156 -45l148 45l-16 -164l-52 -14q2 -26 2 -29q0 -66 -40 -124q54 -64 54 -148q0 -105 -81 -180q-80 -76 -203 -76q-120 0 -202 74q-80 74 -83 197h192q0 -44 26 -68.5t69 -24.5q36 0 58.5 21t22.5 55q0 32 -23 52q-21 -3 -43 -3q-92 0 -161 57
q-69 58 -69 153q0 93 69 158q70 64 176 64zM335 258q24 0 40.5 19t16.5 46q0 21 -14.5 33.5t-35.5 12.5q-23 0 -39 -18t-16 -45q0 -23 13.5 -35.5t34.5 -12.5z" />
    <glyph glyph-name="uni20B4.mono" 
d="M156 261h-52l14 85h535l-14 -85h-249q-16 -4 -29.5 -18.5t-13.5 -30.5q0 -42 91 -42q40 0 92 9q51 10 83 24l-31 -189q-84 -28 -179 -28q-93 0 -182 33q-50 19 -79.5 56t-29.5 86q0 65 44 100zM138 473h260q12 7 12 23q0 18 -26 27.5t-62 9.5q-88 0 -154 -23l29 184
q62 20 168 20q92 0 177 -36q46 -18 73.5 -54t27.5 -82q0 -43 -17 -69h47l-14 -85h-535z" />
    <glyph glyph-name="Q.alt01" horiz-adv-x="828" 
d="M475 714q163 0 260 -94t97 -246q0 -154 -100 -263l65 -111h-170l-14 24q-84 -38 -172 -38q-163 0 -260 94t-97 246q0 166 113 277q114 111 278 111zM514 195l-94 163h170l18 -33q5 30 5 49q0 59 -39 101q-39 43 -105 43q-74 0 -120 -55q-46 -53 -46 -137q0 -58 39 -102
q39 -42 105 -42q40 0 67 13z" />
    <glyph glyph-name="Q.alt02" horiz-adv-x="816" 
d="M475 714q163 0 260 -94t97 -246q0 -161 -107 -271q-106 -108 -265 -116q46 -9 126 -36q108 -36 159 -36q27 0 41 7l-27 -173q-17 -6 -53 -6q-69 0 -180 38q-105 36 -167 36q-94 0 -150 -32l28 186q31 16 104 26q-120 27 -188 115q-69 89 -69 214q0 166 113 277
q114 111 278 111zM447 182q76 0 121 54t45 138q0 59 -39 101q-39 43 -105 43q-74 0 -120 -55q-46 -53 -46 -137q0 -58 39 -102q39 -42 105 -42z" />
    <glyph glyph-name="gcommaaccent.alt" horiz-adv-x="608" 
d="M342 529q92 0 156 -45l148 45l-16 -164l-52 -14q2 -26 2 -29q0 -66 -40 -124q54 -64 54 -148q0 -105 -81 -180q-80 -76 -203 -76q-120 0 -202 74q-80 74 -83 197h192q0 -44 26 -68.5t69 -24.5q36 0 58.5 21t22.5 55q0 32 -23 52q-21 -3 -43 -3q-92 0 -161 57
q-69 58 -69 153q0 93 69 158q70 64 176 64zM335 258q24 0 40.5 19t16.5 46q0 21 -14.5 33.5t-35.5 12.5q-23 0 -39 -18t-16 -45q0 -23 13.5 -35.5t34.5 -12.5zM279 590l126 231h153l-96 -231h-183z" />
    <glyph glyph-name="gdotaccent.alt" horiz-adv-x="608" 
d="M342 529q92 0 156 -45l148 45l-16 -164l-52 -14q2 -26 2 -29q0 -66 -40 -124q54 -64 54 -148q0 -105 -81 -180q-80 -76 -203 -76q-120 0 -202 74q-80 74 -83 197h192q0 -44 26 -68.5t69 -24.5q36 0 58.5 21t22.5 55q0 32 -23 52q-21 -3 -43 -3q-92 0 -161 57
q-69 58 -69 153q0 93 69 158q70 64 176 64zM335 258q24 0 40.5 19t16.5 46q0 21 -14.5 33.5t-35.5 12.5q-23 0 -39 -18t-16 -45q0 -23 13.5 -35.5t34.5 -12.5zM395 754q42 0 71 -29t29 -70t-29 -70.5t-71 -29.5q-41 0 -71 29.5t-30 70.5t30 70t71 29z" />
    <glyph glyph-name="gbreve.alt" horiz-adv-x="608" 
d="M342 529q92 0 156 -45l148 45l-16 -164l-52 -14q2 -26 2 -29q0 -66 -40 -124q54 -64 54 -148q0 -105 -81 -180q-80 -76 -203 -76q-120 0 -202 74q-80 74 -83 197h192q0 -44 26 -68.5t69 -24.5q36 0 58.5 21t22.5 55q0 32 -23 52q-21 -3 -43 -3q-92 0 -161 57
q-69 58 -69 153q0 93 69 158q70 64 176 64zM335 258q24 0 40.5 19t16.5 46q0 21 -14.5 33.5t-35.5 12.5q-23 0 -39 -18t-16 -45q0 -23 13.5 -35.5t34.5 -12.5zM474 740h131q-17 -87 -73 -135t-134 -48q-72 0 -125 41q-51 40 -51 114q0 2 2 28h132v-4q0 -57 50 -57
q25 0 43 16.5t25 44.5z" />
    <glyph glyph-name="pesolow" horiz-adv-x="672" 
d="M119 269h-82l15 92h81l25 155h267q91 0 147.5 -41.5t60.5 -113.5h74l-15 -92h-72q-24 -64 -83.5 -100.5t-141.5 -36.5h-96l-20 -132h-202zM336 369l-16 -102h48q30 0 48.5 14.5t18.5 40.5q0 20 -13.5 33.5t-35.5 13.5h-50z" />
    <glyph glyph-name="franclow" horiz-adv-x="533" 
d="M264 0h-201l7 49h-60l10 63h60l64 404h452l-25 -159h-251l-9 -61h177l-24 -147h-177l-6 -37h95l-10 -63h-95z" />
    <glyph glyph-name="liralow" horiz-adv-x="567" 
d="M171 269h-78l10 63h78l3 16q28 181 265 181q77 0 137 -19l-26 -157q-45 17 -91 17q-71 0 -85 -38h121l-10 -63h-123l-5 -29h124l-10 -63h-125q-9 -31 -32 -40h223l-21 -137h-475l21 137h22q56 0 63 40h-78l10 63h78z" />
    <glyph glyph-name="gcircumflex.alt" horiz-adv-x="608" 
d="M342 529q92 0 156 -45l148 45l-16 -164l-52 -14q2 -26 2 -29q0 -66 -40 -124q54 -64 54 -148q0 -105 -81 -180q-80 -76 -203 -76q-120 0 -202 74q-80 74 -83 197h192q0 -44 26 -68.5t69 -24.5q36 0 58.5 21t22.5 55q0 32 -23 52q-21 -3 -43 -3q-92 0 -161 57
q-69 58 -69 153q0 93 69 158q70 64 176 64zM335 258q24 0 40.5 19t16.5 46q0 21 -14.5 33.5t-35.5 12.5q-23 0 -39 -18t-16 -45q0 -23 13.5 -35.5t34.5 -12.5zM508 734l104 -158h-169l-45 62l-63 -62h-182l157 158h198z" />
    <glyph glyph-name="abreve.alt" horiz-adv-x="656" 
d="M467 458l10 58h211l-81 -516h-211l8 58q-14 -27 -54 -49t-91 -22q-88 0 -144 68q-55 67 -55 169q0 77 28 143q29 69 90 115q62 47 145 47q53 0 93 -24q40 -22 51 -47zM430 205l16 107q-24 43 -81 43q-39 0 -64.5 -31.5t-25.5 -78.5q0 -39 20 -60.5t53 -21.5q48 0 82 42z
M498 740h131q-17 -87 -73 -135t-134 -48q-72 0 -125 41q-51 40 -51 114q0 2 2 28h132v-4q0 -57 50 -57q25 0 43 16.5t25 44.5z" />
    <glyph glyph-name="aogonek.alt" horiz-adv-x="656" 
d="M467 458l10 58h211l-81 -516q-42 -33 -42 -62q0 -24 33 -24q20 0 35 7l-20 -121q-21 -9 -71 -9q-60 0 -94 25t-34 65q0 65 67 119h-85l8 58q-14 -27 -54 -49t-91 -22q-88 0 -144 68q-55 67 -55 169q0 77 28 143q29 69 90 115q62 47 145 47q53 0 93 -24q40 -22 51 -47z
M430 205l16 107q-24 43 -81 43q-39 0 -64.5 -31.5t-25.5 -78.5q0 -39 20 -60.5t53 -21.5q48 0 82 42z" />
    <glyph glyph-name="amacron.alt" horiz-adv-x="656" 
d="M467 458l10 58h211l-81 -516h-211l8 58q-14 -27 -54 -49t-91 -22q-88 0 -144 68q-55 67 -55 169q0 77 28 143q29 69 90 115q62 47 145 47q53 0 93 -24q40 -22 51 -47zM430 205l16 107q-24 43 -81 43q-39 0 -64.5 -31.5t-25.5 -78.5q0 -39 20 -60.5t53 -21.5q48 0 82 42z
M189 583l22 137h457l-22 -137h-457z" />
    <glyph glyph-name="aring.alt" horiz-adv-x="656" 
d="M308 654q0 45 32.5 77t77.5 32t76.5 -32t31.5 -77t-31.5 -77t-76.5 -32q-44 0 -78 32q-32 34 -32 77zM418 613q16 0 28.5 12.5t12.5 28.5q0 17 -12 29.5t-29 12.5t-29.5 -12.5t-12.5 -29.5q0 -16 12.5 -28.5t29.5 -12.5zM467 458l10 58h211l-81 -516h-211l8 58
q-14 -27 -54 -49t-91 -22q-88 0 -144 68q-55 67 -55 169q0 77 28 143q29 69 90 115q62 47 145 47q53 0 93 -24q40 -22 51 -47zM430 205l16 107q-24 43 -81 43q-39 0 -64.5 -31.5t-25.5 -78.5q0 -39 20 -60.5t53 -21.5q48 0 82 42z" />
    <glyph glyph-name="atilde.alt" horiz-adv-x="656" 
d="M467 458l10 58h211l-81 -516h-211l8 58q-14 -27 -54 -49t-91 -22q-88 0 -144 68q-55 67 -55 169q0 77 28 143q29 69 90 115q62 47 145 47q53 0 93 -24q40 -22 51 -47zM430 205l16 107q-24 43 -81 43q-39 0 -64.5 -31.5t-25.5 -78.5q0 -39 20 -60.5t53 -21.5q48 0 82 42z
M554 738h104q-13 -81 -57.5 -126.5t-108.5 -45.5q-33 0 -69 17q-34 17 -52 17q-35 0 -50 -31h-103q25 172 165 172q34 0 67 -16t55 -16q35 0 49 29z" />
    <glyph glyph-name="a.alt" horiz-adv-x="656" 
d="M467 458l10 58h211l-81 -516h-211l8 58q-14 -27 -54 -49t-91 -22q-88 0 -144 68q-55 67 -55 169q0 77 28 143q29 69 90 115q62 47 145 47q53 0 93 -24q40 -22 51 -47zM430 205l16 107q-24 43 -81 43q-39 0 -64.5 -31.5t-25.5 -78.5q0 -39 20 -60.5t53 -21.5q48 0 82 42z
" />
    <glyph glyph-name="Idieresis_Idieresis" horiz-adv-x="642" 
d="M272 0h-215l111 700h215zM482 700h215l-111 -700h-215zM355 840q0 40 29 69t70 29t70 -29q30 -29 30 -69q0 -41 -29.5 -70t-70.5 -29t-70 29t-29 70zM180 741q-41 0 -70 29t-29 70q0 40 29 69t70 29q42 0 70.5 -28.5t28.5 -69.5t-28.5 -70t-70.5 -29zM729 741
q-42 0 -70.5 29t-28.5 70t28.5 69.5t70.5 28.5q41 0 70 -29t29 -69q0 -41 -29 -70t-70 -29z" />
    <glyph glyph-name="O_C" horiz-adv-x="1188" 
d="M830 330q0 -66 45.5 -107t122.5 -41q111 0 190 53l-34 -211q-96 -38 -177 -38q-174 0 -271 103q-107 -103 -265 -103q-163 0 -260 94t-97 246q0 166 113 277q114 111 278 111q170 0 263 -103q110 103 293 103q113 0 212 -38l-35 -199q-77 41 -178 41q-93 0 -146.5 -50.5
t-53.5 -137.5zM447 182q76 0 121 54t45 138q0 59 -39 101q-39 43 -105 43q-74 0 -120 -55q-46 -53 -46 -137q0 -58 39 -102q39 -42 105 -42z" />
    <glyph glyph-name="O_O" horiz-adv-x="1343" 
d="M475 714q169 0 263 -103q106 103 264 103q163 0 260 -94t97 -246q0 -166 -113 -277q-112 -111 -278 -111q-169 0 -263 103q-106 -103 -264 -103q-163 0 -260 94t-97 246q0 166 113 277q114 111 278 111zM447 182q76 0 121 54t45 138q0 59 -39 101q-39 43 -105 43
q-74 0 -120 -55q-46 -53 -46 -137q0 -58 39 -102q39 -42 105 -42zM974 182q76 0 121 54t45 138q0 59 -39 101q-39 43 -105 43q-74 0 -120 -55q-46 -53 -46 -137q0 -58 39 -102q39 -42 105 -42z" />
    <glyph glyph-name="o_c" horiz-adv-x="885" 
d="M722 -13q-114 0 -194 78q-86 -78 -192 -78q-116 0 -196 73q-80 74 -80 190q0 111 84 195q86 84 205 84t201 -82q88 82 208 82q87 0 161 -38l-28 -169q-96 45 -171.5 22t-75.5 -92q0 -35 23 -56q36 -31 101 -31q56 0 108 20l-28 -174q-62 -24 -126 -24zM345 165
q40 0 67.5 30.5t27.5 76.5q0 37 -23 58t-59 21q-40 0 -67 -30t-27 -76q0 -37 23 -58.5t58 -21.5z" />
    <glyph glyph-name="o_o" horiz-adv-x="1007" 
d="M747 529q117 0 196 -73q81 -72 81 -188q0 -113 -84 -197q-82 -84 -204 -84q-118 0 -201 84q-86 -84 -199 -84q-116 0 -196 73q-80 74 -80 190q0 110 83 195q84 84 204 84q119 0 202 -84q85 84 198 84zM345 165q40 0 67.5 30.5t27.5 76.5q0 37 -23 58t-59 21
q-40 0 -67 -30t-27 -76q0 -37 23 -58.5t58 -21.5zM725 165q40 0 67.5 30.5t27.5 76.5q0 37 -23 58t-59 21q-40 0 -67 -30t-27 -76q0 -37 23 -58.5t58 -21.5z" />
    <glyph glyph-name="f.alt02" horiz-adv-x="466" 
d="M356 351l-88 -551h-211l88 551h-81l26 165h81l3 19q13 84 73 131.5t161 47.5q84 0 144 -22l-22 -139q-39 13 -78 13q-62 0 -70 -50h142l-26 -165h-142z" />
    <glyph glyph-name="adieresis.alt" horiz-adv-x="656" 
d="M467 458l10 58h211l-81 -516h-211l8 58q-14 -27 -54 -49t-91 -22q-88 0 -144 68q-55 67 -55 169q0 77 28 143q29 69 90 115q62 47 145 47q53 0 93 -24q40 -22 51 -47zM430 205l16 107q-24 43 -81 43q-39 0 -64.5 -31.5t-25.5 -78.5q0 -39 20 -60.5t53 -21.5q48 0 82 42z
M483 584q-29 30 -29 71t29 70q30 29 71 29t70 -29q30 -29 30 -70t-30 -71q-29 -29 -70 -29t-71 29zM317 754q43 0 71.5 -29t28.5 -70q0 -42 -29 -71t-71 -29q-41 0 -70.5 29.5t-29.5 70.5t29.5 70t70.5 29z" />
    <glyph glyph-name="acircumflex.alt" horiz-adv-x="656" 
d="M467 458l10 58h211l-81 -516h-211l8 58q-14 -27 -54 -49t-91 -22q-88 0 -144 68q-55 67 -55 169q0 77 28 143q29 69 90 115q62 47 145 47q53 0 93 -24q40 -22 51 -47zM430 205l16 107q-24 43 -81 43q-39 0 -64.5 -31.5t-25.5 -78.5q0 -39 20 -60.5t53 -21.5q48 0 82 42z
M532 734l104 -158h-169l-45 62l-63 -62h-182l157 158h198z" />
    <glyph glyph-name="agrave.alt" horiz-adv-x="656" 
d="M467 458l10 58h211l-81 -516h-211l8 58q-14 -27 -54 -49t-91 -22q-88 0 -144 68q-55 67 -55 169q0 77 28 143q29 69 90 115q62 47 145 47q53 0 93 -24q40 -22 51 -47zM430 205l16 107q-24 43 -81 43q-39 0 -64.5 -31.5t-25.5 -78.5q0 -39 20 -60.5t53 -21.5q48 0 82 42z
M223 734h248l70 -158h-174z" />
    <glyph glyph-name="aacute.alt" horiz-adv-x="656" 
d="M467 458l10 58h211l-81 -516h-211l8 58q-14 -27 -54 -49t-91 -22q-88 0 -144 68q-55 67 -55 169q0 77 28 143q29 69 90 115q62 47 145 47q53 0 93 -24q40 -22 51 -47zM430 205l16 107q-24 43 -81 43q-39 0 -64.5 -31.5t-25.5 -78.5q0 -39 20 -60.5t53 -21.5q48 0 82 42z
M283 576l120 158h248l-195 -158h-173z" />
    <glyph glyph-name="H_B" horiz-adv-x="1132" 
d="M1042 389q39 -12 74 -54q35 -41 35 -106q0 -104 -79 -167q-79 -62 -197 -62h-392l44 276h-215l-44 -276h-214l110 700h215l-38 -237h215l38 237h331q95 0 152 -40.5t57 -116.5q0 -48 -24 -89t-68 -65zM724 173h114q33 0 54 17t21 46q0 24 -18 38.5t-48 14.5h-104z
M884 533h-103l-15 -94h111q28 0 43.5 14t15.5 39q0 19 -14.5 30t-37.5 11z" />
    <glyph glyph-name="H_D" horiz-adv-x="1206" 
d="M594 700h274q160 0 257 -91q97 -90 97 -234q0 -162 -115 -268q-116 -107 -294 -107h-330l44 276h-215l-44 -276h-214l110 700h215l-38 -237h215zM781 515l-53 -330h94q86 0 135 51.5t49 134.5q0 61 -41 102q-41 42 -108 42h-76z" />
    <glyph glyph-name="H_E" horiz-adv-x="1079" 
d="M268 0h-214l110 700h215l-38 -237h215l38 237h549l-29 -185h-334l-10 -62h262l-27 -170h-262l-16 -98h340l-29 -185h-555l44 276h-215z" />
    <glyph glyph-name="H_F" horiz-adv-x="1061" 
d="M698 0h-215l44 276h-215l-44 -276h-214l110 700h215l-38 -237h215l38 237h550l-29 -185h-335l-11 -69h241l-27 -170h-241z" />
    <glyph glyph-name="H_K" horiz-adv-x="1177" 
d="M699 0h-216l44 276h-215l-44 -276h-214l110 700h215l-38 -237h215l38 237h214l-40 -258l216 258h265l-288 -337l230 -363h-255l-190 299z" />
    <glyph glyph-name="H_M" horiz-adv-x="1274" 
d="M697 0h-214l44 276h-215l-44 -276h-214l110 700h215l-38 -237h215l38 237h217l113 -249l194 249h214l-111 -700h-206l62 392l-125 -167h-116l-77 167z" />
    <glyph glyph-name="H_N" horiz-adv-x="1194" 
d="M1142 0h-175l-215 347l-55 -347h-214l44 276h-215l-44 -276h-214l110 700h215l-38 -237h215l38 237h185l210 -346l54 346h209z" />
    <glyph glyph-name="H_U" horiz-adv-x="1174" 
d="M956 284l67 416h216l-68 -428q-23 -139 -119 -212q-98 -74 -228 -74q-77 0 -143 27q-69 28 -111.5 90t-42.5 143q0 23 1 30h-216l-44 -276h-214l110 700h215l-38 -237h215l38 237h216l-65 -405q-2 -22 -2 -23q0 -44 26.5 -67t70.5 -23q45 0 76 25t40 77z" />
    <glyph glyph-name="H_P" horiz-adv-x="1075" 
d="M594 700h308q111 0 176 -56t65 -144q0 -112 -81 -184t-208 -72h-118l-38 -244h-215l44 276h-215l-44 -276h-214l110 700h215l-38 -237h215zM782 525l-20 -125h71q42 0 68 18t26 54q0 53 -68 53h-77z" />
    <glyph glyph-name="H_R" horiz-adv-x="1150" 
d="M998 275l178 -275h-242l-159 250h-38l-39 -250h-215l44 276h-215l-44 -276h-214l110 700h215l-38 -237h215l38 237h316q110 0 175 -60t65 -150q0 -71 -41 -128t-111 -87zM781 520l-17 -113h97q36 0 57 16t21 45q0 24 -17.5 38t-47.5 14h-93z" />
    <glyph glyph-name="N_D" horiz-adv-x="1221" 
d="M828 0h-295l-215 348l-54 -348h-210l110 700h181l209 -346l55 346h274q160 0 257 -91q97 -90 97 -234q0 -162 -115 -268q-116 -107 -294 -107zM796 515l-53 -330h94q86 0 135 51.5t49 134.5q0 61 -41 102q-40 42 -108 42h-76z" />
    <glyph glyph-name="N_B" horiz-adv-x="1147" 
d="M890 0h-357l-215 348l-54 -348h-210l110 700h181l210 -346l54 346h331q95 0 152 -40.5t57 -116.5q0 -48 -24 -89t-68 -65q39 -12 74 -54q35 -41 35 -106q0 -104 -79 -167q-79 -62 -197 -62zM740 173h113q33 0 54 17t21 46q0 24 -18 38.5t-48 14.5h-103zM899 533h-102
l-14 -94h109q28 0 43.5 14t15.5 39q0 19 -14.5 30t-37.5 11z" />
    <glyph glyph-name="M_P" horiz-adv-x="1171" 
d="M683 700h315q111 0 176 -56t65 -144q0 -112 -81 -184t-208 -72h-118l-38 -244h-214l61 391l-124 -166h-116l-77 167l-62 -392h-208l111 700h211l113 -249zM878 525l-20 -125h71q42 0 68 18t26 54q0 53 -68 53h-77z" />
    <glyph glyph-name="M_R" horiz-adv-x="1246" 
d="M1094 275l178 -275h-242l-159 250h-38l-39 -250h-214l61 391l-124 -166h-116l-77 167l-62 -392h-208l111 700h211l113 -249l194 249h323q110 0 175 -60t65 -150q0 -71 -41 -128t-111 -87zM877 520l-17 -113h97q36 0 57 16t21 45q0 24 -17.5 38t-47.5 14h-93z" />
    <glyph glyph-name="M_H" horiz-adv-x="1276" 
d="M262 0h-208l111 700h211l113 -249l194 249h222l-38 -237h215l38 237h214l-111 -700h-214l44 276h-215l-44 -276h-214l61 391l-124 -166h-116l-77 167z" />
    <glyph glyph-name="M_U" horiz-adv-x="1270" 
d="M1052 284l67 416h216l-68 -428q-23 -139 -119 -212q-98 -74 -228 -74q-77 0 -143 27q-69 28 -111.5 90t-42.5 143q0 21 5 59l13 86l-124 -166h-116l-77 167l-62 -392h-208l111 700h211l113 -249l194 249h223l-65 -405q-2 -22 -2 -23q0 -44 26.5 -67t70.5 -23q45 0 76 25
t40 77z" />
    <glyph glyph-name="N_P" horiz-adv-x="1090" 
d="M713 0h-180l-215 348l-54 -348h-210l110 700h181l210 -346l54 346h308q111 0 176 -56t65 -144q0 -112 -81 -184t-208 -72h-118zM797 525l-20 -125h71q42 0 68 18t26 54q0 53 -68 53h-77z" />
    <glyph glyph-name="N_R" horiz-adv-x="1165" 
d="M1013 275l178 -275h-242l-159 250h-38l-39 -250h-180l-215 348l-54 -348h-210l110 700h181l209 -346l55 346h316q111 0 175 -60q65 -60 65 -150q0 -71 -41 -128t-111 -87zM796 520l-17 -113h97q36 0 57 16t21 45q0 24 -17.5 38t-47.5 14h-93z" />
    <glyph glyph-name="N_N" horiz-adv-x="1205" 
d="M709 0h-176l-215 348l-54 -348h-210l110 700h181l210 -346l54 346h181l210 -346l54 346h209l-110 -700h-175l-215 348z" />
    <glyph glyph-name="U_P" horiz-adv-x="1063" 
d="M582 700h308q111 0 176 -56t65 -144q0 -112 -81 -184t-208 -72h-118q-28 -124 -123 -192q-94 -66 -218 -66q-77 0 -143 27q-69 28 -111.5 90t-42.5 143q0 21 5 59l62 395h216l-65 -405q-2 -22 -2 -23q0 -44 26.5 -67t70.5 -23q45 0 76 25t40 77zM847 525h-77l-20 -125h71
q42 0 68 18t26 54q0 53 -68 53z" />
    <glyph glyph-name="U_R" horiz-adv-x="1138" 
d="M986 275l178 -275h-242l-159 250h-37q-29 -129 -123 -196q-95 -68 -220 -68q-77 0 -143 27q-69 28 -111.5 90t-42.5 143q0 21 5 59l62 395h216l-65 -405q-2 -22 -2 -23q0 -44 26.5 -67t70.5 -23q45 0 76 25t40 77l67 416h316q110 0 175 -60t65 -150q0 -71 -41 -128
t-111 -87zM862 520h-93l-18 -113h98q36 0 57 16t21 45q0 24 -17.5 38t-47.5 14z" />
    <glyph glyph-name="U_F" horiz-adv-x="1049" 
d="M515 284l67 416h550l-29 -185h-335l-11 -69h241l-27 -170h-241v-4q-23 -139 -119 -212q-98 -74 -228 -74q-77 0 -143 27q-69 28 -111.5 90t-42.5 143q0 21 5 59l62 395h216l-65 -405q-2 -22 -2 -23q0 -44 26.5 -67t70.5 -23q45 0 76 25t40 77z" />
    <glyph glyph-name="U_H" horiz-adv-x="1168" 
d="M515 284l67 416h216l-38 -237h214l38 237h214l-111 -700h-214l44 276h-215v-4q-23 -139 -119 -212q-98 -74 -228 -74q-77 0 -143 27q-69 28 -111.5 90t-42.5 143q0 21 5 59l62 395h216l-65 -405q-2 -22 -2 -23q0 -44 26.5 -67t70.5 -23q45 0 76 25t40 77z" />
    <glyph glyph-name="U_K" horiz-adv-x="1165" 
d="M515 284l67 416h216l-41 -257l215 257h265l-288 -337l230 -363h-255l-190 298l-4 -26q-23 -139 -119 -212q-98 -74 -228 -74q-77 0 -143 27q-69 28 -111.5 90t-42.5 143q0 21 5 59l62 395h216l-65 -405q-2 -22 -2 -23q0 -44 26.5 -67t70.5 -23q45 0 76 25t40 77z" />
    <glyph glyph-name="U_M" horiz-adv-x="1264" 
d="M515 284l67 416h219l113 -249l194 249h214l-111 -700h-206l62 392l-125 -167h-116l-77 167l-19 -120q-23 -139 -119 -212q-98 -74 -228 -74q-77 0 -143 27q-69 28 -111.5 90t-42.5 143q0 21 5 59l62 395h216l-65 -405q-2 -22 -2 -23q0 -44 26.5 -67t70.5 -23q45 0 76 25
t40 77z" />
    <glyph glyph-name="M_B" horiz-adv-x="1228" 
d="M1138 389q39 -12 74 -54q35 -41 35 -106q0 -104 -79 -167q-79 -62 -197 -62h-391l61 391l-124 -166h-116l-77 167l-62 -392h-208l111 700h211l113 -249l194 249h338q95 0 152 -40.5t57 -116.5q0 -48 -24 -89t-68 -65zM821 173h113q33 0 54 17t21 46q0 24 -18 38.5
t-48 14.5h-103zM980 533h-102l-14 -94h109q28 0 43.5 14t15.5 39q0 19 -14.5 30t-37.5 11z" />
    <glyph glyph-name="U_N" horiz-adv-x="1184" 
d="M515 284l67 416h187l210 -346l54 346h209l-110 -700h-175l-215 348l-12 -76q-23 -139 -119 -212q-98 -74 -228 -74q-77 0 -143 27q-69 28 -111.5 90t-42.5 143q0 21 5 59l62 395h216l-65 -405q-2 -22 -2 -23q0 -44 26.5 -67t70.5 -23q45 0 76 25t40 77z" />
    <glyph glyph-name="M_E" horiz-adv-x="1176" 
d="M262 0h-208l111 700h211l113 -249l194 249h557l-29 -185h-334l-10 -62h262l-27 -170h-262l-16 -98h340l-29 -185h-555l62 392l-125 -167h-116l-77 167z" />
    <glyph glyph-name="endash.cap" horiz-adv-x="777" 
d="M746 278h-629l29 183h629z" />
    <glyph glyph-name="emdash.cap" horiz-adv-x="893" 
d="M862 278h-745l29 183h745z" />
    <glyph glyph-name="hyphen.cap" horiz-adv-x="485" 
d="M454 278h-337l29 183h337z" />
    <glyph glyph-name="bracketleft.cap" horiz-adv-x="452" 
d="M418 -106h-376l144 912h376l-25 -159h-186l-94 -594h186z" />
    <glyph glyph-name="bracketright.cap" horiz-adv-x="452" 
d="M142 806h376l-144 -912h-375l24 159h186l94 594h-186z" />
    <glyph glyph-name="braceleft.cap" horiz-adv-x="434" 
d="M134 90l10 66q4 20 4 44q0 33 -14 49t-49 20l26 162q45 5 65.5 31t29.5 82l10 66q13 87 76 142q62 54 152 54h100l-24 -159h-56q-22 0 -39.5 -16t-21.5 -38l-19 -124q-15 -96 -113 -119q77 -20 77 -94q0 -1 -2 -25l-16 -99q-5 -33 -5 -34q0 -20 12 -32.5t33 -12.5h56
l-25 -159h-101q-78 0 -123.5 42.5t-45.5 114.5q0 18 3 39z" />
    <glyph glyph-name="braceright.cap" horiz-adv-x="435" 
d="M409 610l-10 -66q-4 -20 -4 -44q0 -33 14 -49t49 -20l-26 -162q-45 -5 -65.5 -31t-29.5 -82l-10 -66q-13 -87 -76 -142q-62 -54 -152 -54h-100l24 159h56q22 0 39.5 16t21.5 38l19 124q15 96 113 119q-77 20 -77 94q0 1 2 25l16 99q5 33 5 34q0 20 -12.5 32.5t-34.5 12.5
h-54l25 159h101q78 0 123.5 -42.5t45.5 -114.5q0 -18 -3 -39z" />
    <glyph glyph-name="guillemotright.cap" horiz-adv-x="635" 
d="M104 579h206l95 -177l-17 -103l-151 -178h-210l196 240zM383 579h206l95 -177l-17 -103l-151 -178h-210l196 240z" />
    <glyph glyph-name="guillemotleft.cap" horiz-adv-x="634" 
d="M639 121h-206l-95 177l17 103l151 178h210l-196 -240zM360 121h-206l-95 177l17 103l151 178h210l-196 -240z" />
    <glyph glyph-name="guilsinglright.cap" horiz-adv-x="356" 
d="M104 579h206l95 -177l-17 -103l-151 -178h-210l196 240z" />
    </font>
</defs>
</svg>
