<svg width="109" height="15" viewBox="0 0 109 15" fill="none" xmlns="http://www.w3.org/2000/svg">
<path d="M8.982 11.768H4.266L3.51 14H0.288L4.86 1.364H8.424L12.996 14H9.738L8.982 11.768ZM8.19 9.392L6.624 4.766L5.076 9.392H8.19ZM17.4655 0.68V14H14.3875V0.68H17.4655ZM29.1641 8.816C29.1641 9.104 29.1461 9.404 29.1101 9.716H22.1441C22.1921 10.34 22.3901 10.82 22.7381 11.156C23.0981 11.48 23.5361 11.642 24.0521 11.642C24.8201 11.642 25.3541 11.318 25.6541 10.67H28.9301C28.7621 11.33 28.4561 11.924 28.0121 12.452C27.5801 12.98 27.0341 13.394 26.3741 13.694C25.7141 13.994 24.9761 14.144 24.1601 14.144C23.1761 14.144 22.3001 13.934 21.5321 13.514C20.7641 13.094 20.1641 12.494 19.7321 11.714C19.3001 10.934 19.0841 10.022 19.0841 8.978C19.0841 7.934 19.2941 7.022 19.7141 6.242C20.1461 5.462 20.7461 4.862 21.5141 4.442C22.2821 4.022 23.1641 3.812 24.1601 3.812C25.1321 3.812 25.9961 4.016 26.7521 4.424C27.5081 4.832 28.0961 5.414 28.5161 6.17C28.9481 6.926 29.1641 7.808 29.1641 8.816ZM26.0141 8.006C26.0141 7.478 25.8341 7.058 25.4741 6.746C25.1141 6.434 24.6641 6.278 24.1241 6.278C23.6081 6.278 23.1701 6.428 22.8101 6.728C22.4621 7.028 22.2461 7.454 22.1621 8.006H26.0141ZM36.7279 14L34.8019 11.21L33.1819 14H29.8519L33.1639 8.87L29.7619 3.956H33.2179L35.1439 6.728L36.7639 3.956H40.0939L36.7279 9.014L40.1839 14H36.7279ZM49.7564 14.126C48.8324 14.126 48.0044 13.976 47.2724 13.676C46.5404 13.376 45.9524 12.932 45.5084 12.344C45.0764 11.756 44.8484 11.048 44.8244 10.22H48.1004C48.1484 10.688 48.3104 11.048 48.5864 11.3C48.8624 11.54 49.2224 11.66 49.6664 11.66C50.1224 11.66 50.4824 11.558 50.7464 11.354C51.0104 11.138 51.1424 10.844 51.1424 10.472C51.1424 10.16 51.0344 9.902 50.8184 9.698C50.6144 9.494 50.3564 9.326 50.0444 9.194C49.7444 9.062 49.3124 8.912 48.7484 8.744C47.9324 8.492 47.2664 8.24 46.7504 7.988C46.2344 7.736 45.7904 7.364 45.4184 6.872C45.0464 6.38 44.8604 5.738 44.8604 4.946C44.8604 3.77 45.2864 2.852 46.1384 2.192C46.9904 1.52 48.1004 1.184 49.4684 1.184C50.8604 1.184 51.9824 1.52 52.8344 2.192C53.6864 2.852 54.1424 3.776 54.2024 4.964H50.8724C50.8484 4.556 50.6984 4.238 50.4224 4.01C50.1464 3.77 49.7924 3.65 49.3604 3.65C48.9884 3.65 48.6884 3.752 48.4604 3.956C48.2324 4.148 48.1184 4.43 48.1184 4.802C48.1184 5.21 48.3104 5.528 48.6944 5.756C49.0784 5.984 49.6784 6.23 50.4944 6.494C51.3104 6.77 51.9704 7.034 52.4744 7.286C52.9904 7.538 53.4344 7.904 53.8064 8.384C54.1784 8.864 54.3644 9.482 54.3644 10.238C54.3644 10.958 54.1784 11.612 53.8064 12.2C53.4464 12.788 52.9184 13.256 52.2224 13.604C51.5264 13.952 50.7044 14.126 49.7564 14.126ZM61.8566 11.39V14H60.2906C59.1746 14 58.3046 13.73 57.6806 13.19C57.0566 12.638 56.7446 11.744 56.7446 10.508V6.512H55.5206V3.956H56.7446V1.508H59.8226V3.956H61.8386V6.512H59.8226V10.544C59.8226 10.844 59.8946 11.06 60.0386 11.192C60.1826 11.324 60.4226 11.39 60.7586 11.39H61.8566ZM66.6491 5.63C67.0091 5.078 67.4591 4.646 67.9991 4.334C68.5391 4.01 69.1391 3.848 69.7991 3.848V7.106H68.9531C68.1851 7.106 67.6091 7.274 67.2251 7.61C66.8411 7.934 66.6491 8.51 66.6491 9.338V14H63.5711V3.956H66.6491V5.63ZM80.7383 8.816C80.7383 9.104 80.7203 9.404 80.6843 9.716H73.7183C73.7663 10.34 73.9643 10.82 74.3123 11.156C74.6723 11.48 75.1103 11.642 75.6263 11.642C76.3943 11.642 76.9283 11.318 77.2283 10.67H80.5043C80.3363 11.33 80.0303 11.924 79.5863 12.452C79.1543 12.98 78.6083 13.394 77.9483 13.694C77.2883 13.994 76.5503 14.144 75.7343 14.144C74.7503 14.144 73.8743 13.934 73.1063 13.514C72.3383 13.094 71.7383 12.494 71.3063 11.714C70.8743 10.934 70.6583 10.022 70.6583 8.978C70.6583 7.934 70.8683 7.022 71.2883 6.242C71.7203 5.462 72.3203 4.862 73.0883 4.442C73.8563 4.022 74.7383 3.812 75.7343 3.812C76.7063 3.812 77.5703 4.016 78.3263 4.424C79.0823 4.832 79.6703 5.414 80.0903 6.17C80.5223 6.926 80.7383 7.808 80.7383 8.816ZM77.5883 8.006C77.5883 7.478 77.4083 7.058 77.0483 6.746C76.6883 6.434 76.2383 6.278 75.6983 6.278C75.1823 6.278 74.7443 6.428 74.3843 6.728C74.0363 7.028 73.8203 7.454 73.7363 8.006H77.5883ZM85.2421 11.462H89.5981V14H81.8041V11.552L85.9801 6.494H81.8401V3.956H89.5081V6.404L85.2421 11.462ZM90.6798 8.96C90.6798 7.928 90.8718 7.022 91.2558 6.242C91.6518 5.462 92.1858 4.862 92.8578 4.442C93.5298 4.022 94.2798 3.812 95.1078 3.812C95.8158 3.812 96.4338 3.956 96.9618 4.244C97.5018 4.532 97.9158 4.91 98.2038 5.378V3.956H101.282V14H98.2038V12.578C97.9038 13.046 97.4838 13.424 96.9438 13.712C96.4158 14 95.7978 14.144 95.0898 14.144C94.2738 14.144 93.5298 13.934 92.8578 13.514C92.1858 13.082 91.6518 12.476 91.2558 11.696C90.8718 10.904 90.6798 9.992 90.6798 8.96ZM98.2038 8.978C98.2038 8.21 97.9878 7.604 97.5558 7.16C97.1358 6.716 96.6198 6.494 96.0078 6.494C95.3958 6.494 94.8738 6.716 94.4418 7.16C94.0218 7.592 93.8118 8.192 93.8118 8.96C93.8118 9.728 94.0218 10.34 94.4418 10.796C94.8738 11.24 95.3958 11.462 96.0078 11.462C96.6198 11.462 97.1358 11.24 97.5558 10.796C97.9878 10.352 98.2038 9.746 98.2038 8.978Z" fill="white"/>
<path d="M105.801 14.192C105.081 14.192 104.489 13.984 104.025 13.568C103.577 13.136 103.353 12.608 103.353 11.984C103.353 11.344 103.577 10.808 104.025 10.376C104.489 9.944 105.081 9.728 105.801 9.728C106.505 9.728 107.081 9.944 107.529 10.376C107.993 10.808 108.225 11.344 108.225 11.984C108.225 12.608 107.993 13.136 107.529 13.568C107.081 13.984 106.505 14.192 105.801 14.192Z" fill="#37DBFF"/>
</svg>
