<svg width="145" height="19" viewBox="0 0 145 19" fill="none" xmlns="http://www.w3.org/2000/svg">
<path d="M11.976 15.524H5.688L4.68 18.5H0.384L6.48 1.652H11.232L17.328 18.5H12.984L11.976 15.524ZM10.92 12.356L8.832 6.188L6.768 12.356H10.92ZM23.2873 0.74V18.5H19.1833V0.74H23.2873ZM38.8854 11.588C38.8854 11.972 38.8614 12.372 38.8134 12.788H29.5254C29.5894 13.62 29.8534 14.26 30.3174 14.708C30.7974 15.14 31.3814 15.356 32.0694 15.356C33.0934 15.356 33.8054 14.924 34.2054 14.06H38.5734C38.3494 14.94 37.9414 15.732 37.3494 16.436C36.7734 17.14 36.0454 17.692 35.1654 18.092C34.2854 18.492 33.3014 18.692 32.2134 18.692C30.9014 18.692 29.7334 18.412 28.7094 17.852C27.6854 17.292 26.8854 16.492 26.3094 15.452C25.7334 14.412 25.4454 13.196 25.4454 11.804C25.4454 10.412 25.7254 9.196 26.2854 8.156C26.8614 7.116 27.6614 6.316 28.6854 5.756C29.7094 5.196 30.8854 4.916 32.2134 4.916C33.5094 4.916 34.6614 5.188 35.6694 5.732C36.6774 6.276 37.4614 7.052 38.0214 8.06C38.5974 9.068 38.8854 10.244 38.8854 11.588ZM34.6854 10.508C34.6854 9.804 34.4454 9.244 33.9654 8.828C33.4854 8.412 32.8854 8.204 32.1654 8.204C31.4774 8.204 30.8934 8.404 30.4134 8.804C29.9494 9.204 29.6614 9.772 29.5494 10.508H34.6854ZM48.9705 18.5L46.4025 14.78L44.2425 18.5H39.8025L44.2185 11.66L39.6825 5.108H44.2905L46.8585 8.804L49.0185 5.108H53.4585L48.9705 11.852L53.5785 18.5H48.9705ZM66.3418 18.668C65.1098 18.668 64.0058 18.468 63.0298 18.068C62.0538 17.668 61.2698 17.076 60.6778 16.292C60.1018 15.508 59.7978 14.564 59.7658 13.46H64.1338C64.1978 14.084 64.4138 14.564 64.7818 14.9C65.1498 15.22 65.6298 15.38 66.2218 15.38C66.8298 15.38 67.3098 15.244 67.6618 14.972C68.0138 14.684 68.1898 14.292 68.1898 13.796C68.1898 13.38 68.0458 13.036 67.7578 12.764C67.4858 12.492 67.1418 12.268 66.7258 12.092C66.3258 11.916 65.7498 11.716 64.9978 11.492C63.9098 11.156 63.0218 10.82 62.3338 10.484C61.6458 10.148 61.0538 9.652 60.5578 8.996C60.0618 8.34 59.8138 7.484 59.8138 6.428C59.8138 4.86 60.3818 3.636 61.5178 2.756C62.6538 1.86 64.1338 1.412 65.9578 1.412C67.8138 1.412 69.3098 1.86 70.4458 2.756C71.5818 3.636 72.1898 4.868 72.2698 6.452H67.8298C67.7978 5.908 67.5978 5.484 67.2298 5.18C66.8618 4.86 66.3898 4.7 65.8138 4.7C65.3178 4.7 64.9178 4.836 64.6138 5.108C64.3098 5.364 64.1578 5.74 64.1578 6.236C64.1578 6.78 64.4138 7.204 64.9258 7.508C65.4378 7.812 66.2378 8.14 67.3258 8.492C68.4138 8.86 69.2938 9.212 69.9658 9.548C70.6538 9.884 71.2458 10.372 71.7418 11.012C72.2378 11.652 72.4858 12.476 72.4858 13.484C72.4858 14.444 72.2378 15.316 71.7418 16.1C71.2618 16.884 70.5578 17.508 69.6298 17.972C68.7018 18.436 67.6058 18.668 66.3418 18.668ZM82.4754 15.02V18.5H80.3874C78.8994 18.5 77.7394 18.14 76.9074 17.42C76.0754 16.684 75.6594 15.492 75.6594 13.844V8.516H74.0274V5.108H75.6594V1.844H79.7634V5.108H82.4514V8.516H79.7634V13.892C79.7634 14.292 79.8594 14.58 80.0514 14.756C80.2434 14.932 80.5634 15.02 81.0114 15.02H82.4754ZM88.8654 7.34C89.3454 6.604 89.9454 6.028 90.6654 5.612C91.3854 5.18 92.1854 4.964 93.0654 4.964V9.308H91.9374C90.9134 9.308 90.1454 9.532 89.6334 9.98C89.1214 10.412 88.8654 11.18 88.8654 12.284V18.5H84.7614V5.108H88.8654V7.34ZM107.651 11.588C107.651 11.972 107.627 12.372 107.579 12.788H98.2911C98.3551 13.62 98.6191 14.26 99.0831 14.708C99.5631 15.14 100.147 15.356 100.835 15.356C101.859 15.356 102.571 14.924 102.971 14.06H107.339C107.115 14.94 106.707 15.732 106.115 16.436C105.539 17.14 104.811 17.692 103.931 18.092C103.051 18.492 102.067 18.692 100.979 18.692C99.6671 18.692 98.4991 18.412 97.4751 17.852C96.4511 17.292 95.6511 16.492 95.0751 15.452C94.4991 14.412 94.2111 13.196 94.2111 11.804C94.2111 10.412 94.4911 9.196 95.0511 8.156C95.6271 7.116 96.4271 6.316 97.4511 5.756C98.4751 5.196 99.6511 4.916 100.979 4.916C102.275 4.916 103.427 5.188 104.435 5.732C105.443 6.276 106.227 7.052 106.787 8.06C107.363 9.068 107.651 10.244 107.651 11.588ZM103.451 10.508C103.451 9.804 103.211 9.244 102.731 8.828C102.251 8.412 101.651 8.204 100.931 8.204C100.243 8.204 99.6591 8.404 99.1791 8.804C98.7151 9.204 98.4271 9.772 98.3151 10.508H103.451ZM113.656 15.116H119.464V18.5H109.072V15.236L114.64 8.492H109.12V5.108H119.344V8.372L113.656 15.116ZM120.906 11.78C120.906 10.404 121.162 9.196 121.674 8.156C122.202 7.116 122.914 6.316 123.81 5.756C124.706 5.196 125.706 4.916 126.81 4.916C127.754 4.916 128.578 5.108 129.282 5.492C130.002 5.876 130.554 6.38 130.938 7.004V5.108H135.042V18.5H130.938V16.604C130.538 17.228 129.978 17.732 129.258 18.116C128.554 18.5 127.73 18.692 126.786 18.692C125.698 18.692 124.706 18.412 123.81 17.852C122.914 17.276 122.202 16.468 121.674 15.428C121.162 14.372 120.906 13.156 120.906 11.78ZM130.938 11.804C130.938 10.78 130.65 9.972 130.074 9.38C129.514 8.788 128.826 8.492 128.01 8.492C127.194 8.492 126.498 8.788 125.922 9.38C125.362 9.956 125.082 10.756 125.082 11.78C125.082 12.804 125.362 13.62 125.922 14.228C126.498 14.82 127.194 15.116 128.01 15.116C128.826 15.116 129.514 14.82 130.074 14.228C130.65 13.636 130.938 12.828 130.938 11.804Z" fill="white"/>
<path d="M141.351 18.772C140.331 18.772 139.493 18.4773 138.835 17.888C138.201 17.276 137.883 16.528 137.883 15.644C137.883 14.7373 138.201 13.978 138.835 13.366C139.493 12.754 140.331 12.448 141.351 12.448C142.349 12.448 143.165 12.754 143.799 13.366C144.457 13.978 144.785 14.7373 144.785 15.644C144.785 16.528 144.457 17.276 143.799 17.888C143.165 18.4773 142.349 18.772 141.351 18.772Z" fill="#37DBFF"/>
</svg>
