<svg width="1440" height="630" viewBox="0 0 1440 630" fill="none" xmlns="http://www.w3.org/2000/svg">
<path d="M991 312C991 305.373 996.373 300 1003 300H1129C1135.63 300 1141 305.373 1141 312V450H991V312Z" fill="#6E00FF"/>
<rect x="1290" width="150" height="150" rx="12" fill="#6E00FF"/>
<circle cx="1365" cy="225" r="75" fill="#37DBFF"/>
<rect x="1140" y="150" width="150" height="150" rx="12" fill="#A561FF"/>
<path d="M1290 312C1290 305.373 1295.37 300 1302 300H1428C1434.63 300 1440 305.373 1440 312V450H1290V312Z" fill="#A561FF"/>
<circle cx="1216" cy="375" r="75" fill="#FF64CB"/>
<rect id="Rectangle" y="450" width="1440" height="180" fill="#6E00FF"/>
<path d="M1141 450H1291V588C1291 594.627 1285.63 600 1279 600H1153C1146.37 600 1141 594.627 1141 588V450Z" fill="white"/>
</svg>
